<?xml version="1.0" encoding="UTF-8" standalone="no"?><svg xmlns="http://www.w3.org/2000/svg" xmlns:xlink="http://www.w3.org/1999/xlink" contentScriptType="application/ecmascript" contentStyleType="text/css" height="187px" preserveAspectRatio="none" style="width:476px;height:187px;" version="1.1" viewBox="0 0 476 187" width="476px" zoomAndPan="magnify"><defs><filter height="300%" id="fmsfgznjy94u5" width="300%" x="-1" y="-1"><feGaussianBlur result="blurOut" stdDeviation="2.0"/><feColorMatrix in="blurOut" result="blurOut2" type="matrix" values="0 0 0 0 0 0 0 0 0 0 0 0 0 0 0 0 0 0 .4 0"/><feOffset dx="4.0" dy="4.0" in="blurOut2" result="blurOut3"/><feBlend in="SourceGraphic" in2="blurOut3" mode="normal"/></filter></defs><g><!--MD5=[1e097a5d10c645aa219950d9637071c0]
class EffectDropdown--><rect fill="#FEFECE" filter="url(#fmsfgznjy94u5)" height="60.8047" id="EffectDropdown" style="stroke: #A80036; stroke-width: 1.5;" width="178" x="6" y="116"/><ellipse cx="42.15" cy="132" fill="#ADD1B2" rx="11" ry="11" style="stroke: #A80036; stroke-width: 1.0;"/><path d="M45.1188,137.6406 Q44.5406,137.9375 43.9,138.0781 Q43.2594,138.2344 42.5563,138.2344 Q40.0563,138.2344 38.7281,136.5938 Q37.4156,134.9375 37.4156,131.8125 Q37.4156,128.6875 38.7281,127.0313 Q40.0563,125.375 42.5563,125.375 Q43.2594,125.375 43.9,125.5313 Q44.5563,125.6875 45.1188,125.9844 L45.1188,128.7031 Q44.4938,128.125 43.9,127.8594 Q43.3063,127.5781 42.6813,127.5781 Q41.3375,127.5781 40.65,128.6563 Q39.9625,129.7188 39.9625,131.8125 Q39.9625,133.9063 40.65,134.9844 Q41.3375,136.0469 42.6813,136.0469 Q43.3063,136.0469 43.9,135.7813 Q44.4938,135.5 45.1188,134.9219 L45.1188,137.6406 Z "/><text fill="#000000" font-family="sans-serif" font-size="12" lengthAdjust="spacingAndGlyphs" textLength="99" x="60.85" y="136.1543">EffectDropdown</text><line style="stroke: #A80036; stroke-width: 1.5;" x1="7" x2="183" y1="148" y2="148"/><line style="stroke: #A80036; stroke-width: 1.5;" x1="7" x2="183" y1="156" y2="156"/><ellipse cx="17" cy="167" fill="#84BE84" rx="3" ry="3" style="stroke: #038048; stroke-width: 1.0;"/><text fill="#000000" font-family="sans-serif" font-size="11" lengthAdjust="spacingAndGlyphs" textLength="152" x="26" y="170.2104">SetEffect(newVal:int) : void</text><!--MD5=[e644022de7dea015dd09463c37421447]
class List`1--><rect fill="#FEFECE" filter="url(#fmsfgznjy94u5)" height="48" id="List`1" style="stroke: #A80036; stroke-width: 1.5;" width="78" x="219" y="122.5"/><ellipse cx="234" cy="138.5" fill="#ADD1B2" rx="11" ry="11" style="stroke: #A80036; stroke-width: 1.0;"/><path d="M236.9688,144.1406 Q236.3906,144.4375 235.75,144.5781 Q235.1094,144.7344 234.4063,144.7344 Q231.9063,144.7344 230.5781,143.0938 Q229.2656,141.4375 229.2656,138.3125 Q229.2656,135.1875 230.5781,133.5313 Q231.9063,131.875 234.4063,131.875 Q235.1094,131.875 235.75,132.0313 Q236.4063,132.1875 236.9688,132.4844 L236.9688,135.2031 Q236.3438,134.625 235.75,134.3594 Q235.1563,134.0781 234.5313,134.0781 Q233.1875,134.0781 232.5,135.1563 Q231.8125,136.2188 231.8125,138.3125 Q231.8125,140.4063 232.5,141.4844 Q233.1875,142.5469 234.5313,142.5469 Q235.1563,142.5469 235.75,142.2813 Q236.3438,142 236.9688,141.4219 L236.9688,144.1406 Z "/><text fill="#000000" font-family="sans-serif" font-size="12" lengthAdjust="spacingAndGlyphs" textLength="35" x="248" y="142.6543">List`1</text><rect fill="#FFFFFF" height="15.9688" style="stroke: #000000; stroke-width: 1.0; stroke-dasharray: 2.0,2.0;" width="9" x="291" y="119.5"/><text fill="#000000" font-family="sans-serif" font-size="12" font-style="italic" lengthAdjust="spacingAndGlyphs" textLength="7" x="292" y="131.6387">T</text><line style="stroke: #A80036; stroke-width: 1.5;" x1="220" x2="296" y1="154.5" y2="154.5"/><line style="stroke: #A80036; stroke-width: 1.5;" x1="220" x2="296" y1="162.5" y2="162.5"/><!--MD5=[83b3cf3d23d77c6f1e1b5291a241bc2a]
class MonoBehaviour--><rect fill="#FEFECE" filter="url(#fmsfgznjy94u5)" height="48" id="MonoBehaviour" style="stroke: #A80036; stroke-width: 1.5;" width="128" x="31" y="8"/><ellipse cx="46" cy="24" fill="#ADD1B2" rx="11" ry="11" style="stroke: #A80036; stroke-width: 1.0;"/><path d="M48.9688,29.6406 Q48.3906,29.9375 47.75,30.0781 Q47.1094,30.2344 46.4063,30.2344 Q43.9063,30.2344 42.5781,28.5938 Q41.2656,26.9375 41.2656,23.8125 Q41.2656,20.6875 42.5781,19.0313 Q43.9063,17.375 46.4063,17.375 Q47.1094,17.375 47.75,17.5313 Q48.4063,17.6875 48.9688,17.9844 L48.9688,20.7031 Q48.3438,20.125 47.75,19.8594 Q47.1563,19.5781 46.5313,19.5781 Q45.1875,19.5781 44.5,20.6563 Q43.8125,21.7188 43.8125,23.8125 Q43.8125,25.9063 44.5,26.9844 Q45.1875,28.0469 46.5313,28.0469 Q47.1563,28.0469 47.75,27.7813 Q48.3438,27.5 48.9688,26.9219 L48.9688,29.6406 Z "/><text fill="#000000" font-family="sans-serif" font-size="12" lengthAdjust="spacingAndGlyphs" textLength="96" x="60" y="28.1543">MonoBehaviour</text><line style="stroke: #A80036; stroke-width: 1.5;" x1="32" x2="158" y1="40" y2="40"/><line style="stroke: #A80036; stroke-width: 1.5;" x1="32" x2="158" y1="48" y2="48"/><!--MD5=[1bf71c318d5fcccfa0e513afb215a962]
reverse link MonoBehaviour to EffectDropdown--><path d="M95,76.11 C95,89.31 95,103.54 95,115.65 " fill="none" id="MonoBehaviour&lt;-EffectDropdown" style="stroke: #A80036; stroke-width: 1.0;"/><polygon fill="none" points="88,76.04,95,56.04,102,76.04,88,76.04" style="stroke: #A80036; stroke-width: 1.0;"/><!--MD5=[0f82dc7be01001b60ad80e0e40487268]
link EffectDropdown to List`1--><path d="M196.14,146.5 C196.14,146.5 202.96,146.5 205.74,146.5 " fill="none" id="EffectDropdown-List`1" style="stroke: #A80036; stroke-width: 1.0;"/><polygon fill="#A80036" points="218.76,146.5,209.76,142.5,213.76,146.5,209.76,150.5,218.76,146.5" style="stroke: #A80036; stroke-width: 1.0;"/><line style="stroke: #A80036; stroke-width: 1.0;" x1="213.76" x2="205.76" y1="146.5" y2="146.5"/><polygon fill="#FFFFFF" points="184.14,146.5,190.14,150.5,196.14,146.5,190.14,142.5,184.14,146.5" style="stroke: #A80036; stroke-width: 1.0;"/><text fill="#000000" font-family="sans-serif" font-size="13" lengthAdjust="spacingAndGlyphs" textLength="159" x="305.319" y="127.5847">effectItems&lt;Transform&gt;</text><!--MD5=[1f48eb418bea0b1953cfacb57fe74411]
@startuml
class EffectDropdown {
    + SetEffect(newVal:int) : void
}
class "List`1"<T> {
}
MonoBehaviour <|- - EffectDropdown
EffectDropdown o-> "effectItems<Transform>" "List`1"
@enduml

PlantUML version 1.2020.02(Sun Mar 01 10:22:07 GMT 2020)
(GPL source distribution)
Java Runtime: OpenJDK Runtime Environment
JVM: OpenJDK 64-Bit Server VM
Java Version: 11.0.9+11-Ubuntu-0ubuntu1
Operating System: Linux
Default Encoding: ANSI_X3.4-1968
Language: en
Country: US
--></g></svg>