<?xml version="1.0" encoding="UTF-8" standalone="no"?><svg xmlns="http://www.w3.org/2000/svg" xmlns:xlink="http://www.w3.org/1999/xlink" contentScriptType="application/ecmascript" contentStyleType="text/css" height="390px" preserveAspectRatio="none" style="width:704px;height:390px;" version="1.1" viewBox="0 0 704 390" width="704px" zoomAndPan="magnify"><defs><filter height="300%" id="fmva3ab2u8p4w" width="300%" x="-1" y="-1"><feGaussianBlur result="blurOut" stdDeviation="2.0"/><feColorMatrix in="blurOut" result="blurOut2" type="matrix" values="0 0 0 0 0 0 0 0 0 0 0 0 0 0 0 0 0 0 .4 0"/><feOffset dx="4.0" dy="4.0" in="blurOut2" result="blurOut3"/><feBlend in="SourceGraphic" in2="blurOut3" mode="normal"/></filter></defs><g><!--MD5=[d9ee3338713418d52dd3a6002ddfc65f]
class ProjectShaderSettingsManager--><rect fill="#FEFECE" filter="url(#fmva3ab2u8p4w)" height="99.2188" id="ProjectShaderSettingsManager" style="stroke: #A80036; stroke-width: 1.5;" width="313" x="195.5" y="160"/><ellipse cx="249.75" cy="176" fill="#ADD1B2" rx="11" ry="11" style="stroke: #A80036; stroke-width: 1.0;"/><path d="M252.7188,181.6406 Q252.1406,181.9375 251.5,182.0781 Q250.8594,182.2344 250.1563,182.2344 Q247.6563,182.2344 246.3281,180.5938 Q245.0156,178.9375 245.0156,175.8125 Q245.0156,172.6875 246.3281,171.0313 Q247.6563,169.375 250.1563,169.375 Q250.8594,169.375 251.5,169.5313 Q252.1563,169.6875 252.7188,169.9844 L252.7188,172.7031 Q252.0938,172.125 251.5,171.8594 Q250.9063,171.5781 250.2813,171.5781 Q248.9375,171.5781 248.25,172.6563 Q247.5625,173.7188 247.5625,175.8125 Q247.5625,177.9063 248.25,178.9844 Q248.9375,180.0469 250.2813,180.0469 Q250.9063,180.0469 251.5,179.7813 Q252.0938,179.5 252.7188,178.9219 L252.7188,181.6406 Z "/><text fill="#000000" font-family="sans-serif" font-size="12" lengthAdjust="spacingAndGlyphs" textLength="196" x="270.25" y="180.1543">ProjectShaderSettingsManager</text><line style="stroke: #A80036; stroke-width: 1.5;" x1="196.5" x2="507.5" y1="192" y2="192"/><line style="stroke: #A80036; stroke-width: 1.5;" x1="196.5" x2="507.5" y1="200" y2="200"/><ellipse cx="206.5" cy="211" fill="#84BE84" rx="3" ry="3" style="stroke: #038048; stroke-width: 1.0;"/><text fill="#000000" font-family="sans-serif" font-size="11" lengthAdjust="spacingAndGlyphs" textLength="287" x="215.5" y="214.2104">SetSetting(id:int, setting:ShaderSetting&lt;T&gt;) : void</text><ellipse cx="206.5" cy="223.8047" fill="#84BE84" rx="3" ry="3" style="stroke: #038048; stroke-width: 1.0;"/><text fill="#000000" font-family="sans-serif" font-size="11" lengthAdjust="spacingAndGlyphs" textLength="220" x="215.5" y="227.0151">GetSetting(id:int) : ShaderSetting&lt;T&gt;?</text><ellipse cx="206.5" cy="236.6094" fill="#84BE84" rx="3" ry="3" style="stroke: #038048; stroke-width: 1.0;"/><text fill="#000000" font-family="sans-serif" font-size="11" lengthAdjust="spacingAndGlyphs" textLength="161" x="215.5" y="239.8198">SerializeAllSettings() : string</text><ellipse cx="206.5" cy="249.4141" fill="#84BE84" rx="3" ry="3" style="stroke: #038048; stroke-width: 1.0;"/><text fill="#000000" font-family="sans-serif" font-size="11" lengthAdjust="spacingAndGlyphs" textLength="226" x="215.5" y="252.6245">DeserializeAllSettings(json:string) : void</text><!--MD5=[875cf4eb9fc220086fc794cc2163b5d4]
class IShaderSettingDeserializer--><rect fill="#FEFECE" filter="url(#fmva3ab2u8p4w)" height="60.8047" id="IShaderSettingDeserializer" style="stroke: #A80036; stroke-width: 1.5;" width="346" x="6" y="319"/><ellipse cx="91.75" cy="335" fill="#B4A7E5" rx="11" ry="11" style="stroke: #A80036; stroke-width: 1.0;"/><path d="M87.6719,330.7656 L87.6719,328.6094 L95.0625,328.6094 L95.0625,330.7656 L92.5938,330.7656 L92.5938,338.8438 L95.0625,338.8438 L95.0625,341 L87.6719,341 L87.6719,338.8438 L90.1406,338.8438 L90.1406,330.7656 L87.6719,330.7656 Z "/><text fill="#000000" font-family="sans-serif" font-size="12" font-style="italic" lengthAdjust="spacingAndGlyphs" textLength="166" x="112.25" y="339.1543">IShaderSettingDeserializer</text><line style="stroke: #A80036; stroke-width: 1.5;" x1="7" x2="351" y1="351" y2="351"/><line style="stroke: #A80036; stroke-width: 1.5;" x1="7" x2="351" y1="359" y2="359"/><ellipse cx="17" cy="370" fill="#84BE84" rx="3" ry="3" style="stroke: #038048; stroke-width: 1.0;"/><text fill="#000000" font-family="sans-serif" font-size="11" lengthAdjust="spacingAndGlyphs" textLength="320" x="26" y="373.2104">DeSerialize(serializedSetting:string) : ShaderSetting&lt;T&gt;</text><!--MD5=[5fefe96484ca6bbb4a29933ab69b641e]
class IShaderSettingSerializer--><rect fill="#FEFECE" filter="url(#fmva3ab2u8p4w)" height="60.8047" id="IShaderSettingSerializer" style="stroke: #A80036; stroke-width: 1.5;" width="276" x="387" y="319"/><ellipse cx="445.25" cy="335" fill="#B4A7E5" rx="11" ry="11" style="stroke: #A80036; stroke-width: 1.0;"/><path d="M441.1719,330.7656 L441.1719,328.6094 L448.5625,328.6094 L448.5625,330.7656 L446.0938,330.7656 L446.0938,338.8438 L448.5625,338.8438 L448.5625,341 L441.1719,341 L441.1719,338.8438 L443.6406,338.8438 L443.6406,330.7656 L441.1719,330.7656 Z "/><text fill="#000000" font-family="sans-serif" font-size="12" font-style="italic" lengthAdjust="spacingAndGlyphs" textLength="151" x="465.75" y="339.1543">IShaderSettingSerializer</text><line style="stroke: #A80036; stroke-width: 1.5;" x1="388" x2="662" y1="351" y2="351"/><line style="stroke: #A80036; stroke-width: 1.5;" x1="388" x2="662" y1="359" y2="359"/><ellipse cx="398" cy="370" fill="#84BE84" rx="3" ry="3" style="stroke: #038048; stroke-width: 1.0;"/><text fill="#000000" font-family="sans-serif" font-size="11" lengthAdjust="spacingAndGlyphs" textLength="250" x="407" y="373.2104">Serialize(setting:ShaderSetting&lt;T&gt;) : string</text><!--MD5=[0565f1810c84a113730d0f49d97131eb]
class ShaderSetting`1--><rect fill="#FEFECE" filter="url(#fmva3ab2u8p4w)" height="92.3516" id="ShaderSetting`1" style="stroke: #A80036; stroke-width: 1.5;" width="233" x="451.5" y="8"/><ellipse cx="506.25" cy="26.9688" fill="#ADD1B2" rx="11" ry="11" style="stroke: #A80036; stroke-width: 1.0;"/><path d="M509.2188,32.6094 Q508.6406,32.9063 508,33.0469 Q507.3594,33.2031 506.6563,33.2031 Q504.1563,33.2031 502.8281,31.5625 Q501.5156,29.9063 501.5156,26.7813 Q501.5156,23.6563 502.8281,22 Q504.1563,20.3438 506.6563,20.3438 Q507.3594,20.3438 508,20.5 Q508.6563,20.6563 509.2188,20.9531 L509.2188,23.6719 Q508.5938,23.0938 508,22.8281 Q507.4063,22.5469 506.7813,22.5469 Q505.4375,22.5469 504.75,23.625 Q504.0625,24.6875 504.0625,26.7813 Q504.0625,28.875 504.75,29.9531 Q505.4375,31.0156 506.7813,31.0156 Q507.4063,31.0156 508,30.75 Q508.5938,30.4688 509.2188,29.8906 L509.2188,32.6094 Z "/><text fill="#000000" font-family="sans-serif" font-size="12" font-style="italic" lengthAdjust="spacingAndGlyphs" textLength="50" x="553.75" y="24.1387">«struct»</text><text fill="#000000" font-family="sans-serif" font-size="12" lengthAdjust="spacingAndGlyphs" textLength="104" x="526.75" y="38.1074">ShaderSetting`1</text><rect fill="#FFFFFF" height="15.9688" style="stroke: #000000; stroke-width: 1.0; stroke-dasharray: 2.0,2.0;" width="9" x="678.5" y="5"/><text fill="#000000" font-family="sans-serif" font-size="12" font-style="italic" lengthAdjust="spacingAndGlyphs" textLength="7" x="679.5" y="17.1387">T</text><line style="stroke: #A80036; stroke-width: 1.5;" x1="452.5" x2="683.5" y1="45.9375" y2="45.9375"/><ellipse cx="462.5" cy="56.9375" fill="none" rx="3" ry="3" style="stroke: #038048; stroke-width: 1.0;"/><text fill="#000000" font-family="sans-serif" font-size="11" lengthAdjust="spacingAndGlyphs" textLength="77" x="471.5" y="60.1479">name : string</text><ellipse cx="462.5" cy="69.7422" fill="none" rx="3" ry="3" style="stroke: #038048; stroke-width: 1.0;"/><text fill="#000000" font-family="sans-serif" font-size="11" lengthAdjust="spacingAndGlyphs" textLength="49" x="471.5" y="72.9526">value : T</text><line style="stroke: #A80036; stroke-width: 1.5;" x1="452.5" x2="683.5" y1="79.5469" y2="79.5469"/><ellipse cx="462.5" cy="90.5469" fill="#84BE84" rx="3" ry="3" style="stroke: #038048; stroke-width: 1.0;"/><text fill="#000000" font-family="sans-serif" font-size="11" lengthAdjust="spacingAndGlyphs" textLength="207" x="471.5" y="93.7573">ShaderSetting(name:string, value:T)</text><!--MD5=[2e1ff885372daab8d802f213ced6c836]
class Dictionary`2--><rect fill="#FEFECE" filter="url(#fmva3ab2u8p4w)" height="48" id="Dictionary`2" style="stroke: #A80036; stroke-width: 1.5;" width="146" x="544" y="185.5"/><ellipse cx="559" cy="201.5" fill="#ADD1B2" rx="11" ry="11" style="stroke: #A80036; stroke-width: 1.0;"/><path d="M561.9688,207.1406 Q561.3906,207.4375 560.75,207.5781 Q560.1094,207.7344 559.4063,207.7344 Q556.9063,207.7344 555.5781,206.0938 Q554.2656,204.4375 554.2656,201.3125 Q554.2656,198.1875 555.5781,196.5313 Q556.9063,194.875 559.4063,194.875 Q560.1094,194.875 560.75,195.0313 Q561.4063,195.1875 561.9688,195.4844 L561.9688,198.2031 Q561.3438,197.625 560.75,197.3594 Q560.1563,197.0781 559.5313,197.0781 Q558.1875,197.0781 557.5,198.1563 Q556.8125,199.2188 556.8125,201.3125 Q556.8125,203.4063 557.5,204.4844 Q558.1875,205.5469 559.5313,205.5469 Q560.1563,205.5469 560.75,205.2813 Q561.3438,205 561.9688,204.4219 L561.9688,207.1406 Z "/><text fill="#000000" font-family="sans-serif" font-size="12" lengthAdjust="spacingAndGlyphs" textLength="76" x="573" y="205.6543">Dictionary`2</text><rect fill="#FFFFFF" height="15.9688" style="stroke: #000000; stroke-width: 1.0; stroke-dasharray: 2.0,2.0;" width="36" x="657" y="182.5"/><text fill="#000000" font-family="sans-serif" font-size="12" font-style="italic" lengthAdjust="spacingAndGlyphs" textLength="34" x="658" y="194.6387">T1,T2</text><line style="stroke: #A80036; stroke-width: 1.5;" x1="545" x2="689" y1="217.5" y2="217.5"/><line style="stroke: #A80036; stroke-width: 1.5;" x1="545" x2="689" y1="225.5" y2="225.5"/><!--MD5=[83b3cf3d23d77c6f1e1b5291a241bc2a]
class MonoBehaviour--><rect fill="#FEFECE" filter="url(#fmva3ab2u8p4w)" height="48" id="MonoBehaviour" style="stroke: #A80036; stroke-width: 1.5;" width="128" x="288" y="30"/><ellipse cx="303" cy="46" fill="#ADD1B2" rx="11" ry="11" style="stroke: #A80036; stroke-width: 1.0;"/><path d="M305.9688,51.6406 Q305.3906,51.9375 304.75,52.0781 Q304.1094,52.2344 303.4063,52.2344 Q300.9063,52.2344 299.5781,50.5938 Q298.2656,48.9375 298.2656,45.8125 Q298.2656,42.6875 299.5781,41.0313 Q300.9063,39.375 303.4063,39.375 Q304.1094,39.375 304.75,39.5313 Q305.4063,39.6875 305.9688,39.9844 L305.9688,42.7031 Q305.3438,42.125 304.75,41.8594 Q304.1563,41.5781 303.5313,41.5781 Q302.1875,41.5781 301.5,42.6563 Q300.8125,43.7188 300.8125,45.8125 Q300.8125,47.9063 301.5,48.9844 Q302.1875,50.0469 303.5313,50.0469 Q304.1563,50.0469 304.75,49.7813 Q305.3438,49.5 305.9688,48.9219 L305.9688,51.6406 Z "/><text fill="#000000" font-family="sans-serif" font-size="12" lengthAdjust="spacingAndGlyphs" textLength="96" x="317" y="50.1543">MonoBehaviour</text><line style="stroke: #A80036; stroke-width: 1.5;" x1="289" x2="415" y1="62" y2="62"/><line style="stroke: #A80036; stroke-width: 1.5;" x1="289" x2="415" y1="70" y2="70"/><!--MD5=[af4af61019ae6f1c63a335c6f33f3922]
reverse link MonoBehaviour to ProjectShaderSettingsManager--><path d="M352,98.47 C352,117.59 352,140.14 352,159.83 " fill="none" id="MonoBehaviour&lt;-ProjectShaderSettingsManager" style="stroke: #A80036; stroke-width: 1.0;"/><polygon fill="none" points="345,98.31,352,78.31,359,98.31,345,98.31" style="stroke: #A80036; stroke-width: 1.0;"/><!--MD5=[a2da60b15fc5ea17fa2b4a305f90b03c]
link ProjectShaderSettingsManager to Dictionary`2--><path d="M520.57,209.5 C520.57,209.5 527.7,209.5 530.68,209.5 " fill="none" id="ProjectShaderSettingsManager-Dictionary`2" style="stroke: #A80036; stroke-width: 1.0;"/><polygon fill="#A80036" points="543.72,209.5,534.72,205.5,538.72,209.5,534.72,213.5,543.72,209.5" style="stroke: #A80036; stroke-width: 1.0;"/><line style="stroke: #A80036; stroke-width: 1.0;" x1="538.72" x2="530.72" y1="209.5" y2="209.5"/><polygon fill="#FFFFFF" points="508.57,209.5,514.57,213.5,520.57,209.5,514.57,205.5,508.57,209.5" style="stroke: #A80036; stroke-width: 1.0;"/><text fill="#000000" font-family="sans-serif" font-size="13" lengthAdjust="spacingAndGlyphs" textLength="177" x="490.5042" y="253.2831">currentSettings&lt;int,string&gt;</text><!--MD5=[15fa34c7ee36dfd25ca78a6110a035d7]
link ProjectShaderSettingsManager to IShaderSettingSerializer--><path d="M412.99,259.15 C436.43,277.85 462.61,298.74 483.77,315.61 " fill="none" id="ProjectShaderSettingsManager-&gt;IShaderSettingSerializer" style="stroke: #A80036; stroke-width: 1.0;"/><polygon fill="#A80036" points="487.93,318.93,483.3776,310.1964,484.0173,315.817,478.3967,316.4567,487.93,318.93" style="stroke: #A80036; stroke-width: 1.0;"/><text fill="#000000" font-family="sans-serif" font-size="13" lengthAdjust="spacingAndGlyphs" textLength="57" x="416.5866" y="307.705">serializer</text><!--MD5=[bc3dbc7c847458ad08fb0415bb6ad84a]
link ProjectShaderSettingsManager to IShaderSettingDeserializer--><path d="M291.01,259.15 C267.57,277.85 241.39,298.74 220.23,315.61 " fill="none" id="ProjectShaderSettingsManager-&gt;IShaderSettingDeserializer" style="stroke: #A80036; stroke-width: 1.0;"/><polygon fill="#A80036" points="216.07,318.93,225.6033,316.4567,219.9827,315.817,220.6224,310.1964,216.07,318.93" style="stroke: #A80036; stroke-width: 1.0;"/><text fill="#000000" font-family="sans-serif" font-size="13" lengthAdjust="spacingAndGlyphs" textLength="73" x="143.1947" y="307.705">deserializer</text><!--MD5=[e5c0044c9c7e4677e65fc403b73d7a11]
@startuml
class ProjectShaderSettingsManager {
    + SetSetting(id:int, setting:ShaderSetting<T>) : void
    + GetSetting(id:int) : ShaderSetting<T>?
    + SerializeAllSettings() : string
    + DeserializeAllSettings(json:string) : void
}
interface IShaderSettingDeserializer {
    + DeSerialize(serializedSetting:string) : ShaderSetting<T>
}
interface IShaderSettingSerializer {
    + Serialize(setting:ShaderSetting<T>) : string
}
class "ShaderSetting`1"<T> <<struct>> {
    + name : string
    + value : T
    + ShaderSetting(name:string, value:T)
}
class "Dictionary`2"<T1,T2> {
}
MonoBehaviour <|- - ProjectShaderSettingsManager
ProjectShaderSettingsManager o-> "currentSettings<int,string>" "Dictionary`2"
ProjectShaderSettingsManager - -> "serializer" IShaderSettingSerializer
ProjectShaderSettingsManager - -> "deserializer" IShaderSettingDeserializer
@enduml

PlantUML version 1.2020.02(Sun Mar 01 10:22:07 GMT 2020)
(GPL source distribution)
Java Runtime: OpenJDK Runtime Environment
JVM: OpenJDK 64-Bit Server VM
Java Version: 11.0.9+11-Ubuntu-0ubuntu1
Operating System: Linux
Default Encoding: ANSI_X3.4-1968
Language: en
Country: US
--></g></svg>