<?xml version="1.0" encoding="UTF-8" standalone="no"?><svg xmlns="http://www.w3.org/2000/svg" xmlns:xlink="http://www.w3.org/1999/xlink" contentScriptType="application/ecmascript" contentStyleType="text/css" height="188px" preserveAspectRatio="none" style="width:307px;height:188px;" version="1.1" viewBox="0 0 307 188" width="307px" zoomAndPan="magnify"><defs><filter height="300%" id="fs60bv4bjad8z" width="300%" x="-1" y="-1"><feGaussianBlur result="blurOut" stdDeviation="2.0"/><feColorMatrix in="blurOut" result="blurOut2" type="matrix" values="0 0 0 0 0 0 0 0 0 0 0 0 0 0 0 0 0 0 .4 0"/><feOffset dx="4.0" dy="4.0" in="blurOut2" result="blurOut3"/><feBlend in="SourceGraphic" in2="blurOut3" mode="normal"/></filter></defs><g><!--MD5=[6522fd7b035339f50e2e9d1f2734953d]
class RuntimeProject--><rect fill="#FEFECE" filter="url(#fs60bv4bjad8z)" height="60.8047" id="RuntimeProject" style="stroke: #A80036; stroke-width: 1.5;" width="255" x="6" y="8"/><ellipse cx="81.75" cy="24" fill="#ADD1B2" rx="11" ry="11" style="stroke: #A80036; stroke-width: 1.0;"/><path d="M84.7188,29.6406 Q84.1406,29.9375 83.5,30.0781 Q82.8594,30.2344 82.1563,30.2344 Q79.6563,30.2344 78.3281,28.5938 Q77.0156,26.9375 77.0156,23.8125 Q77.0156,20.6875 78.3281,19.0313 Q79.6563,17.375 82.1563,17.375 Q82.8594,17.375 83.5,17.5313 Q84.1563,17.6875 84.7188,17.9844 L84.7188,20.7031 Q84.0938,20.125 83.5,19.8594 Q82.9063,19.5781 82.2813,19.5781 Q80.9375,19.5781 80.25,20.6563 Q79.5625,21.7188 79.5625,23.8125 Q79.5625,25.9063 80.25,26.9844 Q80.9375,28.0469 82.2813,28.0469 Q82.9063,28.0469 83.5,27.7813 Q84.0938,27.5 84.7188,26.9219 L84.7188,29.6406 Z "/><text fill="#000000" font-family="sans-serif" font-size="12" lengthAdjust="spacingAndGlyphs" textLength="95" x="102.25" y="28.1543">RuntimeProject</text><line style="stroke: #A80036; stroke-width: 1.5;" x1="7" x2="260" y1="40" y2="40"/><line style="stroke: #A80036; stroke-width: 1.5;" x1="7" x2="260" y1="48" y2="48"/><ellipse cx="17" cy="59" fill="#84BE84" rx="3" ry="3" style="stroke: #038048; stroke-width: 1.0;"/><text fill="#000000" font-family="sans-serif" font-size="11" lengthAdjust="spacingAndGlyphs" textLength="229" x="26" y="62.2104">RuntimeProject(serializedProject:Project)</text><!--MD5=[6104b1394854ac3fa1f1868fad6021ae]
class Texture2D--><rect fill="#FEFECE" filter="url(#fs60bv4bjad8z)" height="48" id="Texture2D" style="stroke: #A80036; stroke-width: 1.5;" width="96" x="25.5" y="129"/><ellipse cx="40.5" cy="145" fill="#ADD1B2" rx="11" ry="11" style="stroke: #A80036; stroke-width: 1.0;"/><path d="M43.4688,150.6406 Q42.8906,150.9375 42.25,151.0781 Q41.6094,151.2344 40.9063,151.2344 Q38.4063,151.2344 37.0781,149.5938 Q35.7656,147.9375 35.7656,144.8125 Q35.7656,141.6875 37.0781,140.0313 Q38.4063,138.375 40.9063,138.375 Q41.6094,138.375 42.25,138.5313 Q42.9063,138.6875 43.4688,138.9844 L43.4688,141.7031 Q42.8438,141.125 42.25,140.8594 Q41.6563,140.5781 41.0313,140.5781 Q39.6875,140.5781 39,141.6563 Q38.3125,142.7188 38.3125,144.8125 Q38.3125,146.9063 39,147.9844 Q39.6875,149.0469 41.0313,149.0469 Q41.6563,149.0469 42.25,148.7813 Q42.8438,148.5 43.4688,147.9219 L43.4688,150.6406 Z "/><text fill="#000000" font-family="sans-serif" font-size="12" lengthAdjust="spacingAndGlyphs" textLength="64" x="54.5" y="149.1543">Texture2D</text><line style="stroke: #A80036; stroke-width: 1.5;" x1="26.5" x2="120.5" y1="161" y2="161"/><line style="stroke: #A80036; stroke-width: 1.5;" x1="26.5" x2="120.5" y1="169" y2="169"/><!--MD5=[79d378210367c0c6ec62ef762ddfbd1b]
class Project--><rect fill="#FEFECE" filter="url(#fs60bv4bjad8z)" height="48" id="Project" style="stroke: #A80036; stroke-width: 1.5;" width="76" x="156.5" y="129"/><ellipse cx="171.5" cy="145" fill="#ADD1B2" rx="11" ry="11" style="stroke: #A80036; stroke-width: 1.0;"/><path d="M174.4688,150.6406 Q173.8906,150.9375 173.25,151.0781 Q172.6094,151.2344 171.9063,151.2344 Q169.4063,151.2344 168.0781,149.5938 Q166.7656,147.9375 166.7656,144.8125 Q166.7656,141.6875 168.0781,140.0313 Q169.4063,138.375 171.9063,138.375 Q172.6094,138.375 173.25,138.5313 Q173.9063,138.6875 174.4688,138.9844 L174.4688,141.7031 Q173.8438,141.125 173.25,140.8594 Q172.6563,140.5781 172.0313,140.5781 Q170.6875,140.5781 170,141.6563 Q169.3125,142.7188 169.3125,144.8125 Q169.3125,146.9063 170,147.9844 Q170.6875,149.0469 172.0313,149.0469 Q172.6563,149.0469 173.25,148.7813 Q173.8438,148.5 174.4688,147.9219 L174.4688,150.6406 Z "/><text fill="#000000" font-family="sans-serif" font-size="12" lengthAdjust="spacingAndGlyphs" textLength="44" x="185.5" y="149.1543">Project</text><line style="stroke: #A80036; stroke-width: 1.5;" x1="157.5" x2="231.5" y1="161" y2="161"/><line style="stroke: #A80036; stroke-width: 1.5;" x1="157.5" x2="231.5" y1="169" y2="169"/><!--MD5=[b994058e4f56f936409b4cfe307df5c4]
link RuntimeProject to Texture2D--><path d="M117.74,69.06 C108.66,86.08 97.32,107.34 88.39,124.08 " fill="none" id="RuntimeProject-&gt;Texture2D" style="stroke: #A80036; stroke-width: 1.0;"/><polygon fill="#A80036" points="85.94,128.67,93.7078,122.6151,88.2952,124.2594,86.6508,118.8468,85.94,128.67" style="stroke: #A80036; stroke-width: 1.0;"/><text fill="#000000" font-family="sans-serif" font-size="13" lengthAdjust="spacingAndGlyphs" textLength="36" x="48.5848" y="117.9945">sprite</text><!--MD5=[44f189ba9f6fa363a1940b97e1a0a7e6]
link RuntimeProject to Project--><path d="M149.53,69.06 C158.76,86.08 170.28,107.34 179.36,124.08 " fill="none" id="RuntimeProject-&gt;Project" style="stroke: #A80036; stroke-width: 1.0;"/><polygon fill="#A80036" points="181.85,128.67,181.0631,118.8526,179.4608,124.2778,174.0356,122.6754,181.85,128.67" style="stroke: #A80036; stroke-width: 1.0;"/><text fill="#000000" font-family="sans-serif" font-size="13" lengthAdjust="spacingAndGlyphs" textLength="104" x="191.4416" y="117.9945">serializedProject</text><!--MD5=[8001ba4e98b84331fa9ca4d1c3629e12]
@startuml
class RuntimeProject {
    + RuntimeProject(serializedProject:Project)
}
RuntimeProject - -> "sprite" Texture2D
RuntimeProject - -> "serializedProject" Project
@enduml

PlantUML version 1.2020.02(Sun Mar 01 10:22:07 GMT 2020)
(GPL source distribution)
Java Runtime: OpenJDK Runtime Environment
JVM: OpenJDK 64-Bit Server VM
Java Version: 11.0.9+11-Ubuntu-0ubuntu1
Operating System: Linux
Default Encoding: ANSI_X3.4-1968
Language: en
Country: US
--></g></svg>