<?xml version="1.0" encoding="UTF-8" standalone="no"?><svg xmlns="http://www.w3.org/2000/svg" xmlns:xlink="http://www.w3.org/1999/xlink" contentScriptType="application/ecmascript" contentStyleType="text/css" height="296px" preserveAspectRatio="none" style="width:275px;height:296px;" version="1.1" viewBox="0 0 275 296" width="275px" zoomAndPan="magnify"><defs><filter height="300%" id="fi88592k9iajw" width="300%" x="-1" y="-1"><feGaussianBlur result="blurOut" stdDeviation="2.0"/><feColorMatrix in="blurOut" result="blurOut2" type="matrix" values="0 0 0 0 0 0 0 0 0 0 0 0 0 0 0 0 0 0 .4 0"/><feOffset dx="4.0" dy="4.0" in="blurOut2" result="blurOut3"/><feBlend in="SourceGraphic" in2="blurOut3" mode="normal"/></filter></defs><g><!--MD5=[d64786bb3684c9625e68d9f795c74f67]
class SpriteProcessor--><rect fill="#FEFECE" filter="url(#fi88592k9iajw)" height="60.8047" id="SpriteProcessor" style="stroke: #A80036; stroke-width: 1.5;" width="245" x="11.19" y="116"/><ellipse cx="79.44" cy="132" fill="#ADD1B2" rx="11" ry="11" style="stroke: #A80036; stroke-width: 1.0;"/><path d="M82.4088,137.6406 Q81.8306,137.9375 81.19,138.0781 Q80.5494,138.2344 79.8463,138.2344 Q77.3463,138.2344 76.0181,136.5938 Q74.7056,134.9375 74.7056,131.8125 Q74.7056,128.6875 76.0181,127.0313 Q77.3463,125.375 79.8463,125.375 Q80.5494,125.375 81.19,125.5313 Q81.8463,125.6875 82.4088,125.9844 L82.4088,128.7031 Q81.7838,128.125 81.19,127.8594 Q80.5963,127.5781 79.9713,127.5781 Q78.6275,127.5781 77.94,128.6563 Q77.2525,129.7188 77.2525,131.8125 Q77.2525,133.9063 77.94,134.9844 Q78.6275,136.0469 79.9713,136.0469 Q80.5963,136.0469 81.19,135.7813 Q81.7838,135.5 82.4088,134.9219 L82.4088,137.6406 Z "/><text fill="#000000" font-family="sans-serif" font-size="12" lengthAdjust="spacingAndGlyphs" textLength="100" x="99.94" y="136.1543">SpriteProcessor</text><line style="stroke: #A80036; stroke-width: 1.5;" x1="12.19" x2="255.19" y1="148" y2="148"/><line style="stroke: #A80036; stroke-width: 1.5;" x1="12.19" x2="255.19" y1="156" y2="156"/><ellipse cx="22.19" cy="167" fill="#84BE84" rx="3" ry="3" style="stroke: #038048; stroke-width: 1.0;"/><text fill="#000000" font-family="sans-serif" font-size="11" lengthAdjust="spacingAndGlyphs" textLength="219" x="31.19" y="170.2104">ProcessImage(sprite:Texture2D) : void</text><!--MD5=[83b3cf3d23d77c6f1e1b5291a241bc2a]
class MonoBehaviour--><rect fill="#FEFECE" filter="url(#fi88592k9iajw)" height="48" id="MonoBehaviour" style="stroke: #A80036; stroke-width: 1.5;" width="128" x="69.69" y="8"/><ellipse cx="84.69" cy="24" fill="#ADD1B2" rx="11" ry="11" style="stroke: #A80036; stroke-width: 1.0;"/><path d="M87.6588,29.6406 Q87.0806,29.9375 86.44,30.0781 Q85.7994,30.2344 85.0963,30.2344 Q82.5963,30.2344 81.2681,28.5938 Q79.9556,26.9375 79.9556,23.8125 Q79.9556,20.6875 81.2681,19.0313 Q82.5963,17.375 85.0963,17.375 Q85.7994,17.375 86.44,17.5313 Q87.0963,17.6875 87.6588,17.9844 L87.6588,20.7031 Q87.0338,20.125 86.44,19.8594 Q85.8463,19.5781 85.2213,19.5781 Q83.8775,19.5781 83.19,20.6563 Q82.5025,21.7188 82.5025,23.8125 Q82.5025,25.9063 83.19,26.9844 Q83.8775,28.0469 85.2213,28.0469 Q85.8463,28.0469 86.44,27.7813 Q87.0338,27.5 87.6588,26.9219 L87.6588,29.6406 Z "/><text fill="#000000" font-family="sans-serif" font-size="12" lengthAdjust="spacingAndGlyphs" textLength="96" x="98.69" y="28.1543">MonoBehaviour</text><line style="stroke: #A80036; stroke-width: 1.5;" x1="70.69" x2="196.69" y1="40" y2="40"/><line style="stroke: #A80036; stroke-width: 1.5;" x1="70.69" x2="196.69" y1="48" y2="48"/><!--MD5=[90d32ccc189f11441a6ce7cbb63ad387]
class Material--><rect fill="#FEFECE" filter="url(#fi88592k9iajw)" height="48" id="Material" style="stroke: #A80036; stroke-width: 1.5;" width="82" x="23.69" y="237"/><ellipse cx="38.69" cy="253" fill="#ADD1B2" rx="11" ry="11" style="stroke: #A80036; stroke-width: 1.0;"/><path d="M41.6588,258.6406 Q41.0806,258.9375 40.44,259.0781 Q39.7994,259.2344 39.0963,259.2344 Q36.5963,259.2344 35.2681,257.5938 Q33.9556,255.9375 33.9556,252.8125 Q33.9556,249.6875 35.2681,248.0313 Q36.5963,246.375 39.0963,246.375 Q39.7994,246.375 40.44,246.5313 Q41.0963,246.6875 41.6588,246.9844 L41.6588,249.7031 Q41.0338,249.125 40.44,248.8594 Q39.8463,248.5781 39.2213,248.5781 Q37.8775,248.5781 37.19,249.6563 Q36.5025,250.7188 36.5025,252.8125 Q36.5025,254.9063 37.19,255.9844 Q37.8775,257.0469 39.2213,257.0469 Q39.8463,257.0469 40.44,256.7813 Q41.0338,256.5 41.6588,255.9219 L41.6588,258.6406 Z "/><text fill="#000000" font-family="sans-serif" font-size="12" lengthAdjust="spacingAndGlyphs" textLength="50" x="52.69" y="257.1543">Material</text><line style="stroke: #A80036; stroke-width: 1.5;" x1="24.69" x2="104.69" y1="269" y2="269"/><line style="stroke: #A80036; stroke-width: 1.5;" x1="24.69" x2="104.69" y1="277" y2="277"/><!--MD5=[7705e3e1d6d4cbf06c962e24629ee8f4]
class RenderTexture--><rect fill="#FEFECE" filter="url(#fi88592k9iajw)" height="48" id="RenderTexture" style="stroke: #A80036; stroke-width: 1.5;" width="124" x="140.69" y="237"/><ellipse cx="155.69" cy="253" fill="#ADD1B2" rx="11" ry="11" style="stroke: #A80036; stroke-width: 1.0;"/><path d="M158.6588,258.6406 Q158.0806,258.9375 157.44,259.0781 Q156.7994,259.2344 156.0963,259.2344 Q153.5963,259.2344 152.2681,257.5938 Q150.9556,255.9375 150.9556,252.8125 Q150.9556,249.6875 152.2681,248.0313 Q153.5963,246.375 156.0963,246.375 Q156.7994,246.375 157.44,246.5313 Q158.0963,246.6875 158.6588,246.9844 L158.6588,249.7031 Q158.0338,249.125 157.44,248.8594 Q156.8463,248.5781 156.2213,248.5781 Q154.8775,248.5781 154.19,249.6563 Q153.5025,250.7188 153.5025,252.8125 Q153.5025,254.9063 154.19,255.9844 Q154.8775,257.0469 156.2213,257.0469 Q156.8463,257.0469 157.44,256.7813 Q158.0338,256.5 158.6588,255.9219 L158.6588,258.6406 Z "/><text fill="#000000" font-family="sans-serif" font-size="12" lengthAdjust="spacingAndGlyphs" textLength="92" x="169.69" y="257.1543">RenderTexture</text><line style="stroke: #A80036; stroke-width: 1.5;" x1="141.69" x2="263.69" y1="269" y2="269"/><line style="stroke: #A80036; stroke-width: 1.5;" x1="141.69" x2="263.69" y1="277" y2="277"/><!--MD5=[432e4c92232c93df3b68fc505860fcee]
reverse link MonoBehaviour to SpriteProcessor--><path d="M133.69,76.11 C133.69,89.31 133.69,103.54 133.69,115.65 " fill="none" id="MonoBehaviour&lt;-SpriteProcessor" style="stroke: #A80036; stroke-width: 1.0;"/><polygon fill="none" points="126.69,76.04,133.69,56.04,140.69,76.04,126.69,76.04" style="stroke: #A80036; stroke-width: 1.0;"/><!--MD5=[174055eb11779187e23d794de612f9e0]
link SpriteProcessor to Material--><path d="M115.56,177.06 C105.12,194.08 92.08,215.34 81.82,232.08 " fill="none" id="SpriteProcessor-&gt;Material" style="stroke: #A80036; stroke-width: 1.0;"/><polygon fill="#A80036" points="79,236.67,87.11,231.0817,81.6101,232.4054,80.2865,226.9055,79,236.67" style="stroke: #A80036; stroke-width: 1.0;"/><text fill="#000000" font-family="sans-serif" font-size="13" lengthAdjust="spacingAndGlyphs" textLength="58" x="17.4193" y="225.9945">template</text><!--MD5=[e3d4a10736d0c16f4f94a661f78fb7ba]
link SpriteProcessor to RenderTexture--><path d="M151.82,177.06 C162.26,194.08 175.3,215.34 185.56,232.08 " fill="none" id="SpriteProcessor-&gt;RenderTexture" style="stroke: #A80036; stroke-width: 1.0;"/><polygon fill="#A80036" points="188.38,236.67,187.0935,226.9055,185.7699,232.4054,180.27,231.0817,188.38,236.67" style="stroke: #A80036; stroke-width: 1.0;"/><text fill="#000000" font-family="sans-serif" font-size="13" lengthAdjust="spacingAndGlyphs" textLength="66" x="110.8482" y="225.9945">processed</text><!--MD5=[123a62ae9cf9c44944f719c44c64931b]
@startuml
class SpriteProcessor {
    + ProcessImage(sprite:Texture2D) : void
}
MonoBehaviour <|- - SpriteProcessor
SpriteProcessor - -> "template" Material
SpriteProcessor - -> "processed" RenderTexture
@enduml

PlantUML version 1.2020.02(Sun Mar 01 10:22:07 GMT 2020)
(GPL source distribution)
Java Runtime: OpenJDK Runtime Environment
JVM: OpenJDK 64-Bit Server VM
Java Version: 11.0.9+11-Ubuntu-0ubuntu1
Operating System: Linux
Default Encoding: ANSI_X3.4-1968
Language: en
Country: US
--></g></svg>