<?xml version="1.0" encoding="UTF-8" standalone="no"?><svg xmlns="http://www.w3.org/2000/svg" xmlns:xlink="http://www.w3.org/1999/xlink" contentScriptType="application/ecmascript" contentStyleType="text/css" height="296px" preserveAspectRatio="none" style="width:339px;height:296px;" version="1.1" viewBox="0 0 339 296" width="339px" zoomAndPan="magnify"><defs><filter height="300%" id="fh1j63465adb4" width="300%" x="-1" y="-1"><feGaussianBlur result="blurOut" stdDeviation="2.0"/><feColorMatrix in="blurOut" result="blurOut2" type="matrix" values="0 0 0 0 0 0 0 0 0 0 0 0 0 0 0 0 0 0 .4 0"/><feOffset dx="4.0" dy="4.0" in="blurOut2" result="blurOut3"/><feBlend in="SourceGraphic" in2="blurOut3" mode="normal"/></filter></defs><g><!--MD5=[d64786bb3684c9625e68d9f795c74f67]
class SpriteProcessor--><rect fill="#FEFECE" filter="url(#fh1j63465adb4)" height="60.8047" id="SpriteProcessor" style="stroke: #A80036; stroke-width: 1.5;" width="245" x="6" y="116"/><ellipse cx="74.25" cy="132" fill="#ADD1B2" rx="11" ry="11" style="stroke: #A80036; stroke-width: 1.0;"/><path d="M77.2188,137.6406 Q76.6406,137.9375 76,138.0781 Q75.3594,138.2344 74.6563,138.2344 Q72.1563,138.2344 70.8281,136.5938 Q69.5156,134.9375 69.5156,131.8125 Q69.5156,128.6875 70.8281,127.0313 Q72.1563,125.375 74.6563,125.375 Q75.3594,125.375 76,125.5313 Q76.6563,125.6875 77.2188,125.9844 L77.2188,128.7031 Q76.5938,128.125 76,127.8594 Q75.4063,127.5781 74.7813,127.5781 Q73.4375,127.5781 72.75,128.6563 Q72.0625,129.7188 72.0625,131.8125 Q72.0625,133.9063 72.75,134.9844 Q73.4375,136.0469 74.7813,136.0469 Q75.4063,136.0469 76,135.7813 Q76.5938,135.5 77.2188,134.9219 L77.2188,137.6406 Z "/><text fill="#000000" font-family="sans-serif" font-size="12" lengthAdjust="spacingAndGlyphs" textLength="100" x="94.75" y="136.1543">SpriteProcessor</text><line style="stroke: #A80036; stroke-width: 1.5;" x1="7" x2="250" y1="148" y2="148"/><line style="stroke: #A80036; stroke-width: 1.5;" x1="7" x2="250" y1="156" y2="156"/><ellipse cx="17" cy="167" fill="#84BE84" rx="3" ry="3" style="stroke: #038048; stroke-width: 1.0;"/><text fill="#000000" font-family="sans-serif" font-size="11" lengthAdjust="spacingAndGlyphs" textLength="219" x="26" y="170.2104">ProcessImage(sprite:Texture2D) : void</text><!--MD5=[83b3cf3d23d77c6f1e1b5291a241bc2a]
class MonoBehaviour--><rect fill="#FEFECE" filter="url(#fh1j63465adb4)" height="48" id="MonoBehaviour" style="stroke: #A80036; stroke-width: 1.5;" width="128" x="64.5" y="8"/><ellipse cx="79.5" cy="24" fill="#ADD1B2" rx="11" ry="11" style="stroke: #A80036; stroke-width: 1.0;"/><path d="M82.4688,29.6406 Q81.8906,29.9375 81.25,30.0781 Q80.6094,30.2344 79.9063,30.2344 Q77.4063,30.2344 76.0781,28.5938 Q74.7656,26.9375 74.7656,23.8125 Q74.7656,20.6875 76.0781,19.0313 Q77.4063,17.375 79.9063,17.375 Q80.6094,17.375 81.25,17.5313 Q81.9063,17.6875 82.4688,17.9844 L82.4688,20.7031 Q81.8438,20.125 81.25,19.8594 Q80.6563,19.5781 80.0313,19.5781 Q78.6875,19.5781 78,20.6563 Q77.3125,21.7188 77.3125,23.8125 Q77.3125,25.9063 78,26.9844 Q78.6875,28.0469 80.0313,28.0469 Q80.6563,28.0469 81.25,27.7813 Q81.8438,27.5 82.4688,26.9219 L82.4688,29.6406 Z "/><text fill="#000000" font-family="sans-serif" font-size="12" lengthAdjust="spacingAndGlyphs" textLength="96" x="93.5" y="28.1543">MonoBehaviour</text><line style="stroke: #A80036; stroke-width: 1.5;" x1="65.5" x2="191.5" y1="40" y2="40"/><line style="stroke: #A80036; stroke-width: 1.5;" x1="65.5" x2="191.5" y1="48" y2="48"/><!--MD5=[90d32ccc189f11441a6ce7cbb63ad387]
class Material--><rect fill="#FEFECE" filter="url(#fh1j63465adb4)" height="48" id="Material" style="stroke: #A80036; stroke-width: 1.5;" width="82" x="87.5" y="237"/><ellipse cx="102.5" cy="253" fill="#ADD1B2" rx="11" ry="11" style="stroke: #A80036; stroke-width: 1.0;"/><path d="M105.4688,258.6406 Q104.8906,258.9375 104.25,259.0781 Q103.6094,259.2344 102.9063,259.2344 Q100.4063,259.2344 99.0781,257.5938 Q97.7656,255.9375 97.7656,252.8125 Q97.7656,249.6875 99.0781,248.0313 Q100.4063,246.375 102.9063,246.375 Q103.6094,246.375 104.25,246.5313 Q104.9063,246.6875 105.4688,246.9844 L105.4688,249.7031 Q104.8438,249.125 104.25,248.8594 Q103.6563,248.5781 103.0313,248.5781 Q101.6875,248.5781 101,249.6563 Q100.3125,250.7188 100.3125,252.8125 Q100.3125,254.9063 101,255.9844 Q101.6875,257.0469 103.0313,257.0469 Q103.6563,257.0469 104.25,256.7813 Q104.8438,256.5 105.4688,255.9219 L105.4688,258.6406 Z "/><text fill="#000000" font-family="sans-serif" font-size="12" lengthAdjust="spacingAndGlyphs" textLength="50" x="116.5" y="257.1543">Material</text><line style="stroke: #A80036; stroke-width: 1.5;" x1="88.5" x2="168.5" y1="269" y2="269"/><line style="stroke: #A80036; stroke-width: 1.5;" x1="88.5" x2="168.5" y1="277" y2="277"/><!--MD5=[7705e3e1d6d4cbf06c962e24629ee8f4]
class RenderTexture--><rect fill="#FEFECE" filter="url(#fh1j63465adb4)" height="48" id="RenderTexture" style="stroke: #A80036; stroke-width: 1.5;" width="124" x="204.5" y="237"/><ellipse cx="219.5" cy="253" fill="#ADD1B2" rx="11" ry="11" style="stroke: #A80036; stroke-width: 1.0;"/><path d="M222.4688,258.6406 Q221.8906,258.9375 221.25,259.0781 Q220.6094,259.2344 219.9063,259.2344 Q217.4063,259.2344 216.0781,257.5938 Q214.7656,255.9375 214.7656,252.8125 Q214.7656,249.6875 216.0781,248.0313 Q217.4063,246.375 219.9063,246.375 Q220.6094,246.375 221.25,246.5313 Q221.9063,246.6875 222.4688,246.9844 L222.4688,249.7031 Q221.8438,249.125 221.25,248.8594 Q220.6563,248.5781 220.0313,248.5781 Q218.6875,248.5781 218,249.6563 Q217.3125,250.7188 217.3125,252.8125 Q217.3125,254.9063 218,255.9844 Q218.6875,257.0469 220.0313,257.0469 Q220.6563,257.0469 221.25,256.7813 Q221.8438,256.5 222.4688,255.9219 L222.4688,258.6406 Z "/><text fill="#000000" font-family="sans-serif" font-size="12" lengthAdjust="spacingAndGlyphs" textLength="92" x="233.5" y="257.1543">RenderTexture</text><line style="stroke: #A80036; stroke-width: 1.5;" x1="205.5" x2="327.5" y1="269" y2="269"/><line style="stroke: #A80036; stroke-width: 1.5;" x1="205.5" x2="327.5" y1="277" y2="277"/><!--MD5=[432e4c92232c93df3b68fc505860fcee]
reverse link MonoBehaviour to SpriteProcessor--><path d="M128.5,76.11 C128.5,89.31 128.5,103.54 128.5,115.65 " fill="none" id="MonoBehaviour&lt;-SpriteProcessor" style="stroke: #A80036; stroke-width: 1.0;"/><polygon fill="none" points="121.5,76.04,128.5,56.04,135.5,76.04,121.5,76.04" style="stroke: #A80036; stroke-width: 1.0;"/><!--MD5=[174055eb11779187e23d794de612f9e0]
link SpriteProcessor to Material--><path d="M117.12,177.06 C115.25,193.93 115.29,214.98 117.26,231.65 " fill="none" id="SpriteProcessor-&gt;Material" style="stroke: #A80036; stroke-width: 1.0;"/><polygon fill="#A80036" points="117.93,236.67,120.7126,227.2224,117.2729,231.7134,112.782,228.2737,117.93,236.67" style="stroke: #A80036; stroke-width: 1.0;"/><text fill="#000000" font-family="sans-serif" font-size="13" lengthAdjust="spacingAndGlyphs" textLength="58" x="50.2848" y="225.9945">template</text><!--MD5=[174055eb11779187e23d794de612f9e0]
link SpriteProcessor to Material--><path d="M140.55,177.06 C142.53,193.93 142.48,214.98 140.4,231.65 " fill="none" id="SpriteProcessor-&gt;Material-1" style="stroke: #A80036; stroke-width: 1.0;"/><polygon fill="#A80036" points="139.69,236.67,144.9125,228.3198,140.3911,231.7194,136.9915,227.198,139.69,236.67" style="stroke: #A80036; stroke-width: 1.0;"/><text fill="#000000" font-family="sans-serif" font-size="13" lengthAdjust="spacingAndGlyphs" textLength="101" x="154.6312" y="225.9328">runtimeMaterial</text><!--MD5=[e3d4a10736d0c16f4f94a661f78fb7ba]
link SpriteProcessor to RenderTexture--><path d="M164.76,177.06 C186.17,194.51 213.06,216.43 233.81,233.35 " fill="none" id="SpriteProcessor-&gt;RenderTexture" style="stroke: #A80036; stroke-width: 1.0;"/><polygon fill="#A80036" points="237.88,236.67,233.4173,227.8902,233.9994,233.517,228.3726,234.0991,237.88,236.67" style="stroke: #A80036; stroke-width: 1.0;"/><text fill="#000000" font-family="sans-serif" font-size="13" lengthAdjust="spacingAndGlyphs" textLength="66" x="238.9476" y="225.9945">processed</text><!--MD5=[c59e758f095cc81c3b146880b045ba57]
@startuml
class SpriteProcessor {
    + ProcessImage(sprite:Texture2D) : void
}
MonoBehaviour <|- - SpriteProcessor
SpriteProcessor - -> "template" Material
SpriteProcessor - -> "runtimeMaterial" Material
SpriteProcessor - -> "processed" RenderTexture
@enduml

PlantUML version 1.2020.02(Sun Mar 01 10:22:07 GMT 2020)
(GPL source distribution)
Java Runtime: OpenJDK Runtime Environment
JVM: OpenJDK 64-Bit Server VM
Java Version: 11.0.9+11-Ubuntu-0ubuntu1
Operating System: Linux
Default Encoding: ANSI_X3.4-1968
Language: en
Country: US
--></g></svg>