<?xml version="1.0" encoding="UTF-8" standalone="no"?><svg xmlns="http://www.w3.org/2000/svg" xmlns:xlink="http://www.w3.org/1999/xlink" contentScriptType="application/ecmascript" contentStyleType="text/css" height="283px" preserveAspectRatio="none" style="width:250px;height:283px;" version="1.1" viewBox="0 0 250 283" width="250px" zoomAndPan="magnify"><defs><filter height="300%" id="fecf5z8vfk6u" width="300%" x="-1" y="-1"><feGaussianBlur result="blurOut" stdDeviation="2.0"/><feColorMatrix in="blurOut" result="blurOut2" type="matrix" values="0 0 0 0 0 0 0 0 0 0 0 0 0 0 0 0 0 0 .4 0"/><feOffset dx="4.0" dy="4.0" in="blurOut2" result="blurOut3"/><feBlend in="SourceGraphic" in2="blurOut3" mode="normal"/></filter></defs><g><!--MD5=[6c4a412968d1f7f2d4438586e6cf795d]
class ToolManager--><rect fill="#FEFECE" filter="url(#fecf5z8vfk6u)" height="48" id="ToolManager" style="stroke: #A80036; stroke-width: 1.5;" width="113" x="82.5" y="116"/><ellipse cx="97.5" cy="132" fill="#ADD1B2" rx="11" ry="11" style="stroke: #A80036; stroke-width: 1.0;"/><path d="M100.4688,137.6406 Q99.8906,137.9375 99.25,138.0781 Q98.6094,138.2344 97.9063,138.2344 Q95.4063,138.2344 94.0781,136.5938 Q92.7656,134.9375 92.7656,131.8125 Q92.7656,128.6875 94.0781,127.0313 Q95.4063,125.375 97.9063,125.375 Q98.6094,125.375 99.25,125.5313 Q99.9063,125.6875 100.4688,125.9844 L100.4688,128.7031 Q99.8438,128.125 99.25,127.8594 Q98.6563,127.5781 98.0313,127.5781 Q96.6875,127.5781 96,128.6563 Q95.3125,129.7188 95.3125,131.8125 Q95.3125,133.9063 96,134.9844 Q96.6875,136.0469 98.0313,136.0469 Q98.6563,136.0469 99.25,135.7813 Q99.8438,135.5 100.4688,134.9219 L100.4688,137.6406 Z "/><text fill="#000000" font-family="sans-serif" font-size="12" lengthAdjust="spacingAndGlyphs" textLength="81" x="111.5" y="136.1543">ToolManager</text><line style="stroke: #A80036; stroke-width: 1.5;" x1="83.5" x2="194.5" y1="148" y2="148"/><line style="stroke: #A80036; stroke-width: 1.5;" x1="83.5" x2="194.5" y1="156" y2="156"/><!--MD5=[faa1de4d7b17b110bcca917d9add068e]
class Singleton`1--><rect fill="#FEFECE" filter="url(#fecf5z8vfk6u)" height="48" id="Singleton`1" style="stroke: #A80036; stroke-width: 1.5;" width="116" x="81" y="8"/><ellipse cx="96" cy="24" fill="#ADD1B2" rx="11" ry="11" style="stroke: #A80036; stroke-width: 1.0;"/><path d="M98.9688,29.6406 Q98.3906,29.9375 97.75,30.0781 Q97.1094,30.2344 96.4063,30.2344 Q93.9063,30.2344 92.5781,28.5938 Q91.2656,26.9375 91.2656,23.8125 Q91.2656,20.6875 92.5781,19.0313 Q93.9063,17.375 96.4063,17.375 Q97.1094,17.375 97.75,17.5313 Q98.4063,17.6875 98.9688,17.9844 L98.9688,20.7031 Q98.3438,20.125 97.75,19.8594 Q97.1563,19.5781 96.5313,19.5781 Q95.1875,19.5781 94.5,20.6563 Q93.8125,21.7188 93.8125,23.8125 Q93.8125,25.9063 94.5,26.9844 Q95.1875,28.0469 96.5313,28.0469 Q97.1563,28.0469 97.75,27.7813 Q98.3438,27.5 98.9688,26.9219 L98.9688,29.6406 Z "/><text fill="#000000" font-family="sans-serif" font-size="12" lengthAdjust="spacingAndGlyphs" textLength="73" x="110" y="28.1543">Singleton`1</text><rect fill="#FFFFFF" height="15.9688" style="stroke: #000000; stroke-width: 1.0; stroke-dasharray: 2.0,2.0;" width="9" x="191" y="5"/><text fill="#000000" font-family="sans-serif" font-size="12" font-style="italic" lengthAdjust="spacingAndGlyphs" textLength="7" x="192" y="17.1387">T</text><line style="stroke: #A80036; stroke-width: 1.5;" x1="82" x2="196" y1="40" y2="40"/><line style="stroke: #A80036; stroke-width: 1.5;" x1="82" x2="196" y1="48" y2="48"/><!--MD5=[d64786bb3684c9625e68d9f795c74f67]
class SpriteProcessor--><rect fill="#FEFECE" filter="url(#fecf5z8vfk6u)" height="48" id="SpriteProcessor" style="stroke: #A80036; stroke-width: 1.5;" width="132" x="6" y="224"/><ellipse cx="21" cy="240" fill="#ADD1B2" rx="11" ry="11" style="stroke: #A80036; stroke-width: 1.0;"/><path d="M23.9688,245.6406 Q23.3906,245.9375 22.75,246.0781 Q22.1094,246.2344 21.4063,246.2344 Q18.9063,246.2344 17.5781,244.5938 Q16.2656,242.9375 16.2656,239.8125 Q16.2656,236.6875 17.5781,235.0313 Q18.9063,233.375 21.4063,233.375 Q22.1094,233.375 22.75,233.5313 Q23.4063,233.6875 23.9688,233.9844 L23.9688,236.7031 Q23.3438,236.125 22.75,235.8594 Q22.1563,235.5781 21.5313,235.5781 Q20.1875,235.5781 19.5,236.6563 Q18.8125,237.7188 18.8125,239.8125 Q18.8125,241.9063 19.5,242.9844 Q20.1875,244.0469 21.5313,244.0469 Q22.1563,244.0469 22.75,243.7813 Q23.3438,243.5 23.9688,242.9219 L23.9688,245.6406 Z "/><text fill="#000000" font-family="sans-serif" font-size="12" lengthAdjust="spacingAndGlyphs" textLength="100" x="35" y="244.1543">SpriteProcessor</text><line style="stroke: #A80036; stroke-width: 1.5;" x1="7" x2="137" y1="256" y2="256"/><line style="stroke: #A80036; stroke-width: 1.5;" x1="7" x2="137" y1="264" y2="264"/><!--MD5=[f0268dd29ee89052933f031546cb1cab]
class Menu--><rect fill="#FEFECE" filter="url(#fecf5z8vfk6u)" height="48" id="Menu" style="stroke: #A80036; stroke-width: 1.5;" width="66" x="173" y="224"/><ellipse cx="188" cy="240" fill="#ADD1B2" rx="11" ry="11" style="stroke: #A80036; stroke-width: 1.0;"/><path d="M190.9688,245.6406 Q190.3906,245.9375 189.75,246.0781 Q189.1094,246.2344 188.4063,246.2344 Q185.9063,246.2344 184.5781,244.5938 Q183.2656,242.9375 183.2656,239.8125 Q183.2656,236.6875 184.5781,235.0313 Q185.9063,233.375 188.4063,233.375 Q189.1094,233.375 189.75,233.5313 Q190.4063,233.6875 190.9688,233.9844 L190.9688,236.7031 Q190.3438,236.125 189.75,235.8594 Q189.1563,235.5781 188.5313,235.5781 Q187.1875,235.5781 186.5,236.6563 Q185.8125,237.7188 185.8125,239.8125 Q185.8125,241.9063 186.5,242.9844 Q187.1875,244.0469 188.5313,244.0469 Q189.1563,244.0469 189.75,243.7813 Q190.3438,243.5 190.9688,242.9219 L190.9688,245.6406 Z "/><text fill="#000000" font-family="sans-serif" font-size="12" lengthAdjust="spacingAndGlyphs" textLength="34" x="202" y="244.1543">Menu</text><line style="stroke: #A80036; stroke-width: 1.5;" x1="174" x2="238" y1="256" y2="256"/><line style="stroke: #A80036; stroke-width: 1.5;" x1="174" x2="238" y1="264" y2="264"/><!--MD5=[8d67e7a74d2d620882e2ec355ef8830c]
reverse link Singleton`1 to ToolManager--><path d="M139,76.02 C139,89.58 139,104.04 139,115.68 " fill="none" id="Singleton`1&lt;-ToolManager" style="stroke: #A80036; stroke-width: 1.0;"/><polygon fill="none" points="132,76,139,56,146,76,132,76" style="stroke: #A80036; stroke-width: 1.0;"/><text fill="#000000" font-family="sans-serif" font-size="13" lengthAdjust="spacingAndGlyphs" textLength="104" x="21.675" y="76.1558">&lt;ToolManager&gt;</text><!--MD5=[3e0830a4b849ba76d0dcf7f050e1f201]
link ToolManager to SpriteProcessor--><path d="M124.46,164 C114.17,180.28 100.33,202.19 89.44,219.41 " fill="none" id="ToolManager-&gt;SpriteProcessor" style="stroke: #A80036; stroke-width: 1.0;"/><polygon fill="#A80036" points="86.74,223.68,94.9286,218.2076,89.4105,219.4529,88.1652,213.9348,86.74,223.68" style="stroke: #A80036; stroke-width: 1.0;"/><text fill="#000000" font-family="sans-serif" font-size="13" lengthAdjust="spacingAndGlyphs" textLength="63" x="19.6547" y="213.007">processor</text><!--MD5=[ef77880290f015d2c88ec81aacb77239]
link ToolManager to Menu--><path d="M153.54,164 C163.83,180.28 177.67,202.19 188.56,219.41 " fill="none" id="ToolManager-&gt;Menu" style="stroke: #A80036; stroke-width: 1.0;"/><polygon fill="#A80036" points="191.26,223.68,189.8348,213.9348,188.5895,219.4529,183.0714,218.2076,191.26,223.68" style="stroke: #A80036; stroke-width: 1.0;"/><text fill="#000000" font-family="sans-serif" font-size="13" lengthAdjust="spacingAndGlyphs" textLength="67" x="145.1213" y="212.9452">mainMenu</text><!--MD5=[a40b3c0d8820e73addb5214fcae059a5]
@startuml
class ToolManager {
}
class "Singleton`1"<T> {
}
"Singleton`1" "<ToolManager>" <|- - ToolManager
ToolManager - -> "processor" SpriteProcessor
ToolManager - -> "mainMenu" Menu
@enduml

PlantUML version 1.2020.02(Sun Mar 01 10:22:07 GMT 2020)
(GPL source distribution)
Java Runtime: OpenJDK Runtime Environment
JVM: OpenJDK 64-Bit Server VM
Java Version: 11.0.9+11-Ubuntu-0ubuntu1
Operating System: Linux
Default Encoding: ANSI_X3.4-1968
Language: en
Country: US
--></g></svg>