<?xml version="1.0" encoding="UTF-8" standalone="no"?><svg xmlns="http://www.w3.org/2000/svg" xmlns:xlink="http://www.w3.org/1999/xlink" contentScriptType="application/ecmascript" contentStyleType="text/css" height="347px" preserveAspectRatio="none" style="width:585px;height:347px;" version="1.1" viewBox="0 0 585 347" width="585px" zoomAndPan="magnify"><defs><filter height="300%" id="f73zmaq4xmzmx" width="300%" x="-1" y="-1"><feGaussianBlur result="blurOut" stdDeviation="2.0"/><feColorMatrix in="blurOut" result="blurOut2" type="matrix" values="0 0 0 0 0 0 0 0 0 0 0 0 0 0 0 0 0 0 .4 0"/><feOffset dx="4.0" dy="4.0" in="blurOut2" result="blurOut3"/><feBlend in="SourceGraphic" in2="blurOut3" mode="normal"/></filter></defs><g><!--MD5=[6c4a412968d1f7f2d4438586e6cf795d]
class ToolManager--><rect fill="#FEFECE" filter="url(#f73zmaq4xmzmx)" height="112.0234" id="ToolManager" style="stroke: #A80036; stroke-width: 1.5;" width="186" x="250.5" y="116"/><ellipse cx="298.75" cy="132" fill="#ADD1B2" rx="11" ry="11" style="stroke: #A80036; stroke-width: 1.0;"/><path d="M301.7188,137.6406 Q301.1406,137.9375 300.5,138.0781 Q299.8594,138.2344 299.1563,138.2344 Q296.6563,138.2344 295.3281,136.5938 Q294.0156,134.9375 294.0156,131.8125 Q294.0156,128.6875 295.3281,127.0313 Q296.6563,125.375 299.1563,125.375 Q299.8594,125.375 300.5,125.5313 Q301.1563,125.6875 301.7188,125.9844 L301.7188,128.7031 Q301.0938,128.125 300.5,127.8594 Q299.9063,127.5781 299.2813,127.5781 Q297.9375,127.5781 297.25,128.6563 Q296.5625,129.7188 296.5625,131.8125 Q296.5625,133.9063 297.25,134.9844 Q297.9375,136.0469 299.2813,136.0469 Q299.9063,136.0469 300.5,135.7813 Q301.0938,135.5 301.7188,134.9219 L301.7188,137.6406 Z "/><text fill="#000000" font-family="sans-serif" font-size="12" lengthAdjust="spacingAndGlyphs" textLength="81" x="319.25" y="136.1543">ToolManager</text><line style="stroke: #A80036; stroke-width: 1.5;" x1="251.5" x2="435.5" y1="148" y2="148"/><ellipse cx="261.5" cy="159" fill="none" rx="3" ry="3" style="stroke: #038048; stroke-width: 1.0;"/><text fill="#000000" font-family="sans-serif" font-size="11" lengthAdjust="spacingAndGlyphs" textLength="160" x="270.5" y="162.2104">projectIsSaved : bool = true</text><line style="stroke: #A80036; stroke-width: 1.5;" x1="251.5" x2="435.5" y1="168.8047" y2="168.8047"/><ellipse cx="261.5" cy="179.8047" fill="#84BE84" rx="3" ry="3" style="stroke: #038048; stroke-width: 1.0;"/><text fill="#000000" font-family="sans-serif" font-size="11" lengthAdjust="spacingAndGlyphs" textLength="114" x="270.5" y="183.0151">CloseProject() : void</text><ellipse cx="261.5" cy="192.6094" fill="#84BE84" rx="3" ry="3" style="stroke: #038048; stroke-width: 1.0;"/><text fill="#000000" font-family="sans-serif" font-size="11" lengthAdjust="spacingAndGlyphs" textLength="67" x="270.5" y="195.8198">New() : void</text><ellipse cx="261.5" cy="205.4141" fill="#84BE84" rx="3" ry="3" style="stroke: #038048; stroke-width: 1.0;"/><text fill="#000000" font-family="sans-serif" font-size="11" lengthAdjust="spacingAndGlyphs" textLength="63" x="270.5" y="208.6245">Exit() : void</text><ellipse cx="261.5" cy="218.2188" fill="#84BE84" rx="3" ry="3" style="stroke: #038048; stroke-width: 1.0;"/><text fill="#000000" font-family="sans-serif" font-size="11" lengthAdjust="spacingAndGlyphs" textLength="106" x="270.5" y="221.4292">ExitNoSave() : void</text><!--MD5=[faa1de4d7b17b110bcca917d9add068e]
class Singleton`1--><rect fill="#FEFECE" filter="url(#f73zmaq4xmzmx)" height="48" id="Singleton`1" style="stroke: #A80036; stroke-width: 1.5;" width="116" x="285.5" y="8"/><ellipse cx="300.5" cy="24" fill="#ADD1B2" rx="11" ry="11" style="stroke: #A80036; stroke-width: 1.0;"/><path d="M303.4688,29.6406 Q302.8906,29.9375 302.25,30.0781 Q301.6094,30.2344 300.9063,30.2344 Q298.4063,30.2344 297.0781,28.5938 Q295.7656,26.9375 295.7656,23.8125 Q295.7656,20.6875 297.0781,19.0313 Q298.4063,17.375 300.9063,17.375 Q301.6094,17.375 302.25,17.5313 Q302.9063,17.6875 303.4688,17.9844 L303.4688,20.7031 Q302.8438,20.125 302.25,19.8594 Q301.6563,19.5781 301.0313,19.5781 Q299.6875,19.5781 299,20.6563 Q298.3125,21.7188 298.3125,23.8125 Q298.3125,25.9063 299,26.9844 Q299.6875,28.0469 301.0313,28.0469 Q301.6563,28.0469 302.25,27.7813 Q302.8438,27.5 303.4688,26.9219 L303.4688,29.6406 Z "/><text fill="#000000" font-family="sans-serif" font-size="12" lengthAdjust="spacingAndGlyphs" textLength="73" x="314.5" y="28.1543">Singleton`1</text><rect fill="#FFFFFF" height="15.9688" style="stroke: #000000; stroke-width: 1.0; stroke-dasharray: 2.0,2.0;" width="9" x="395.5" y="5"/><text fill="#000000" font-family="sans-serif" font-size="12" font-style="italic" lengthAdjust="spacingAndGlyphs" textLength="7" x="396.5" y="17.1387">T</text><line style="stroke: #A80036; stroke-width: 1.5;" x1="286.5" x2="400.5" y1="40" y2="40"/><line style="stroke: #A80036; stroke-width: 1.5;" x1="286.5" x2="400.5" y1="48" y2="48"/><!--MD5=[6e33e01e055c2f06715c468c11f7f2b9]
class ScriptShaderInterface--><rect fill="#FEFECE" filter="url(#f73zmaq4xmzmx)" height="48" id="ScriptShaderInterface" style="stroke: #A80036; stroke-width: 1.5;" width="169" x="6" y="288"/><ellipse cx="21" cy="304" fill="#ADD1B2" rx="11" ry="11" style="stroke: #A80036; stroke-width: 1.0;"/><path d="M23.9688,309.6406 Q23.3906,309.9375 22.75,310.0781 Q22.1094,310.2344 21.4063,310.2344 Q18.9063,310.2344 17.5781,308.5938 Q16.2656,306.9375 16.2656,303.8125 Q16.2656,300.6875 17.5781,299.0313 Q18.9063,297.375 21.4063,297.375 Q22.1094,297.375 22.75,297.5313 Q23.4063,297.6875 23.9688,297.9844 L23.9688,300.7031 Q23.3438,300.125 22.75,299.8594 Q22.1563,299.5781 21.5313,299.5781 Q20.1875,299.5781 19.5,300.6563 Q18.8125,301.7188 18.8125,303.8125 Q18.8125,305.9063 19.5,306.9844 Q20.1875,308.0469 21.5313,308.0469 Q22.1563,308.0469 22.75,307.7813 Q23.3438,307.5 23.9688,306.9219 L23.9688,309.6406 Z "/><text fill="#000000" font-family="sans-serif" font-size="12" lengthAdjust="spacingAndGlyphs" textLength="137" x="35" y="308.1543">ScriptShaderInterface</text><line style="stroke: #A80036; stroke-width: 1.5;" x1="7" x2="174" y1="320" y2="320"/><line style="stroke: #A80036; stroke-width: 1.5;" x1="7" x2="174" y1="328" y2="328"/><!--MD5=[d64786bb3684c9625e68d9f795c74f67]
class SpriteProcessor--><rect fill="#FEFECE" filter="url(#f73zmaq4xmzmx)" height="48" id="SpriteProcessor" style="stroke: #A80036; stroke-width: 1.5;" width="132" x="210.5" y="288"/><ellipse cx="225.5" cy="304" fill="#ADD1B2" rx="11" ry="11" style="stroke: #A80036; stroke-width: 1.0;"/><path d="M228.4688,309.6406 Q227.8906,309.9375 227.25,310.0781 Q226.6094,310.2344 225.9063,310.2344 Q223.4063,310.2344 222.0781,308.5938 Q220.7656,306.9375 220.7656,303.8125 Q220.7656,300.6875 222.0781,299.0313 Q223.4063,297.375 225.9063,297.375 Q226.6094,297.375 227.25,297.5313 Q227.9063,297.6875 228.4688,297.9844 L228.4688,300.7031 Q227.8438,300.125 227.25,299.8594 Q226.6563,299.5781 226.0313,299.5781 Q224.6875,299.5781 224,300.6563 Q223.3125,301.7188 223.3125,303.8125 Q223.3125,305.9063 224,306.9844 Q224.6875,308.0469 226.0313,308.0469 Q226.6563,308.0469 227.25,307.7813 Q227.8438,307.5 228.4688,306.9219 L228.4688,309.6406 Z "/><text fill="#000000" font-family="sans-serif" font-size="12" lengthAdjust="spacingAndGlyphs" textLength="100" x="239.5" y="308.1543">SpriteProcessor</text><line style="stroke: #A80036; stroke-width: 1.5;" x1="211.5" x2="341.5" y1="320" y2="320"/><line style="stroke: #A80036; stroke-width: 1.5;" x1="211.5" x2="341.5" y1="328" y2="328"/><!--MD5=[f0268dd29ee89052933f031546cb1cab]
class Menu--><rect fill="#FEFECE" filter="url(#f73zmaq4xmzmx)" height="48" id="Menu" style="stroke: #A80036; stroke-width: 1.5;" width="66" x="377.5" y="288"/><ellipse cx="392.5" cy="304" fill="#ADD1B2" rx="11" ry="11" style="stroke: #A80036; stroke-width: 1.0;"/><path d="M395.4688,309.6406 Q394.8906,309.9375 394.25,310.0781 Q393.6094,310.2344 392.9063,310.2344 Q390.4063,310.2344 389.0781,308.5938 Q387.7656,306.9375 387.7656,303.8125 Q387.7656,300.6875 389.0781,299.0313 Q390.4063,297.375 392.9063,297.375 Q393.6094,297.375 394.25,297.5313 Q394.9063,297.6875 395.4688,297.9844 L395.4688,300.7031 Q394.8438,300.125 394.25,299.8594 Q393.6563,299.5781 393.0313,299.5781 Q391.6875,299.5781 391,300.6563 Q390.3125,301.7188 390.3125,303.8125 Q390.3125,305.9063 391,306.9844 Q391.6875,308.0469 393.0313,308.0469 Q393.6563,308.0469 394.25,307.7813 Q394.8438,307.5 395.4688,306.9219 L395.4688,309.6406 Z "/><text fill="#000000" font-family="sans-serif" font-size="12" lengthAdjust="spacingAndGlyphs" textLength="34" x="406.5" y="308.1543">Menu</text><line style="stroke: #A80036; stroke-width: 1.5;" x1="378.5" x2="442.5" y1="320" y2="320"/><line style="stroke: #A80036; stroke-width: 1.5;" x1="378.5" x2="442.5" y1="328" y2="328"/><!--MD5=[004b1d6c4ca8aad4ba8b586a335ed4f3]
class Transform--><rect fill="#FEFECE" filter="url(#f73zmaq4xmzmx)" height="48" id="Transform" style="stroke: #A80036; stroke-width: 1.5;" width="95" x="479" y="288"/><ellipse cx="494" cy="304" fill="#ADD1B2" rx="11" ry="11" style="stroke: #A80036; stroke-width: 1.0;"/><path d="M496.9688,309.6406 Q496.3906,309.9375 495.75,310.0781 Q495.1094,310.2344 494.4063,310.2344 Q491.9063,310.2344 490.5781,308.5938 Q489.2656,306.9375 489.2656,303.8125 Q489.2656,300.6875 490.5781,299.0313 Q491.9063,297.375 494.4063,297.375 Q495.1094,297.375 495.75,297.5313 Q496.4063,297.6875 496.9688,297.9844 L496.9688,300.7031 Q496.3438,300.125 495.75,299.8594 Q495.1563,299.5781 494.5313,299.5781 Q493.1875,299.5781 492.5,300.6563 Q491.8125,301.7188 491.8125,303.8125 Q491.8125,305.9063 492.5,306.9844 Q493.1875,308.0469 494.5313,308.0469 Q495.1563,308.0469 495.75,307.7813 Q496.3438,307.5 496.9688,306.9219 L496.9688,309.6406 Z "/><text fill="#000000" font-family="sans-serif" font-size="12" lengthAdjust="spacingAndGlyphs" textLength="63" x="508" y="308.1543">Transform</text><line style="stroke: #A80036; stroke-width: 1.5;" x1="480" x2="573" y1="320" y2="320"/><line style="stroke: #A80036; stroke-width: 1.5;" x1="480" x2="573" y1="328" y2="328"/><!--MD5=[8d67e7a74d2d620882e2ec355ef8830c]
reverse link Singleton`1 to ToolManager--><path d="M343.5,76.25 C343.5,88.82 343.5,102.73 343.5,115.93 " fill="none" id="Singleton`1&lt;-ToolManager" style="stroke: #A80036; stroke-width: 1.0;"/><polygon fill="none" points="336.5,76.1,343.5,56.1,350.5,76.1,336.5,76.1" style="stroke: #A80036; stroke-width: 1.0;"/><text fill="#000000" font-family="sans-serif" font-size="13" lengthAdjust="spacingAndGlyphs" textLength="104" x="226.825" y="75.8856">&lt;ToolManager&gt;</text><!--MD5=[f772efbd5fd70e95918f3da0e7ad369d]
link ToolManager to ScriptShaderInterface--><path d="M250.37,223.8 C211.96,244.75 169.14,268.11 137.48,285.37 " fill="none" id="ToolManager-&gt;ScriptShaderInterface" style="stroke: #A80036; stroke-width: 1.0;"/><polygon fill="#A80036" points="132.89,287.88,142.7074,287.0931,137.2822,285.4908,138.8846,280.0656,132.89,287.88" style="stroke: #A80036; stroke-width: 1.0;"/><text fill="#000000" font-family="sans-serif" font-size="13" lengthAdjust="spacingAndGlyphs" textLength="17" x="124.5743" y="276.8613">ssi</text><!--MD5=[3e0830a4b849ba76d0dcf7f050e1f201]
link ToolManager to SpriteProcessor--><path d="M316.63,228.33 C307.53,247.09 297.74,267.25 290.11,282.96 " fill="none" id="ToolManager-&gt;SpriteProcessor" style="stroke: #A80036; stroke-width: 1.0;"/><polygon fill="#A80036" points="287.82,287.69,295.3581,281.3515,290.0101,283.1952,288.1664,277.8472,287.82,287.69" style="stroke: #A80036; stroke-width: 1.0;"/><text fill="#000000" font-family="sans-serif" font-size="13" lengthAdjust="spacingAndGlyphs" textLength="63" x="219.9011" y="277.0194">processor</text><!--MD5=[ef77880290f015d2c88ec81aacb77239]
link ToolManager to Menu--><path d="M370.37,228.33 C379.47,247.09 389.26,267.25 396.89,282.96 " fill="none" id="ToolManager-&gt;Menu" style="stroke: #A80036; stroke-width: 1.0;"/><polygon fill="#A80036" points="399.18,287.69,398.8336,277.8472,396.9899,283.1952,391.6419,281.3515,399.18,287.69" style="stroke: #A80036; stroke-width: 1.0;"/><text fill="#000000" font-family="sans-serif" font-size="13" lengthAdjust="spacingAndGlyphs" textLength="67" x="349.7063" y="276.9534">mainMenu</text><!--MD5=[57aa31b0e666c0e87b972cb019fb1556]
link ToolManager to Transform--><path d="M416.62,228.14 C442.56,247.7 470.57,268.82 491.81,284.84 " fill="none" id="ToolManager-&gt;Transform" style="stroke: #A80036; stroke-width: 1.0;"/><polygon fill="#A80036" points="495.97,287.97,491.2045,279.3509,491.982,284.954,486.3789,285.7316,495.97,287.97" style="stroke: #A80036; stroke-width: 1.0;"/><text fill="#000000" font-family="sans-serif" font-size="13" lengthAdjust="spacingAndGlyphs" textLength="61" x="448.9827" y="276.9126">exitModal</text><!--MD5=[b2bc6a240304676cae224cb7813e252b]
@startuml
class ToolManager {
    + projectIsSaved : bool = true
    + CloseProject() : void
    + New() : void
    + Exit() : void
    + ExitNoSave() : void
}
class "Singleton`1"<T> {
}
"Singleton`1" "<ToolManager>" <|- - ToolManager
ToolManager - -> "ssi" ScriptShaderInterface
ToolManager - -> "processor" SpriteProcessor
ToolManager - -> "mainMenu" Menu
ToolManager - -> "exitModal" Transform
@enduml

PlantUML version 1.2020.02(Sun Mar 01 10:22:07 GMT 2020)
(GPL source distribution)
Java Runtime: OpenJDK Runtime Environment
JVM: OpenJDK 64-Bit Server VM
Java Version: 11.0.9+11-Ubuntu-0ubuntu1
Operating System: Linux
Default Encoding: ANSI_X3.4-1968
Language: en
Country: US
--></g></svg>