<?xml version="1.0" encoding="UTF-8" standalone="no"?><svg xmlns="http://www.w3.org/2000/svg" xmlns:xlink="http://www.w3.org/1999/xlink" contentScriptType="application/ecmascript" contentStyleType="text/css" height="309px" preserveAspectRatio="none" style="width:454px;height:309px;" version="1.1" viewBox="0 0 454 309" width="454px" zoomAndPan="magnify"><defs><filter height="300%" id="fhbsnz0xg7aa4" width="300%" x="-1" y="-1"><feGaussianBlur result="blurOut" stdDeviation="2.0"/><feColorMatrix in="blurOut" result="blurOut2" type="matrix" values="0 0 0 0 0 0 0 0 0 0 0 0 0 0 0 0 0 0 .4 0"/><feOffset dx="4.0" dy="4.0" in="blurOut2" result="blurOut3"/><feBlend in="SourceGraphic" in2="blurOut3" mode="normal"/></filter></defs><g><!--MD5=[6c4a412968d1f7f2d4438586e6cf795d]
class ToolManager--><rect fill="#FEFECE" filter="url(#fhbsnz0xg7aa4)" height="73.6094" id="ToolManager" style="stroke: #A80036; stroke-width: 1.5;" width="132" x="210.5" y="116"/><ellipse cx="234.05" cy="132" fill="#ADD1B2" rx="11" ry="11" style="stroke: #A80036; stroke-width: 1.0;"/><path d="M237.0188,137.6406 Q236.4406,137.9375 235.8,138.0781 Q235.1594,138.2344 234.4563,138.2344 Q231.9563,138.2344 230.6281,136.5938 Q229.3156,134.9375 229.3156,131.8125 Q229.3156,128.6875 230.6281,127.0313 Q231.9563,125.375 234.4563,125.375 Q235.1594,125.375 235.8,125.5313 Q236.4563,125.6875 237.0188,125.9844 L237.0188,128.7031 Q236.3938,128.125 235.8,127.8594 Q235.2063,127.5781 234.5813,127.5781 Q233.2375,127.5781 232.55,128.6563 Q231.8625,129.7188 231.8625,131.8125 Q231.8625,133.9063 232.55,134.9844 Q233.2375,136.0469 234.5813,136.0469 Q235.2063,136.0469 235.8,135.7813 Q236.3938,135.5 237.0188,134.9219 L237.0188,137.6406 Z "/><text fill="#000000" font-family="sans-serif" font-size="12" lengthAdjust="spacingAndGlyphs" textLength="81" x="249.95" y="136.1543">ToolManager</text><line style="stroke: #A80036; stroke-width: 1.5;" x1="211.5" x2="341.5" y1="148" y2="148"/><line style="stroke: #A80036; stroke-width: 1.5;" x1="211.5" x2="341.5" y1="156" y2="156"/><ellipse cx="221.5" cy="167" fill="#84BE84" rx="3" ry="3" style="stroke: #038048; stroke-width: 1.0;"/><text fill="#000000" font-family="sans-serif" font-size="11" lengthAdjust="spacingAndGlyphs" textLength="63" x="230.5" y="170.2104">Exit() : void</text><ellipse cx="221.5" cy="179.8047" fill="#84BE84" rx="3" ry="3" style="stroke: #038048; stroke-width: 1.0;"/><text fill="#000000" font-family="sans-serif" font-size="11" lengthAdjust="spacingAndGlyphs" textLength="106" x="230.5" y="183.0151">ExitNoSave() : void</text><!--MD5=[faa1de4d7b17b110bcca917d9add068e]
class Singleton`1--><rect fill="#FEFECE" filter="url(#fhbsnz0xg7aa4)" height="48" id="Singleton`1" style="stroke: #A80036; stroke-width: 1.5;" width="116" x="218.5" y="8"/><ellipse cx="233.5" cy="24" fill="#ADD1B2" rx="11" ry="11" style="stroke: #A80036; stroke-width: 1.0;"/><path d="M236.4688,29.6406 Q235.8906,29.9375 235.25,30.0781 Q234.6094,30.2344 233.9063,30.2344 Q231.4063,30.2344 230.0781,28.5938 Q228.7656,26.9375 228.7656,23.8125 Q228.7656,20.6875 230.0781,19.0313 Q231.4063,17.375 233.9063,17.375 Q234.6094,17.375 235.25,17.5313 Q235.9063,17.6875 236.4688,17.9844 L236.4688,20.7031 Q235.8438,20.125 235.25,19.8594 Q234.6563,19.5781 234.0313,19.5781 Q232.6875,19.5781 232,20.6563 Q231.3125,21.7188 231.3125,23.8125 Q231.3125,25.9063 232,26.9844 Q232.6875,28.0469 234.0313,28.0469 Q234.6563,28.0469 235.25,27.7813 Q235.8438,27.5 236.4688,26.9219 L236.4688,29.6406 Z "/><text fill="#000000" font-family="sans-serif" font-size="12" lengthAdjust="spacingAndGlyphs" textLength="73" x="247.5" y="28.1543">Singleton`1</text><rect fill="#FFFFFF" height="15.9688" style="stroke: #000000; stroke-width: 1.0; stroke-dasharray: 2.0,2.0;" width="9" x="328.5" y="5"/><text fill="#000000" font-family="sans-serif" font-size="12" font-style="italic" lengthAdjust="spacingAndGlyphs" textLength="7" x="329.5" y="17.1387">T</text><line style="stroke: #A80036; stroke-width: 1.5;" x1="219.5" x2="333.5" y1="40" y2="40"/><line style="stroke: #A80036; stroke-width: 1.5;" x1="219.5" x2="333.5" y1="48" y2="48"/><!--MD5=[6e33e01e055c2f06715c468c11f7f2b9]
class ScriptShaderInterface--><rect fill="#FEFECE" filter="url(#fhbsnz0xg7aa4)" height="48" id="ScriptShaderInterface" style="stroke: #A80036; stroke-width: 1.5;" width="169" x="6" y="250"/><ellipse cx="21" cy="266" fill="#ADD1B2" rx="11" ry="11" style="stroke: #A80036; stroke-width: 1.0;"/><path d="M23.9688,271.6406 Q23.3906,271.9375 22.75,272.0781 Q22.1094,272.2344 21.4063,272.2344 Q18.9063,272.2344 17.5781,270.5938 Q16.2656,268.9375 16.2656,265.8125 Q16.2656,262.6875 17.5781,261.0313 Q18.9063,259.375 21.4063,259.375 Q22.1094,259.375 22.75,259.5313 Q23.4063,259.6875 23.9688,259.9844 L23.9688,262.7031 Q23.3438,262.125 22.75,261.8594 Q22.1563,261.5781 21.5313,261.5781 Q20.1875,261.5781 19.5,262.6563 Q18.8125,263.7188 18.8125,265.8125 Q18.8125,267.9063 19.5,268.9844 Q20.1875,270.0469 21.5313,270.0469 Q22.1563,270.0469 22.75,269.7813 Q23.3438,269.5 23.9688,268.9219 L23.9688,271.6406 Z "/><text fill="#000000" font-family="sans-serif" font-size="12" lengthAdjust="spacingAndGlyphs" textLength="137" x="35" y="270.1543">ScriptShaderInterface</text><line style="stroke: #A80036; stroke-width: 1.5;" x1="7" x2="174" y1="282" y2="282"/><line style="stroke: #A80036; stroke-width: 1.5;" x1="7" x2="174" y1="290" y2="290"/><!--MD5=[d64786bb3684c9625e68d9f795c74f67]
class SpriteProcessor--><rect fill="#FEFECE" filter="url(#fhbsnz0xg7aa4)" height="48" id="SpriteProcessor" style="stroke: #A80036; stroke-width: 1.5;" width="132" x="210.5" y="250"/><ellipse cx="225.5" cy="266" fill="#ADD1B2" rx="11" ry="11" style="stroke: #A80036; stroke-width: 1.0;"/><path d="M228.4688,271.6406 Q227.8906,271.9375 227.25,272.0781 Q226.6094,272.2344 225.9063,272.2344 Q223.4063,272.2344 222.0781,270.5938 Q220.7656,268.9375 220.7656,265.8125 Q220.7656,262.6875 222.0781,261.0313 Q223.4063,259.375 225.9063,259.375 Q226.6094,259.375 227.25,259.5313 Q227.9063,259.6875 228.4688,259.9844 L228.4688,262.7031 Q227.8438,262.125 227.25,261.8594 Q226.6563,261.5781 226.0313,261.5781 Q224.6875,261.5781 224,262.6563 Q223.3125,263.7188 223.3125,265.8125 Q223.3125,267.9063 224,268.9844 Q224.6875,270.0469 226.0313,270.0469 Q226.6563,270.0469 227.25,269.7813 Q227.8438,269.5 228.4688,268.9219 L228.4688,271.6406 Z "/><text fill="#000000" font-family="sans-serif" font-size="12" lengthAdjust="spacingAndGlyphs" textLength="100" x="239.5" y="270.1543">SpriteProcessor</text><line style="stroke: #A80036; stroke-width: 1.5;" x1="211.5" x2="341.5" y1="282" y2="282"/><line style="stroke: #A80036; stroke-width: 1.5;" x1="211.5" x2="341.5" y1="290" y2="290"/><!--MD5=[f0268dd29ee89052933f031546cb1cab]
class Menu--><rect fill="#FEFECE" filter="url(#fhbsnz0xg7aa4)" height="48" id="Menu" style="stroke: #A80036; stroke-width: 1.5;" width="66" x="377.5" y="250"/><ellipse cx="392.5" cy="266" fill="#ADD1B2" rx="11" ry="11" style="stroke: #A80036; stroke-width: 1.0;"/><path d="M395.4688,271.6406 Q394.8906,271.9375 394.25,272.0781 Q393.6094,272.2344 392.9063,272.2344 Q390.4063,272.2344 389.0781,270.5938 Q387.7656,268.9375 387.7656,265.8125 Q387.7656,262.6875 389.0781,261.0313 Q390.4063,259.375 392.9063,259.375 Q393.6094,259.375 394.25,259.5313 Q394.9063,259.6875 395.4688,259.9844 L395.4688,262.7031 Q394.8438,262.125 394.25,261.8594 Q393.6563,261.5781 393.0313,261.5781 Q391.6875,261.5781 391,262.6563 Q390.3125,263.7188 390.3125,265.8125 Q390.3125,267.9063 391,268.9844 Q391.6875,270.0469 393.0313,270.0469 Q393.6563,270.0469 394.25,269.7813 Q394.8438,269.5 395.4688,268.9219 L395.4688,271.6406 Z "/><text fill="#000000" font-family="sans-serif" font-size="12" lengthAdjust="spacingAndGlyphs" textLength="34" x="406.5" y="270.1543">Menu</text><line style="stroke: #A80036; stroke-width: 1.5;" x1="378.5" x2="442.5" y1="282" y2="282"/><line style="stroke: #A80036; stroke-width: 1.5;" x1="378.5" x2="442.5" y1="290" y2="290"/><!--MD5=[8d67e7a74d2d620882e2ec355ef8830c]
reverse link Singleton`1 to ToolManager--><path d="M276.5,76.43 C276.5,89.33 276.5,103.32 276.5,115.71 " fill="none" id="Singleton`1&lt;-ToolManager" style="stroke: #A80036; stroke-width: 1.0;"/><polygon fill="none" points="269.5,76.23,276.5,56.23,283.5,76.23,269.5,76.23" style="stroke: #A80036; stroke-width: 1.0;"/><text fill="#000000" font-family="sans-serif" font-size="13" lengthAdjust="spacingAndGlyphs" textLength="104" x="159.825" y="76.0473">&lt;ToolManager&gt;</text><!--MD5=[f772efbd5fd70e95918f3da0e7ad369d]
link ToolManager to ScriptShaderInterface--><path d="M220.19,190.03 C191.48,208.39 157.22,230.31 131.13,247.01 " fill="none" id="ToolManager-&gt;ScriptShaderInterface" style="stroke: #A80036; stroke-width: 1.0;"/><polygon fill="#A80036" points="126.68,249.85,136.4159,248.3629,130.8901,247.1527,132.1003,241.6268,126.68,249.85" style="stroke: #A80036; stroke-width: 1.0;"/><text fill="#000000" font-family="sans-serif" font-size="13" lengthAdjust="spacingAndGlyphs" textLength="17" x="116.773" y="238.8236">ssi</text><!--MD5=[3e0830a4b849ba76d0dcf7f050e1f201]
link ToolManager to SpriteProcessor--><path d="M276.5,190.03 C276.5,207.48 276.5,228.15 276.5,244.49 " fill="none" id="ToolManager-&gt;SpriteProcessor" style="stroke: #A80036; stroke-width: 1.0;"/><polygon fill="#A80036" points="276.5,249.85,280.5,240.85,276.5,244.85,272.5,240.85,276.5,249.85" style="stroke: #A80036; stroke-width: 1.0;"/><text fill="#000000" font-family="sans-serif" font-size="13" lengthAdjust="spacingAndGlyphs" textLength="63" x="205.4281" y="238.8236">processor</text><!--MD5=[ef77880290f015d2c88ec81aacb77239]
link ToolManager to Menu--><path d="M317.07,190.03 C337.41,208.09 361.62,229.59 380.29,246.17 " fill="none" id="ToolManager-&gt;Menu" style="stroke: #A80036; stroke-width: 1.0;"/><polygon fill="#A80036" points="384.43,249.85,380.3629,240.8801,380.6937,246.5273,375.0466,246.8581,384.43,249.85" style="stroke: #A80036; stroke-width: 1.0;"/><text fill="#000000" font-family="sans-serif" font-size="13" lengthAdjust="spacingAndGlyphs" textLength="67" x="336.5027" y="238.8236">mainMenu</text><!--MD5=[4c816837a998bcd639e4c4e24b551d4c]
@startuml
class ToolManager {
    + Exit() : void
    + ExitNoSave() : void
}
class "Singleton`1"<T> {
}
"Singleton`1" "<ToolManager>" <|- - ToolManager
ToolManager - -> "ssi" ScriptShaderInterface
ToolManager - -> "processor" SpriteProcessor
ToolManager - -> "mainMenu" Menu
@enduml

PlantUML version 1.2020.02(Sun Mar 01 10:22:07 GMT 2020)
(GPL source distribution)
Java Runtime: OpenJDK Runtime Environment
JVM: OpenJDK 64-Bit Server VM
Java Version: 11.0.9+11-Ubuntu-0ubuntu1
Operating System: Linux
Default Encoding: ANSI_X3.4-1968
Language: en
Country: US
--></g></svg>