<?xml version="1.0" encoding="UTF-8" standalone="no"?><svg xmlns="http://www.w3.org/2000/svg" xmlns:xlink="http://www.w3.org/1999/xlink" contentScriptType="application/ecmascript" contentStyleType="text/css" height="200px" preserveAspectRatio="none" style="width:600px;height:200px;" version="1.1" viewBox="0 0 600 200" width="600px" zoomAndPan="magnify"><defs><filter height="300%" id="f6fvh2yu2hs4j" width="300%" x="-1" y="-1"><feGaussianBlur result="blurOut" stdDeviation="2.0"/><feColorMatrix in="blurOut" result="blurOut2" type="matrix" values="0 0 0 0 0 0 0 0 0 0 0 0 0 0 0 0 0 0 .4 0"/><feOffset dx="4.0" dy="4.0" in="blurOut2" result="blurOut3"/><feBlend in="SourceGraphic" in2="blurOut3" mode="normal"/></filter></defs><g><!--MD5=[e6e83a4df026a6498a7ae6a2894dc524]
class DefaultShaderSettingSerializerDeserializer--><rect fill="#FEFECE" filter="url(#f6fvh2yu2hs4j)" height="73.6094" id="DefaultShaderSettingSerializerDeserializer" style="stroke: #A80036; stroke-width: 1.5;" width="346" x="93.5" y="116"/><ellipse cx="131.45" cy="132" fill="#ADD1B2" rx="11" ry="11" style="stroke: #A80036; stroke-width: 1.0;"/><path d="M134.4188,137.6406 Q133.8406,137.9375 133.2,138.0781 Q132.5594,138.2344 131.8563,138.2344 Q129.3563,138.2344 128.0281,136.5938 Q126.7156,134.9375 126.7156,131.8125 Q126.7156,128.6875 128.0281,127.0313 Q129.3563,125.375 131.8563,125.375 Q132.5594,125.375 133.2,125.5313 Q133.8563,125.6875 134.4188,125.9844 L134.4188,128.7031 Q133.7938,128.125 133.2,127.8594 Q132.6063,127.5781 131.9813,127.5781 Q130.6375,127.5781 129.95,128.6563 Q129.2625,129.7188 129.2625,131.8125 Q129.2625,133.9063 129.95,134.9844 Q130.6375,136.0469 131.9813,136.0469 Q132.6063,136.0469 133.2,135.7813 Q133.7938,135.5 134.4188,134.9219 L134.4188,137.6406 Z "/><text fill="#000000" font-family="sans-serif" font-size="12" lengthAdjust="spacingAndGlyphs" textLength="263" x="150.55" y="136.1543">DefaultShaderSettingSerializerDeserializer</text><line style="stroke: #A80036; stroke-width: 1.5;" x1="94.5" x2="438.5" y1="148" y2="148"/><line style="stroke: #A80036; stroke-width: 1.5;" x1="94.5" x2="438.5" y1="156" y2="156"/><ellipse cx="104.5" cy="167" fill="#84BE84" rx="3" ry="3" style="stroke: #038048; stroke-width: 1.0;"/><text fill="#000000" font-family="sans-serif" font-size="11" lengthAdjust="spacingAndGlyphs" textLength="250" x="113.5" y="170.2104">Serialize(setting:ShaderSetting&lt;T&gt;) : string</text><ellipse cx="104.5" cy="179.8047" fill="#84BE84" rx="3" ry="3" style="stroke: #038048; stroke-width: 1.0;"/><text fill="#000000" font-family="sans-serif" font-size="11" lengthAdjust="spacingAndGlyphs" textLength="320" x="113.5" y="183.0151">DeSerialize(serializedSetting:string) : ShaderSetting&lt;T&gt;</text><!--MD5=[44895057fba17b10f3053a7baa21df04]
class ScriptableObject--><rect fill="#FEFECE" filter="url(#f6fvh2yu2hs4j)" height="48" id="ScriptableObject" style="stroke: #A80036; stroke-width: 1.5;" width="135" x="6" y="8"/><ellipse cx="21" cy="24" fill="#ADD1B2" rx="11" ry="11" style="stroke: #A80036; stroke-width: 1.0;"/><path d="M23.9688,29.6406 Q23.3906,29.9375 22.75,30.0781 Q22.1094,30.2344 21.4063,30.2344 Q18.9063,30.2344 17.5781,28.5938 Q16.2656,26.9375 16.2656,23.8125 Q16.2656,20.6875 17.5781,19.0313 Q18.9063,17.375 21.4063,17.375 Q22.1094,17.375 22.75,17.5313 Q23.4063,17.6875 23.9688,17.9844 L23.9688,20.7031 Q23.3438,20.125 22.75,19.8594 Q22.1563,19.5781 21.5313,19.5781 Q20.1875,19.5781 19.5,20.6563 Q18.8125,21.7188 18.8125,23.8125 Q18.8125,25.9063 19.5,26.9844 Q20.1875,28.0469 21.5313,28.0469 Q22.1563,28.0469 22.75,27.7813 Q23.3438,27.5 23.9688,26.9219 L23.9688,29.6406 Z "/><text fill="#000000" font-family="sans-serif" font-size="12" lengthAdjust="spacingAndGlyphs" textLength="103" x="35" y="28.1543">ScriptableObject</text><line style="stroke: #A80036; stroke-width: 1.5;" x1="7" x2="140" y1="40" y2="40"/><line style="stroke: #A80036; stroke-width: 1.5;" x1="7" x2="140" y1="48" y2="48"/><!--MD5=[5fefe96484ca6bbb4a29933ab69b641e]
class IShaderSettingSerializer--><rect fill="#FEFECE" filter="url(#f6fvh2yu2hs4j)" height="48" id="IShaderSettingSerializer" style="stroke: #A80036; stroke-width: 1.5;" width="181" x="176" y="8"/><ellipse cx="191" cy="24" fill="#ADD1B2" rx="11" ry="11" style="stroke: #A80036; stroke-width: 1.0;"/><path d="M193.9688,29.6406 Q193.3906,29.9375 192.75,30.0781 Q192.1094,30.2344 191.4063,30.2344 Q188.9063,30.2344 187.5781,28.5938 Q186.2656,26.9375 186.2656,23.8125 Q186.2656,20.6875 187.5781,19.0313 Q188.9063,17.375 191.4063,17.375 Q192.1094,17.375 192.75,17.5313 Q193.4063,17.6875 193.9688,17.9844 L193.9688,20.7031 Q193.3438,20.125 192.75,19.8594 Q192.1563,19.5781 191.5313,19.5781 Q190.1875,19.5781 189.5,20.6563 Q188.8125,21.7188 188.8125,23.8125 Q188.8125,25.9063 189.5,26.9844 Q190.1875,28.0469 191.5313,28.0469 Q192.1563,28.0469 192.75,27.7813 Q193.3438,27.5 193.9688,26.9219 L193.9688,29.6406 Z "/><text fill="#000000" font-family="sans-serif" font-size="12" lengthAdjust="spacingAndGlyphs" textLength="149" x="205" y="28.1543">IShaderSettingSerializer</text><line style="stroke: #A80036; stroke-width: 1.5;" x1="177" x2="356" y1="40" y2="40"/><line style="stroke: #A80036; stroke-width: 1.5;" x1="177" x2="356" y1="48" y2="48"/><!--MD5=[875cf4eb9fc220086fc794cc2163b5d4]
class IShaderSettingDeserializer--><rect fill="#FEFECE" filter="url(#f6fvh2yu2hs4j)" height="48" id="IShaderSettingDeserializer" style="stroke: #A80036; stroke-width: 1.5;" width="197" x="392" y="8"/><ellipse cx="407" cy="24" fill="#ADD1B2" rx="11" ry="11" style="stroke: #A80036; stroke-width: 1.0;"/><path d="M409.9688,29.6406 Q409.3906,29.9375 408.75,30.0781 Q408.1094,30.2344 407.4063,30.2344 Q404.9063,30.2344 403.5781,28.5938 Q402.2656,26.9375 402.2656,23.8125 Q402.2656,20.6875 403.5781,19.0313 Q404.9063,17.375 407.4063,17.375 Q408.1094,17.375 408.75,17.5313 Q409.4063,17.6875 409.9688,17.9844 L409.9688,20.7031 Q409.3438,20.125 408.75,19.8594 Q408.1563,19.5781 407.5313,19.5781 Q406.1875,19.5781 405.5,20.6563 Q404.8125,21.7188 404.8125,23.8125 Q404.8125,25.9063 405.5,26.9844 Q406.1875,28.0469 407.5313,28.0469 Q408.1563,28.0469 408.75,27.7813 Q409.3438,27.5 409.9688,26.9219 L409.9688,29.6406 Z "/><text fill="#000000" font-family="sans-serif" font-size="12" lengthAdjust="spacingAndGlyphs" textLength="165" x="421" y="28.1543">IShaderSettingDeserializer</text><line style="stroke: #A80036; stroke-width: 1.5;" x1="393" x2="588" y1="40" y2="40"/><line style="stroke: #A80036; stroke-width: 1.5;" x1="393" x2="588" y1="48" y2="48"/><!--MD5=[19bb67f36d57b8db02b059dfd4ae5c58]
reverse link ScriptableObject to DefaultShaderSettingSerializerDeserializer--><path d="M128.36,66.83 C153.25,82.17 182.72,100.34 208.03,115.95 " fill="none" id="ScriptableObject&lt;-DefaultShaderSettingSerializerDeserializer" style="stroke: #A80036; stroke-width: 1.0;"/><polygon fill="none" points="124.52,72.68,111.17,56.23,131.87,60.77,124.52,72.68" style="stroke: #A80036; stroke-width: 1.0;"/><!--MD5=[8e798f86679289df6f37571465b9abf1]
reverse link IShaderSettingSerializer to DefaultShaderSettingSerializerDeserializer--><path d="M266.5,76.43 C266.5,89.33 266.5,103.32 266.5,115.71 " fill="none" id="IShaderSettingSerializer&lt;-DefaultShaderSettingSerializerDeserializer" style="stroke: #A80036; stroke-width: 1.0;"/><polygon fill="none" points="259.5,76.23,266.5,56.23,273.5,76.23,259.5,76.23" style="stroke: #A80036; stroke-width: 1.0;"/><!--MD5=[b897db30a2b081cdf0ef4dcd48c9751f]
reverse link IShaderSettingDeserializer to DefaultShaderSettingSerializerDeserializer--><path d="M429.19,65.57 C399.87,81.15 364.67,99.85 334.52,115.86 " fill="none" id="IShaderSettingDeserializer&lt;-DefaultShaderSettingSerializerDeserializer" style="stroke: #A80036; stroke-width: 1.0;"/><polygon fill="none" points="426.1,59.29,447.04,56.09,432.67,71.65,426.1,59.29" style="stroke: #A80036; stroke-width: 1.0;"/><!--MD5=[7acb699b28c1d83ac80e63061bc0002a]
@startuml
class DefaultShaderSettingSerializerDeserializer {
    + Serialize(setting:ShaderSetting<T>) : string
    + DeSerialize(serializedSetting:string) : ShaderSetting<T>
}
ScriptableObject <|- - DefaultShaderSettingSerializerDeserializer
IShaderSettingSerializer <|- - DefaultShaderSettingSerializerDeserializer
IShaderSettingDeserializer <|- - DefaultShaderSettingSerializerDeserializer
@enduml

PlantUML version 1.2020.02(Sun Mar 01 10:22:07 GMT 2020)
(GPL source distribution)
Java Runtime: OpenJDK Runtime Environment
JVM: OpenJDK 64-Bit Server VM
Java Version: 11.0.9+11-Ubuntu-0ubuntu1
Operating System: Linux
Default Encoding: ANSI_X3.4-1968
Language: en
Country: US
--></g></svg>