<?xml version="1.0" encoding="UTF-8" standalone="no"?><svg xmlns="http://www.w3.org/2000/svg" xmlns:xlink="http://www.w3.org/1999/xlink" contentScriptType="application/ecmascript" contentStyleType="text/css" height="226px" preserveAspectRatio="none" style="width:450px;height:226px;" version="1.1" viewBox="0 0 450 226" width="450px" zoomAndPan="magnify"><defs><filter height="300%" id="ff8w03queyb5k" width="300%" x="-1" y="-1"><feGaussianBlur result="blurOut" stdDeviation="2.0"/><feColorMatrix in="blurOut" result="blurOut2" type="matrix" values="0 0 0 0 0 0 0 0 0 0 0 0 0 0 0 0 0 0 .4 0"/><feOffset dx="4.0" dy="4.0" in="blurOut2" result="blurOut3"/><feBlend in="SourceGraphic" in2="blurOut3" mode="normal"/></filter></defs><g><!--MD5=[3124add794188d75953438ffc4835d72]
class CLI--><rect fill="#FEFECE" filter="url(#ff8w03queyb5k)" height="99.2188" id="CLI" style="stroke: #A80036; stroke-width: 1.5;" width="433" x="6" y="116"/><ellipse cx="209.75" cy="132" fill="#ADD1B2" rx="11" ry="11" style="stroke: #A80036; stroke-width: 1.0;"/><path d="M212.7188,137.6406 Q212.1406,137.9375 211.5,138.0781 Q210.8594,138.2344 210.1563,138.2344 Q207.6563,138.2344 206.3281,136.5938 Q205.0156,134.9375 205.0156,131.8125 Q205.0156,128.6875 206.3281,127.0313 Q207.6563,125.375 210.1563,125.375 Q210.8594,125.375 211.5,125.5313 Q212.1563,125.6875 212.7188,125.9844 L212.7188,128.7031 Q212.0938,128.125 211.5,127.8594 Q210.9063,127.5781 210.2813,127.5781 Q208.9375,127.5781 208.25,128.6563 Q207.5625,129.7188 207.5625,131.8125 Q207.5625,133.9063 208.25,134.9844 Q208.9375,136.0469 210.2813,136.0469 Q210.9063,136.0469 211.5,135.7813 Q212.0938,135.5 212.7188,134.9219 L212.7188,137.6406 Z "/><text fill="#000000" font-family="sans-serif" font-size="12" lengthAdjust="spacingAndGlyphs" textLength="17" x="230.25" y="136.1543">CLI</text><line style="stroke: #A80036; stroke-width: 1.5;" x1="7" x2="438" y1="148" y2="148"/><line style="stroke: #A80036; stroke-width: 1.5;" x1="7" x2="438" y1="156" y2="156"/><text fill="#000000" font-family="sans-serif" font-size="11" lengthAdjust="spacingAndGlyphs" textLength="79" x="26" y="170.2104">Awake() : void</text><ellipse cx="17" cy="179.8047" fill="#84BE84" rx="3" ry="3" style="stroke: #038048; stroke-width: 1.0;"/><text fill="#000000" font-family="sans-serif" font-size="11" lengthAdjust="spacingAndGlyphs" textLength="407" x="26" y="183.0151">RunConsoleCommand(command:string, startInfo:ProcessStartInfo) : int</text><ellipse cx="17" cy="192.6094" fill="#84BE84" rx="3" ry="3" style="stroke: #038048; stroke-width: 1.0;"/><text fill="#000000" font-family="sans-serif" font-size="11" lengthAdjust="spacingAndGlyphs" textLength="217" x="26" y="195.8198">NormalizeSlashes(path:string) : string</text><ellipse cx="17" cy="205.4141" fill="#84BE84" rx="3" ry="3" style="stroke: #038048; stroke-width: 1.0;"/><text fill="#000000" font-family="sans-serif" font-size="11" lengthAdjust="spacingAndGlyphs" textLength="234" x="26" y="208.6245">AddQuotesIfRequired(path:string) : string</text><!--MD5=[faa1de4d7b17b110bcca917d9add068e]
class Singleton`1--><rect fill="#FEFECE" filter="url(#ff8w03queyb5k)" height="48" id="Singleton`1" style="stroke: #A80036; stroke-width: 1.5;" width="116" x="164.5" y="8"/><ellipse cx="179.5" cy="24" fill="#ADD1B2" rx="11" ry="11" style="stroke: #A80036; stroke-width: 1.0;"/><path d="M182.4688,29.6406 Q181.8906,29.9375 181.25,30.0781 Q180.6094,30.2344 179.9063,30.2344 Q177.4063,30.2344 176.0781,28.5938 Q174.7656,26.9375 174.7656,23.8125 Q174.7656,20.6875 176.0781,19.0313 Q177.4063,17.375 179.9063,17.375 Q180.6094,17.375 181.25,17.5313 Q181.9063,17.6875 182.4688,17.9844 L182.4688,20.7031 Q181.8438,20.125 181.25,19.8594 Q180.6563,19.5781 180.0313,19.5781 Q178.6875,19.5781 178,20.6563 Q177.3125,21.7188 177.3125,23.8125 Q177.3125,25.9063 178,26.9844 Q178.6875,28.0469 180.0313,28.0469 Q180.6563,28.0469 181.25,27.7813 Q181.8438,27.5 182.4688,26.9219 L182.4688,29.6406 Z "/><text fill="#000000" font-family="sans-serif" font-size="12" lengthAdjust="spacingAndGlyphs" textLength="73" x="193.5" y="28.1543">Singleton`1</text><rect fill="#FFFFFF" height="15.9688" style="stroke: #000000; stroke-width: 1.0; stroke-dasharray: 2.0,2.0;" width="9" x="274.5" y="5"/><text fill="#000000" font-family="sans-serif" font-size="12" font-style="italic" lengthAdjust="spacingAndGlyphs" textLength="7" x="275.5" y="17.1387">T</text><line style="stroke: #A80036; stroke-width: 1.5;" x1="165.5" x2="279.5" y1="40" y2="40"/><line style="stroke: #A80036; stroke-width: 1.5;" x1="165.5" x2="279.5" y1="48" y2="48"/><!--MD5=[16a9966bc161ea5cbfde4f7615c2f95f]
reverse link Singleton`1 to CLI--><path d="M222.5,76.51 C222.5,89.14 222.5,103.01 222.5,115.93 " fill="none" id="Singleton`1&lt;-CLI" style="stroke: #A80036; stroke-width: 1.0;"/><polygon fill="none" points="215.5,76.21,222.5,56.21,229.5,76.21,215.5,76.21" style="stroke: #A80036; stroke-width: 1.0;"/><text fill="#000000" font-family="sans-serif" font-size="13" lengthAdjust="spacingAndGlyphs" textLength="41" x="176.5031" y="76.0224">&lt;CLI&gt;</text><!--MD5=[c638e1bb7b812336811a3f11156e4218]
@startuml
class CLI {
    Awake() : void
    + RunConsoleCommand(command:string, startInfo:ProcessStartInfo) : int
    + NormalizeSlashes(path:string) : string
    + AddQuotesIfRequired(path:string) : string
}
class "Singleton`1"<T> {
}
"Singleton`1" "<CLI>" <|- - CLI
@enduml

PlantUML version 1.2020.02(Sun Mar 01 10:22:07 GMT 2020)
(GPL source distribution)
Java Runtime: OpenJDK Runtime Environment
JVM: OpenJDK 64-Bit Server VM
Java Version: 11.0.9+11-Ubuntu-0ubuntu1
Operating System: Linux
Default Encoding: ANSI_X3.4-1968
Language: en
Country: US
--></g></svg>