<?xml version="1.0" encoding="UTF-8" standalone="no"?><svg xmlns="http://www.w3.org/2000/svg" xmlns:xlink="http://www.w3.org/1999/xlink" contentScriptType="application/ecmascript" contentStyleType="text/css" height="175px" preserveAspectRatio="none" style="width:209px;height:175px;" version="1.1" viewBox="0 0 209 175" width="209px" zoomAndPan="magnify"><defs><filter height="300%" id="f1sin0za3e94g1" width="300%" x="-1" y="-1"><feGaussianBlur result="blurOut" stdDeviation="2.0"/><feColorMatrix in="blurOut" result="blurOut2" type="matrix" values="0 0 0 0 0 0 0 0 0 0 0 0 0 0 0 0 0 0 .4 0"/><feOffset dx="4.0" dy="4.0" in="blurOut2" result="blurOut3"/><feBlend in="SourceGraphic" in2="blurOut3" mode="normal"/></filter></defs><g><!--MD5=[772118cf691262ecaf89f84fe4464afd]
class DropdownToContextMenu--><rect fill="#FEFECE" filter="url(#f1sin0za3e94g1)" height="48" id="DropdownToContextMenu" style="stroke: #A80036; stroke-width: 1.5;" width="192" x="6" y="116"/><ellipse cx="21" cy="132" fill="#ADD1B2" rx="11" ry="11" style="stroke: #A80036; stroke-width: 1.0;"/><path d="M23.9688,137.6406 Q23.3906,137.9375 22.75,138.0781 Q22.1094,138.2344 21.4063,138.2344 Q18.9063,138.2344 17.5781,136.5938 Q16.2656,134.9375 16.2656,131.8125 Q16.2656,128.6875 17.5781,127.0313 Q18.9063,125.375 21.4063,125.375 Q22.1094,125.375 22.75,125.5313 Q23.4063,125.6875 23.9688,125.9844 L23.9688,128.7031 Q23.3438,128.125 22.75,127.8594 Q22.1563,127.5781 21.5313,127.5781 Q20.1875,127.5781 19.5,128.6563 Q18.8125,129.7188 18.8125,131.8125 Q18.8125,133.9063 19.5,134.9844 Q20.1875,136.0469 21.5313,136.0469 Q22.1563,136.0469 22.75,135.7813 Q23.3438,135.5 23.9688,134.9219 L23.9688,137.6406 Z "/><text fill="#000000" font-family="sans-serif" font-size="12" lengthAdjust="spacingAndGlyphs" textLength="160" x="35" y="136.1543">DropdownToContextMenu</text><line style="stroke: #A80036; stroke-width: 1.5;" x1="7" x2="197" y1="148" y2="148"/><line style="stroke: #A80036; stroke-width: 1.5;" x1="7" x2="197" y1="156" y2="156"/><!--MD5=[83b3cf3d23d77c6f1e1b5291a241bc2a]
class MonoBehaviour--><rect fill="#FEFECE" filter="url(#f1sin0za3e94g1)" height="48" id="MonoBehaviour" style="stroke: #A80036; stroke-width: 1.5;" width="128" x="38" y="8"/><ellipse cx="53" cy="24" fill="#ADD1B2" rx="11" ry="11" style="stroke: #A80036; stroke-width: 1.0;"/><path d="M55.9688,29.6406 Q55.3906,29.9375 54.75,30.0781 Q54.1094,30.2344 53.4063,30.2344 Q50.9063,30.2344 49.5781,28.5938 Q48.2656,26.9375 48.2656,23.8125 Q48.2656,20.6875 49.5781,19.0313 Q50.9063,17.375 53.4063,17.375 Q54.1094,17.375 54.75,17.5313 Q55.4063,17.6875 55.9688,17.9844 L55.9688,20.7031 Q55.3438,20.125 54.75,19.8594 Q54.1563,19.5781 53.5313,19.5781 Q52.1875,19.5781 51.5,20.6563 Q50.8125,21.7188 50.8125,23.8125 Q50.8125,25.9063 51.5,26.9844 Q52.1875,28.0469 53.5313,28.0469 Q54.1563,28.0469 54.75,27.7813 Q55.3438,27.5 55.9688,26.9219 L55.9688,29.6406 Z "/><text fill="#000000" font-family="sans-serif" font-size="12" lengthAdjust="spacingAndGlyphs" textLength="96" x="67" y="28.1543">MonoBehaviour</text><line style="stroke: #A80036; stroke-width: 1.5;" x1="39" x2="165" y1="40" y2="40"/><line style="stroke: #A80036; stroke-width: 1.5;" x1="39" x2="165" y1="48" y2="48"/><!--MD5=[805fd367f6dfd41f90e27eade2c3281f]
reverse link MonoBehaviour to DropdownToContextMenu--><path d="M102,76.02 C102,89.58 102,104.04 102,115.68 " fill="none" id="MonoBehaviour&lt;-DropdownToContextMenu" style="stroke: #A80036; stroke-width: 1.0;"/><polygon fill="none" points="95,76,102,56,109,76,95,76" style="stroke: #A80036; stroke-width: 1.0;"/><!--MD5=[87dd7913c7d55f54802e8ab2165a05ca]
@startuml
class DropdownToContextMenu {
}
MonoBehaviour <|- - DropdownToContextMenu
@enduml

PlantUML version 1.2020.02(Sun Mar 01 10:22:07 GMT 2020)
(GPL source distribution)
Java Runtime: OpenJDK Runtime Environment
JVM: OpenJDK 64-Bit Server VM
Java Version: 11.0.9+11-Ubuntu-0ubuntu1
Operating System: Linux
Default Encoding: ANSI_X3.4-1968
Language: en
Country: US
--></g></svg>