<?xml version="1.0" encoding="UTF-8" standalone="no"?><svg xmlns="http://www.w3.org/2000/svg" xmlns:xlink="http://www.w3.org/1999/xlink" contentScriptType="application/ecmascript" contentStyleType="text/css" height="334px" preserveAspectRatio="none" style="width:676px;height:334px;" version="1.1" viewBox="0 0 676 334" width="676px" zoomAndPan="magnify"><defs><filter height="300%" id="fqy458vliczul" width="300%" x="-1" y="-1"><feGaussianBlur result="blurOut" stdDeviation="2.0"/><feColorMatrix in="blurOut" result="blurOut2" type="matrix" values="0 0 0 0 0 0 0 0 0 0 0 0 0 0 0 0 0 0 .4 0"/><feOffset dx="4.0" dy="4.0" in="blurOut2" result="blurOut3"/><feBlend in="SourceGraphic" in2="blurOut3" mode="normal"/></filter></defs><g><!--MD5=[6e33e01e055c2f06715c468c11f7f2b9]
class ScriptShaderInterface--><rect fill="#FEFECE" filter="url(#fqy458vliczul)" height="99.2188" id="ScriptShaderInterface" style="stroke: #A80036; stroke-width: 1.5;" width="380" x="6" y="116"/><ellipse cx="123.25" cy="132" fill="#ADD1B2" rx="11" ry="11" style="stroke: #A80036; stroke-width: 1.0;"/><path d="M126.2188,137.6406 Q125.6406,137.9375 125,138.0781 Q124.3594,138.2344 123.6563,138.2344 Q121.1563,138.2344 119.8281,136.5938 Q118.5156,134.9375 118.5156,131.8125 Q118.5156,128.6875 119.8281,127.0313 Q121.1563,125.375 123.6563,125.375 Q124.3594,125.375 125,125.5313 Q125.6563,125.6875 126.2188,125.9844 L126.2188,128.7031 Q125.5938,128.125 125,127.8594 Q124.4063,127.5781 123.7813,127.5781 Q122.4375,127.5781 121.75,128.6563 Q121.0625,129.7188 121.0625,131.8125 Q121.0625,133.9063 121.75,134.9844 Q122.4375,136.0469 123.7813,136.0469 Q124.4063,136.0469 125,135.7813 Q125.5938,135.5 126.2188,134.9219 L126.2188,137.6406 Z "/><text fill="#000000" font-family="sans-serif" font-size="12" lengthAdjust="spacingAndGlyphs" textLength="137" x="143.75" y="136.1543">ScriptShaderInterface</text><line style="stroke: #A80036; stroke-width: 1.5;" x1="7" x2="385" y1="148" y2="148"/><line style="stroke: #A80036; stroke-width: 1.5;" x1="7" x2="385" y1="156" y2="156"/><ellipse cx="17" cy="167" fill="#84BE84" rx="3" ry="3" style="stroke: #038048; stroke-width: 1.0;"/><text fill="#000000" font-family="sans-serif" font-size="11" lengthAdjust="spacingAndGlyphs" textLength="187" x="26" y="170.2104">Initialize(template:Material) : void</text><ellipse cx="17" cy="179.8047" fill="#84BE84" rx="3" ry="3" style="stroke: #038048; stroke-width: 1.0;"/><text fill="#000000" font-family="sans-serif" font-size="11" lengthAdjust="spacingAndGlyphs" textLength="175" x="26" y="183.0151">HasSetting(name:string) : bool</text><ellipse cx="17" cy="192.6094" fill="#84BE84" rx="3" ry="3" style="stroke: #038048; stroke-width: 1.0;"/><text fill="#000000" font-family="sans-serif" font-size="11" lengthAdjust="spacingAndGlyphs" textLength="261" x="26" y="195.8198">GetSetting(name:string) : ShaderSetting&lt;T&gt;?</text><ellipse cx="17" cy="205.4141" fill="#84BE84" rx="3" ry="3" style="stroke: #038048; stroke-width: 1.0;"/><text fill="#000000" font-family="sans-serif" font-size="11" lengthAdjust="spacingAndGlyphs" textLength="354" x="26" y="208.6245">SetSetting(name:string, value:T, updateProjectFile:bool) : bool</text><!--MD5=[e644022de7dea015dd09463c37421447]
class List`1--><rect fill="#FEFECE" filter="url(#fqy458vliczul)" height="48" id="List`1" style="stroke: #A80036; stroke-width: 1.5;" width="78" x="421" y="141.5"/><ellipse cx="436" cy="157.5" fill="#ADD1B2" rx="11" ry="11" style="stroke: #A80036; stroke-width: 1.0;"/><path d="M438.9688,163.1406 Q438.3906,163.4375 437.75,163.5781 Q437.1094,163.7344 436.4063,163.7344 Q433.9063,163.7344 432.5781,162.0938 Q431.2656,160.4375 431.2656,157.3125 Q431.2656,154.1875 432.5781,152.5313 Q433.9063,150.875 436.4063,150.875 Q437.1094,150.875 437.75,151.0313 Q438.4063,151.1875 438.9688,151.4844 L438.9688,154.2031 Q438.3438,153.625 437.75,153.3594 Q437.1563,153.0781 436.5313,153.0781 Q435.1875,153.0781 434.5,154.1563 Q433.8125,155.2188 433.8125,157.3125 Q433.8125,159.4063 434.5,160.4844 Q435.1875,161.5469 436.5313,161.5469 Q437.1563,161.5469 437.75,161.2813 Q438.3438,161 438.9688,160.4219 L438.9688,163.1406 Z "/><text fill="#000000" font-family="sans-serif" font-size="12" lengthAdjust="spacingAndGlyphs" textLength="35" x="450" y="161.6543">List`1</text><rect fill="#FFFFFF" height="15.9688" style="stroke: #000000; stroke-width: 1.0; stroke-dasharray: 2.0,2.0;" width="9" x="493" y="138.5"/><text fill="#000000" font-family="sans-serif" font-size="12" font-style="italic" lengthAdjust="spacingAndGlyphs" textLength="7" x="494" y="150.6387">T</text><line style="stroke: #A80036; stroke-width: 1.5;" x1="422" x2="498" y1="173.5" y2="173.5"/><line style="stroke: #A80036; stroke-width: 1.5;" x1="422" x2="498" y1="181.5" y2="181.5"/><!--MD5=[83b3cf3d23d77c6f1e1b5291a241bc2a]
class MonoBehaviour--><rect fill="#FEFECE" filter="url(#fqy458vliczul)" height="48" id="MonoBehaviour" style="stroke: #A80036; stroke-width: 1.5;" width="128" x="132" y="8"/><ellipse cx="147" cy="24" fill="#ADD1B2" rx="11" ry="11" style="stroke: #A80036; stroke-width: 1.0;"/><path d="M149.9688,29.6406 Q149.3906,29.9375 148.75,30.0781 Q148.1094,30.2344 147.4063,30.2344 Q144.9063,30.2344 143.5781,28.5938 Q142.2656,26.9375 142.2656,23.8125 Q142.2656,20.6875 143.5781,19.0313 Q144.9063,17.375 147.4063,17.375 Q148.1094,17.375 148.75,17.5313 Q149.4063,17.6875 149.9688,17.9844 L149.9688,20.7031 Q149.3438,20.125 148.75,19.8594 Q148.1563,19.5781 147.5313,19.5781 Q146.1875,19.5781 145.5,20.6563 Q144.8125,21.7188 144.8125,23.8125 Q144.8125,25.9063 145.5,26.9844 Q146.1875,28.0469 147.5313,28.0469 Q148.1563,28.0469 148.75,27.7813 Q149.3438,27.5 149.9688,26.9219 L149.9688,29.6406 Z "/><text fill="#000000" font-family="sans-serif" font-size="12" lengthAdjust="spacingAndGlyphs" textLength="96" x="161" y="28.1543">MonoBehaviour</text><line style="stroke: #A80036; stroke-width: 1.5;" x1="133" x2="259" y1="40" y2="40"/><line style="stroke: #A80036; stroke-width: 1.5;" x1="133" x2="259" y1="48" y2="48"/><!--MD5=[90d32ccc189f11441a6ce7cbb63ad387]
class Material--><rect fill="#FEFECE" filter="url(#fqy458vliczul)" height="48" id="Material" style="stroke: #A80036; stroke-width: 1.5;" width="82" x="155" y="275"/><ellipse cx="170" cy="291" fill="#ADD1B2" rx="11" ry="11" style="stroke: #A80036; stroke-width: 1.0;"/><path d="M172.9688,296.6406 Q172.3906,296.9375 171.75,297.0781 Q171.1094,297.2344 170.4063,297.2344 Q167.9063,297.2344 166.5781,295.5938 Q165.2656,293.9375 165.2656,290.8125 Q165.2656,287.6875 166.5781,286.0313 Q167.9063,284.375 170.4063,284.375 Q171.1094,284.375 171.75,284.5313 Q172.4063,284.6875 172.9688,284.9844 L172.9688,287.7031 Q172.3438,287.125 171.75,286.8594 Q171.1563,286.5781 170.5313,286.5781 Q169.1875,286.5781 168.5,287.6563 Q167.8125,288.7188 167.8125,290.8125 Q167.8125,292.9063 168.5,293.9844 Q169.1875,295.0469 170.5313,295.0469 Q171.1563,295.0469 171.75,294.7813 Q172.3438,294.5 172.9688,293.9219 L172.9688,296.6406 Z "/><text fill="#000000" font-family="sans-serif" font-size="12" lengthAdjust="spacingAndGlyphs" textLength="50" x="184" y="295.1543">Material</text><line style="stroke: #A80036; stroke-width: 1.5;" x1="156" x2="236" y1="307" y2="307"/><line style="stroke: #A80036; stroke-width: 1.5;" x1="156" x2="236" y1="315" y2="315"/><!--MD5=[d286a0083e2a31d0e667369f1a50837b]
reverse link MonoBehaviour to ScriptShaderInterface--><path d="M196,76.51 C196,89.14 196,103.01 196,115.93 " fill="none" id="MonoBehaviour&lt;-ScriptShaderInterface" style="stroke: #A80036; stroke-width: 1.0;"/><polygon fill="none" points="189,76.21,196,56.21,203,76.21,189,76.21" style="stroke: #A80036; stroke-width: 1.0;"/><!--MD5=[ddc9c0ad23ba000281f29df89f62de87]
link ScriptShaderInterface to Material--><path d="M196,215.09 C196,233.5 196,253.83 196,269.75 " fill="none" id="ScriptShaderInterface-&gt;Material" style="stroke: #A80036; stroke-width: 1.0;"/><polygon fill="#A80036" points="196,274.98,200,265.98,196,269.98,192,265.98,196,274.98" style="stroke: #A80036; stroke-width: 1.0;"/><text fill="#000000" font-family="sans-serif" font-size="13" lengthAdjust="spacingAndGlyphs" textLength="53" x="136.2094" y="263.9869">material</text><!--MD5=[e98631433a3305896d30ccfe552d0174]
link ScriptShaderInterface to List`1--><path d="M398.01,165.5 C398.01,165.5 404.81,165.5 407.66,165.5 " fill="none" id="ScriptShaderInterface-List`1" style="stroke: #A80036; stroke-width: 1.0;"/><polygon fill="#A80036" points="420.98,165.5,411.98,161.5,415.98,165.5,411.98,169.5,420.98,165.5" style="stroke: #A80036; stroke-width: 1.0;"/><line style="stroke: #A80036; stroke-width: 1.0;" x1="415.98" x2="407.98" y1="165.5" y2="165.5"/><polygon fill="#FFFFFF" points="386.01,165.5,392.01,169.5,398.01,165.5,392.01,161.5,386.01,165.5" style="stroke: #A80036; stroke-width: 1.0;"/><text fill="#000000" font-family="sans-serif" font-size="13" lengthAdjust="spacingAndGlyphs" textLength="158" x="506.937" y="146.5847">propertyNames&lt;string&gt;</text><!--MD5=[7fd432632bf913e0e7e6398eebbbd4e0]
@startuml
class ScriptShaderInterface {
    + Initialize(template:Material) : void
    + HasSetting(name:string) : bool
    + GetSetting(name:string) : ShaderSetting<T>?
    + SetSetting(name:string, value:T, updateProjectFile:bool) : bool
}
class "List`1"<T> {
}
MonoBehaviour <|- - ScriptShaderInterface
ScriptShaderInterface - -> "material" Material
ScriptShaderInterface o-> "propertyNames<string>" "List`1"
@enduml

PlantUML version 1.2020.02(Sun Mar 01 10:22:07 GMT 2020)
(GPL source distribution)
Java Runtime: OpenJDK Runtime Environment
JVM: OpenJDK 64-Bit Server VM
Java Version: 11.0.9+11-Ubuntu-0ubuntu1
Operating System: Linux
Default Encoding: ANSI_X3.4-1968
Language: en
Country: US
--></g></svg>