<?xml version="1.0" encoding="UTF-8" standalone="no"?><svg xmlns="http://www.w3.org/2000/svg" xmlns:xlink="http://www.w3.org/1999/xlink" contentScriptType="application/ecmascript" contentStyleType="text/css" height="226px" preserveAspectRatio="none" style="width:222px;height:226px;" version="1.1" viewBox="0 0 222 226" width="222px" zoomAndPan="magnify"><defs><filter height="300%" id="f2k1dlalw2w4n" width="300%" x="-1" y="-1"><feGaussianBlur result="blurOut" stdDeviation="2.0"/><feColorMatrix in="blurOut" result="blurOut2" type="matrix" values="0 0 0 0 0 0 0 0 0 0 0 0 0 0 0 0 0 0 .4 0"/><feOffset dx="4.0" dy="4.0" in="blurOut2" result="blurOut3"/><feBlend in="SourceGraphic" in2="blurOut3" mode="normal"/></filter></defs><g><!--MD5=[dee713816462c95ab859b5c7ce9f5abb]
class ShaderBinding--><rect fill="#FEFECE" filter="url(#f2k1dlalw2w4n)" height="99.2188" id="ShaderBinding" style="stroke: #A80036; stroke-width: 1.5;" width="205" x="6" y="116"/><ellipse cx="58.75" cy="132" fill="#ADD1B2" rx="11" ry="11" style="stroke: #A80036; stroke-width: 1.0;"/><path d="M61.7188,137.6406 Q61.1406,137.9375 60.5,138.0781 Q59.8594,138.2344 59.1563,138.2344 Q56.6563,138.2344 55.3281,136.5938 Q54.0156,134.9375 54.0156,131.8125 Q54.0156,128.6875 55.3281,127.0313 Q56.6563,125.375 59.1563,125.375 Q59.8594,125.375 60.5,125.5313 Q61.1563,125.6875 61.7188,125.9844 L61.7188,128.7031 Q61.0938,128.125 60.5,127.8594 Q59.9063,127.5781 59.2813,127.5781 Q57.9375,127.5781 57.25,128.6563 Q56.5625,129.7188 56.5625,131.8125 Q56.5625,133.9063 57.25,134.9844 Q57.9375,136.0469 59.2813,136.0469 Q59.9063,136.0469 60.5,135.7813 Q61.0938,135.5 61.7188,134.9219 L61.7188,137.6406 Z "/><text fill="#000000" font-family="sans-serif" font-size="12" lengthAdjust="spacingAndGlyphs" textLength="91" x="79.25" y="136.1543">ShaderBinding</text><line style="stroke: #A80036; stroke-width: 1.5;" x1="7" x2="210" y1="148" y2="148"/><ellipse cx="17" cy="159" fill="none" rx="3" ry="3" style="stroke: #038048; stroke-width: 1.0;"/><text fill="#000000" font-family="sans-serif" font-size="11" lengthAdjust="spacingAndGlyphs" textLength="126" x="26" y="162.2104">propertyName : string</text><line style="stroke: #A80036; stroke-width: 1.5;" x1="7" x2="210" y1="168.8047" y2="168.8047"/><ellipse cx="17" cy="179.8047" fill="#84BE84" rx="3" ry="3" style="stroke: #038048; stroke-width: 1.0;"/><text fill="#000000" font-family="sans-serif" font-size="11" lengthAdjust="spacingAndGlyphs" textLength="179" x="26" y="183.0151">RestoreLoadedValue() : (bool,T)</text><ellipse cx="17" cy="192.6094" fill="#84BE84" rx="3" ry="3" style="stroke: #038048; stroke-width: 1.0;"/><text fill="#000000" font-family="sans-serif" font-size="11" lengthAdjust="spacingAndGlyphs" textLength="141" x="26" y="195.8198">UpdateValue(val:T) : void</text><ellipse cx="17" cy="205.4141" fill="#84BE84" rx="3" ry="3" style="stroke: #038048; stroke-width: 1.0;"/><text fill="#000000" font-family="sans-serif" font-size="11" lengthAdjust="spacingAndGlyphs" textLength="145" x="26" y="208.6245">PreviewValue(val:T) : void</text><!--MD5=[83b3cf3d23d77c6f1e1b5291a241bc2a]
class MonoBehaviour--><rect fill="#FEFECE" filter="url(#f2k1dlalw2w4n)" height="48" id="MonoBehaviour" style="stroke: #A80036; stroke-width: 1.5;" width="128" x="44.5" y="8"/><ellipse cx="59.5" cy="24" fill="#ADD1B2" rx="11" ry="11" style="stroke: #A80036; stroke-width: 1.0;"/><path d="M62.4688,29.6406 Q61.8906,29.9375 61.25,30.0781 Q60.6094,30.2344 59.9063,30.2344 Q57.4063,30.2344 56.0781,28.5938 Q54.7656,26.9375 54.7656,23.8125 Q54.7656,20.6875 56.0781,19.0313 Q57.4063,17.375 59.9063,17.375 Q60.6094,17.375 61.25,17.5313 Q61.9063,17.6875 62.4688,17.9844 L62.4688,20.7031 Q61.8438,20.125 61.25,19.8594 Q60.6563,19.5781 60.0313,19.5781 Q58.6875,19.5781 58,20.6563 Q57.3125,21.7188 57.3125,23.8125 Q57.3125,25.9063 58,26.9844 Q58.6875,28.0469 60.0313,28.0469 Q60.6563,28.0469 61.25,27.7813 Q61.8438,27.5 62.4688,26.9219 L62.4688,29.6406 Z "/><text fill="#000000" font-family="sans-serif" font-size="12" lengthAdjust="spacingAndGlyphs" textLength="96" x="73.5" y="28.1543">MonoBehaviour</text><line style="stroke: #A80036; stroke-width: 1.5;" x1="45.5" x2="171.5" y1="40" y2="40"/><line style="stroke: #A80036; stroke-width: 1.5;" x1="45.5" x2="171.5" y1="48" y2="48"/><!--MD5=[391b1b537b22e73a67c2d5157773375f]
reverse link MonoBehaviour to ShaderBinding--><path d="M108.5,76.51 C108.5,89.14 108.5,103.01 108.5,115.93 " fill="none" id="MonoBehaviour&lt;-ShaderBinding" style="stroke: #A80036; stroke-width: 1.0;"/><polygon fill="none" points="101.5,76.21,108.5,56.21,115.5,76.21,101.5,76.21" style="stroke: #A80036; stroke-width: 1.0;"/><!--MD5=[f6cd0c4bc35278b7b3a05ca084c9216e]
@startuml
class ShaderBinding {
    + propertyName : string
    + RestoreLoadedValue() : (bool,T)
    + UpdateValue(val:T) : void
    + PreviewValue(val:T) : void
}
MonoBehaviour <|- - ShaderBinding
@enduml

PlantUML version 1.2020.02(Sun Mar 01 10:22:07 GMT 2020)
(GPL source distribution)
Java Runtime: OpenJDK Runtime Environment
JVM: OpenJDK 64-Bit Server VM
Java Version: 11.0.9+11-Ubuntu-0ubuntu1
Operating System: Linux
Default Encoding: ANSI_X3.4-1968
Language: en
Country: US
--></g></svg>