<?xml version="1.0" encoding="UTF-8" standalone="no"?><svg xmlns="http://www.w3.org/2000/svg" xmlns:xlink="http://www.w3.org/1999/xlink" contentScriptType="application/ecmascript" contentStyleType="text/css" height="187px" preserveAspectRatio="none" style="width:185px;height:187px;" version="1.1" viewBox="0 0 185 187" width="185px" zoomAndPan="magnify"><defs><filter height="300%" id="f18dq0d6mer1c8" width="300%" x="-1" y="-1"><feGaussianBlur result="blurOut" stdDeviation="2.0"/><feColorMatrix in="blurOut" result="blurOut2" type="matrix" values="0 0 0 0 0 0 0 0 0 0 0 0 0 0 0 0 0 0 .4 0"/><feOffset dx="4.0" dy="4.0" in="blurOut2" result="blurOut3"/><feBlend in="SourceGraphic" in2="blurOut3" mode="normal"/></filter></defs><g><!--MD5=[faa1de4d7b17b110bcca917d9add068e]
class Singleton`1--><rect fill="#FEFECE" filter="url(#f18dq0d6mer1c8)" height="60.8047" id="Singleton`1" style="stroke: #A80036; stroke-width: 1.5;" width="165" x="6" y="116"/><ellipse cx="43.05" cy="132" fill="#ADD1B2" rx="11" ry="11" style="stroke: #A80036; stroke-width: 1.0;"/><path d="M46.0188,137.6406 Q45.4406,137.9375 44.8,138.0781 Q44.1594,138.2344 43.4563,138.2344 Q40.9563,138.2344 39.6281,136.5938 Q38.3156,134.9375 38.3156,131.8125 Q38.3156,128.6875 39.6281,127.0313 Q40.9563,125.375 43.4563,125.375 Q44.1594,125.375 44.8,125.5313 Q45.4563,125.6875 46.0188,125.9844 L46.0188,128.7031 Q45.3938,128.125 44.8,127.8594 Q44.2063,127.5781 43.5813,127.5781 Q42.2375,127.5781 41.55,128.6563 Q40.8625,129.7188 40.8625,131.8125 Q40.8625,133.9063 41.55,134.9844 Q42.2375,136.0469 43.5813,136.0469 Q44.2063,136.0469 44.8,135.7813 Q45.3938,135.5 46.0188,134.9219 L46.0188,137.6406 Z "/><text fill="#000000" font-family="sans-serif" font-size="12" lengthAdjust="spacingAndGlyphs" textLength="73" x="61.95" y="136.1543">Singleton`1</text><rect fill="#FFFFFF" height="15.9688" style="stroke: #000000; stroke-width: 1.0; stroke-dasharray: 2.0,2.0;" width="9" x="165" y="113"/><text fill="#000000" font-family="sans-serif" font-size="12" font-style="italic" lengthAdjust="spacingAndGlyphs" textLength="7" x="166" y="125.1387">T</text><line style="stroke: #A80036; stroke-width: 1.5;" x1="7" x2="170" y1="148" y2="148"/><ellipse cx="17" cy="159" fill="none" rx="3" ry="3" style="stroke: #038048; stroke-width: 1.0;"/><text fill="#000000" font-family="sans-serif" font-size="11" lengthAdjust="spacingAndGlyphs" text-decoration="underline" textLength="139" x="26" y="162.2104">Instance : T «get» «set»</text><line style="stroke: #A80036; stroke-width: 1.5;" x1="7" x2="170" y1="168.8047" y2="168.8047"/><!--MD5=[83b3cf3d23d77c6f1e1b5291a241bc2a]
class MonoBehaviour--><rect fill="#FEFECE" filter="url(#f18dq0d6mer1c8)" height="48" id="MonoBehaviour" style="stroke: #A80036; stroke-width: 1.5;" width="128" x="24.5" y="8"/><ellipse cx="39.5" cy="24" fill="#ADD1B2" rx="11" ry="11" style="stroke: #A80036; stroke-width: 1.0;"/><path d="M42.4688,29.6406 Q41.8906,29.9375 41.25,30.0781 Q40.6094,30.2344 39.9063,30.2344 Q37.4063,30.2344 36.0781,28.5938 Q34.7656,26.9375 34.7656,23.8125 Q34.7656,20.6875 36.0781,19.0313 Q37.4063,17.375 39.9063,17.375 Q40.6094,17.375 41.25,17.5313 Q41.9063,17.6875 42.4688,17.9844 L42.4688,20.7031 Q41.8438,20.125 41.25,19.8594 Q40.6563,19.5781 40.0313,19.5781 Q38.6875,19.5781 38,20.6563 Q37.3125,21.7188 37.3125,23.8125 Q37.3125,25.9063 38,26.9844 Q38.6875,28.0469 40.0313,28.0469 Q40.6563,28.0469 41.25,27.7813 Q41.8438,27.5 42.4688,26.9219 L42.4688,29.6406 Z "/><text fill="#000000" font-family="sans-serif" font-size="12" lengthAdjust="spacingAndGlyphs" textLength="96" x="53.5" y="28.1543">MonoBehaviour</text><line style="stroke: #A80036; stroke-width: 1.5;" x1="25.5" x2="151.5" y1="40" y2="40"/><line style="stroke: #A80036; stroke-width: 1.5;" x1="25.5" x2="151.5" y1="48" y2="48"/><!--MD5=[66134eb8a4e4321b7eba8030e9f3fdaf]
reverse link MonoBehaviour to Singleton`1--><path d="M88.5,76.11 C88.5,89.31 88.5,103.54 88.5,115.65 " fill="none" id="MonoBehaviour&lt;-Singleton`1" style="stroke: #A80036; stroke-width: 1.0;"/><polygon fill="none" points="81.5,76.04,88.5,56.04,95.5,76.04,81.5,76.04" style="stroke: #A80036; stroke-width: 1.0;"/><!--MD5=[c90548ab82b7e72d158cebe77488df45]
@startuml
class "Singleton`1"<T> {
    + {static} Instance : T <<get>> <<set>>
}
MonoBehaviour <|- - "Singleton`1"
@enduml

PlantUML version 1.2020.02(Sun Mar 01 10:22:07 GMT 2020)
(GPL source distribution)
Java Runtime: OpenJDK Runtime Environment
JVM: OpenJDK 64-Bit Server VM
Java Version: 11.0.9+11-Ubuntu-0ubuntu1
Operating System: Linux
Default Encoding: ANSI_X3.4-1968
Language: en
Country: US
--></g></svg>