<?xml version="1.0" encoding="UTF-8" standalone="no"?><svg xmlns="http://www.w3.org/2000/svg" xmlns:xlink="http://www.w3.org/1999/xlink" contentScriptType="application/ecmascript" contentStyleType="text/css" height="219px" preserveAspectRatio="none" style="width:497px;height:219px;" version="1.1" viewBox="0 0 497 219" width="497px" zoomAndPan="magnify"><defs><filter height="300%" id="f5my9nrgysrqb" width="300%" x="-1" y="-1"><feGaussianBlur result="blurOut" stdDeviation="2.0"/><feColorMatrix in="blurOut" result="blurOut2" type="matrix" values="0 0 0 0 0 0 0 0 0 0 0 0 0 0 0 0 0 0 .4 0"/><feOffset dx="4.0" dy="4.0" in="blurOut2" result="blurOut3"/><feBlend in="SourceGraphic" in2="blurOut3" mode="normal"/></filter></defs><g><!--MD5=[dc071f05dd68baf00f5a9009731c6b67]
class StringAction--><rect fill="#FEFECE" filter="url(#f5my9nrgysrqb)" height="66.7422" id="StringAction" style="stroke: #A80036; stroke-width: 1.5;" width="108" x="363" y="8"/><ellipse cx="378" cy="26.9688" fill="#ADD1B2" rx="11" ry="11" style="stroke: #A80036; stroke-width: 1.0;"/><path d="M380.9688,32.6094 Q380.3906,32.9063 379.75,33.0469 Q379.1094,33.2031 378.4063,33.2031 Q375.9063,33.2031 374.5781,31.5625 Q373.2656,29.9063 373.2656,26.7813 Q373.2656,23.6563 374.5781,22 Q375.9063,20.3438 378.4063,20.3438 Q379.1094,20.3438 379.75,20.5 Q380.4063,20.6563 380.9688,20.9531 L380.9688,23.6719 Q380.3438,23.0938 379.75,22.8281 Q379.1563,22.5469 378.5313,22.5469 Q377.1875,22.5469 376.5,23.625 Q375.8125,24.6875 375.8125,26.7813 Q375.8125,28.875 376.5,29.9531 Q377.1875,31.0156 378.5313,31.0156 Q379.1563,31.0156 379.75,30.75 Q380.3438,30.4688 380.9688,29.8906 L380.9688,32.6094 Z "/><text fill="#000000" font-family="sans-serif" font-size="12" font-style="italic" lengthAdjust="spacingAndGlyphs" textLength="50" x="405" y="24.1387">«struct»</text><text fill="#000000" font-family="sans-serif" font-size="12" lengthAdjust="spacingAndGlyphs" textLength="76" x="392" y="38.1074">StringAction</text><line style="stroke: #A80036; stroke-width: 1.5;" x1="364" x2="470" y1="45.9375" y2="45.9375"/><ellipse cx="374" cy="56.9375" fill="none" rx="3" ry="3" style="stroke: #038048; stroke-width: 1.0;"/><text fill="#000000" font-family="sans-serif" font-size="11" lengthAdjust="spacingAndGlyphs" textLength="79" x="383" y="60.1479">action : string</text><line style="stroke: #A80036; stroke-width: 1.5;" x1="364" x2="470" y1="66.7422" y2="66.7422"/><!--MD5=[ce73e9aba3a87f5d30f47a0a1080bf5a]
class StringActionRunner--><rect fill="#FEFECE" filter="url(#f5my9nrgysrqb)" height="73.6094" id="StringActionRunner" style="stroke: #A80036; stroke-width: 1.5;" width="214" x="6" y="135"/><ellipse cx="48.45" cy="151" fill="#ADD1B2" rx="11" ry="11" style="stroke: #A80036; stroke-width: 1.0;"/><path d="M51.4188,156.6406 Q50.8406,156.9375 50.2,157.0781 Q49.5594,157.2344 48.8563,157.2344 Q46.3563,157.2344 45.0281,155.5938 Q43.7156,153.9375 43.7156,150.8125 Q43.7156,147.6875 45.0281,146.0313 Q46.3563,144.375 48.8563,144.375 Q49.5594,144.375 50.2,144.5313 Q50.8563,144.6875 51.4188,144.9844 L51.4188,147.7031 Q50.7938,147.125 50.2,146.8594 Q49.6063,146.5781 48.9813,146.5781 Q47.6375,146.5781 46.95,147.6563 Q46.2625,148.7188 46.2625,150.8125 Q46.2625,152.9063 46.95,153.9844 Q47.6375,155.0469 48.9813,155.0469 Q49.6063,155.0469 50.2,154.7813 Q50.7938,154.5 51.4188,153.9219 L51.4188,156.6406 Z "/><text fill="#000000" font-family="sans-serif" font-size="12" lengthAdjust="spacingAndGlyphs" textLength="121" x="68.55" y="155.1543">StringActionRunner</text><line style="stroke: #A80036; stroke-width: 1.5;" x1="7" x2="219" y1="167" y2="167"/><line style="stroke: #A80036; stroke-width: 1.5;" x1="7" x2="219" y1="175" y2="175"/><ellipse cx="17" cy="186" fill="#84BE84" rx="3" ry="3" style="stroke: #038048; stroke-width: 1.0;"/><text fill="#000000" font-family="sans-serif" font-size="11" lengthAdjust="spacingAndGlyphs" textLength="188" x="26" y="189.2104">TryRunAction(action:string) : bool</text><ellipse cx="17" cy="198.8047" fill="#84BE84" rx="3" ry="3" style="stroke: #038048; stroke-width: 1.0;"/><text fill="#000000" font-family="sans-serif" font-size="11" lengthAdjust="spacingAndGlyphs" textLength="121" x="26" y="202.0151">RunActionTMP() : void</text><!--MD5=[e644022de7dea015dd09463c37421447]
class List`1--><rect fill="#FEFECE" filter="url(#f5my9nrgysrqb)" height="48" id="List`1" style="stroke: #A80036; stroke-width: 1.5;" width="78" x="255" y="148"/><ellipse cx="270" cy="164" fill="#ADD1B2" rx="11" ry="11" style="stroke: #A80036; stroke-width: 1.0;"/><path d="M272.9688,169.6406 Q272.3906,169.9375 271.75,170.0781 Q271.1094,170.2344 270.4063,170.2344 Q267.9063,170.2344 266.5781,168.5938 Q265.2656,166.9375 265.2656,163.8125 Q265.2656,160.6875 266.5781,159.0313 Q267.9063,157.375 270.4063,157.375 Q271.1094,157.375 271.75,157.5313 Q272.4063,157.6875 272.9688,157.9844 L272.9688,160.7031 Q272.3438,160.125 271.75,159.8594 Q271.1563,159.5781 270.5313,159.5781 Q269.1875,159.5781 268.5,160.6563 Q267.8125,161.7188 267.8125,163.8125 Q267.8125,165.9063 268.5,166.9844 Q269.1875,168.0469 270.5313,168.0469 Q271.1563,168.0469 271.75,167.7813 Q272.3438,167.5 272.9688,166.9219 L272.9688,169.6406 Z "/><text fill="#000000" font-family="sans-serif" font-size="12" lengthAdjust="spacingAndGlyphs" textLength="35" x="284" y="168.1543">List`1</text><rect fill="#FFFFFF" height="15.9688" style="stroke: #000000; stroke-width: 1.0; stroke-dasharray: 2.0,2.0;" width="9" x="327" y="145"/><text fill="#000000" font-family="sans-serif" font-size="12" font-style="italic" lengthAdjust="spacingAndGlyphs" textLength="7" x="328" y="157.1387">T</text><line style="stroke: #A80036; stroke-width: 1.5;" x1="256" x2="332" y1="180" y2="180"/><line style="stroke: #A80036; stroke-width: 1.5;" x1="256" x2="332" y1="188" y2="188"/><!--MD5=[3ead63e7a6dbaeb1466e3b865cfef6ea]
class UnityEvent--><rect fill="#FEFECE" filter="url(#f5my9nrgysrqb)" height="48" id="UnityEvent" style="stroke: #A80036; stroke-width: 1.5;" width="98" x="368" y="148"/><ellipse cx="383" cy="164" fill="#ADD1B2" rx="11" ry="11" style="stroke: #A80036; stroke-width: 1.0;"/><path d="M385.9688,169.6406 Q385.3906,169.9375 384.75,170.0781 Q384.1094,170.2344 383.4063,170.2344 Q380.9063,170.2344 379.5781,168.5938 Q378.2656,166.9375 378.2656,163.8125 Q378.2656,160.6875 379.5781,159.0313 Q380.9063,157.375 383.4063,157.375 Q384.1094,157.375 384.75,157.5313 Q385.4063,157.6875 385.9688,157.9844 L385.9688,160.7031 Q385.3438,160.125 384.75,159.8594 Q384.1563,159.5781 383.5313,159.5781 Q382.1875,159.5781 381.5,160.6563 Q380.8125,161.7188 380.8125,163.8125 Q380.8125,165.9063 381.5,166.9844 Q382.1875,168.0469 383.5313,168.0469 Q384.1563,168.0469 384.75,167.7813 Q385.3438,167.5 385.9688,166.9219 L385.9688,169.6406 Z "/><text fill="#000000" font-family="sans-serif" font-size="12" lengthAdjust="spacingAndGlyphs" textLength="66" x="397" y="168.1543">UnityEvent</text><line style="stroke: #A80036; stroke-width: 1.5;" x1="369" x2="465" y1="180" y2="180"/><line style="stroke: #A80036; stroke-width: 1.5;" x1="369" x2="465" y1="188" y2="188"/><!--MD5=[83b3cf3d23d77c6f1e1b5291a241bc2a]
class MonoBehaviour--><rect fill="#FEFECE" filter="url(#f5my9nrgysrqb)" height="48" id="MonoBehaviour" style="stroke: #A80036; stroke-width: 1.5;" width="128" x="49" y="17.5"/><ellipse cx="64" cy="33.5" fill="#ADD1B2" rx="11" ry="11" style="stroke: #A80036; stroke-width: 1.0;"/><path d="M66.9688,39.1406 Q66.3906,39.4375 65.75,39.5781 Q65.1094,39.7344 64.4063,39.7344 Q61.9063,39.7344 60.5781,38.0938 Q59.2656,36.4375 59.2656,33.3125 Q59.2656,30.1875 60.5781,28.5313 Q61.9063,26.875 64.4063,26.875 Q65.1094,26.875 65.75,27.0313 Q66.4063,27.1875 66.9688,27.4844 L66.9688,30.2031 Q66.3438,29.625 65.75,29.3594 Q65.1563,29.0781 64.5313,29.0781 Q63.1875,29.0781 62.5,30.1563 Q61.8125,31.2188 61.8125,33.3125 Q61.8125,35.4063 62.5,36.4844 Q63.1875,37.5469 64.5313,37.5469 Q65.1563,37.5469 65.75,37.2813 Q66.3438,37 66.9688,36.4219 L66.9688,39.1406 Z "/><text fill="#000000" font-family="sans-serif" font-size="12" lengthAdjust="spacingAndGlyphs" textLength="96" x="78" y="37.6543">MonoBehaviour</text><line style="stroke: #A80036; stroke-width: 1.5;" x1="50" x2="176" y1="49.5" y2="49.5"/><line style="stroke: #A80036; stroke-width: 1.5;" x1="50" x2="176" y1="57.5" y2="57.5"/><!--MD5=[dbb17292e5d66e9ae0b7ab080a50d1fc]
link StringAction to UnityEvent--><path d="M417,75.26 C417,96.01 417,122.58 417,142.47 " fill="none" id="StringAction-&gt;UnityEvent" style="stroke: #A80036; stroke-width: 1.0;"/><polygon fill="#A80036" points="417,147.63,421,138.63,417,142.63,413,138.63,417,147.63" style="stroke: #A80036; stroke-width: 1.0;"/><text fill="#000000" font-family="sans-serif" font-size="13" lengthAdjust="spacingAndGlyphs" textLength="52" x="358.6625" y="136.9448">reaction</text><!--MD5=[210e9669682d95d5204fd6583e49f536]
reverse link MonoBehaviour to StringActionRunner--><path d="M113,85.85 C113,101.75 113,119.58 113,134.79 " fill="none" id="MonoBehaviour&lt;-StringActionRunner" style="stroke: #A80036; stroke-width: 1.0;"/><polygon fill="none" points="106,85.77,113,65.77,120,85.77,106,85.77" style="stroke: #A80036; stroke-width: 1.0;"/><!--MD5=[d185c53d1090ff1f250502857f95cede]
link StringActionRunner to List`1--><path d="M232.12,172 C232.12,172 238.94,172 241.72,172 " fill="none" id="StringActionRunner-List`1" style="stroke: #A80036; stroke-width: 1.0;"/><polygon fill="#A80036" points="254.75,172,245.75,168,249.75,172,245.75,176,254.75,172" style="stroke: #A80036; stroke-width: 1.0;"/><line style="stroke: #A80036; stroke-width: 1.0;" x1="249.75" x2="241.75" y1="172" y2="172"/><polygon fill="#FFFFFF" points="220.12,172,226.12,176,232.12,172,226.12,168,220.12,172" style="stroke: #A80036; stroke-width: 1.0;"/><text fill="#000000" font-family="sans-serif" font-size="13" lengthAdjust="spacingAndGlyphs" textLength="146" x="339.2586" y="137.2465">actions&lt;StringAction&gt;</text><!--MD5=[2d5162b1c13f73e4b690b2fac452d447]
@startuml
class StringAction <<struct>> {
    + action : string
}
class StringActionRunner {
    + TryRunAction(action:string) : bool
    + RunActionTMP() : void
}
class "List`1"<T> {
}
StringAction - -> "reaction" UnityEvent
MonoBehaviour <|- - StringActionRunner
StringActionRunner o-> "actions<StringAction>" "List`1"
@enduml

PlantUML version 1.2020.02(Sun Mar 01 10:22:07 GMT 2020)
(GPL source distribution)
Java Runtime: OpenJDK Runtime Environment
JVM: OpenJDK 64-Bit Server VM
Java Version: 11.0.9+11-Ubuntu-0ubuntu1
Operating System: Linux
Default Encoding: ANSI_X3.4-1968
Language: en
Country: US
--></g></svg>