<?xml version="1.0" encoding="UTF-8" standalone="no"?><svg xmlns="http://www.w3.org/2000/svg" xmlns:xlink="http://www.w3.org/1999/xlink" contentScriptType="application/ecmascript" contentStyleType="text/css" height="296px" preserveAspectRatio="none" style="width:158px;height:296px;" version="1.1" viewBox="0 0 158 296" width="158px" zoomAndPan="magnify"><defs><filter height="300%" id="f1w4d7nm71cfre" width="300%" x="-1" y="-1"><feGaussianBlur result="blurOut" stdDeviation="2.0"/><feColorMatrix in="blurOut" result="blurOut2" type="matrix" values="0 0 0 0 0 0 0 0 0 0 0 0 0 0 0 0 0 0 .4 0"/><feOffset dx="4.0" dy="4.0" in="blurOut2" result="blurOut3"/><feBlend in="SourceGraphic" in2="blurOut3" mode="normal"/></filter></defs><g><!--MD5=[ee4319386a2911cf17b83cbc00b60755]
class CameraController--><rect fill="#FEFECE" filter="url(#f1w4d7nm71cfre)" height="60.8047" id="CameraController" style="stroke: #A80036; stroke-width: 1.5;" width="141" x="6" y="116"/><ellipse cx="21" cy="132" fill="#ADD1B2" rx="11" ry="11" style="stroke: #A80036; stroke-width: 1.0;"/><path d="M23.9688,137.6406 Q23.3906,137.9375 22.75,138.0781 Q22.1094,138.2344 21.4063,138.2344 Q18.9063,138.2344 17.5781,136.5938 Q16.2656,134.9375 16.2656,131.8125 Q16.2656,128.6875 17.5781,127.0313 Q18.9063,125.375 21.4063,125.375 Q22.1094,125.375 22.75,125.5313 Q23.4063,125.6875 23.9688,125.9844 L23.9688,128.7031 Q23.3438,128.125 22.75,127.8594 Q22.1563,127.5781 21.5313,127.5781 Q20.1875,127.5781 19.5,128.6563 Q18.8125,129.7188 18.8125,131.8125 Q18.8125,133.9063 19.5,134.9844 Q20.1875,136.0469 21.5313,136.0469 Q22.1563,136.0469 22.75,135.7813 Q23.3438,135.5 23.9688,134.9219 L23.9688,137.6406 Z "/><text fill="#000000" font-family="sans-serif" font-size="12" lengthAdjust="spacingAndGlyphs" textLength="109" x="35" y="136.1543">CameraController</text><line style="stroke: #A80036; stroke-width: 1.5;" x1="7" x2="146" y1="148" y2="148"/><ellipse cx="17" cy="159" fill="none" rx="3" ry="3" style="stroke: #038048; stroke-width: 1.0;"/><text fill="#000000" font-family="sans-serif" font-size="11" lengthAdjust="spacingAndGlyphs" textLength="92" x="26" y="162.2104">sensitifity : float</text><line style="stroke: #A80036; stroke-width: 1.5;" x1="7" x2="146" y1="168.8047" y2="168.8047"/><!--MD5=[83b3cf3d23d77c6f1e1b5291a241bc2a]
class MonoBehaviour--><rect fill="#FEFECE" filter="url(#f1w4d7nm71cfre)" height="48" id="MonoBehaviour" style="stroke: #A80036; stroke-width: 1.5;" width="128" x="12.5" y="8"/><ellipse cx="27.5" cy="24" fill="#ADD1B2" rx="11" ry="11" style="stroke: #A80036; stroke-width: 1.0;"/><path d="M30.4688,29.6406 Q29.8906,29.9375 29.25,30.0781 Q28.6094,30.2344 27.9063,30.2344 Q25.4063,30.2344 24.0781,28.5938 Q22.7656,26.9375 22.7656,23.8125 Q22.7656,20.6875 24.0781,19.0313 Q25.4063,17.375 27.9063,17.375 Q28.6094,17.375 29.25,17.5313 Q29.9063,17.6875 30.4688,17.9844 L30.4688,20.7031 Q29.8438,20.125 29.25,19.8594 Q28.6563,19.5781 28.0313,19.5781 Q26.6875,19.5781 26,20.6563 Q25.3125,21.7188 25.3125,23.8125 Q25.3125,25.9063 26,26.9844 Q26.6875,28.0469 28.0313,28.0469 Q28.6563,28.0469 29.25,27.7813 Q29.8438,27.5 30.4688,26.9219 L30.4688,29.6406 Z "/><text fill="#000000" font-family="sans-serif" font-size="12" lengthAdjust="spacingAndGlyphs" textLength="96" x="41.5" y="28.1543">MonoBehaviour</text><line style="stroke: #A80036; stroke-width: 1.5;" x1="13.5" x2="139.5" y1="40" y2="40"/><line style="stroke: #A80036; stroke-width: 1.5;" x1="13.5" x2="139.5" y1="48" y2="48"/><!--MD5=[90a68fc9c46aca5be8b3299127d346e3]
class Preview--><rect fill="#FEFECE" filter="url(#f1w4d7nm71cfre)" height="48" id="Preview" style="stroke: #A80036; stroke-width: 1.5;" width="79" x="37" y="237"/><ellipse cx="52" cy="253" fill="#ADD1B2" rx="11" ry="11" style="stroke: #A80036; stroke-width: 1.0;"/><path d="M54.9688,258.6406 Q54.3906,258.9375 53.75,259.0781 Q53.1094,259.2344 52.4063,259.2344 Q49.9063,259.2344 48.5781,257.5938 Q47.2656,255.9375 47.2656,252.8125 Q47.2656,249.6875 48.5781,248.0313 Q49.9063,246.375 52.4063,246.375 Q53.1094,246.375 53.75,246.5313 Q54.4063,246.6875 54.9688,246.9844 L54.9688,249.7031 Q54.3438,249.125 53.75,248.8594 Q53.1563,248.5781 52.5313,248.5781 Q51.1875,248.5781 50.5,249.6563 Q49.8125,250.7188 49.8125,252.8125 Q49.8125,254.9063 50.5,255.9844 Q51.1875,257.0469 52.5313,257.0469 Q53.1563,257.0469 53.75,256.7813 Q54.3438,256.5 54.9688,255.9219 L54.9688,258.6406 Z "/><text fill="#000000" font-family="sans-serif" font-size="12" lengthAdjust="spacingAndGlyphs" textLength="47" x="66" y="257.1543">Preview</text><line style="stroke: #A80036; stroke-width: 1.5;" x1="38" x2="115" y1="269" y2="269"/><line style="stroke: #A80036; stroke-width: 1.5;" x1="38" x2="115" y1="277" y2="277"/><!--MD5=[7f93bdb6007512fd3bad16b08750be2c]
reverse link MonoBehaviour to CameraController--><path d="M76.5,76.11 C76.5,89.31 76.5,103.54 76.5,115.65 " fill="none" id="MonoBehaviour&lt;-CameraController" style="stroke: #A80036; stroke-width: 1.0;"/><polygon fill="none" points="69.5,76.04,76.5,56.04,83.5,76.04,69.5,76.04" style="stroke: #A80036; stroke-width: 1.0;"/><!--MD5=[2bcaffa9498c142abbeb0e64dcb9a711]
link CameraController to Preview--><path d="M76.5,177.06 C76.5,193.93 76.5,214.98 76.5,231.65 " fill="none" id="CameraController-&gt;Preview" style="stroke: #A80036; stroke-width: 1.0;"/><polygon fill="#A80036" points="76.5,236.67,80.5,227.67,76.5,231.67,72.5,227.67,76.5,236.67" style="stroke: #A80036; stroke-width: 1.0;"/><text fill="#000000" font-family="sans-serif" font-size="13" lengthAdjust="spacingAndGlyphs" textLength="48" x="22.65" y="225.9945">preview</text><!--MD5=[2c63943b13fb6214007c665ffe904908]
@startuml
class CameraController {
    + sensitifity : float
}
MonoBehaviour <|- - CameraController
CameraController - -> "preview" Preview
@enduml

PlantUML version 1.2020.02(Sun Mar 01 10:22:07 GMT 2020)
(GPL source distribution)
Java Runtime: OpenJDK Runtime Environment
JVM: OpenJDK 64-Bit Server VM
Java Version: 11.0.9+11-Ubuntu-0ubuntu1
Operating System: Linux
Default Encoding: ANSI_X3.4-1968
Language: en
Country: US
--></g></svg>