<?xml version="1.0" encoding="UTF-8" standalone="no"?><svg xmlns="http://www.w3.org/2000/svg" xmlns:xlink="http://www.w3.org/1999/xlink" contentScriptType="application/ecmascript" contentStyleType="text/css" height="213px" preserveAspectRatio="none" style="width:529px;height:213px;" version="1.1" viewBox="0 0 529 213" width="529px" zoomAndPan="magnify"><defs><filter height="300%" id="f16yle5s1qp1oe" width="300%" x="-1" y="-1"><feGaussianBlur result="blurOut" stdDeviation="2.0"/><feColorMatrix in="blurOut" result="blurOut2" type="matrix" values="0 0 0 0 0 0 0 0 0 0 0 0 0 0 0 0 0 0 .4 0"/><feOffset dx="4.0" dy="4.0" in="blurOut2" result="blurOut3"/><feBlend in="SourceGraphic" in2="blurOut3" mode="normal"/></filter></defs><g><!--MD5=[90a68fc9c46aca5be8b3299127d346e3]
class Preview--><rect fill="#FEFECE" filter="url(#f16yle5s1qp1oe)" height="86.4141" id="Preview" style="stroke: #A80036; stroke-width: 1.5;" width="313" x="94.5" y="116"/><ellipse cx="223.25" cy="132" fill="#ADD1B2" rx="11" ry="11" style="stroke: #A80036; stroke-width: 1.0;"/><path d="M226.2188,137.6406 Q225.6406,137.9375 225,138.0781 Q224.3594,138.2344 223.6563,138.2344 Q221.1563,138.2344 219.8281,136.5938 Q218.5156,134.9375 218.5156,131.8125 Q218.5156,128.6875 219.8281,127.0313 Q221.1563,125.375 223.6563,125.375 Q224.3594,125.375 225,125.5313 Q225.6563,125.6875 226.2188,125.9844 L226.2188,128.7031 Q225.5938,128.125 225,127.8594 Q224.4063,127.5781 223.7813,127.5781 Q222.4375,127.5781 221.75,128.6563 Q221.0625,129.7188 221.0625,131.8125 Q221.0625,133.9063 221.75,134.9844 Q222.4375,136.0469 223.7813,136.0469 Q224.4063,136.0469 225,135.7813 Q225.5938,135.5 226.2188,134.9219 L226.2188,137.6406 Z "/><text fill="#000000" font-family="sans-serif" font-size="12" lengthAdjust="spacingAndGlyphs" textLength="47" x="243.75" y="136.1543">Preview</text><line style="stroke: #A80036; stroke-width: 1.5;" x1="95.5" x2="406.5" y1="148" y2="148"/><ellipse cx="105.5" cy="159" fill="none" rx="3" ry="3" style="stroke: #038048; stroke-width: 1.0;"/><text fill="#000000" font-family="sans-serif" font-size="11" lengthAdjust="spacingAndGlyphs" textLength="177" x="114.5" y="162.2104">isBeeingHovered : bool = false</text><line style="stroke: #A80036; stroke-width: 1.5;" x1="95.5" x2="406.5" y1="168.8047" y2="168.8047"/><ellipse cx="105.5" cy="179.8047" fill="#84BE84" rx="3" ry="3" style="stroke: #038048; stroke-width: 1.0;"/><text fill="#000000" font-family="sans-serif" font-size="11" lengthAdjust="spacingAndGlyphs" textLength="287" x="114.5" y="183.0151">OnPointerEnter(eventData:PointerEventData) : void</text><ellipse cx="105.5" cy="192.6094" fill="#84BE84" rx="3" ry="3" style="stroke: #038048; stroke-width: 1.0;"/><text fill="#000000" font-family="sans-serif" font-size="11" lengthAdjust="spacingAndGlyphs" textLength="277" x="114.5" y="195.8198">OnPointerExit(eventData:PointerEventData) : void</text><!--MD5=[83b3cf3d23d77c6f1e1b5291a241bc2a]
class MonoBehaviour--><rect fill="#FEFECE" filter="url(#f16yle5s1qp1oe)" height="48" id="MonoBehaviour" style="stroke: #A80036; stroke-width: 1.5;" width="128" x="6" y="8"/><ellipse cx="21" cy="24" fill="#ADD1B2" rx="11" ry="11" style="stroke: #A80036; stroke-width: 1.0;"/><path d="M23.9688,29.6406 Q23.3906,29.9375 22.75,30.0781 Q22.1094,30.2344 21.4063,30.2344 Q18.9063,30.2344 17.5781,28.5938 Q16.2656,26.9375 16.2656,23.8125 Q16.2656,20.6875 17.5781,19.0313 Q18.9063,17.375 21.4063,17.375 Q22.1094,17.375 22.75,17.5313 Q23.4063,17.6875 23.9688,17.9844 L23.9688,20.7031 Q23.3438,20.125 22.75,19.8594 Q22.1563,19.5781 21.5313,19.5781 Q20.1875,19.5781 19.5,20.6563 Q18.8125,21.7188 18.8125,23.8125 Q18.8125,25.9063 19.5,26.9844 Q20.1875,28.0469 21.5313,28.0469 Q22.1563,28.0469 22.75,27.7813 Q23.3438,27.5 23.9688,26.9219 L23.9688,29.6406 Z "/><text fill="#000000" font-family="sans-serif" font-size="12" lengthAdjust="spacingAndGlyphs" textLength="96" x="35" y="28.1543">MonoBehaviour</text><line style="stroke: #A80036; stroke-width: 1.5;" x1="7" x2="133" y1="40" y2="40"/><line style="stroke: #A80036; stroke-width: 1.5;" x1="7" x2="133" y1="48" y2="48"/><!--MD5=[de300939ba483addb7a9d01e73a2534d]
class IPointerEnterHandler--><rect fill="#FEFECE" filter="url(#f16yle5s1qp1oe)" height="48" id="IPointerEnterHandler" style="stroke: #A80036; stroke-width: 1.5;" width="163" x="169.5" y="8"/><ellipse cx="184.5" cy="24" fill="#ADD1B2" rx="11" ry="11" style="stroke: #A80036; stroke-width: 1.0;"/><path d="M187.4688,29.6406 Q186.8906,29.9375 186.25,30.0781 Q185.6094,30.2344 184.9063,30.2344 Q182.4063,30.2344 181.0781,28.5938 Q179.7656,26.9375 179.7656,23.8125 Q179.7656,20.6875 181.0781,19.0313 Q182.4063,17.375 184.9063,17.375 Q185.6094,17.375 186.25,17.5313 Q186.9063,17.6875 187.4688,17.9844 L187.4688,20.7031 Q186.8438,20.125 186.25,19.8594 Q185.6563,19.5781 185.0313,19.5781 Q183.6875,19.5781 183,20.6563 Q182.3125,21.7188 182.3125,23.8125 Q182.3125,25.9063 183,26.9844 Q183.6875,28.0469 185.0313,28.0469 Q185.6563,28.0469 186.25,27.7813 Q186.8438,27.5 187.4688,26.9219 L187.4688,29.6406 Z "/><text fill="#000000" font-family="sans-serif" font-size="12" lengthAdjust="spacingAndGlyphs" textLength="131" x="198.5" y="28.1543">IPointerEnterHandler</text><line style="stroke: #A80036; stroke-width: 1.5;" x1="170.5" x2="331.5" y1="40" y2="40"/><line style="stroke: #A80036; stroke-width: 1.5;" x1="170.5" x2="331.5" y1="48" y2="48"/><!--MD5=[2a05d73b1746723f7d92c082f91d8119]
class IPointerExitHandler--><rect fill="#FEFECE" filter="url(#f16yle5s1qp1oe)" height="48" id="IPointerExitHandler" style="stroke: #A80036; stroke-width: 1.5;" width="151" x="367.5" y="8"/><ellipse cx="382.5" cy="24" fill="#ADD1B2" rx="11" ry="11" style="stroke: #A80036; stroke-width: 1.0;"/><path d="M385.4688,29.6406 Q384.8906,29.9375 384.25,30.0781 Q383.6094,30.2344 382.9063,30.2344 Q380.4063,30.2344 379.0781,28.5938 Q377.7656,26.9375 377.7656,23.8125 Q377.7656,20.6875 379.0781,19.0313 Q380.4063,17.375 382.9063,17.375 Q383.6094,17.375 384.25,17.5313 Q384.9063,17.6875 385.4688,17.9844 L385.4688,20.7031 Q384.8438,20.125 384.25,19.8594 Q383.6563,19.5781 383.0313,19.5781 Q381.6875,19.5781 381,20.6563 Q380.3125,21.7188 380.3125,23.8125 Q380.3125,25.9063 381,26.9844 Q381.6875,28.0469 383.0313,28.0469 Q383.6563,28.0469 384.25,27.7813 Q384.8438,27.5 385.4688,26.9219 L385.4688,29.6406 Z "/><text fill="#000000" font-family="sans-serif" font-size="12" lengthAdjust="spacingAndGlyphs" textLength="119" x="396.5" y="28.1543">IPointerExitHandler</text><line style="stroke: #A80036; stroke-width: 1.5;" x1="368.5" x2="517.5" y1="40" y2="40"/><line style="stroke: #A80036; stroke-width: 1.5;" x1="368.5" x2="517.5" y1="48" y2="48"/><!--MD5=[b9ecaf693c04a424a5a08056ea93d1ca]
reverse link MonoBehaviour to Preview--><path d="M120.37,67.78 C141.98,82.71 167.43,100.28 190.09,115.94 " fill="none" id="MonoBehaviour&lt;-Preview" style="stroke: #A80036; stroke-width: 1.0;"/><polygon fill="none" points="116.1,73.34,103.62,56.22,124.06,61.82,116.1,73.34" style="stroke: #A80036; stroke-width: 1.0;"/><!--MD5=[9eeca88bd271e97a8a12e6b119f4cf2b]
reverse link IPointerEnterHandler to Preview--><path d="M251,76.27 C251,89.12 251,103.17 251,115.94 " fill="none" id="IPointerEnterHandler&lt;-Preview" style="stroke: #A80036; stroke-width: 1.0;"/><polygon fill="none" points="244,76.22,251,56.22,258,76.22,244,76.22" style="stroke: #A80036; stroke-width: 1.0;"/><!--MD5=[b5c56e0b53e5baeaf9ebec8ad2570df4]
reverse link IPointerExitHandler to Preview--><path d="M390.25,67.34 C367.18,82.36 339.89,100.13 315.61,115.94 " fill="none" id="IPointerExitHandler&lt;-Preview" style="stroke: #A80036; stroke-width: 1.0;"/><polygon fill="none" points="386.76,61.26,407.34,56.22,394.39,73,386.76,61.26" style="stroke: #A80036; stroke-width: 1.0;"/><!--MD5=[5314d592ed03d63bb743bff94b3344f7]
@startuml
class Preview {
    + isBeeingHovered : bool = false
    + OnPointerEnter(eventData:PointerEventData) : void
    + OnPointerExit(eventData:PointerEventData) : void
}
MonoBehaviour <|- - Preview
IPointerEnterHandler <|- - Preview
IPointerExitHandler <|- - Preview
@enduml

PlantUML version 1.2020.02(Sun Mar 01 10:22:07 GMT 2020)
(GPL source distribution)
Java Runtime: OpenJDK Runtime Environment
JVM: OpenJDK 64-Bit Server VM
Java Version: 11.0.9+11-Ubuntu-0ubuntu1
Operating System: Linux
Default Encoding: ANSI_X3.4-1968
Language: en
Country: US
--></g></svg>