<?xml version="1.0" encoding="UTF-8" standalone="no"?><svg xmlns="http://www.w3.org/2000/svg" xmlns:xlink="http://www.w3.org/1999/xlink" contentScriptType="application/ecmascript" contentStyleType="text/css" height="309px" preserveAspectRatio="none" style="width:565px;height:309px;" version="1.1" viewBox="0 0 565 309" width="565px" zoomAndPan="magnify"><defs><filter height="300%" id="f1e350zdu22xet" width="300%" x="-1" y="-1"><feGaussianBlur result="blurOut" stdDeviation="2.0"/><feColorMatrix in="blurOut" result="blurOut2" type="matrix" values="0 0 0 0 0 0 0 0 0 0 0 0 0 0 0 0 0 0 .4 0"/><feOffset dx="4.0" dy="4.0" in="blurOut2" result="blurOut3"/><feBlend in="SourceGraphic" in2="blurOut3" mode="normal"/></filter></defs><g><!--MD5=[819b1ca37e9a8a6f7d89c1737a22382d]
class CommandBasedInputFieldComponent--><rect fill="#FEFECE" filter="url(#f1e350zdu22xet)" height="73.6094" id="CommandBasedInputFieldComponent" style="stroke: #A80036; stroke-width: 1.5;" width="266" x="169.15" y="116"/><ellipse cx="184.15" cy="132" fill="#ADD1B2" rx="11" ry="11" style="stroke: #A80036; stroke-width: 1.0;"/><path d="M187.1188,137.6406 Q186.5406,137.9375 185.9,138.0781 Q185.2594,138.2344 184.5563,138.2344 Q182.0563,138.2344 180.7281,136.5938 Q179.4156,134.9375 179.4156,131.8125 Q179.4156,128.6875 180.7281,127.0313 Q182.0563,125.375 184.5563,125.375 Q185.2594,125.375 185.9,125.5313 Q186.5563,125.6875 187.1188,125.9844 L187.1188,128.7031 Q186.4938,128.125 185.9,127.8594 Q185.3063,127.5781 184.6813,127.5781 Q183.3375,127.5781 182.65,128.6563 Q181.9625,129.7188 181.9625,131.8125 Q181.9625,133.9063 182.65,134.9844 Q183.3375,136.0469 184.6813,136.0469 Q185.3063,136.0469 185.9,135.7813 Q186.4938,135.5 187.1188,134.9219 L187.1188,137.6406 Z "/><text fill="#000000" font-family="sans-serif" font-size="12" lengthAdjust="spacingAndGlyphs" textLength="234" x="198.15" y="136.1543">CommandBasedInputFieldComponent</text><line style="stroke: #A80036; stroke-width: 1.5;" x1="170.15" x2="434.15" y1="148" y2="148"/><ellipse cx="180.15" cy="159" fill="none" rx="3" ry="3" style="stroke: #038048; stroke-width: 1.0;"/><text fill="#000000" font-family="sans-serif" font-size="11" lengthAdjust="spacingAndGlyphs" textLength="100" x="189.15" y="162.2104">inputType : string</text><ellipse cx="180.15" cy="171.8047" fill="none" rx="3" ry="3" style="stroke: #038048; stroke-width: 1.0;"/><text fill="#000000" font-family="sans-serif" font-size="11" lengthAdjust="spacingAndGlyphs" textLength="115" x="189.15" y="175.0151">defaultValue : string</text><line style="stroke: #A80036; stroke-width: 1.5;" x1="170.15" x2="434.15" y1="181.6094" y2="181.6094"/><!--MD5=[a11544de820a927b3dbade298cf8c341]
class Action`1--><rect fill="#FEFECE" filter="url(#f1e350zdu22xet)" height="48" id="Action`1" style="stroke: #A80036; stroke-width: 1.5;" width="96" x="44.15" y="250"/><ellipse cx="59.15" cy="266" fill="#ADD1B2" rx="11" ry="11" style="stroke: #A80036; stroke-width: 1.0;"/><path d="M62.1188,271.6406 Q61.5406,271.9375 60.9,272.0781 Q60.2594,272.2344 59.5563,272.2344 Q57.0563,272.2344 55.7281,270.5938 Q54.4156,268.9375 54.4156,265.8125 Q54.4156,262.6875 55.7281,261.0313 Q57.0563,259.375 59.5563,259.375 Q60.2594,259.375 60.9,259.5313 Q61.5563,259.6875 62.1188,259.9844 L62.1188,262.7031 Q61.4938,262.125 60.9,261.8594 Q60.3063,261.5781 59.6813,261.5781 Q58.3375,261.5781 57.65,262.6563 Q56.9625,263.7188 56.9625,265.8125 Q56.9625,267.9063 57.65,268.9844 Q58.3375,270.0469 59.6813,270.0469 Q60.3063,270.0469 60.9,269.7813 Q61.4938,269.5 62.1188,268.9219 L62.1188,271.6406 Z "/><text fill="#000000" font-family="sans-serif" font-size="12" lengthAdjust="spacingAndGlyphs" textLength="53" x="73.15" y="270.1543">Action`1</text><rect fill="#FFFFFF" height="15.9688" style="stroke: #000000; stroke-width: 1.0; stroke-dasharray: 2.0,2.0;" width="9" x="134.15" y="247"/><text fill="#000000" font-family="sans-serif" font-size="12" font-style="italic" lengthAdjust="spacingAndGlyphs" textLength="7" x="135.15" y="259.1387">T</text><line style="stroke: #A80036; stroke-width: 1.5;" x1="45.15" x2="139.15" y1="282" y2="282"/><line style="stroke: #A80036; stroke-width: 1.5;" x1="45.15" x2="139.15" y1="290" y2="290"/><!--MD5=[83b3cf3d23d77c6f1e1b5291a241bc2a]
class MonoBehaviour--><rect fill="#FEFECE" filter="url(#f1e350zdu22xet)" height="48" id="MonoBehaviour" style="stroke: #A80036; stroke-width: 1.5;" width="128" x="238.15" y="8"/><ellipse cx="253.15" cy="24" fill="#ADD1B2" rx="11" ry="11" style="stroke: #A80036; stroke-width: 1.0;"/><path d="M256.1188,29.6406 Q255.5406,29.9375 254.9,30.0781 Q254.2594,30.2344 253.5563,30.2344 Q251.0563,30.2344 249.7281,28.5938 Q248.4156,26.9375 248.4156,23.8125 Q248.4156,20.6875 249.7281,19.0313 Q251.0563,17.375 253.5563,17.375 Q254.2594,17.375 254.9,17.5313 Q255.5563,17.6875 256.1188,17.9844 L256.1188,20.7031 Q255.4938,20.125 254.9,19.8594 Q254.3063,19.5781 253.6813,19.5781 Q252.3375,19.5781 251.65,20.6563 Q250.9625,21.7188 250.9625,23.8125 Q250.9625,25.9063 251.65,26.9844 Q252.3375,28.0469 253.6813,28.0469 Q254.3063,28.0469 254.9,27.7813 Q255.4938,27.5 256.1188,26.9219 L256.1188,29.6406 Z "/><text fill="#000000" font-family="sans-serif" font-size="12" lengthAdjust="spacingAndGlyphs" textLength="96" x="267.15" y="28.1543">MonoBehaviour</text><line style="stroke: #A80036; stroke-width: 1.5;" x1="239.15" x2="365.15" y1="40" y2="40"/><line style="stroke: #A80036; stroke-width: 1.5;" x1="239.15" x2="365.15" y1="48" y2="48"/><!--MD5=[57757b5bab70b6b63c7ca5058c654320]
class InputParser--><rect fill="#FEFECE" filter="url(#f1e350zdu22xet)" height="48" id="InputParser" style="stroke: #A80036; stroke-width: 1.5;" width="105" x="175.65" y="250"/><ellipse cx="190.65" cy="266" fill="#ADD1B2" rx="11" ry="11" style="stroke: #A80036; stroke-width: 1.0;"/><path d="M193.6188,271.6406 Q193.0406,271.9375 192.4,272.0781 Q191.7594,272.2344 191.0563,272.2344 Q188.5563,272.2344 187.2281,270.5938 Q185.9156,268.9375 185.9156,265.8125 Q185.9156,262.6875 187.2281,261.0313 Q188.5563,259.375 191.0563,259.375 Q191.7594,259.375 192.4,259.5313 Q193.0563,259.6875 193.6188,259.9844 L193.6188,262.7031 Q192.9938,262.125 192.4,261.8594 Q191.8063,261.5781 191.1813,261.5781 Q189.8375,261.5781 189.15,262.6563 Q188.4625,263.7188 188.4625,265.8125 Q188.4625,267.9063 189.15,268.9844 Q189.8375,270.0469 191.1813,270.0469 Q191.8063,270.0469 192.4,269.7813 Q192.9938,269.5 193.6188,268.9219 L193.6188,271.6406 Z "/><text fill="#000000" font-family="sans-serif" font-size="12" lengthAdjust="spacingAndGlyphs" textLength="73" x="204.65" y="270.1543">InputParser</text><line style="stroke: #A80036; stroke-width: 1.5;" x1="176.65" x2="279.65" y1="282" y2="282"/><line style="stroke: #A80036; stroke-width: 1.5;" x1="176.65" x2="279.65" y1="290" y2="290"/><!--MD5=[052dca7757a5a3b910fcce1f536fa506]
class InputValidator--><rect fill="#FEFECE" filter="url(#f1e350zdu22xet)" height="48" id="InputValidator" style="stroke: #A80036; stroke-width: 1.5;" width="120" x="316.15" y="250"/><ellipse cx="331.15" cy="266" fill="#ADD1B2" rx="11" ry="11" style="stroke: #A80036; stroke-width: 1.0;"/><path d="M334.1188,271.6406 Q333.5406,271.9375 332.9,272.0781 Q332.2594,272.2344 331.5563,272.2344 Q329.0563,272.2344 327.7281,270.5938 Q326.4156,268.9375 326.4156,265.8125 Q326.4156,262.6875 327.7281,261.0313 Q329.0563,259.375 331.5563,259.375 Q332.2594,259.375 332.9,259.5313 Q333.5563,259.6875 334.1188,259.9844 L334.1188,262.7031 Q333.4938,262.125 332.9,261.8594 Q332.3063,261.5781 331.6813,261.5781 Q330.3375,261.5781 329.65,262.6563 Q328.9625,263.7188 328.9625,265.8125 Q328.9625,267.9063 329.65,268.9844 Q330.3375,270.0469 331.6813,270.0469 Q332.3063,270.0469 332.9,269.7813 Q333.4938,269.5 334.1188,268.9219 L334.1188,271.6406 Z "/><text fill="#000000" font-family="sans-serif" font-size="12" lengthAdjust="spacingAndGlyphs" textLength="88" x="345.15" y="270.1543">InputValidator</text><line style="stroke: #A80036; stroke-width: 1.5;" x1="317.15" x2="435.15" y1="282" y2="282"/><line style="stroke: #A80036; stroke-width: 1.5;" x1="317.15" x2="435.15" y1="290" y2="290"/><!--MD5=[83258107214b812b6af37c9d70a28cda]
class dynamic--><rect fill="#FEFECE" filter="url(#f1e350zdu22xet)" height="48" id="dynamic" style="stroke: #A80036; stroke-width: 1.5;" width="83" x="471.65" y="250"/><ellipse cx="486.65" cy="266" fill="#ADD1B2" rx="11" ry="11" style="stroke: #A80036; stroke-width: 1.0;"/><path d="M489.6188,271.6406 Q489.0406,271.9375 488.4,272.0781 Q487.7594,272.2344 487.0563,272.2344 Q484.5563,272.2344 483.2281,270.5938 Q481.9156,268.9375 481.9156,265.8125 Q481.9156,262.6875 483.2281,261.0313 Q484.5563,259.375 487.0563,259.375 Q487.7594,259.375 488.4,259.5313 Q489.0563,259.6875 489.6188,259.9844 L489.6188,262.7031 Q488.9938,262.125 488.4,261.8594 Q487.8063,261.5781 487.1813,261.5781 Q485.8375,261.5781 485.15,262.6563 Q484.4625,263.7188 484.4625,265.8125 Q484.4625,267.9063 485.15,268.9844 Q485.8375,270.0469 487.1813,270.0469 Q487.8063,270.0469 488.4,269.7813 Q488.9938,269.5 489.6188,268.9219 L489.6188,271.6406 Z "/><text fill="#000000" font-family="sans-serif" font-size="12" lengthAdjust="spacingAndGlyphs" textLength="51" x="500.65" y="270.1543">dynamic</text><line style="stroke: #A80036; stroke-width: 1.5;" x1="472.65" x2="553.65" y1="282" y2="282"/><line style="stroke: #A80036; stroke-width: 1.5;" x1="472.65" x2="553.65" y1="290" y2="290"/><!--MD5=[9bc78795022f8098f7281c6051bca3b3]
reverse link MonoBehaviour to CommandBasedInputFieldComponent--><path d="M302.15,76.43 C302.15,89.33 302.15,103.32 302.15,115.71 " fill="none" id="MonoBehaviour&lt;-CommandBasedInputFieldComponent" style="stroke: #A80036; stroke-width: 1.0;"/><polygon fill="none" points="295.15,76.23,302.15,56.23,309.15,76.23,295.15,76.23" style="stroke: #A80036; stroke-width: 1.0;"/><!--MD5=[e9ccdfc6362b9053a09d66c571d4161c]
link CommandBasedInputFieldComponent to InputParser--><path d="M279.74,190.03 C268.7,207.79 255.59,228.87 245.35,245.33 " fill="none" id="CommandBasedInputFieldComponent-&gt;InputParser" style="stroke: #A80036; stroke-width: 1.0;"/><polygon fill="#A80036" points="242.54,249.85,250.6936,244.3257,245.1836,245.606,243.9032,240.0959,242.54,249.85" style="stroke: #A80036; stroke-width: 1.0;"/><text fill="#000000" font-family="sans-serif" font-size="13" lengthAdjust="spacingAndGlyphs" textLength="41" x="199.9743" y="238.8236">parser</text><!--MD5=[baa0c17faf0bbeaa876fe66f9c097dae]
link CommandBasedInputFieldComponent to InputValidator--><path d="M324.55,190.03 C335.59,207.79 348.7,228.87 358.94,245.33 " fill="none" id="CommandBasedInputFieldComponent-&gt;InputValidator" style="stroke: #A80036; stroke-width: 1.0;"/><polygon fill="#A80036" points="361.75,249.85,360.3868,240.0959,359.1064,245.606,353.5964,244.3257,361.75,249.85" style="stroke: #A80036; stroke-width: 1.0;"/><text fill="#000000" font-family="sans-serif" font-size="13" lengthAdjust="spacingAndGlyphs" textLength="55" x="296.0131" y="238.8236">validator</text><!--MD5=[9fc92d5f89ec0b98520bf67f060a4fac]
link CommandBasedInputFieldComponent to Action`1--><path d="M238.57,190.03 C206.03,208.47 167.16,230.49 137.65,247.21 " fill="none" id="CommandBasedInputFieldComponent-&gt;Action`1" style="stroke: #A80036; stroke-width: 1.0;"/><polygon fill="#A80036" points="133,249.85,142.8042,248.9133,137.3552,247.3939,138.8745,241.9449,133,249.85" style="stroke: #A80036; stroke-width: 1.0;"/><text fill="#000000" font-family="sans-serif" font-size="13" lengthAdjust="spacingAndGlyphs" textLength="112" x="17.1178" y="238.8236">callback&lt;object&gt;</text><!--MD5=[b66caa999f7cd9112e323f326bffe1c2]
link CommandBasedInputFieldComponent to dynamic--><path d="M366.03,190.03 C398.73,208.47 437.78,230.49 467.43,247.21 " fill="none" id="CommandBasedInputFieldComponent-&gt;dynamic" style="stroke: #A80036; stroke-width: 1.0;"/><polygon fill="#A80036" points="472.1,249.85,466.2255,241.9449,467.7448,247.3939,462.2958,248.9133,472.1,249.85" style="stroke: #A80036; stroke-width: 1.0;"/><text fill="#000000" font-family="sans-serif" font-size="13" lengthAdjust="spacingAndGlyphs" textLength="34" x="435.5312" y="238.8672">rcbifc</text><!--MD5=[3a43d13bc7a9506d4f731225293d0bf6]
@startuml
class CommandBasedInputFieldComponent {
    + inputType : string
    + defaultValue : string
}
class "Action`1"<T> {
}
MonoBehaviour <|- - CommandBasedInputFieldComponent
CommandBasedInputFieldComponent - -> "parser" InputParser
CommandBasedInputFieldComponent - -> "validator" InputValidator
CommandBasedInputFieldComponent - -> "callback<object>" "Action`1"
CommandBasedInputFieldComponent - -> "rcbifc" dynamic
@enduml

PlantUML version 1.2020.02(Sun Mar 01 10:22:07 GMT 2020)
(GPL source distribution)
Java Runtime: OpenJDK Runtime Environment
JVM: OpenJDK 64-Bit Server VM
Java Version: 11.0.9+11-Ubuntu-0ubuntu1
Operating System: Linux
Default Encoding: ANSI_X3.4-1968
Language: en
Country: US
--></g></svg>