<?xml version="1.0" encoding="UTF-8" standalone="no"?><svg xmlns="http://www.w3.org/2000/svg" xmlns:xlink="http://www.w3.org/1999/xlink" contentScriptType="application/ecmascript" contentStyleType="text/css" height="296px" preserveAspectRatio="none" style="width:563px;height:296px;" version="1.1" viewBox="0 0 563 296" width="563px" zoomAndPan="magnify"><defs><filter height="300%" id="f1w62rvfk1n2gk" width="300%" x="-1" y="-1"><feGaussianBlur result="blurOut" stdDeviation="2.0"/><feColorMatrix in="blurOut" result="blurOut2" type="matrix" values="0 0 0 0 0 0 0 0 0 0 0 0 0 0 0 0 0 0 .4 0"/><feOffset dx="4.0" dy="4.0" in="blurOut2" result="blurOut3"/><feBlend in="SourceGraphic" in2="blurOut3" mode="normal"/></filter></defs><g><!--MD5=[819b1ca37e9a8a6f7d89c1737a22382d]
class CommandBasedInputFieldComponent--><rect fill="#FEFECE" filter="url(#f1w62rvfk1n2gk)" height="60.8047" id="CommandBasedInputFieldComponent" style="stroke: #A80036; stroke-width: 1.5;" width="266" x="166.79" y="116"/><ellipse cx="181.79" cy="132" fill="#ADD1B2" rx="11" ry="11" style="stroke: #A80036; stroke-width: 1.0;"/><path d="M184.7588,137.6406 Q184.1806,137.9375 183.54,138.0781 Q182.8994,138.2344 182.1963,138.2344 Q179.6963,138.2344 178.3681,136.5938 Q177.0556,134.9375 177.0556,131.8125 Q177.0556,128.6875 178.3681,127.0313 Q179.6963,125.375 182.1963,125.375 Q182.8994,125.375 183.54,125.5313 Q184.1963,125.6875 184.7588,125.9844 L184.7588,128.7031 Q184.1338,128.125 183.54,127.8594 Q182.9463,127.5781 182.3213,127.5781 Q180.9775,127.5781 180.29,128.6563 Q179.6025,129.7188 179.6025,131.8125 Q179.6025,133.9063 180.29,134.9844 Q180.9775,136.0469 182.3213,136.0469 Q182.9463,136.0469 183.54,135.7813 Q184.1338,135.5 184.7588,134.9219 L184.7588,137.6406 Z "/><text fill="#000000" font-family="sans-serif" font-size="12" lengthAdjust="spacingAndGlyphs" textLength="234" x="195.79" y="136.1543">CommandBasedInputFieldComponent</text><line style="stroke: #A80036; stroke-width: 1.5;" x1="167.79" x2="431.79" y1="148" y2="148"/><ellipse cx="177.79" cy="159" fill="none" rx="3" ry="3" style="stroke: #038048; stroke-width: 1.0;"/><text fill="#000000" font-family="sans-serif" font-size="11" lengthAdjust="spacingAndGlyphs" textLength="100" x="186.79" y="162.2104">inputType : string</text><line style="stroke: #A80036; stroke-width: 1.5;" x1="167.79" x2="431.79" y1="168.8047" y2="168.8047"/><!--MD5=[a11544de820a927b3dbade298cf8c341]
class Action`1--><rect fill="#FEFECE" filter="url(#f1w62rvfk1n2gk)" height="48" id="Action`1" style="stroke: #A80036; stroke-width: 1.5;" width="96" x="41.79" y="237"/><ellipse cx="56.79" cy="253" fill="#ADD1B2" rx="11" ry="11" style="stroke: #A80036; stroke-width: 1.0;"/><path d="M59.7588,258.6406 Q59.1806,258.9375 58.54,259.0781 Q57.8994,259.2344 57.1963,259.2344 Q54.6963,259.2344 53.3681,257.5938 Q52.0556,255.9375 52.0556,252.8125 Q52.0556,249.6875 53.3681,248.0313 Q54.6963,246.375 57.1963,246.375 Q57.8994,246.375 58.54,246.5313 Q59.1963,246.6875 59.7588,246.9844 L59.7588,249.7031 Q59.1338,249.125 58.54,248.8594 Q57.9463,248.5781 57.3213,248.5781 Q55.9775,248.5781 55.29,249.6563 Q54.6025,250.7188 54.6025,252.8125 Q54.6025,254.9063 55.29,255.9844 Q55.9775,257.0469 57.3213,257.0469 Q57.9463,257.0469 58.54,256.7813 Q59.1338,256.5 59.7588,255.9219 L59.7588,258.6406 Z "/><text fill="#000000" font-family="sans-serif" font-size="12" lengthAdjust="spacingAndGlyphs" textLength="53" x="70.79" y="257.1543">Action`1</text><rect fill="#FFFFFF" height="15.9688" style="stroke: #000000; stroke-width: 1.0; stroke-dasharray: 2.0,2.0;" width="9" x="131.79" y="234"/><text fill="#000000" font-family="sans-serif" font-size="12" font-style="italic" lengthAdjust="spacingAndGlyphs" textLength="7" x="132.79" y="246.1387">T</text><line style="stroke: #A80036; stroke-width: 1.5;" x1="42.79" x2="136.79" y1="269" y2="269"/><line style="stroke: #A80036; stroke-width: 1.5;" x1="42.79" x2="136.79" y1="277" y2="277"/><!--MD5=[83b3cf3d23d77c6f1e1b5291a241bc2a]
class MonoBehaviour--><rect fill="#FEFECE" filter="url(#f1w62rvfk1n2gk)" height="48" id="MonoBehaviour" style="stroke: #A80036; stroke-width: 1.5;" width="128" x="235.79" y="8"/><ellipse cx="250.79" cy="24" fill="#ADD1B2" rx="11" ry="11" style="stroke: #A80036; stroke-width: 1.0;"/><path d="M253.7588,29.6406 Q253.1806,29.9375 252.54,30.0781 Q251.8994,30.2344 251.1963,30.2344 Q248.6963,30.2344 247.3681,28.5938 Q246.0556,26.9375 246.0556,23.8125 Q246.0556,20.6875 247.3681,19.0313 Q248.6963,17.375 251.1963,17.375 Q251.8994,17.375 252.54,17.5313 Q253.1963,17.6875 253.7588,17.9844 L253.7588,20.7031 Q253.1338,20.125 252.54,19.8594 Q251.9463,19.5781 251.3213,19.5781 Q249.9775,19.5781 249.29,20.6563 Q248.6025,21.7188 248.6025,23.8125 Q248.6025,25.9063 249.29,26.9844 Q249.9775,28.0469 251.3213,28.0469 Q251.9463,28.0469 252.54,27.7813 Q253.1338,27.5 253.7588,26.9219 L253.7588,29.6406 Z "/><text fill="#000000" font-family="sans-serif" font-size="12" lengthAdjust="spacingAndGlyphs" textLength="96" x="264.79" y="28.1543">MonoBehaviour</text><line style="stroke: #A80036; stroke-width: 1.5;" x1="236.79" x2="362.79" y1="40" y2="40"/><line style="stroke: #A80036; stroke-width: 1.5;" x1="236.79" x2="362.79" y1="48" y2="48"/><!--MD5=[57757b5bab70b6b63c7ca5058c654320]
class InputParser--><rect fill="#FEFECE" filter="url(#f1w62rvfk1n2gk)" height="48" id="InputParser" style="stroke: #A80036; stroke-width: 1.5;" width="105" x="173.29" y="237"/><ellipse cx="188.29" cy="253" fill="#ADD1B2" rx="11" ry="11" style="stroke: #A80036; stroke-width: 1.0;"/><path d="M191.2588,258.6406 Q190.6806,258.9375 190.04,259.0781 Q189.3994,259.2344 188.6963,259.2344 Q186.1963,259.2344 184.8681,257.5938 Q183.5556,255.9375 183.5556,252.8125 Q183.5556,249.6875 184.8681,248.0313 Q186.1963,246.375 188.6963,246.375 Q189.3994,246.375 190.04,246.5313 Q190.6963,246.6875 191.2588,246.9844 L191.2588,249.7031 Q190.6338,249.125 190.04,248.8594 Q189.4463,248.5781 188.8213,248.5781 Q187.4775,248.5781 186.79,249.6563 Q186.1025,250.7188 186.1025,252.8125 Q186.1025,254.9063 186.79,255.9844 Q187.4775,257.0469 188.8213,257.0469 Q189.4463,257.0469 190.04,256.7813 Q190.6338,256.5 191.2588,255.9219 L191.2588,258.6406 Z "/><text fill="#000000" font-family="sans-serif" font-size="12" lengthAdjust="spacingAndGlyphs" textLength="73" x="202.29" y="257.1543">InputParser</text><line style="stroke: #A80036; stroke-width: 1.5;" x1="174.29" x2="277.29" y1="269" y2="269"/><line style="stroke: #A80036; stroke-width: 1.5;" x1="174.29" x2="277.29" y1="277" y2="277"/><!--MD5=[052dca7757a5a3b910fcce1f536fa506]
class InputValidator--><rect fill="#FEFECE" filter="url(#f1w62rvfk1n2gk)" height="48" id="InputValidator" style="stroke: #A80036; stroke-width: 1.5;" width="120" x="313.79" y="237"/><ellipse cx="328.79" cy="253" fill="#ADD1B2" rx="11" ry="11" style="stroke: #A80036; stroke-width: 1.0;"/><path d="M331.7588,258.6406 Q331.1806,258.9375 330.54,259.0781 Q329.8994,259.2344 329.1963,259.2344 Q326.6963,259.2344 325.3681,257.5938 Q324.0556,255.9375 324.0556,252.8125 Q324.0556,249.6875 325.3681,248.0313 Q326.6963,246.375 329.1963,246.375 Q329.8994,246.375 330.54,246.5313 Q331.1963,246.6875 331.7588,246.9844 L331.7588,249.7031 Q331.1338,249.125 330.54,248.8594 Q329.9463,248.5781 329.3213,248.5781 Q327.9775,248.5781 327.29,249.6563 Q326.6025,250.7188 326.6025,252.8125 Q326.6025,254.9063 327.29,255.9844 Q327.9775,257.0469 329.3213,257.0469 Q329.9463,257.0469 330.54,256.7813 Q331.1338,256.5 331.7588,255.9219 L331.7588,258.6406 Z "/><text fill="#000000" font-family="sans-serif" font-size="12" lengthAdjust="spacingAndGlyphs" textLength="88" x="342.79" y="257.1543">InputValidator</text><line style="stroke: #A80036; stroke-width: 1.5;" x1="314.79" x2="432.79" y1="269" y2="269"/><line style="stroke: #A80036; stroke-width: 1.5;" x1="314.79" x2="432.79" y1="277" y2="277"/><!--MD5=[83258107214b812b6af37c9d70a28cda]
class dynamic--><rect fill="#FEFECE" filter="url(#f1w62rvfk1n2gk)" height="48" id="dynamic" style="stroke: #A80036; stroke-width: 1.5;" width="83" x="469.29" y="237"/><ellipse cx="484.29" cy="253" fill="#ADD1B2" rx="11" ry="11" style="stroke: #A80036; stroke-width: 1.0;"/><path d="M487.2588,258.6406 Q486.6806,258.9375 486.04,259.0781 Q485.3994,259.2344 484.6963,259.2344 Q482.1963,259.2344 480.8681,257.5938 Q479.5556,255.9375 479.5556,252.8125 Q479.5556,249.6875 480.8681,248.0313 Q482.1963,246.375 484.6963,246.375 Q485.3994,246.375 486.04,246.5313 Q486.6963,246.6875 487.2588,246.9844 L487.2588,249.7031 Q486.6338,249.125 486.04,248.8594 Q485.4463,248.5781 484.8213,248.5781 Q483.4775,248.5781 482.79,249.6563 Q482.1025,250.7188 482.1025,252.8125 Q482.1025,254.9063 482.79,255.9844 Q483.4775,257.0469 484.8213,257.0469 Q485.4463,257.0469 486.04,256.7813 Q486.6338,256.5 487.2588,255.9219 L487.2588,258.6406 Z "/><text fill="#000000" font-family="sans-serif" font-size="12" lengthAdjust="spacingAndGlyphs" textLength="51" x="498.29" y="257.1543">dynamic</text><line style="stroke: #A80036; stroke-width: 1.5;" x1="470.29" x2="551.29" y1="269" y2="269"/><line style="stroke: #A80036; stroke-width: 1.5;" x1="470.29" x2="551.29" y1="277" y2="277"/><!--MD5=[9bc78795022f8098f7281c6051bca3b3]
reverse link MonoBehaviour to CommandBasedInputFieldComponent--><path d="M299.79,76.11 C299.79,89.31 299.79,103.54 299.79,115.65 " fill="none" id="MonoBehaviour&lt;-CommandBasedInputFieldComponent" style="stroke: #A80036; stroke-width: 1.0;"/><polygon fill="none" points="292.79,76.04,299.79,56.04,306.79,76.04,292.79,76.04" style="stroke: #A80036; stroke-width: 1.0;"/><!--MD5=[e9ccdfc6362b9053a09d66c571d4161c]
link CommandBasedInputFieldComponent to InputParser--><path d="M280.34,177.06 C269.15,194.08 255.16,215.34 244.15,232.08 " fill="none" id="CommandBasedInputFieldComponent-&gt;InputParser" style="stroke: #A80036; stroke-width: 1.0;"/><polygon fill="#A80036" points="241.13,236.67,249.4169,231.3476,243.877,232.4922,242.7324,226.9524,241.13,236.67" style="stroke: #A80036; stroke-width: 1.0;"/><text fill="#000000" font-family="sans-serif" font-size="13" lengthAdjust="spacingAndGlyphs" textLength="41" x="198.8723" y="225.9945">parser</text><!--MD5=[baa0c17faf0bbeaa876fe66f9c097dae]
link CommandBasedInputFieldComponent to InputValidator--><path d="M319.23,177.06 C330.42,194.08 344.41,215.34 355.42,232.08 " fill="none" id="CommandBasedInputFieldComponent-&gt;InputValidator" style="stroke: #A80036; stroke-width: 1.0;"/><polygon fill="#A80036" points="358.44,236.67,356.8376,226.9524,355.693,232.4922,350.1531,231.3476,358.44,236.67" style="stroke: #A80036; stroke-width: 1.0;"/><text fill="#000000" font-family="sans-serif" font-size="13" lengthAdjust="spacingAndGlyphs" textLength="55" x="292.9953" y="225.9945">validator</text><!--MD5=[9fc92d5f89ec0b98520bf67f060a4fac]
link CommandBasedInputFieldComponent to Action`1--><path d="M244.61,177.06 C211.37,194.87 169.45,217.32 137.62,234.37 " fill="none" id="CommandBasedInputFieldComponent-&gt;Action`1" style="stroke: #A80036; stroke-width: 1.0;"/><polygon fill="#A80036" points="133,236.85,142.8222,236.1259,137.4074,234.4889,139.0444,229.0741,133,236.85" style="stroke: #A80036; stroke-width: 1.0;"/><text fill="#000000" font-family="sans-serif" font-size="13" lengthAdjust="spacingAndGlyphs" textLength="112" x="17.7226" y="225.8236">callback&lt;object&gt;</text><!--MD5=[b66caa999f7cd9112e323f326bffe1c2]
link CommandBasedInputFieldComponent to dynamic--><path d="M355.22,177.06 C389.21,195.18 432.21,218.1 464.39,235.26 " fill="none" id="CommandBasedInputFieldComponent-&gt;dynamic" style="stroke: #A80036; stroke-width: 1.0;"/><polygon fill="#A80036" points="469.05,237.75,462.9755,229.9975,464.6335,235.406,459.2251,237.0639,469.05,237.75" style="stroke: #A80036; stroke-width: 1.0;"/><text fill="#000000" font-family="sans-serif" font-size="13" lengthAdjust="spacingAndGlyphs" textLength="34" x="432.1853" y="226.0366">rcbifc</text><!--MD5=[a7ddfe8065d0684109273e0148e74aa6]
@startuml
class CommandBasedInputFieldComponent {
    + inputType : string
}
class "Action`1"<T> {
}
MonoBehaviour <|- - CommandBasedInputFieldComponent
CommandBasedInputFieldComponent - -> "parser" InputParser
CommandBasedInputFieldComponent - -> "validator" InputValidator
CommandBasedInputFieldComponent - -> "callback<object>" "Action`1"
CommandBasedInputFieldComponent - -> "rcbifc" dynamic
@enduml

PlantUML version 1.2020.02(Sun Mar 01 10:22:07 GMT 2020)
(GPL source distribution)
Java Runtime: OpenJDK Runtime Environment
JVM: OpenJDK 64-Bit Server VM
Java Version: 11.0.9+11-Ubuntu-0ubuntu1
Operating System: Linux
Default Encoding: ANSI_X3.4-1968
Language: en
Country: US
--></g></svg>