<?xml version="1.0" encoding="UTF-8" standalone="no"?><svg xmlns="http://www.w3.org/2000/svg" xmlns:xlink="http://www.w3.org/1999/xlink" contentScriptType="application/ecmascript" contentStyleType="text/css" height="188px" preserveAspectRatio="none" style="width:645px;height:188px;" version="1.1" viewBox="0 0 645 188" width="645px" zoomAndPan="magnify"><defs><filter height="300%" id="fmi0ydf4z10qw" width="300%" x="-1" y="-1"><feGaussianBlur result="blurOut" stdDeviation="2.0"/><feColorMatrix in="blurOut" result="blurOut2" type="matrix" values="0 0 0 0 0 0 0 0 0 0 0 0 0 0 0 0 0 0 .4 0"/><feOffset dx="4.0" dy="4.0" in="blurOut2" result="blurOut3"/><feBlend in="SourceGraphic" in2="blurOut3" mode="normal"/></filter></defs><g><!--MD5=[8e7099ef72694700d9906751a3eb4aab]
class RuntimeCommandBasedInputFieldComponent`1--><rect fill="#FEFECE" filter="url(#fmi0ydf4z10qw)" height="60.8047" id="RuntimeCommandBasedInputFieldComponent`1" style="stroke: #A80036; stroke-width: 1.5;" width="625" x="6" y="8"/><ellipse cx="159.25" cy="24" fill="#ADD1B2" rx="11" ry="11" style="stroke: #A80036; stroke-width: 1.0;"/><path d="M162.2188,29.6406 Q161.6406,29.9375 161,30.0781 Q160.3594,30.2344 159.6563,30.2344 Q157.1563,30.2344 155.8281,28.5938 Q154.5156,26.9375 154.5156,23.8125 Q154.5156,20.6875 155.8281,19.0313 Q157.1563,17.375 159.6563,17.375 Q160.3594,17.375 161,17.5313 Q161.6563,17.6875 162.2188,17.9844 L162.2188,20.7031 Q161.5938,20.125 161,19.8594 Q160.4063,19.5781 159.7813,19.5781 Q158.4375,19.5781 157.75,20.6563 Q157.0625,21.7188 157.0625,23.8125 Q157.0625,25.9063 157.75,26.9844 Q158.4375,28.0469 159.7813,28.0469 Q160.4063,28.0469 161,27.7813 Q161.5938,27.5 162.2188,26.9219 L162.2188,29.6406 Z "/><text fill="#000000" font-family="sans-serif" font-size="12" lengthAdjust="spacingAndGlyphs" textLength="299" x="179.75" y="28.1543">RuntimeCommandBasedInputFieldComponent`1</text><rect fill="#FFFFFF" height="15.9688" style="stroke: #000000; stroke-width: 1.0; stroke-dasharray: 2.0,2.0;" width="9" x="625" y="5"/><text fill="#000000" font-family="sans-serif" font-size="12" font-style="italic" lengthAdjust="spacingAndGlyphs" textLength="7" x="626" y="17.1387">T</text><line style="stroke: #A80036; stroke-width: 1.5;" x1="7" x2="630" y1="40" y2="40"/><line style="stroke: #A80036; stroke-width: 1.5;" x1="7" x2="630" y1="48" y2="48"/><ellipse cx="17" cy="59" fill="#84BE84" rx="3" ry="3" style="stroke: #038048; stroke-width: 1.0;"/><text fill="#000000" font-family="sans-serif" font-size="11" lengthAdjust="spacingAndGlyphs" textLength="599" x="26" y="62.2104">Init(inputField:TMP_InputField, parser:InputParser, validator:InputValidator, callback:Action&lt;object&gt;) : void</text><!--MD5=[42440d41c1931cbe22c097c13345aed3]
class CommandBasedInputField`1--><rect fill="#FEFECE" filter="url(#fmi0ydf4z10qw)" height="48" id="CommandBasedInputField`1" style="stroke: #A80036; stroke-width: 1.5;" width="219" x="209" y="129"/><ellipse cx="224" cy="145" fill="#ADD1B2" rx="11" ry="11" style="stroke: #A80036; stroke-width: 1.0;"/><path d="M226.9688,150.6406 Q226.3906,150.9375 225.75,151.0781 Q225.1094,151.2344 224.4063,151.2344 Q221.9063,151.2344 220.5781,149.5938 Q219.2656,147.9375 219.2656,144.8125 Q219.2656,141.6875 220.5781,140.0313 Q221.9063,138.375 224.4063,138.375 Q225.1094,138.375 225.75,138.5313 Q226.4063,138.6875 226.9688,138.9844 L226.9688,141.7031 Q226.3438,141.125 225.75,140.8594 Q225.1563,140.5781 224.5313,140.5781 Q223.1875,140.5781 222.5,141.6563 Q221.8125,142.7188 221.8125,144.8125 Q221.8125,146.9063 222.5,147.9844 Q223.1875,149.0469 224.5313,149.0469 Q225.1563,149.0469 225.75,148.7813 Q226.3438,148.5 226.9688,147.9219 L226.9688,150.6406 Z "/><text fill="#000000" font-family="sans-serif" font-size="12" lengthAdjust="spacingAndGlyphs" textLength="176" x="238" y="149.1543">CommandBasedInputField`1</text><rect fill="#FFFFFF" height="15.9688" style="stroke: #000000; stroke-width: 1.0; stroke-dasharray: 2.0,2.0;" width="9" x="422" y="126"/><text fill="#000000" font-family="sans-serif" font-size="12" font-style="italic" lengthAdjust="spacingAndGlyphs" textLength="7" x="423" y="138.1387">T</text><line style="stroke: #A80036; stroke-width: 1.5;" x1="210" x2="427" y1="161" y2="161"/><line style="stroke: #A80036; stroke-width: 1.5;" x1="210" x2="427" y1="169" y2="169"/><!--MD5=[bb84cfa6aedad1a81b5b549796c46f80]
link RuntimeCommandBasedInputFieldComponent`1 to CommandBasedInputField`1--><path d="M318.5,69.06 C318.5,85.93 318.5,106.98 318.5,123.65 " fill="none" id="RuntimeCommandBasedInputFieldComponent`1-&gt;CommandBasedInputField`1" style="stroke: #A80036; stroke-width: 1.0;"/><polygon fill="#A80036" points="318.5,128.67,322.5,119.67,318.5,123.67,314.5,119.67,318.5,128.67" style="stroke: #A80036; stroke-width: 1.0;"/><text fill="#000000" font-family="sans-serif" font-size="13" lengthAdjust="spacingAndGlyphs" textLength="51" x="261.2844" y="117.9945">cbif&lt;T&gt;</text><!--MD5=[e31272abf578f71d704add30c44cf0eb]
@startuml
class "RuntimeCommandBasedInputFieldComponent`1"<T> {
    + Init(inputField:TMP_InputField, parser:InputParser, validator:InputValidator, callback:Action<object>) : void
}
class "CommandBasedInputField`1"<T> {
}
"RuntimeCommandBasedInputFieldComponent`1" - -> "cbif<T>" "CommandBasedInputField`1"
@enduml

PlantUML version 1.2020.02(Sun Mar 01 10:22:07 GMT 2020)
(GPL source distribution)
Java Runtime: OpenJDK Runtime Environment
JVM: OpenJDK 64-Bit Server VM
Java Version: 11.0.9+11-Ubuntu-0ubuntu1
Operating System: Linux
Default Encoding: ANSI_X3.4-1968
Language: en
Country: US
--></g></svg>