<?xml version="1.0" encoding="UTF-8" standalone="no"?><svg xmlns="http://www.w3.org/2000/svg" xmlns:xlink="http://www.w3.org/1999/xlink" contentScriptType="application/ecmascript" contentStyleType="text/css" height="187px" preserveAspectRatio="none" style="width:317px;height:187px;" version="1.1" viewBox="0 0 317 187" width="317px" zoomAndPan="magnify"><defs><filter height="300%" id="ft8ey31g7ymwz" width="300%" x="-1" y="-1"><feGaussianBlur result="blurOut" stdDeviation="2.0"/><feColorMatrix in="blurOut" result="blurOut2" type="matrix" values="0 0 0 0 0 0 0 0 0 0 0 0 0 0 0 0 0 0 .4 0"/><feOffset dx="4.0" dy="4.0" in="blurOut2" result="blurOut3"/><feBlend in="SourceGraphic" in2="blurOut3" mode="normal"/></filter></defs><g><!--MD5=[f96450a9d7ac70a120ca4efc9a7d2df9]
class FloatValidator--><rect fill="#FEFECE" filter="url(#ft8ey31g7ymwz)" height="60.8047" id="FloatValidator" style="stroke: #A80036; stroke-width: 1.5;" width="164" x="80.5" y="116"/><ellipse cx="115.75" cy="132" fill="#ADD1B2" rx="11" ry="11" style="stroke: #A80036; stroke-width: 1.0;"/><path d="M118.7188,137.6406 Q118.1406,137.9375 117.5,138.0781 Q116.8594,138.2344 116.1563,138.2344 Q113.6563,138.2344 112.3281,136.5938 Q111.0156,134.9375 111.0156,131.8125 Q111.0156,128.6875 112.3281,127.0313 Q113.6563,125.375 116.1563,125.375 Q116.8594,125.375 117.5,125.5313 Q118.1563,125.6875 118.7188,125.9844 L118.7188,128.7031 Q118.0938,128.125 117.5,127.8594 Q116.9063,127.5781 116.2813,127.5781 Q114.9375,127.5781 114.25,128.6563 Q113.5625,129.7188 113.5625,131.8125 Q113.5625,133.9063 114.25,134.9844 Q114.9375,136.0469 116.2813,136.0469 Q116.9063,136.0469 117.5,135.7813 Q118.0938,135.5 118.7188,134.9219 L118.7188,137.6406 Z "/><text fill="#000000" font-family="sans-serif" font-size="12" lengthAdjust="spacingAndGlyphs" textLength="87" x="134.25" y="136.1543">FloatValidator</text><line style="stroke: #A80036; stroke-width: 1.5;" x1="81.5" x2="243.5" y1="148" y2="148"/><line style="stroke: #A80036; stroke-width: 1.5;" x1="81.5" x2="243.5" y1="156" y2="156"/><ellipse cx="91.5" cy="167" fill="#84BE84" rx="3" ry="3" style="stroke: #038048; stroke-width: 1.0;"/><text fill="#000000" font-family="sans-serif" font-size="11" lengthAdjust="spacingAndGlyphs" textLength="138" x="100.5" y="170.2104">Invoke(input:float) : float</text><!--MD5=[de9f386ad7e5dfb0c31fe5766d9b793f]
class IFieldValidator`1--><rect fill="#FEFECE" filter="url(#ft8ey31g7ymwz)" height="48" id="IFieldValidator`1" style="stroke: #A80036; stroke-width: 1.5;" width="145" x="6" y="8"/><ellipse cx="21" cy="24" fill="#ADD1B2" rx="11" ry="11" style="stroke: #A80036; stroke-width: 1.0;"/><path d="M23.9688,29.6406 Q23.3906,29.9375 22.75,30.0781 Q22.1094,30.2344 21.4063,30.2344 Q18.9063,30.2344 17.5781,28.5938 Q16.2656,26.9375 16.2656,23.8125 Q16.2656,20.6875 17.5781,19.0313 Q18.9063,17.375 21.4063,17.375 Q22.1094,17.375 22.75,17.5313 Q23.4063,17.6875 23.9688,17.9844 L23.9688,20.7031 Q23.3438,20.125 22.75,19.8594 Q22.1563,19.5781 21.5313,19.5781 Q20.1875,19.5781 19.5,20.6563 Q18.8125,21.7188 18.8125,23.8125 Q18.8125,25.9063 19.5,26.9844 Q20.1875,28.0469 21.5313,28.0469 Q22.1563,28.0469 22.75,27.7813 Q23.3438,27.5 23.9688,26.9219 L23.9688,29.6406 Z "/><text fill="#000000" font-family="sans-serif" font-size="12" lengthAdjust="spacingAndGlyphs" textLength="102" x="35" y="28.1543">IFieldValidator`1</text><rect fill="#FFFFFF" height="15.9688" style="stroke: #000000; stroke-width: 1.0; stroke-dasharray: 2.0,2.0;" width="9" x="145" y="5"/><text fill="#000000" font-family="sans-serif" font-size="12" font-style="italic" lengthAdjust="spacingAndGlyphs" textLength="7" x="146" y="17.1387">T</text><line style="stroke: #A80036; stroke-width: 1.5;" x1="7" x2="150" y1="40" y2="40"/><line style="stroke: #A80036; stroke-width: 1.5;" x1="7" x2="150" y1="48" y2="48"/><!--MD5=[052dca7757a5a3b910fcce1f536fa506]
class InputValidator--><rect fill="#FEFECE" filter="url(#ft8ey31g7ymwz)" height="48" id="InputValidator" style="stroke: #A80036; stroke-width: 1.5;" width="120" x="186.5" y="8"/><ellipse cx="201.5" cy="24" fill="#ADD1B2" rx="11" ry="11" style="stroke: #A80036; stroke-width: 1.0;"/><path d="M204.4688,29.6406 Q203.8906,29.9375 203.25,30.0781 Q202.6094,30.2344 201.9063,30.2344 Q199.4063,30.2344 198.0781,28.5938 Q196.7656,26.9375 196.7656,23.8125 Q196.7656,20.6875 198.0781,19.0313 Q199.4063,17.375 201.9063,17.375 Q202.6094,17.375 203.25,17.5313 Q203.9063,17.6875 204.4688,17.9844 L204.4688,20.7031 Q203.8438,20.125 203.25,19.8594 Q202.6563,19.5781 202.0313,19.5781 Q200.6875,19.5781 200,20.6563 Q199.3125,21.7188 199.3125,23.8125 Q199.3125,25.9063 200,26.9844 Q200.6875,28.0469 202.0313,28.0469 Q202.6563,28.0469 203.25,27.7813 Q203.8438,27.5 204.4688,26.9219 L204.4688,29.6406 Z "/><text fill="#000000" font-family="sans-serif" font-size="12" lengthAdjust="spacingAndGlyphs" textLength="88" x="215.5" y="28.1543">InputValidator</text><line style="stroke: #A80036; stroke-width: 1.5;" x1="187.5" x2="305.5" y1="40" y2="40"/><line style="stroke: #A80036; stroke-width: 1.5;" x1="187.5" x2="305.5" y1="48" y2="48"/><!--MD5=[76614e34e2db17fb5e5b3ebb18fbca00]
reverse link InputValidator to FloatValidator--><path d="M217.14,72.32 C206.52,86.55 194.7,102.37 184.79,115.65 " fill="none" id="InputValidator&lt;-FloatValidator" style="stroke: #A80036; stroke-width: 1.0;"/><polygon fill="none" points="211.72,67.88,229.3,56.04,222.94,76.25,211.72,67.88" style="stroke: #A80036; stroke-width: 1.0;"/><!--MD5=[a271876719f0963078cd6e16228d48b1]
reverse link IFieldValidator`1 to FloatValidator--><path d="M107.86,72.32 C118.48,86.55 130.3,102.37 140.21,115.65 " fill="none" id="IFieldValidator`1&lt;-FloatValidator" style="stroke: #A80036; stroke-width: 1.0;"/><polygon fill="none" points="102.06,76.25,95.7,56.04,113.28,67.88,102.06,76.25" style="stroke: #A80036; stroke-width: 1.0;"/><text fill="#000000" font-family="sans-serif" font-size="13" lengthAdjust="spacingAndGlyphs" textLength="50" x="43.7013" y="76.206">&lt;float&gt;</text><!--MD5=[03f4d60fbbc88042d6303a4bbfdbc174]
@startuml
class FloatValidator {
    + Invoke(input:float) : float
}
class "IFieldValidator`1"<T> {
}
InputValidator <|- - FloatValidator
"IFieldValidator`1" "<float>" <|- - FloatValidator
@enduml

PlantUML version 1.2020.02(Sun Mar 01 10:22:07 GMT 2020)
(GPL source distribution)
Java Runtime: OpenJDK Runtime Environment
JVM: OpenJDK 64-Bit Server VM
Java Version: 11.0.9+11-Ubuntu-0ubuntu1
Operating System: Linux
Default Encoding: ANSI_X3.4-1968
Language: en
Country: US
--></g></svg>