<?xml version="1.0" encoding="UTF-8" standalone="no"?><svg xmlns="http://www.w3.org/2000/svg" xmlns:xlink="http://www.w3.org/1999/xlink" contentScriptType="application/ecmascript" contentStyleType="text/css" height="187px" preserveAspectRatio="none" style="width:290px;height:187px;" version="1.1" viewBox="0 0 290 187" width="290px" zoomAndPan="magnify"><defs><filter height="300%" id="fq3fowq1rxsdl" width="300%" x="-1" y="-1"><feGaussianBlur result="blurOut" stdDeviation="2.0"/><feColorMatrix in="blurOut" result="blurOut2" type="matrix" values="0 0 0 0 0 0 0 0 0 0 0 0 0 0 0 0 0 0 .4 0"/><feOffset dx="4.0" dy="4.0" in="blurOut2" result="blurOut3"/><feBlend in="SourceGraphic" in2="blurOut3" mode="normal"/></filter></defs><g><!--MD5=[2097b92fa3a57985cf4217d16a0d3df6]
class FloatParser--><rect fill="#FEFECE" filter="url(#fq3fowq1rxsdl)" height="60.8047" id="FloatParser" style="stroke: #A80036; stroke-width: 1.5;" width="168" x="65.5" y="116"/><ellipse cx="109.3" cy="132" fill="#ADD1B2" rx="11" ry="11" style="stroke: #A80036; stroke-width: 1.0;"/><path d="M112.2688,137.6406 Q111.6906,137.9375 111.05,138.0781 Q110.4094,138.2344 109.7063,138.2344 Q107.2063,138.2344 105.8781,136.5938 Q104.5656,134.9375 104.5656,131.8125 Q104.5656,128.6875 105.8781,127.0313 Q107.2063,125.375 109.7063,125.375 Q110.4094,125.375 111.05,125.5313 Q111.7063,125.6875 112.2688,125.9844 L112.2688,128.7031 Q111.6438,128.125 111.05,127.8594 Q110.4563,127.5781 109.8313,127.5781 Q108.4875,127.5781 107.8,128.6563 Q107.1125,129.7188 107.1125,131.8125 Q107.1125,133.9063 107.8,134.9844 Q108.4875,136.0469 109.8313,136.0469 Q110.4563,136.0469 111.05,135.7813 Q111.6438,135.5 112.2688,134.9219 L112.2688,137.6406 Z "/><text fill="#000000" font-family="sans-serif" font-size="12" lengthAdjust="spacingAndGlyphs" textLength="72" x="129.7" y="136.1543">FloatParser</text><line style="stroke: #A80036; stroke-width: 1.5;" x1="66.5" x2="232.5" y1="148" y2="148"/><line style="stroke: #A80036; stroke-width: 1.5;" x1="66.5" x2="232.5" y1="156" y2="156"/><ellipse cx="76.5" cy="167" fill="#84BE84" rx="3" ry="3" style="stroke: #038048; stroke-width: 1.0;"/><text fill="#000000" font-family="sans-serif" font-size="11" lengthAdjust="spacingAndGlyphs" textLength="142" x="85.5" y="170.2104">Parse(from:string) : float</text><!--MD5=[6b9b31cec3439950bc9c3d5ac0dd3fc2]
class IInputParser`1--><rect fill="#FEFECE" filter="url(#fq3fowq1rxsdl)" height="48" id="IInputParser`1" style="stroke: #A80036; stroke-width: 1.5;" width="133" x="6" y="8"/><ellipse cx="21" cy="24" fill="#ADD1B2" rx="11" ry="11" style="stroke: #A80036; stroke-width: 1.0;"/><path d="M23.9688,29.6406 Q23.3906,29.9375 22.75,30.0781 Q22.1094,30.2344 21.4063,30.2344 Q18.9063,30.2344 17.5781,28.5938 Q16.2656,26.9375 16.2656,23.8125 Q16.2656,20.6875 17.5781,19.0313 Q18.9063,17.375 21.4063,17.375 Q22.1094,17.375 22.75,17.5313 Q23.4063,17.6875 23.9688,17.9844 L23.9688,20.7031 Q23.3438,20.125 22.75,19.8594 Q22.1563,19.5781 21.5313,19.5781 Q20.1875,19.5781 19.5,20.6563 Q18.8125,21.7188 18.8125,23.8125 Q18.8125,25.9063 19.5,26.9844 Q20.1875,28.0469 21.5313,28.0469 Q22.1563,28.0469 22.75,27.7813 Q23.3438,27.5 23.9688,26.9219 L23.9688,29.6406 Z "/><text fill="#000000" font-family="sans-serif" font-size="12" lengthAdjust="spacingAndGlyphs" textLength="90" x="35" y="28.1543">IInputParser`1</text><rect fill="#FFFFFF" height="15.9688" style="stroke: #000000; stroke-width: 1.0; stroke-dasharray: 2.0,2.0;" width="9" x="133" y="5"/><text fill="#000000" font-family="sans-serif" font-size="12" font-style="italic" lengthAdjust="spacingAndGlyphs" textLength="7" x="134" y="17.1387">T</text><line style="stroke: #A80036; stroke-width: 1.5;" x1="7" x2="138" y1="40" y2="40"/><line style="stroke: #A80036; stroke-width: 1.5;" x1="7" x2="138" y1="48" y2="48"/><!--MD5=[57757b5bab70b6b63c7ca5058c654320]
class InputParser--><rect fill="#FEFECE" filter="url(#fq3fowq1rxsdl)" height="48" id="InputParser" style="stroke: #A80036; stroke-width: 1.5;" width="105" x="174" y="8"/><ellipse cx="189" cy="24" fill="#ADD1B2" rx="11" ry="11" style="stroke: #A80036; stroke-width: 1.0;"/><path d="M191.9688,29.6406 Q191.3906,29.9375 190.75,30.0781 Q190.1094,30.2344 189.4063,30.2344 Q186.9063,30.2344 185.5781,28.5938 Q184.2656,26.9375 184.2656,23.8125 Q184.2656,20.6875 185.5781,19.0313 Q186.9063,17.375 189.4063,17.375 Q190.1094,17.375 190.75,17.5313 Q191.4063,17.6875 191.9688,17.9844 L191.9688,20.7031 Q191.3438,20.125 190.75,19.8594 Q190.1563,19.5781 189.5313,19.5781 Q188.1875,19.5781 187.5,20.6563 Q186.8125,21.7188 186.8125,23.8125 Q186.8125,25.9063 187.5,26.9844 Q188.1875,28.0469 189.5313,28.0469 Q190.1563,28.0469 190.75,27.7813 Q191.3438,27.5 191.9688,26.9219 L191.9688,29.6406 Z "/><text fill="#000000" font-family="sans-serif" font-size="12" lengthAdjust="spacingAndGlyphs" textLength="73" x="203" y="28.1543">InputParser</text><line style="stroke: #A80036; stroke-width: 1.5;" x1="175" x2="278" y1="40" y2="40"/><line style="stroke: #A80036; stroke-width: 1.5;" x1="175" x2="278" y1="48" y2="48"/><!--MD5=[79d3979e05adf3679487e24f3b37c5c8]
reverse link InputParser to FloatParser--><path d="M199.26,72.79 C189.61,86.9 178.92,102.52 169.93,115.65 " fill="none" id="InputParser&lt;-FloatParser" style="stroke: #A80036; stroke-width: 1.0;"/><polygon fill="none" points="193.66,68.59,210.73,56.04,205.21,76.5,193.66,68.59" style="stroke: #A80036; stroke-width: 1.0;"/><!--MD5=[8cdf00ab6a79f391b97b31b10a2f03aa]
reverse link IInputParser`1 to FloatParser--><path d="M99.74,72.79 C109.39,86.9 120.08,102.52 129.07,115.65 " fill="none" id="IInputParser`1&lt;-FloatParser" style="stroke: #A80036; stroke-width: 1.0;"/><polygon fill="none" points="93.79,76.5,88.27,56.04,105.34,68.59,93.79,76.5" style="stroke: #A80036; stroke-width: 1.0;"/><text fill="#000000" font-family="sans-serif" font-size="13" lengthAdjust="spacingAndGlyphs" textLength="50" x="35.9048" y="76.206">&lt;float&gt;</text><!--MD5=[ed86712b240590200b4b36a63fe3afec]
@startuml
class FloatParser {
    + Parse(from:string) : float
}
class "IInputParser`1"<T> {
}
InputParser <|- - FloatParser
"IInputParser`1" "<float>" <|- - FloatParser
@enduml

PlantUML version 1.2020.02(Sun Mar 01 10:22:07 GMT 2020)
(GPL source distribution)
Java Runtime: OpenJDK Runtime Environment
JVM: OpenJDK 64-Bit Server VM
Java Version: 11.0.9+11-Ubuntu-0ubuntu1
Operating System: Linux
Default Encoding: ANSI_X3.4-1968
Language: en
Country: US
--></g></svg>