<?xml version="1.0" encoding="UTF-8" standalone="no"?><svg xmlns="http://www.w3.org/2000/svg" xmlns:xlink="http://www.w3.org/1999/xlink" contentScriptType="application/ecmascript" contentStyleType="text/css" height="226px" preserveAspectRatio="none" style="width:568px;height:226px;" version="1.1" viewBox="0 0 568 226" width="568px" zoomAndPan="magnify"><defs><filter height="300%" id="f1tvtbs9hh21kd" width="300%" x="-1" y="-1"><feGaussianBlur result="blurOut" stdDeviation="2.0"/><feColorMatrix in="blurOut" result="blurOut2" type="matrix" values="0 0 0 0 0 0 0 0 0 0 0 0 0 0 0 0 0 0 .4 0"/><feOffset dx="4.0" dy="4.0" in="blurOut2" result="blurOut3"/><feBlend in="SourceGraphic" in2="blurOut3" mode="normal"/></filter></defs><g><!--MD5=[26fed6092ed23bd5e2d07dbf6aba7fc6]
class ChangeDropdownCommand--><rect fill="#FEFECE" filter="url(#f1tvtbs9hh21kd)" height="99.2188" id="ChangeDropdownCommand" style="stroke: #A80036; stroke-width: 1.5;" width="551" x="6" y="116"/><ellipse cx="190.75" cy="132" fill="#ADD1B2" rx="11" ry="11" style="stroke: #A80036; stroke-width: 1.0;"/><path d="M193.7188,137.6406 Q193.1406,137.9375 192.5,138.0781 Q191.8594,138.2344 191.1563,138.2344 Q188.6563,138.2344 187.3281,136.5938 Q186.0156,134.9375 186.0156,131.8125 Q186.0156,128.6875 187.3281,127.0313 Q188.6563,125.375 191.1563,125.375 Q191.8594,125.375 192.5,125.5313 Q193.1563,125.6875 193.7188,125.9844 L193.7188,128.7031 Q193.0938,128.125 192.5,127.8594 Q191.9063,127.5781 191.2813,127.5781 Q189.9375,127.5781 189.25,128.6563 Q188.5625,129.7188 188.5625,131.8125 Q188.5625,133.9063 189.25,134.9844 Q189.9375,136.0469 191.2813,136.0469 Q191.9063,136.0469 192.5,135.7813 Q193.0938,135.5 193.7188,134.9219 L193.7188,137.6406 Z "/><text fill="#000000" font-family="sans-serif" font-size="12" lengthAdjust="spacingAndGlyphs" textLength="173" x="211.25" y="136.1543">ChangeDropdownCommand</text><line style="stroke: #A80036; stroke-width: 1.5;" x1="7" x2="556" y1="148" y2="148"/><line style="stroke: #A80036; stroke-width: 1.5;" x1="7" x2="556" y1="156" y2="156"/><ellipse cx="17" cy="167" fill="#84BE84" rx="3" ry="3" style="stroke: #038048; stroke-width: 1.0;"/><text fill="#000000" font-family="sans-serif" font-size="11" lengthAdjust="spacingAndGlyphs" textLength="525" x="26" y="170.2104">ChangeDropdownCommand(dropdown:TMP_Dropdown, from:int, to:int, callback:Action&lt;int&gt;)</text><ellipse cx="17" cy="179.8047" fill="#84BE84" rx="3" ry="3" style="stroke: #038048; stroke-width: 1.0;"/><text fill="#000000" font-family="sans-serif" font-size="11" lengthAdjust="spacingAndGlyphs" textLength="87" x="26" y="183.0151">Execute() : void</text><ellipse cx="17" cy="192.6094" fill="#84BE84" rx="3" ry="3" style="stroke: #038048; stroke-width: 1.0;"/><text fill="#000000" font-family="sans-serif" font-size="11" lengthAdjust="spacingAndGlyphs" textLength="72" x="26" y="195.8198">Undo() : void</text><ellipse cx="17" cy="205.4141" fill="#84BE84" rx="3" ry="3" style="stroke: #038048; stroke-width: 1.0;"/><text fill="#000000" font-family="sans-serif" font-size="11" lengthAdjust="spacingAndGlyphs" textLength="71" x="26" y="208.6245">Redo() : void</text><!--MD5=[11008d568be52109e77f2977709dd853]
class ICommand--><rect fill="#FEFECE" filter="url(#f1tvtbs9hh21kd)" height="48" id="ICommand" style="stroke: #A80036; stroke-width: 1.5;" width="97" x="233" y="8"/><ellipse cx="248" cy="24" fill="#ADD1B2" rx="11" ry="11" style="stroke: #A80036; stroke-width: 1.0;"/><path d="M250.9688,29.6406 Q250.3906,29.9375 249.75,30.0781 Q249.1094,30.2344 248.4063,30.2344 Q245.9063,30.2344 244.5781,28.5938 Q243.2656,26.9375 243.2656,23.8125 Q243.2656,20.6875 244.5781,19.0313 Q245.9063,17.375 248.4063,17.375 Q249.1094,17.375 249.75,17.5313 Q250.4063,17.6875 250.9688,17.9844 L250.9688,20.7031 Q250.3438,20.125 249.75,19.8594 Q249.1563,19.5781 248.5313,19.5781 Q247.1875,19.5781 246.5,20.6563 Q245.8125,21.7188 245.8125,23.8125 Q245.8125,25.9063 246.5,26.9844 Q247.1875,28.0469 248.5313,28.0469 Q249.1563,28.0469 249.75,27.7813 Q250.3438,27.5 250.9688,26.9219 L250.9688,29.6406 Z "/><text fill="#000000" font-family="sans-serif" font-size="12" lengthAdjust="spacingAndGlyphs" textLength="65" x="262" y="28.1543">ICommand</text><line style="stroke: #A80036; stroke-width: 1.5;" x1="234" x2="329" y1="40" y2="40"/><line style="stroke: #A80036; stroke-width: 1.5;" x1="234" x2="329" y1="48" y2="48"/><!--MD5=[6b2cd889c776c49eca401779c4a422fb]
reverse link ICommand to ChangeDropdownCommand--><path d="M281.5,76.51 C281.5,89.14 281.5,103.01 281.5,115.93 " fill="none" id="ICommand&lt;-ChangeDropdownCommand" style="stroke: #A80036; stroke-width: 1.0;"/><polygon fill="none" points="274.5,76.21,281.5,56.21,288.5,76.21,274.5,76.21" style="stroke: #A80036; stroke-width: 1.0;"/><!--MD5=[d6493c1c1347fe4d0b8a184d159b22ab]
@startuml
class ChangeDropdownCommand {
    + ChangeDropdownCommand(dropdown:TMP_Dropdown, from:int, to:int, callback:Action<int>)
    + Execute() : void
    + Undo() : void
    + Redo() : void
}
ICommand <|- - ChangeDropdownCommand
@enduml

PlantUML version 1.2020.02(Sun Mar 01 10:22:07 GMT 2020)
(GPL source distribution)
Java Runtime: OpenJDK Runtime Environment
JVM: OpenJDK 64-Bit Server VM
Java Version: 11.0.9+11-Ubuntu-0ubuntu1
Operating System: Linux
Default Encoding: ANSI_X3.4-1968
Language: en
Country: US
--></g></svg>