<?xml version="1.0" encoding="UTF-8" standalone="no"?><svg xmlns="http://www.w3.org/2000/svg" xmlns:xlink="http://www.w3.org/1999/xlink" contentScriptType="application/ecmascript" contentStyleType="text/css" height="226px" preserveAspectRatio="none" style="width:649px;height:226px;" version="1.1" viewBox="0 0 649 226" width="649px" zoomAndPan="magnify"><defs><filter height="300%" id="f16gbqog78vs0c" width="300%" x="-1" y="-1"><feGaussianBlur result="blurOut" stdDeviation="2.0"/><feColorMatrix in="blurOut" result="blurOut2" type="matrix" values="0 0 0 0 0 0 0 0 0 0 0 0 0 0 0 0 0 0 .4 0"/><feOffset dx="4.0" dy="4.0" in="blurOut2" result="blurOut3"/><feBlend in="SourceGraphic" in2="blurOut3" mode="normal"/></filter></defs><g><!--MD5=[fcaf69dd2a4c7203e52b5da9d45bf57c]
class ChangeFieldCommand`1--><rect fill="#FEFECE" filter="url(#f16gbqog78vs0c)" height="99.2188" id="ChangeFieldCommand`1" style="stroke: #A80036; stroke-width: 1.5;" width="629" x="6" y="116"/><ellipse cx="234.25" cy="132" fill="#ADD1B2" rx="11" ry="11" style="stroke: #A80036; stroke-width: 1.0;"/><path d="M237.2188,137.6406 Q236.6406,137.9375 236,138.0781 Q235.3594,138.2344 234.6563,138.2344 Q232.1563,138.2344 230.8281,136.5938 Q229.5156,134.9375 229.5156,131.8125 Q229.5156,128.6875 230.8281,127.0313 Q232.1563,125.375 234.6563,125.375 Q235.3594,125.375 236,125.5313 Q236.6563,125.6875 237.2188,125.9844 L237.2188,128.7031 Q236.5938,128.125 236,127.8594 Q235.4063,127.5781 234.7813,127.5781 Q233.4375,127.5781 232.75,128.6563 Q232.0625,129.7188 232.0625,131.8125 Q232.0625,133.9063 232.75,134.9844 Q233.4375,136.0469 234.7813,136.0469 Q235.4063,136.0469 236,135.7813 Q236.5938,135.5 237.2188,134.9219 L237.2188,137.6406 Z "/><text fill="#000000" font-family="sans-serif" font-size="12" lengthAdjust="spacingAndGlyphs" textLength="153" x="254.75" y="136.1543">ChangeFieldCommand`1</text><rect fill="#FFFFFF" height="15.9688" style="stroke: #000000; stroke-width: 1.0; stroke-dasharray: 2.0,2.0;" width="9" x="629" y="113"/><text fill="#000000" font-family="sans-serif" font-size="12" font-style="italic" lengthAdjust="spacingAndGlyphs" textLength="7" x="630" y="125.1387">T</text><line style="stroke: #A80036; stroke-width: 1.5;" x1="7" x2="634" y1="148" y2="148"/><line style="stroke: #A80036; stroke-width: 1.5;" x1="7" x2="634" y1="156" y2="156"/><ellipse cx="17" cy="167" fill="#84BE84" rx="3" ry="3" style="stroke: #038048; stroke-width: 1.0;"/><text fill="#000000" font-family="sans-serif" font-size="11" lengthAdjust="spacingAndGlyphs" textLength="603" x="26" y="170.2104">ChangeFieldCommand(field:TMP_InputField, from:T, to:T, validator:IFieldValidator&lt;T&gt;, callback:Action&lt;T&gt;)</text><ellipse cx="17" cy="179.8047" fill="#84BE84" rx="3" ry="3" style="stroke: #038048; stroke-width: 1.0;"/><text fill="#000000" font-family="sans-serif" font-size="11" lengthAdjust="spacingAndGlyphs" textLength="87" x="26" y="183.0151">Execute() : void</text><ellipse cx="17" cy="192.6094" fill="#84BE84" rx="3" ry="3" style="stroke: #038048; stroke-width: 1.0;"/><text fill="#000000" font-family="sans-serif" font-size="11" lengthAdjust="spacingAndGlyphs" textLength="72" x="26" y="195.8198">Undo() : void</text><ellipse cx="17" cy="205.4141" fill="#84BE84" rx="3" ry="3" style="stroke: #038048; stroke-width: 1.0;"/><text fill="#000000" font-family="sans-serif" font-size="11" lengthAdjust="spacingAndGlyphs" textLength="71" x="26" y="208.6245">Redo() : void</text><!--MD5=[11008d568be52109e77f2977709dd853]
class ICommand--><rect fill="#FEFECE" filter="url(#f16gbqog78vs0c)" height="48" id="ICommand" style="stroke: #A80036; stroke-width: 1.5;" width="97" x="272" y="8"/><ellipse cx="287" cy="24" fill="#ADD1B2" rx="11" ry="11" style="stroke: #A80036; stroke-width: 1.0;"/><path d="M289.9688,29.6406 Q289.3906,29.9375 288.75,30.0781 Q288.1094,30.2344 287.4063,30.2344 Q284.9063,30.2344 283.5781,28.5938 Q282.2656,26.9375 282.2656,23.8125 Q282.2656,20.6875 283.5781,19.0313 Q284.9063,17.375 287.4063,17.375 Q288.1094,17.375 288.75,17.5313 Q289.4063,17.6875 289.9688,17.9844 L289.9688,20.7031 Q289.3438,20.125 288.75,19.8594 Q288.1563,19.5781 287.5313,19.5781 Q286.1875,19.5781 285.5,20.6563 Q284.8125,21.7188 284.8125,23.8125 Q284.8125,25.9063 285.5,26.9844 Q286.1875,28.0469 287.5313,28.0469 Q288.1563,28.0469 288.75,27.7813 Q289.3438,27.5 289.9688,26.9219 L289.9688,29.6406 Z "/><text fill="#000000" font-family="sans-serif" font-size="12" lengthAdjust="spacingAndGlyphs" textLength="65" x="301" y="28.1543">ICommand</text><line style="stroke: #A80036; stroke-width: 1.5;" x1="273" x2="368" y1="40" y2="40"/><line style="stroke: #A80036; stroke-width: 1.5;" x1="273" x2="368" y1="48" y2="48"/><!--MD5=[6ab1e734dedea2a508611535ca71b981]
reverse link ICommand to ChangeFieldCommand`1--><path d="M320.5,76.51 C320.5,89.14 320.5,103.01 320.5,115.93 " fill="none" id="ICommand&lt;-ChangeFieldCommand`1" style="stroke: #A80036; stroke-width: 1.0;"/><polygon fill="none" points="313.5,76.21,320.5,56.21,327.5,76.21,313.5,76.21" style="stroke: #A80036; stroke-width: 1.0;"/><!--MD5=[a9ad88219d94cdaa0aa75987c7718407]
@startuml
class "ChangeFieldCommand`1"<T> {
    + ChangeFieldCommand(field:TMP_InputField, from:T, to:T, validator:IFieldValidator<T>, callback:Action<T>)
    + Execute() : void
    + Undo() : void
    + Redo() : void
}
ICommand <|- - "ChangeFieldCommand`1"
@enduml

PlantUML version 1.2020.02(Sun Mar 01 10:22:07 GMT 2020)
(GPL source distribution)
Java Runtime: OpenJDK Runtime Environment
JVM: OpenJDK 64-Bit Server VM
Java Version: 11.0.9+11-Ubuntu-0ubuntu1
Operating System: Linux
Default Encoding: ANSI_X3.4-1968
Language: en
Country: US
--></g></svg>