<?xml version="1.0" encoding="UTF-8" standalone="no"?><svg xmlns="http://www.w3.org/2000/svg" xmlns:xlink="http://www.w3.org/1999/xlink" contentScriptType="application/ecmascript" contentStyleType="text/css" height="226px" preserveAspectRatio="none" style="width:621px;height:226px;" version="1.1" viewBox="0 0 621 226" width="621px" zoomAndPan="magnify"><defs><filter height="300%" id="fmeehiaac7za9" width="300%" x="-1" y="-1"><feGaussianBlur result="blurOut" stdDeviation="2.0"/><feColorMatrix in="blurOut" result="blurOut2" type="matrix" values="0 0 0 0 0 0 0 0 0 0 0 0 0 0 0 0 0 0 .4 0"/><feOffset dx="4.0" dy="4.0" in="blurOut2" result="blurOut3"/><feBlend in="SourceGraphic" in2="blurOut3" mode="normal"/></filter></defs><g><!--MD5=[fcaf69dd2a4c7203e52b5da9d45bf57c]
class ChangeFieldCommand`1--><rect fill="#FEFECE" filter="url(#fmeehiaac7za9)" height="99.2188" id="ChangeFieldCommand`1" style="stroke: #A80036; stroke-width: 1.5;" width="601" x="6" y="116"/><ellipse cx="220.25" cy="132" fill="#ADD1B2" rx="11" ry="11" style="stroke: #A80036; stroke-width: 1.0;"/><path d="M223.2188,137.6406 Q222.6406,137.9375 222,138.0781 Q221.3594,138.2344 220.6563,138.2344 Q218.1563,138.2344 216.8281,136.5938 Q215.5156,134.9375 215.5156,131.8125 Q215.5156,128.6875 216.8281,127.0313 Q218.1563,125.375 220.6563,125.375 Q221.3594,125.375 222,125.5313 Q222.6563,125.6875 223.2188,125.9844 L223.2188,128.7031 Q222.5938,128.125 222,127.8594 Q221.4063,127.5781 220.7813,127.5781 Q219.4375,127.5781 218.75,128.6563 Q218.0625,129.7188 218.0625,131.8125 Q218.0625,133.9063 218.75,134.9844 Q219.4375,136.0469 220.7813,136.0469 Q221.4063,136.0469 222,135.7813 Q222.5938,135.5 223.2188,134.9219 L223.2188,137.6406 Z "/><text fill="#000000" font-family="sans-serif" font-size="12" lengthAdjust="spacingAndGlyphs" textLength="153" x="240.75" y="136.1543">ChangeFieldCommand`1</text><rect fill="#FFFFFF" height="15.9688" style="stroke: #000000; stroke-width: 1.0; stroke-dasharray: 2.0,2.0;" width="9" x="601" y="113"/><text fill="#000000" font-family="sans-serif" font-size="12" font-style="italic" lengthAdjust="spacingAndGlyphs" textLength="7" x="602" y="125.1387">T</text><line style="stroke: #A80036; stroke-width: 1.5;" x1="7" x2="606" y1="148" y2="148"/><line style="stroke: #A80036; stroke-width: 1.5;" x1="7" x2="606" y1="156" y2="156"/><ellipse cx="17" cy="167" fill="#84BE84" rx="3" ry="3" style="stroke: #038048; stroke-width: 1.0;"/><text fill="#000000" font-family="sans-serif" font-size="11" lengthAdjust="spacingAndGlyphs" textLength="575" x="26" y="170.2104">ChangeFieldCommand(field:TMP_InputField, from:T, to:T, validator:FieldValidator, callback:Action&lt;T&gt;)</text><ellipse cx="17" cy="179.8047" fill="#84BE84" rx="3" ry="3" style="stroke: #038048; stroke-width: 1.0;"/><text fill="#000000" font-family="sans-serif" font-size="11" lengthAdjust="spacingAndGlyphs" textLength="87" x="26" y="183.0151">Execute() : void</text><ellipse cx="17" cy="192.6094" fill="#84BE84" rx="3" ry="3" style="stroke: #038048; stroke-width: 1.0;"/><text fill="#000000" font-family="sans-serif" font-size="11" lengthAdjust="spacingAndGlyphs" textLength="72" x="26" y="195.8198">Undo() : void</text><ellipse cx="17" cy="205.4141" fill="#84BE84" rx="3" ry="3" style="stroke: #038048; stroke-width: 1.0;"/><text fill="#000000" font-family="sans-serif" font-size="11" lengthAdjust="spacingAndGlyphs" textLength="71" x="26" y="208.6245">Redo() : void</text><!--MD5=[11008d568be52109e77f2977709dd853]
class ICommand--><rect fill="#FEFECE" filter="url(#fmeehiaac7za9)" height="48" id="ICommand" style="stroke: #A80036; stroke-width: 1.5;" width="97" x="258" y="8"/><ellipse cx="273" cy="24" fill="#ADD1B2" rx="11" ry="11" style="stroke: #A80036; stroke-width: 1.0;"/><path d="M275.9688,29.6406 Q275.3906,29.9375 274.75,30.0781 Q274.1094,30.2344 273.4063,30.2344 Q270.9063,30.2344 269.5781,28.5938 Q268.2656,26.9375 268.2656,23.8125 Q268.2656,20.6875 269.5781,19.0313 Q270.9063,17.375 273.4063,17.375 Q274.1094,17.375 274.75,17.5313 Q275.4063,17.6875 275.9688,17.9844 L275.9688,20.7031 Q275.3438,20.125 274.75,19.8594 Q274.1563,19.5781 273.5313,19.5781 Q272.1875,19.5781 271.5,20.6563 Q270.8125,21.7188 270.8125,23.8125 Q270.8125,25.9063 271.5,26.9844 Q272.1875,28.0469 273.5313,28.0469 Q274.1563,28.0469 274.75,27.7813 Q275.3438,27.5 275.9688,26.9219 L275.9688,29.6406 Z "/><text fill="#000000" font-family="sans-serif" font-size="12" lengthAdjust="spacingAndGlyphs" textLength="65" x="287" y="28.1543">ICommand</text><line style="stroke: #A80036; stroke-width: 1.5;" x1="259" x2="354" y1="40" y2="40"/><line style="stroke: #A80036; stroke-width: 1.5;" x1="259" x2="354" y1="48" y2="48"/><!--MD5=[6ab1e734dedea2a508611535ca71b981]
reverse link ICommand to ChangeFieldCommand`1--><path d="M306.5,76.51 C306.5,89.14 306.5,103.01 306.5,115.93 " fill="none" id="ICommand&lt;-ChangeFieldCommand`1" style="stroke: #A80036; stroke-width: 1.0;"/><polygon fill="none" points="299.5,76.21,306.5,56.21,313.5,76.21,299.5,76.21" style="stroke: #A80036; stroke-width: 1.0;"/><!--MD5=[48d0ef638c89b513357569ef990bb654]
@startuml
class "ChangeFieldCommand`1"<T> {
    + ChangeFieldCommand(field:TMP_InputField, from:T, to:T, validator:FieldValidator, callback:Action<T>)
    + Execute() : void
    + Undo() : void
    + Redo() : void
}
ICommand <|- - "ChangeFieldCommand`1"
@enduml

PlantUML version 1.2020.02(Sun Mar 01 10:22:07 GMT 2020)
(GPL source distribution)
Java Runtime: OpenJDK Runtime Environment
JVM: OpenJDK 64-Bit Server VM
Java Version: 11.0.9+11-Ubuntu-0ubuntu1
Operating System: Linux
Default Encoding: ANSI_X3.4-1968
Language: en
Country: US
--></g></svg>