<?xml version="1.0" encoding="UTF-8" standalone="no"?><svg xmlns="http://www.w3.org/2000/svg" xmlns:xlink="http://www.w3.org/1999/xlink" contentScriptType="application/ecmascript" contentStyleType="text/css" height="559px" preserveAspectRatio="none" style="width:646px;height:559px;" version="1.1" viewBox="0 0 646 559" width="646px" zoomAndPan="magnify"><defs><filter height="300%" id="f1tm1yila0f4rn" width="300%" x="-1" y="-1"><feGaussianBlur result="blurOut" stdDeviation="2.0"/><feColorMatrix in="blurOut" result="blurOut2" type="matrix" values="0 0 0 0 0 0 0 0 0 0 0 0 0 0 0 0 0 0 .4 0"/><feOffset dx="4.0" dy="4.0" in="blurOut2" result="blurOut3"/><feBlend in="SourceGraphic" in2="blurOut3" mode="normal"/></filter></defs><g><!--MD5=[60e38041d49b1682e5f1496abbd8f194]
class OpenFileName--><rect fill="#FEFECE" filter="url(#f1tm1yila0f4rn)" height="176.0469" id="OpenFileName" style="stroke: #A80036; stroke-width: 1.5;" width="164" x="6" y="66"/><ellipse cx="39.9" cy="82" fill="#ADD1B2" rx="11" ry="11" style="stroke: #A80036; stroke-width: 1.0;"/><path d="M42.8688,87.6406 Q42.2906,87.9375 41.65,88.0781 Q41.0094,88.2344 40.3063,88.2344 Q37.8063,88.2344 36.4781,86.5938 Q35.1656,84.9375 35.1656,81.8125 Q35.1656,78.6875 36.4781,77.0313 Q37.8063,75.375 40.3063,75.375 Q41.0094,75.375 41.65,75.5313 Q42.3063,75.6875 42.8688,75.9844 L42.8688,78.7031 Q42.2438,78.125 41.65,77.8594 Q41.0563,77.5781 40.4313,77.5781 Q39.0875,77.5781 38.4,78.6563 Q37.7125,79.7188 37.7125,81.8125 Q37.7125,83.9063 38.4,84.9844 Q39.0875,86.0469 40.4313,86.0469 Q41.0563,86.0469 41.65,85.7813 Q42.2438,85.5 42.8688,84.9219 L42.8688,87.6406 Z "/><text fill="#000000" font-family="sans-serif" font-size="12" lengthAdjust="spacingAndGlyphs" textLength="90" x="58.1" y="86.1543">OpenFileName</text><line style="stroke: #A80036; stroke-width: 1.5;" x1="7" x2="169" y1="98" y2="98"/><ellipse cx="17" cy="109" fill="none" rx="3" ry="3" style="stroke: #038048; stroke-width: 1.0;"/><text fill="#000000" font-family="sans-serif" font-size="11" lengthAdjust="spacingAndGlyphs" textLength="106" x="26" y="112.2104">structSize : int = 0</text><ellipse cx="17" cy="121.8047" fill="none" rx="3" ry="3" style="stroke: #038048; stroke-width: 1.0;"/><text fill="#000000" font-family="sans-serif" font-size="11" lengthAdjust="spacingAndGlyphs" textLength="128" x="26" y="125.0151">maxCustFilter : int = 0</text><ellipse cx="17" cy="134.6094" fill="none" rx="3" ry="3" style="stroke: #038048; stroke-width: 1.0;"/><text fill="#000000" font-family="sans-serif" font-size="11" lengthAdjust="spacingAndGlyphs" textLength="106" x="26" y="137.8198">filterIndex : int = 0</text><ellipse cx="17" cy="147.4141" fill="none" rx="3" ry="3" style="stroke: #038048; stroke-width: 1.0;"/><text fill="#000000" font-family="sans-serif" font-size="11" lengthAdjust="spacingAndGlyphs" textLength="93" x="26" y="150.6245">maxFile : int = 0</text><ellipse cx="17" cy="160.2188" fill="none" rx="3" ry="3" style="stroke: #038048; stroke-width: 1.0;"/><text fill="#000000" font-family="sans-serif" font-size="11" lengthAdjust="spacingAndGlyphs" textLength="117" x="26" y="163.4292">maxFileTitle : int = 0</text><ellipse cx="17" cy="173.0234" fill="none" rx="3" ry="3" style="stroke: #038048; stroke-width: 1.0;"/><text fill="#000000" font-family="sans-serif" font-size="11" lengthAdjust="spacingAndGlyphs" textLength="78" x="26" y="176.2339">flags : int = 0</text><ellipse cx="17" cy="185.8281" fill="none" rx="3" ry="3" style="stroke: #038048; stroke-width: 1.0;"/><text fill="#000000" font-family="sans-serif" font-size="11" lengthAdjust="spacingAndGlyphs" textLength="118" x="26" y="189.0386">fileOffset : short = 0</text><ellipse cx="17" cy="198.6328" fill="none" rx="3" ry="3" style="stroke: #038048; stroke-width: 1.0;"/><text fill="#000000" font-family="sans-serif" font-size="11" lengthAdjust="spacingAndGlyphs" textLength="138" x="26" y="201.8433">fileExtension : short = 0</text><ellipse cx="17" cy="211.4375" fill="none" rx="3" ry="3" style="stroke: #038048; stroke-width: 1.0;"/><text fill="#000000" font-family="sans-serif" font-size="11" lengthAdjust="spacingAndGlyphs" textLength="115" x="26" y="214.6479">reservedInt : int = 0</text><ellipse cx="17" cy="224.2422" fill="none" rx="3" ry="3" style="stroke: #038048; stroke-width: 1.0;"/><text fill="#000000" font-family="sans-serif" font-size="11" lengthAdjust="spacingAndGlyphs" textLength="91" x="26" y="227.4526">flagsEx : int = 0</text><line style="stroke: #A80036; stroke-width: 1.5;" x1="7" x2="169" y1="234.0469" y2="234.0469"/><!--MD5=[1eb4404f2b1d5d287896cdc7bfdf4dca]
class FileInputElement--><rect fill="#FEFECE" filter="url(#f1tm1yila0f4rn)" height="137.6328" id="FileInputElement" style="stroke: #A80036; stroke-width: 1.5;" width="330" x="305" y="302"/><ellipse cx="413.75" cy="318" fill="#ADD1B2" rx="11" ry="11" style="stroke: #A80036; stroke-width: 1.0;"/><path d="M416.7188,323.6406 Q416.1406,323.9375 415.5,324.0781 Q414.8594,324.2344 414.1563,324.2344 Q411.6563,324.2344 410.3281,322.5938 Q409.0156,320.9375 409.0156,317.8125 Q409.0156,314.6875 410.3281,313.0313 Q411.6563,311.375 414.1563,311.375 Q414.8594,311.375 415.5,311.5313 Q416.1563,311.6875 416.7188,311.9844 L416.7188,314.7031 Q416.0938,314.125 415.5,313.8594 Q414.9063,313.5781 414.2813,313.5781 Q412.9375,313.5781 412.25,314.6563 Q411.5625,315.7188 411.5625,317.8125 Q411.5625,319.9063 412.25,320.9844 Q412.9375,322.0469 414.2813,322.0469 Q414.9063,322.0469 415.5,321.7813 Q416.0938,321.5 416.7188,320.9219 L416.7188,323.6406 Z "/><text fill="#000000" font-family="sans-serif" font-size="12" lengthAdjust="spacingAndGlyphs" textLength="104" x="434.25" y="322.1543">FileInputElement</text><line style="stroke: #A80036; stroke-width: 1.5;" x1="306" x2="634" y1="334" y2="334"/><ellipse cx="316" cy="345" fill="none" rx="3" ry="3" style="stroke: #038048; stroke-width: 1.0;"/><text fill="#000000" font-family="sans-serif" font-size="11" lengthAdjust="spacingAndGlyphs" textLength="162" x="325" y="348.2104">FilePath : string «get» = null</text><line style="stroke: #A80036; stroke-width: 1.5;" x1="306" x2="634" y1="354.8047" y2="354.8047"/><ellipse cx="316" cy="365.8047" fill="#84BE84" rx="3" ry="3" style="stroke: #038048; stroke-width: 1.0;"/><text fill="#000000" font-family="sans-serif" font-size="11" lengthAdjust="spacingAndGlyphs" text-decoration="underline" textLength="304" x="325" y="369.0151">«extern» GetOpenFileName(ofn:OpenFileName) : bool</text><ellipse cx="316" cy="378.6094" fill="#84BE84" rx="3" ry="3" style="stroke: #038048; stroke-width: 1.0;"/><text fill="#000000" font-family="sans-serif" font-size="11" lengthAdjust="spacingAndGlyphs" text-decoration="underline" textLength="257" x="325" y="381.8198">GetOpenFileName1(ofn:OpenFileName) : bool</text><ellipse cx="316" cy="391.4141" fill="#84BE84" rx="3" ry="3" style="stroke: #038048; stroke-width: 1.0;"/><text fill="#000000" font-family="sans-serif" font-size="11" lengthAdjust="spacingAndGlyphs" text-decoration="underline" textLength="302" x="325" y="394.6245">«extern» GetSaveFileName(ofn:OpenFileName) : bool</text><ellipse cx="316" cy="404.2188" fill="#84BE84" rx="3" ry="3" style="stroke: #038048; stroke-width: 1.0;"/><text fill="#000000" font-family="sans-serif" font-size="11" lengthAdjust="spacingAndGlyphs" text-decoration="underline" textLength="255" x="325" y="407.4292">GetSaveFileName1(ofn:OpenFileName) : bool</text><ellipse cx="316" cy="417.0234" fill="#84BE84" rx="3" ry="3" style="stroke: #038048; stroke-width: 1.0;"/><text fill="#000000" font-family="sans-serif" font-size="11" lengthAdjust="spacingAndGlyphs" textLength="84" x="325" y="420.2339">PickFile() : void</text><ellipse cx="316" cy="429.8281" fill="#84BE84" rx="3" ry="3" style="stroke: #038048; stroke-width: 1.0;"/><text fill="#000000" font-family="sans-serif" font-size="11" lengthAdjust="spacingAndGlyphs" textLength="151" x="325" y="433.0386">UpdatePreviewText() : void</text><!--MD5=[67c759932125ed9eb79048e30d57e16b]
class IntPtr--><rect fill="#FEFECE" filter="url(#f1tm1yila0f4rn)" height="48" id="IntPtr" style="stroke: #A80036; stroke-width: 1.5;" width="66" x="310" y="130"/><ellipse cx="325" cy="146" fill="#ADD1B2" rx="11" ry="11" style="stroke: #A80036; stroke-width: 1.0;"/><path d="M327.9688,151.6406 Q327.3906,151.9375 326.75,152.0781 Q326.1094,152.2344 325.4063,152.2344 Q322.9063,152.2344 321.5781,150.5938 Q320.2656,148.9375 320.2656,145.8125 Q320.2656,142.6875 321.5781,141.0313 Q322.9063,139.375 325.4063,139.375 Q326.1094,139.375 326.75,139.5313 Q327.4063,139.6875 327.9688,139.9844 L327.9688,142.7031 Q327.3438,142.125 326.75,141.8594 Q326.1563,141.5781 325.5313,141.5781 Q324.1875,141.5781 323.5,142.6563 Q322.8125,143.7188 322.8125,145.8125 Q322.8125,147.9063 323.5,148.9844 Q324.1875,150.0469 325.5313,150.0469 Q326.1563,150.0469 326.75,149.7813 Q327.3438,149.5 327.9688,148.9219 L327.9688,151.6406 Z "/><text fill="#000000" font-family="sans-serif" font-size="12" lengthAdjust="spacingAndGlyphs" textLength="34" x="339" y="150.1543">IntPtr</text><line style="stroke: #A80036; stroke-width: 1.5;" x1="311" x2="375" y1="162" y2="162"/><line style="stroke: #A80036; stroke-width: 1.5;" x1="311" x2="375" y1="170" y2="170"/><!--MD5=[9df70cf33be424c1b8543b3f439cae89]
class String--><rect fill="#FEFECE" filter="url(#f1tm1yila0f4rn)" height="48" id="String" style="stroke: #A80036; stroke-width: 1.5;" width="69" x="205.5" y="130"/><ellipse cx="220.5" cy="146" fill="#ADD1B2" rx="11" ry="11" style="stroke: #A80036; stroke-width: 1.0;"/><path d="M223.4688,151.6406 Q222.8906,151.9375 222.25,152.0781 Q221.6094,152.2344 220.9063,152.2344 Q218.4063,152.2344 217.0781,150.5938 Q215.7656,148.9375 215.7656,145.8125 Q215.7656,142.6875 217.0781,141.0313 Q218.4063,139.375 220.9063,139.375 Q221.6094,139.375 222.25,139.5313 Q222.9063,139.6875 223.4688,139.9844 L223.4688,142.7031 Q222.8438,142.125 222.25,141.8594 Q221.6563,141.5781 221.0313,141.5781 Q219.6875,141.5781 219,142.6563 Q218.3125,143.7188 218.3125,145.8125 Q218.3125,147.9063 219,148.9844 Q219.6875,150.0469 221.0313,150.0469 Q221.6563,150.0469 222.25,149.7813 Q222.8438,149.5 223.4688,148.9219 L223.4688,151.6406 Z "/><text fill="#000000" font-family="sans-serif" font-size="12" lengthAdjust="spacingAndGlyphs" textLength="37" x="234.5" y="150.1543">String</text><line style="stroke: #A80036; stroke-width: 1.5;" x1="206.5" x2="273.5" y1="162" y2="162"/><line style="stroke: #A80036; stroke-width: 1.5;" x1="206.5" x2="273.5" y1="170" y2="170"/><!--MD5=[9ec443d8179709ec900178173d51231c]
class MenuElement--><rect fill="#FEFECE" filter="url(#f1tm1yila0f4rn)" height="48" id="MenuElement" style="stroke: #A80036; stroke-width: 1.5;" width="117" x="411.5" y="130"/><ellipse cx="426.5" cy="146" fill="#ADD1B2" rx="11" ry="11" style="stroke: #A80036; stroke-width: 1.0;"/><path d="M429.4688,151.6406 Q428.8906,151.9375 428.25,152.0781 Q427.6094,152.2344 426.9063,152.2344 Q424.4063,152.2344 423.0781,150.5938 Q421.7656,148.9375 421.7656,145.8125 Q421.7656,142.6875 423.0781,141.0313 Q424.4063,139.375 426.9063,139.375 Q427.6094,139.375 428.25,139.5313 Q428.9063,139.6875 429.4688,139.9844 L429.4688,142.7031 Q428.8438,142.125 428.25,141.8594 Q427.6563,141.5781 427.0313,141.5781 Q425.6875,141.5781 425,142.6563 Q424.3125,143.7188 424.3125,145.8125 Q424.3125,147.9063 425,148.9844 Q425.6875,150.0469 427.0313,150.0469 Q427.6563,150.0469 428.25,149.7813 Q428.8438,149.5 429.4688,148.9219 L429.4688,151.6406 Z "/><text fill="#000000" font-family="sans-serif" font-size="12" lengthAdjust="spacingAndGlyphs" textLength="85" x="440.5" y="150.1543">MenuElement</text><line style="stroke: #A80036; stroke-width: 1.5;" x1="412.5" x2="527.5" y1="162" y2="162"/><line style="stroke: #A80036; stroke-width: 1.5;" x1="412.5" x2="527.5" y1="170" y2="170"/><!--MD5=[fa07864ef55e7d1943fa981e1ee9b4e7]
class TMP_Text--><rect fill="#FEFECE" filter="url(#f1tm1yila0f4rn)" height="48" id="TMP_Text" style="stroke: #A80036; stroke-width: 1.5;" width="89" x="425.5" y="500"/><ellipse cx="440.5" cy="516" fill="#ADD1B2" rx="11" ry="11" style="stroke: #A80036; stroke-width: 1.0;"/><path d="M443.4688,521.6406 Q442.8906,521.9375 442.25,522.0781 Q441.6094,522.2344 440.9063,522.2344 Q438.4063,522.2344 437.0781,520.5938 Q435.7656,518.9375 435.7656,515.8125 Q435.7656,512.6875 437.0781,511.0313 Q438.4063,509.375 440.9063,509.375 Q441.6094,509.375 442.25,509.5313 Q442.9063,509.6875 443.4688,509.9844 L443.4688,512.7031 Q442.8438,512.125 442.25,511.8594 Q441.6563,511.5781 441.0313,511.5781 Q439.6875,511.5781 439,512.6563 Q438.3125,513.7188 438.3125,515.8125 Q438.3125,517.9063 439,518.9844 Q439.6875,520.0469 441.0313,520.0469 Q441.6563,520.0469 442.25,519.7813 Q442.8438,519.5 443.4688,518.9219 L443.4688,521.6406 Z "/><text fill="#000000" font-family="sans-serif" font-size="12" lengthAdjust="spacingAndGlyphs" textLength="57" x="454.5" y="520.1543">TMP_Text</text><line style="stroke: #A80036; stroke-width: 1.5;" x1="426.5" x2="513.5" y1="532" y2="532"/><line style="stroke: #A80036; stroke-width: 1.5;" x1="426.5" x2="513.5" y1="540" y2="540"/><!--MD5=[7eb1a4d907c00fe93a031ea34aa21ebe]
link OpenFileName to IntPtr--><path d="M180.6067,62.165 C180.6067,62.165 189.75,57.6 193.83,56 C212.94,48.51 268.37,45.78 286.17,56 C308.98,69.1 323.47,95.26 332.1,117.26 " fill="none" id="OpenFileName-IntPtr" style="stroke: #A80036; stroke-width: 1.0;"/><polygon fill="#A80036" points="336.53,129.6,337.2569,119.778,334.8421,124.8935,329.7265,122.4787,336.53,129.6" style="stroke: #A80036; stroke-width: 1.0;"/><line style="stroke: #A80036; stroke-width: 1.0;" x1="334.8421" x2="332.14" y1="124.8935" y2="117.365"/><polygon fill="#FFFFFF" points="170.2,68.14,177.395,68.6214,180.6067,62.165,173.4117,61.6836,170.2,68.14" style="stroke: #A80036; stroke-width: 1.0;"/><text fill="#000000" font-family="sans-serif" font-size="13" lengthAdjust="spacingAndGlyphs" textLength="59" x="268.7623" y="118.9075">dlgOwner</text><!--MD5=[7eb1a4d907c00fe93a031ea34aa21ebe]
link OpenFileName to IntPtr--><path d="M175.1254,58.9981 C175.1254,58.9981 191.52,49.3 199.67,46 C216.28,39.28 264.79,37.07 280.33,46 C306.91,61.26 323.24,92.6 332.54,117.61 " fill="none" id="OpenFileName-IntPtr-1" style="stroke: #A80036; stroke-width: 1.0;"/><polygon fill="#A80036" points="336.78,129.99,337.6469,120.1794,335.1594,125.2599,330.0788,122.7724,336.78,129.99" style="stroke: #A80036; stroke-width: 1.0;"/><line style="stroke: #A80036; stroke-width: 1.0;" x1="335.1594" x2="332.565" y1="125.2599" y2="117.685"/><polygon fill="#FFFFFF" points="165.26,65.83,172.47,65.7025,175.1254,58.9981,167.9154,59.1256,165.26,65.83" style="stroke: #A80036; stroke-width: 1.0;"/><text fill="#000000" font-family="sans-serif" font-size="13" lengthAdjust="spacingAndGlyphs" textLength="54" x="342.1049" y="118.9995">instance</text><!--MD5=[7eb1a4d907c00fe93a031ea34aa21ebe]
link OpenFileName to IntPtr--><path d="M168.2692,58.2555 C168.2692,58.2555 192.62,41.35 205.5,36 C219.66,30.12 261.2,28.36 274.5,36 C304.64,53.31 322.74,89.56 332.69,117.34 " fill="none" id="OpenFileName-IntPtr-2" style="stroke: #A80036; stroke-width: 1.0;"/><polygon fill="#A80036" points="336.82,129.79,337.7891,119.9889,335.2488,125.0433,330.1944,122.5029,336.82,129.79" style="stroke: #A80036; stroke-width: 1.0;"/><line style="stroke: #A80036; stroke-width: 1.0;" x1="335.2488" x2="332.73" y1="125.0433" y2="117.45"/><polygon fill="#FFFFFF" points="158.97,65.84,166.1478,65.1475,168.2692,58.2555,161.0915,58.948,158.97,65.84" style="stroke: #A80036; stroke-width: 1.0;"/><text fill="#000000" font-family="sans-serif" font-size="13" lengthAdjust="spacingAndGlyphs" textLength="58" x="251.4329" y="118.8497">custData</text><!--MD5=[7eb1a4d907c00fe93a031ea34aa21ebe]
link OpenFileName to IntPtr--><path d="M160.1421,57.3716 C160.1421,57.3716 231.81,4.83 268.67,26 C302.44,45.4 322.28,86.7 332.84,117.16 " fill="none" id="OpenFileName-IntPtr-3" style="stroke: #A80036; stroke-width: 1.0;"/><polygon fill="#A80036" points="336.94,129.87,337.9874,120.077,335.4068,125.1109,330.3729,122.5302,336.94,129.87" style="stroke: #A80036; stroke-width: 1.0;"/><line style="stroke: #A80036; stroke-width: 1.0;" x1="335.4068" x2="332.95" y1="125.1109" y2="117.495"/><polygon fill="#FFFFFF" points="151.67,65.87,158.7389,64.4448,160.1421,57.3716,153.0732,58.7967,151.67,65.87" style="stroke: #A80036; stroke-width: 1.0;"/><text fill="#000000" font-family="sans-serif" font-size="13" lengthAdjust="spacingAndGlyphs" textLength="31" x="300.4153" y="118.8487">hook</text><!--MD5=[7eb1a4d907c00fe93a031ea34aa21ebe]
link OpenFileName to IntPtr--><path d="M151.7856,56.4285 C151.7856,56.4285 223.91,-6.36 262.83,16 C300.32,37.53 321.89,84.07 333.02,117.14 " fill="none" id="OpenFileName-IntPtr-4" style="stroke: #A80036; stroke-width: 1.0;"/><polygon fill="#A80036" points="337.04,129.94,338.1555,120.1545,335.5399,125.1703,330.524,122.5547,337.04,129.94" style="stroke: #A80036; stroke-width: 1.0;"/><line style="stroke: #A80036; stroke-width: 1.0;" x1="335.5399" x2="333.14" y1="125.1703" y2="117.535"/><polygon fill="#FFFFFF" points="144,65.56,150.9366,63.5894,151.7856,56.4285,144.8489,58.399,144,65.56" style="stroke: #A80036; stroke-width: 1.0;"/><text fill="#000000" font-family="sans-serif" font-size="13" lengthAdjust="spacingAndGlyphs" textLength="74" x="379.1373" y="118.8998">reservedPtr</text><!--MD5=[92214836d9f823ecd8f59341d3f356b5]
link OpenFileName to String--><path d="M181.7603,216.2355 C181.7603,216.2355 205.22,202 216.36,188.68 " fill="none" id="OpenFileName-String" style="stroke: #A80036; stroke-width: 1.0;"/><polygon fill="#A80036" points="224.47,178.22,215.7961,182.8851,221.4079,182.1727,222.1204,187.7845,224.47,178.22" style="stroke: #A80036; stroke-width: 1.0;"/><line style="stroke: #A80036; stroke-width: 1.0;" x1="221.4079" x2="216.495" y1="182.1727" y2="188.495"/><polygon fill="#FFFFFF" points="170.23,219.56,177.1033,221.7412,181.7603,216.2355,174.887,214.0543,170.23,219.56" style="stroke: #A80036; stroke-width: 1.0;"/><text fill="#000000" font-family="sans-serif" font-size="13" lengthAdjust="spacingAndGlyphs" textLength="28" x="189.2721" y="198.0348">filter</text><!--MD5=[92214836d9f823ecd8f59341d3f356b5]
link OpenFileName to String--><path d="M181.982,198.4031 C181.982,198.4031 198.84,191.75 206.73,186.24 " fill="none" id="OpenFileName-String-1" style="stroke: #A80036; stroke-width: 1.0;"/><polygon fill="#A80036" points="217.11,178.12,207.5549,180.5074,213.1695,181.1977,212.4792,186.8123,217.11,178.12" style="stroke: #A80036; stroke-width: 1.0;"/><line style="stroke: #A80036; stroke-width: 1.0;" x1="213.1695" x2="206.87" y1="181.1977" y2="186.135"/><polygon fill="#FFFFFF" points="170.23,200.83,176.915,203.5339,181.982,198.4031,175.297,195.6992,170.23,200.83" style="stroke: #A80036; stroke-width: 1.0;"/><text fill="#000000" font-family="sans-serif" font-size="13" lengthAdjust="spacingAndGlyphs" textLength="79" x="221.1587" y="197.9105">customFilter</text><!--MD5=[92214836d9f823ecd8f59341d3f356b5]
link OpenFileName to String--><path d="M182.1371,180.61 C182.1371,180.61 189.63,179.12 192.88,178.2 " fill="none" id="OpenFileName-String-2" style="stroke: #A80036; stroke-width: 1.0;"/><polygon fill="#A80036" points="205.39,173.9,195.5785,173.0433,200.6616,175.5256,198.1794,180.6087,205.39,173.9" style="stroke: #A80036; stroke-width: 1.0;"/><line style="stroke: #A80036; stroke-width: 1.0;" x1="200.6616" x2="193.1" y1="175.5256" y2="178.125"/><polygon fill="#FFFFFF" points="170.23,182.1,176.6802,185.324,182.1371,180.61,175.6869,177.3859,170.23,182.1" style="stroke: #A80036; stroke-width: 1.0;"/><text fill="#000000" font-family="sans-serif" font-size="13" lengthAdjust="spacingAndGlyphs" textLength="18" x="179.622" y="173.1875">file</text><!--MD5=[92214836d9f823ecd8f59341d3f356b5]
link OpenFileName to String--><path d="M182.2195,162.8688 C182.2195,162.8688 189.37,162.39 192.34,162.12 " fill="none" id="OpenFileName-String-3" style="stroke: #A80036; stroke-width: 1.0;"/><polygon fill="#A80036" points="205.39,160.63,195.995,157.6746,200.4221,161.196,196.9007,165.6231,205.39,160.63" style="stroke: #A80036; stroke-width: 1.0;"/><line style="stroke: #A80036; stroke-width: 1.0;" x1="200.4221" x2="192.475" y1="161.196" y2="162.1"/><polygon fill="#FFFFFF" points="170.23,163.37,176.3918,167.1159,182.2195,162.8688,176.0577,159.1229,170.23,163.37" style="stroke: #A80036; stroke-width: 1.0;"/><text fill="#000000" font-family="sans-serif" font-size="13" lengthAdjust="spacingAndGlyphs" textLength="44" x="153.1536" y="156.9755">fileTitle</text><!--MD5=[92214836d9f823ecd8f59341d3f356b5]
link OpenFileName to String--><path d="M182.2195,145.1312 C182.2195,145.1312 189.37,145.61 192.34,145.88 " fill="none" id="OpenFileName-String-4" style="stroke: #A80036; stroke-width: 1.0;"/><polygon fill="#A80036" points="205.39,147.37,196.9007,142.3769,200.4221,146.804,195.995,150.3254,205.39,147.37" style="stroke: #A80036; stroke-width: 1.0;"/><line style="stroke: #A80036; stroke-width: 1.0;" x1="200.4221" x2="192.475" y1="146.804" y2="145.9"/><polygon fill="#FFFFFF" points="170.23,144.63,176.0577,148.8771,182.2195,145.1312,176.3918,140.8841,170.23,144.63" style="stroke: #A80036; stroke-width: 1.0;"/><text fill="#000000" font-family="sans-serif" font-size="13" lengthAdjust="spacingAndGlyphs" textLength="51" x="145.944" y="125.3629">initialDir</text><!--MD5=[92214836d9f823ecd8f59341d3f356b5]
link OpenFileName to String--><path d="M182.1371,127.39 C182.1371,127.39 189.63,128.88 192.88,129.8 " fill="none" id="OpenFileName-String-5" style="stroke: #A80036; stroke-width: 1.0;"/><polygon fill="#A80036" points="205.39,134.1,198.1794,127.3913,200.6616,132.4744,195.5785,134.9567,205.39,134.1" style="stroke: #A80036; stroke-width: 1.0;"/><line style="stroke: #A80036; stroke-width: 1.0;" x1="200.6616" x2="193.1" y1="132.4744" y2="129.875"/><polygon fill="#FFFFFF" points="170.23,125.9,175.6869,130.6141,182.1371,127.39,176.6802,122.676,170.23,125.9" style="stroke: #A80036; stroke-width: 1.0;"/><text fill="#000000" font-family="sans-serif" font-size="13" lengthAdjust="spacingAndGlyphs" textLength="24" x="173.3789" y="126.4689">title</text><!--MD5=[92214836d9f823ecd8f59341d3f356b5]
link OpenFileName to String--><path d="M181.982,109.5969 C181.982,109.5969 198.84,116.25 206.73,121.76 " fill="none" id="OpenFileName-String-6" style="stroke: #A80036; stroke-width: 1.0;"/><polygon fill="#A80036" points="217.11,129.88,212.4792,121.1877,213.1695,126.8023,207.5549,127.4926,217.11,129.88" style="stroke: #A80036; stroke-width: 1.0;"/><line style="stroke: #A80036; stroke-width: 1.0;" x1="213.1695" x2="206.87" y1="126.8023" y2="121.865"/><polygon fill="#FFFFFF" points="170.23,107.17,175.297,112.3008,181.982,109.5969,176.915,104.4661,170.23,107.17" style="stroke: #A80036; stroke-width: 1.0;"/><text fill="#000000" font-family="sans-serif" font-size="13" lengthAdjust="spacingAndGlyphs" textLength="40" x="216.3694" y="118.8613">defExt</text><!--MD5=[92214836d9f823ecd8f59341d3f356b5]
link OpenFileName to String--><path d="M181.7603,91.7645 C181.7603,91.7645 205.22,106 216.36,119.32 " fill="none" id="OpenFileName-String-7" style="stroke: #A80036; stroke-width: 1.0;"/><polygon fill="#A80036" points="224.47,129.78,222.1204,120.2155,221.4079,125.8273,215.7961,125.1149,224.47,129.78" style="stroke: #A80036; stroke-width: 1.0;"/><line style="stroke: #A80036; stroke-width: 1.0;" x1="221.4079" x2="216.495" y1="125.8273" y2="119.505"/><polygon fill="#FFFFFF" points="170.23,88.44,174.887,93.9457,181.7603,91.7645,177.1033,86.2588,170.23,88.44" style="stroke: #A80036; stroke-width: 1.0;"/><text fill="#000000" font-family="sans-serif" font-size="13" lengthAdjust="spacingAndGlyphs" textLength="97" x="176.9531" y="109.0286">templateName</text><!--MD5=[921ce86f3916f99d9a29ca9d8e785a05]
reverse link MenuElement to FileInputElement--><path d="M470,198.44 C470,228.12 470,268.07 470,301.94 " fill="none" id="MenuElement&lt;-FileInputElement" style="stroke: #A80036; stroke-width: 1.0;"/><polygon fill="none" points="463,198.01,470,178.01,477,198.01,463,198.01" style="stroke: #A80036; stroke-width: 1.0;"/><!--MD5=[aa5aa3283a736f505b00b52b9b1fcce0]
link FileInputElement to TMP_Text--><path d="M470,440.43 C470,459.64 470,479.47 470,494.87 " fill="none" id="FileInputElement-&gt;TMP_Text" style="stroke: #A80036; stroke-width: 1.0;"/><polygon fill="#A80036" points="470,499.92,474,490.92,470,494.92,466,490.92,470,499.92" style="stroke: #A80036; stroke-width: 1.0;"/><text fill="#000000" font-family="sans-serif" font-size="13" lengthAdjust="spacingAndGlyphs" textLength="75" x="385.3906" y="488.9115">previewText</text><!--MD5=[fabd355e0f99d25b6f8ca066cbee9e23]
@startuml
class OpenFileName {
    + structSize : int = 0
    + maxCustFilter : int = 0
    + filterIndex : int = 0
    + maxFile : int = 0
    + maxFileTitle : int = 0
    + flags : int = 0
    + fileOffset : short = 0
    + fileExtension : short = 0
    + reservedInt : int = 0
    + flagsEx : int = 0
}
class FileInputElement {
    + FilePath : string <<get>> = null
    + {static} <<extern>> GetOpenFileName(ofn:OpenFileName) : bool
    + {static} GetOpenFileName1(ofn:OpenFileName) : bool
    + {static} <<extern>> GetSaveFileName(ofn:OpenFileName) : bool
    + {static} GetSaveFileName1(ofn:OpenFileName) : bool
    + PickFile() : void
    + UpdatePreviewText() : void
}
OpenFileName o-> "dlgOwner" IntPtr
OpenFileName o-> "instance" IntPtr
OpenFileName o-> "filter" String
OpenFileName o-> "customFilter" String
OpenFileName o-> "file" String
OpenFileName o-> "fileTitle" String
OpenFileName o-> "initialDir" String
OpenFileName o-> "title" String
OpenFileName o-> "defExt" String
OpenFileName o-> "custData" IntPtr
OpenFileName o-> "hook" IntPtr
OpenFileName o-> "templateName" String
OpenFileName o-> "reservedPtr" IntPtr
MenuElement <|- - FileInputElement
FileInputElement - -> "previewText" TMP_Text
@enduml

PlantUML version 1.2020.02(Sun Mar 01 10:22:07 GMT 2020)
(GPL source distribution)
Java Runtime: OpenJDK Runtime Environment
JVM: OpenJDK 64-Bit Server VM
Java Version: 11.0.9+11-Ubuntu-0ubuntu1
Operating System: Linux
Default Encoding: ANSI_X3.4-1968
Language: en
Country: US
--></g></svg>