<?xml version="1.0" encoding="UTF-8" standalone="no"?><svg xmlns="http://www.w3.org/2000/svg" xmlns:xlink="http://www.w3.org/1999/xlink" contentScriptType="application/ecmascript" contentStyleType="text/css" height="283px" preserveAspectRatio="none" style="width:182px;height:283px;" version="1.1" viewBox="0 0 182 283" width="182px" zoomAndPan="magnify"><defs><filter height="300%" id="f140kuxsbkwh2q" width="300%" x="-1" y="-1"><feGaussianBlur result="blurOut" stdDeviation="2.0"/><feColorMatrix in="blurOut" result="blurOut2" type="matrix" values="0 0 0 0 0 0 0 0 0 0 0 0 0 0 0 0 0 0 .4 0"/><feOffset dx="4.0" dy="4.0" in="blurOut2" result="blurOut3"/><feBlend in="SourceGraphic" in2="blurOut3" mode="normal"/></filter></defs><g><!--MD5=[7586d03b1b3597c827affe2935adc252]
class ImageDisplayElement--><rect fill="#FEFECE" filter="url(#f140kuxsbkwh2q)" height="48" id="ImageDisplayElement" style="stroke: #A80036; stroke-width: 1.5;" width="165" x="6" y="116"/><ellipse cx="21" cy="132" fill="#ADD1B2" rx="11" ry="11" style="stroke: #A80036; stroke-width: 1.0;"/><path d="M23.9688,137.6406 Q23.3906,137.9375 22.75,138.0781 Q22.1094,138.2344 21.4063,138.2344 Q18.9063,138.2344 17.5781,136.5938 Q16.2656,134.9375 16.2656,131.8125 Q16.2656,128.6875 17.5781,127.0313 Q18.9063,125.375 21.4063,125.375 Q22.1094,125.375 22.75,125.5313 Q23.4063,125.6875 23.9688,125.9844 L23.9688,128.7031 Q23.3438,128.125 22.75,127.8594 Q22.1563,127.5781 21.5313,127.5781 Q20.1875,127.5781 19.5,128.6563 Q18.8125,129.7188 18.8125,131.8125 Q18.8125,133.9063 19.5,134.9844 Q20.1875,136.0469 21.5313,136.0469 Q22.1563,136.0469 22.75,135.7813 Q23.3438,135.5 23.9688,134.9219 L23.9688,137.6406 Z "/><text fill="#000000" font-family="sans-serif" font-size="12" lengthAdjust="spacingAndGlyphs" textLength="133" x="35" y="136.1543">ImageDisplayElement</text><line style="stroke: #A80036; stroke-width: 1.5;" x1="7" x2="170" y1="148" y2="148"/><line style="stroke: #A80036; stroke-width: 1.5;" x1="7" x2="170" y1="156" y2="156"/><!--MD5=[9ec443d8179709ec900178173d51231c]
class MenuElement--><rect fill="#FEFECE" filter="url(#f140kuxsbkwh2q)" height="48" id="MenuElement" style="stroke: #A80036; stroke-width: 1.5;" width="117" x="30" y="8"/><ellipse cx="45" cy="24" fill="#ADD1B2" rx="11" ry="11" style="stroke: #A80036; stroke-width: 1.0;"/><path d="M47.9688,29.6406 Q47.3906,29.9375 46.75,30.0781 Q46.1094,30.2344 45.4063,30.2344 Q42.9063,30.2344 41.5781,28.5938 Q40.2656,26.9375 40.2656,23.8125 Q40.2656,20.6875 41.5781,19.0313 Q42.9063,17.375 45.4063,17.375 Q46.1094,17.375 46.75,17.5313 Q47.4063,17.6875 47.9688,17.9844 L47.9688,20.7031 Q47.3438,20.125 46.75,19.8594 Q46.1563,19.5781 45.5313,19.5781 Q44.1875,19.5781 43.5,20.6563 Q42.8125,21.7188 42.8125,23.8125 Q42.8125,25.9063 43.5,26.9844 Q44.1875,28.0469 45.5313,28.0469 Q46.1563,28.0469 46.75,27.7813 Q47.3438,27.5 47.9688,26.9219 L47.9688,29.6406 Z "/><text fill="#000000" font-family="sans-serif" font-size="12" lengthAdjust="spacingAndGlyphs" textLength="85" x="59" y="28.1543">MenuElement</text><line style="stroke: #A80036; stroke-width: 1.5;" x1="31" x2="146" y1="40" y2="40"/><line style="stroke: #A80036; stroke-width: 1.5;" x1="31" x2="146" y1="48" y2="48"/><!--MD5=[567e209c8df1934f374b92e4cf08da2e]
class RawImage--><rect fill="#FEFECE" filter="url(#f140kuxsbkwh2q)" height="48" id="RawImage" style="stroke: #A80036; stroke-width: 1.5;" width="95" x="41" y="224"/><ellipse cx="56" cy="240" fill="#ADD1B2" rx="11" ry="11" style="stroke: #A80036; stroke-width: 1.0;"/><path d="M58.9688,245.6406 Q58.3906,245.9375 57.75,246.0781 Q57.1094,246.2344 56.4063,246.2344 Q53.9063,246.2344 52.5781,244.5938 Q51.2656,242.9375 51.2656,239.8125 Q51.2656,236.6875 52.5781,235.0313 Q53.9063,233.375 56.4063,233.375 Q57.1094,233.375 57.75,233.5313 Q58.4063,233.6875 58.9688,233.9844 L58.9688,236.7031 Q58.3438,236.125 57.75,235.8594 Q57.1563,235.5781 56.5313,235.5781 Q55.1875,235.5781 54.5,236.6563 Q53.8125,237.7188 53.8125,239.8125 Q53.8125,241.9063 54.5,242.9844 Q55.1875,244.0469 56.5313,244.0469 Q57.1563,244.0469 57.75,243.7813 Q58.3438,243.5 58.9688,242.9219 L58.9688,245.6406 Z "/><text fill="#000000" font-family="sans-serif" font-size="12" lengthAdjust="spacingAndGlyphs" textLength="63" x="70" y="244.1543">RawImage</text><line style="stroke: #A80036; stroke-width: 1.5;" x1="42" x2="135" y1="256" y2="256"/><line style="stroke: #A80036; stroke-width: 1.5;" x1="42" x2="135" y1="264" y2="264"/><!--MD5=[f7aaa2d89daca1fe1bfda9c590030023]
reverse link MenuElement to ImageDisplayElement--><path d="M88.5,76.02 C88.5,89.58 88.5,104.04 88.5,115.68 " fill="none" id="MenuElement&lt;-ImageDisplayElement" style="stroke: #A80036; stroke-width: 1.0;"/><polygon fill="none" points="81.5,76,88.5,56,95.5,76,81.5,76" style="stroke: #A80036; stroke-width: 1.0;"/><!--MD5=[e4b691f4a26f22747d1c24e8e04cdddd]
link ImageDisplayElement to RawImage--><path d="M88.5,164 C88.5,180 88.5,201.45 88.5,218.53 " fill="none" id="ImageDisplayElement-&gt;RawImage" style="stroke: #A80036; stroke-width: 1.0;"/><polygon fill="#A80036" points="88.5,223.68,92.5,214.68,88.5,218.68,84.5,214.68,88.5,223.68" style="stroke: #A80036; stroke-width: 1.0;"/><text fill="#000000" font-family="sans-serif" font-size="13" lengthAdjust="spacingAndGlyphs" textLength="40" x="43.625" y="213.007">image</text><!--MD5=[418a5484134cee8314140dcbeb0c1c03]
@startuml
class ImageDisplayElement {
}
MenuElement <|- - ImageDisplayElement
ImageDisplayElement - -> "image" RawImage
@enduml

PlantUML version 1.2020.02(Sun Mar 01 10:22:07 GMT 2020)
(GPL source distribution)
Java Runtime: OpenJDK Runtime Environment
JVM: OpenJDK 64-Bit Server VM
Java Version: 11.0.9+11-Ubuntu-0ubuntu1
Operating System: Linux
Default Encoding: ANSI_X3.4-1968
Language: en
Country: US
--></g></svg>