<?xml version="1.0" encoding="UTF-8" standalone="no"?><svg xmlns="http://www.w3.org/2000/svg" xmlns:xlink="http://www.w3.org/1999/xlink" contentScriptType="application/ecmascript" contentStyleType="text/css" height="283px" preserveAspectRatio="none" style="width:169px;height:283px;" version="1.1" viewBox="0 0 169 283" width="169px" zoomAndPan="magnify"><defs><filter height="300%" id="fjowkwm1udt8g" width="300%" x="-1" y="-1"><feGaussianBlur result="blurOut" stdDeviation="2.0"/><feColorMatrix in="blurOut" result="blurOut2" type="matrix" values="0 0 0 0 0 0 0 0 0 0 0 0 0 0 0 0 0 0 .4 0"/><feOffset dx="4.0" dy="4.0" in="blurOut2" result="blurOut3"/><feBlend in="SourceGraphic" in2="blurOut3" mode="normal"/></filter></defs><g><!--MD5=[b22d7605730ae72f917f477972013128]
class StringInputElement--><rect fill="#FEFECE" filter="url(#fjowkwm1udt8g)" height="48" id="StringInputElement" style="stroke: #A80036; stroke-width: 1.5;" width="152" x="6" y="116"/><ellipse cx="21" cy="132" fill="#ADD1B2" rx="11" ry="11" style="stroke: #A80036; stroke-width: 1.0;"/><path d="M23.9688,137.6406 Q23.3906,137.9375 22.75,138.0781 Q22.1094,138.2344 21.4063,138.2344 Q18.9063,138.2344 17.5781,136.5938 Q16.2656,134.9375 16.2656,131.8125 Q16.2656,128.6875 17.5781,127.0313 Q18.9063,125.375 21.4063,125.375 Q22.1094,125.375 22.75,125.5313 Q23.4063,125.6875 23.9688,125.9844 L23.9688,128.7031 Q23.3438,128.125 22.75,127.8594 Q22.1563,127.5781 21.5313,127.5781 Q20.1875,127.5781 19.5,128.6563 Q18.8125,129.7188 18.8125,131.8125 Q18.8125,133.9063 19.5,134.9844 Q20.1875,136.0469 21.5313,136.0469 Q22.1563,136.0469 22.75,135.7813 Q23.3438,135.5 23.9688,134.9219 L23.9688,137.6406 Z "/><text fill="#000000" font-family="sans-serif" font-size="12" lengthAdjust="spacingAndGlyphs" textLength="120" x="35" y="136.1543">StringInputElement</text><line style="stroke: #A80036; stroke-width: 1.5;" x1="7" x2="157" y1="148" y2="148"/><line style="stroke: #A80036; stroke-width: 1.5;" x1="7" x2="157" y1="156" y2="156"/><!--MD5=[9ec443d8179709ec900178173d51231c]
class MenuElement--><rect fill="#FEFECE" filter="url(#fjowkwm1udt8g)" height="48" id="MenuElement" style="stroke: #A80036; stroke-width: 1.5;" width="117" x="23.5" y="8"/><ellipse cx="38.5" cy="24" fill="#ADD1B2" rx="11" ry="11" style="stroke: #A80036; stroke-width: 1.0;"/><path d="M41.4688,29.6406 Q40.8906,29.9375 40.25,30.0781 Q39.6094,30.2344 38.9063,30.2344 Q36.4063,30.2344 35.0781,28.5938 Q33.7656,26.9375 33.7656,23.8125 Q33.7656,20.6875 35.0781,19.0313 Q36.4063,17.375 38.9063,17.375 Q39.6094,17.375 40.25,17.5313 Q40.9063,17.6875 41.4688,17.9844 L41.4688,20.7031 Q40.8438,20.125 40.25,19.8594 Q39.6563,19.5781 39.0313,19.5781 Q37.6875,19.5781 37,20.6563 Q36.3125,21.7188 36.3125,23.8125 Q36.3125,25.9063 37,26.9844 Q37.6875,28.0469 39.0313,28.0469 Q39.6563,28.0469 40.25,27.7813 Q40.8438,27.5 41.4688,26.9219 L41.4688,29.6406 Z "/><text fill="#000000" font-family="sans-serif" font-size="12" lengthAdjust="spacingAndGlyphs" textLength="85" x="52.5" y="28.1543">MenuElement</text><line style="stroke: #A80036; stroke-width: 1.5;" x1="24.5" x2="139.5" y1="40" y2="40"/><line style="stroke: #A80036; stroke-width: 1.5;" x1="24.5" x2="139.5" y1="48" y2="48"/><!--MD5=[c05919f88dab9d999cd7bd146db477c0]
class TMP_InputField--><rect fill="#FEFECE" filter="url(#fjowkwm1udt8g)" height="48" id="TMP_InputField" style="stroke: #A80036; stroke-width: 1.5;" width="124" x="20" y="224"/><ellipse cx="35" cy="240" fill="#ADD1B2" rx="11" ry="11" style="stroke: #A80036; stroke-width: 1.0;"/><path d="M37.9688,245.6406 Q37.3906,245.9375 36.75,246.0781 Q36.1094,246.2344 35.4063,246.2344 Q32.9063,246.2344 31.5781,244.5938 Q30.2656,242.9375 30.2656,239.8125 Q30.2656,236.6875 31.5781,235.0313 Q32.9063,233.375 35.4063,233.375 Q36.1094,233.375 36.75,233.5313 Q37.4063,233.6875 37.9688,233.9844 L37.9688,236.7031 Q37.3438,236.125 36.75,235.8594 Q36.1563,235.5781 35.5313,235.5781 Q34.1875,235.5781 33.5,236.6563 Q32.8125,237.7188 32.8125,239.8125 Q32.8125,241.9063 33.5,242.9844 Q34.1875,244.0469 35.5313,244.0469 Q36.1563,244.0469 36.75,243.7813 Q37.3438,243.5 37.9688,242.9219 L37.9688,245.6406 Z "/><text fill="#000000" font-family="sans-serif" font-size="12" lengthAdjust="spacingAndGlyphs" textLength="92" x="49" y="244.1543">TMP_InputField</text><line style="stroke: #A80036; stroke-width: 1.5;" x1="21" x2="143" y1="256" y2="256"/><line style="stroke: #A80036; stroke-width: 1.5;" x1="21" x2="143" y1="264" y2="264"/><!--MD5=[aa0900d5781704c359dc61f99b6253e8]
reverse link MenuElement to StringInputElement--><path d="M82,76.02 C82,89.58 82,104.04 82,115.68 " fill="none" id="MenuElement&lt;-StringInputElement" style="stroke: #A80036; stroke-width: 1.0;"/><polygon fill="none" points="75,76,82,56,89,76,75,76" style="stroke: #A80036; stroke-width: 1.0;"/><!--MD5=[ec07eb909d720c73e5ea1d5d48173486]
link StringInputElement to TMP_InputField--><path d="M82,164 C82,180 82,201.45 82,218.53 " fill="none" id="StringInputElement-&gt;TMP_InputField" style="stroke: #A80036; stroke-width: 1.0;"/><polygon fill="#A80036" points="82,223.68,86,214.68,82,218.68,78,214.68,82,223.68" style="stroke: #A80036; stroke-width: 1.0;"/><text fill="#000000" font-family="sans-serif" font-size="13" lengthAdjust="spacingAndGlyphs" textLength="61" x="13.5656" y="213.007">InputField</text><!--MD5=[e0af97685a85721b4a669a1b2007a9ec]
@startuml
class StringInputElement {
}
MenuElement <|- - StringInputElement
StringInputElement - -> "InputField" TMP_InputField
@enduml

PlantUML version 1.2020.02(Sun Mar 01 10:22:07 GMT 2020)
(GPL source distribution)
Java Runtime: OpenJDK Runtime Environment
JVM: OpenJDK 64-Bit Server VM
Java Version: 11.0.9+11-Ubuntu-0ubuntu1
Operating System: Linux
Default Encoding: ANSI_X3.4-1968
Language: en
Country: US
--></g></svg>