<?xml version="1.0" encoding="UTF-8" standalone="no"?><svg xmlns="http://www.w3.org/2000/svg" xmlns:xlink="http://www.w3.org/1999/xlink" contentScriptType="application/ecmascript" contentStyleType="text/css" height="204px" preserveAspectRatio="none" style="width:317px;height:204px;" version="1.1" viewBox="0 0 317 204" width="317px" zoomAndPan="magnify"><defs><filter height="300%" id="f1cduil5p3w2fo" width="300%" x="-1" y="-1"><feGaussianBlur result="blurOut" stdDeviation="2.0"/><feColorMatrix in="blurOut" result="blurOut2" type="matrix" values="0 0 0 0 0 0 0 0 0 0 0 0 0 0 0 0 0 0 .4 0"/><feOffset dx="4.0" dy="4.0" in="blurOut2" result="blurOut3"/><feBlend in="SourceGraphic" in2="blurOut3" mode="normal"/></filter></defs><g><!--MD5=[c281cd549d6bfb16e3ecc036314443fd]
class MenuManager--><rect fill="#FEFECE" filter="url(#f1cduil5p3w2fo)" height="60.8047" id="MenuManager" style="stroke: #A80036; stroke-width: 1.5;" width="184" x="6" y="116"/><ellipse cx="49.35" cy="132" fill="#ADD1B2" rx="11" ry="11" style="stroke: #A80036; stroke-width: 1.0;"/><path d="M52.3188,137.6406 Q51.7406,137.9375 51.1,138.0781 Q50.4594,138.2344 49.7563,138.2344 Q47.2563,138.2344 45.9281,136.5938 Q44.6156,134.9375 44.6156,131.8125 Q44.6156,128.6875 45.9281,127.0313 Q47.2563,125.375 49.7563,125.375 Q50.4594,125.375 51.1,125.5313 Q51.7563,125.6875 52.3188,125.9844 L52.3188,128.7031 Q51.6938,128.125 51.1,127.8594 Q50.5063,127.5781 49.8813,127.5781 Q48.5375,127.5781 47.85,128.6563 Q47.1625,129.7188 47.1625,131.8125 Q47.1625,133.9063 47.85,134.9844 Q48.5375,136.0469 49.8813,136.0469 Q50.5063,136.0469 51.1,135.7813 Q51.6938,135.5 52.3188,134.9219 L52.3188,137.6406 Z "/><text fill="#000000" font-family="sans-serif" font-size="12" lengthAdjust="spacingAndGlyphs" textLength="89" x="69.65" y="136.1543">MenuManager</text><line style="stroke: #A80036; stroke-width: 1.5;" x1="7" x2="189" y1="148" y2="148"/><line style="stroke: #A80036; stroke-width: 1.5;" x1="7" x2="189" y1="156" y2="156"/><ellipse cx="17" cy="167" fill="#84BE84" rx="3" ry="3" style="stroke: #038048; stroke-width: 1.0;"/><text fill="#000000" font-family="sans-serif" font-size="11" lengthAdjust="spacingAndGlyphs" textLength="158" x="26" y="170.2104">SwitchMenu(index:int) : void</text><!--MD5=[e644022de7dea015dd09463c37421447]
class List`1--><rect fill="#FEFECE" filter="url(#f1cduil5p3w2fo)" height="48" id="List`1" style="stroke: #A80036; stroke-width: 1.5;" width="78" x="225" y="122.5"/><ellipse cx="240" cy="138.5" fill="#ADD1B2" rx="11" ry="11" style="stroke: #A80036; stroke-width: 1.0;"/><path d="M242.9688,144.1406 Q242.3906,144.4375 241.75,144.5781 Q241.1094,144.7344 240.4063,144.7344 Q237.9063,144.7344 236.5781,143.0938 Q235.2656,141.4375 235.2656,138.3125 Q235.2656,135.1875 236.5781,133.5313 Q237.9063,131.875 240.4063,131.875 Q241.1094,131.875 241.75,132.0313 Q242.4063,132.1875 242.9688,132.4844 L242.9688,135.2031 Q242.3438,134.625 241.75,134.3594 Q241.1563,134.0781 240.5313,134.0781 Q239.1875,134.0781 238.5,135.1563 Q237.8125,136.2188 237.8125,138.3125 Q237.8125,140.4063 238.5,141.4844 Q239.1875,142.5469 240.5313,142.5469 Q241.1563,142.5469 241.75,142.2813 Q242.3438,142 242.9688,141.4219 L242.9688,144.1406 Z "/><text fill="#000000" font-family="sans-serif" font-size="12" lengthAdjust="spacingAndGlyphs" textLength="35" x="254" y="142.6543">List`1</text><rect fill="#FFFFFF" height="15.9688" style="stroke: #000000; stroke-width: 1.0; stroke-dasharray: 2.0,2.0;" width="9" x="297" y="119.5"/><text fill="#000000" font-family="sans-serif" font-size="12" font-style="italic" lengthAdjust="spacingAndGlyphs" textLength="7" x="298" y="131.6387">T</text><line style="stroke: #A80036; stroke-width: 1.5;" x1="226" x2="302" y1="154.5" y2="154.5"/><line style="stroke: #A80036; stroke-width: 1.5;" x1="226" x2="302" y1="162.5" y2="162.5"/><!--MD5=[83b3cf3d23d77c6f1e1b5291a241bc2a]
class MonoBehaviour--><rect fill="#FEFECE" filter="url(#f1cduil5p3w2fo)" height="48" id="MonoBehaviour" style="stroke: #A80036; stroke-width: 1.5;" width="128" x="34" y="8"/><ellipse cx="49" cy="24" fill="#ADD1B2" rx="11" ry="11" style="stroke: #A80036; stroke-width: 1.0;"/><path d="M51.9688,29.6406 Q51.3906,29.9375 50.75,30.0781 Q50.1094,30.2344 49.4063,30.2344 Q46.9063,30.2344 45.5781,28.5938 Q44.2656,26.9375 44.2656,23.8125 Q44.2656,20.6875 45.5781,19.0313 Q46.9063,17.375 49.4063,17.375 Q50.1094,17.375 50.75,17.5313 Q51.4063,17.6875 51.9688,17.9844 L51.9688,20.7031 Q51.3438,20.125 50.75,19.8594 Q50.1563,19.5781 49.5313,19.5781 Q48.1875,19.5781 47.5,20.6563 Q46.8125,21.7188 46.8125,23.8125 Q46.8125,25.9063 47.5,26.9844 Q48.1875,28.0469 49.5313,28.0469 Q50.1563,28.0469 50.75,27.7813 Q51.3438,27.5 51.9688,26.9219 L51.9688,29.6406 Z "/><text fill="#000000" font-family="sans-serif" font-size="12" lengthAdjust="spacingAndGlyphs" textLength="96" x="63" y="28.1543">MonoBehaviour</text><line style="stroke: #A80036; stroke-width: 1.5;" x1="35" x2="161" y1="40" y2="40"/><line style="stroke: #A80036; stroke-width: 1.5;" x1="35" x2="161" y1="48" y2="48"/><!--MD5=[c410863c9b5d1f501de3cfc3c5a7a87d]
reverse link MonoBehaviour to MenuManager--><path d="M98,76.11 C98,89.31 98,103.54 98,115.65 " fill="none" id="MonoBehaviour&lt;-MenuManager" style="stroke: #A80036; stroke-width: 1.0;"/><polygon fill="none" points="91,76.04,98,56.04,105,76.04,91,76.04" style="stroke: #A80036; stroke-width: 1.0;"/><!--MD5=[8169da4c796048247fd42173b0cf0945]
link MenuManager to List`1--><path d="M202.08,146.5 C202.08,146.5 208.91,146.5 211.7,146.5 " fill="none" id="MenuManager-List`1" style="stroke: #A80036; stroke-width: 1.0;"/><polygon fill="#A80036" points="224.73,146.5,215.73,142.5,219.73,146.5,215.73,150.5,224.73,146.5" style="stroke: #A80036; stroke-width: 1.0;"/><line style="stroke: #A80036; stroke-width: 1.0;" x1="219.73" x2="211.73" y1="146.5" y2="146.5"/><polygon fill="#FFFFFF" points="190.08,146.5,196.08,150.5,202.08,146.5,196.08,142.5,190.08,146.5" style="stroke: #A80036; stroke-width: 1.0;"/><text fill="#000000" font-family="sans-serif" font-size="13" lengthAdjust="spacingAndGlyphs" textLength="101" x="160.0778" y="191.1248">menus&lt;Menu&gt;</text><!--MD5=[fac49b94c15651d68e296b7da8b14b08]
@startuml
class MenuManager {
    + SwitchMenu(index:int) : void
}
class "List`1"<T> {
}
MonoBehaviour <|- - MenuManager
MenuManager o-> "menus<Menu>" "List`1"
@enduml

PlantUML version 1.2020.02(Sun Mar 01 10:22:07 GMT 2020)
(GPL source distribution)
Java Runtime: OpenJDK Runtime Environment
JVM: OpenJDK 64-Bit Server VM
Java Version: 11.0.9+11-Ubuntu-0ubuntu1
Operating System: Linux
Default Encoding: ANSI_X3.4-1968
Language: en
Country: US
--></g></svg>