<?xml version="1.0" encoding="UTF-8" standalone="no"?><svg xmlns="http://www.w3.org/2000/svg" xmlns:xlink="http://www.w3.org/1999/xlink" contentScriptType="application/ecmascript" contentStyleType="text/css" height="187px" preserveAspectRatio="none" style="width:145px;height:187px;" version="1.1" viewBox="0 0 145 187" width="145px" zoomAndPan="magnify"><defs><filter height="300%" id="f1rip12pbzxmgz" width="300%" x="-1" y="-1"><feGaussianBlur result="blurOut" stdDeviation="2.0"/><feColorMatrix in="blurOut" result="blurOut2" type="matrix" values="0 0 0 0 0 0 0 0 0 0 0 0 0 0 0 0 0 0 .4 0"/><feOffset dx="4.0" dy="4.0" in="blurOut2" result="blurOut3"/><feBlend in="SourceGraphic" in2="blurOut3" mode="normal"/></filter></defs><g><!--MD5=[9ec443d8179709ec900178173d51231c]
class MenuElement--><rect fill="#FEFECE" filter="url(#f1rip12pbzxmgz)" height="60.8047" id="MenuElement" style="stroke: #A80036; stroke-width: 1.5;" width="117" x="11.5" y="116"/><ellipse cx="26.5" cy="132" fill="#ADD1B2" rx="11" ry="11" style="stroke: #A80036; stroke-width: 1.0;"/><path d="M29.4688,137.6406 Q28.8906,137.9375 28.25,138.0781 Q27.6094,138.2344 26.9063,138.2344 Q24.4063,138.2344 23.0781,136.5938 Q21.7656,134.9375 21.7656,131.8125 Q21.7656,128.6875 23.0781,127.0313 Q24.4063,125.375 26.9063,125.375 Q27.6094,125.375 28.25,125.5313 Q28.9063,125.6875 29.4688,125.9844 L29.4688,128.7031 Q28.8438,128.125 28.25,127.8594 Q27.6563,127.5781 27.0313,127.5781 Q25.6875,127.5781 25,128.6563 Q24.3125,129.7188 24.3125,131.8125 Q24.3125,133.9063 25,134.9844 Q25.6875,136.0469 27.0313,136.0469 Q27.6563,136.0469 28.25,135.7813 Q28.8438,135.5 29.4688,134.9219 L29.4688,137.6406 Z "/><text fill="#000000" font-family="sans-serif" font-size="12" lengthAdjust="spacingAndGlyphs" textLength="85" x="40.5" y="136.1543">MenuElement</text><line style="stroke: #A80036; stroke-width: 1.5;" x1="12.5" x2="127.5" y1="148" y2="148"/><ellipse cx="22.5" cy="159" fill="none" rx="3" ry="3" style="stroke: #038048; stroke-width: 1.0;"/><text fill="#000000" font-family="sans-serif" font-size="11" lengthAdjust="spacingAndGlyphs" textLength="55" x="31.5" y="162.2104">id : string</text><line style="stroke: #A80036; stroke-width: 1.5;" x1="12.5" x2="127.5" y1="168.8047" y2="168.8047"/><!--MD5=[83b3cf3d23d77c6f1e1b5291a241bc2a]
class MonoBehaviour--><rect fill="#FEFECE" filter="url(#f1rip12pbzxmgz)" height="48" id="MonoBehaviour" style="stroke: #A80036; stroke-width: 1.5;" width="128" x="6" y="8"/><ellipse cx="21" cy="24" fill="#ADD1B2" rx="11" ry="11" style="stroke: #A80036; stroke-width: 1.0;"/><path d="M23.9688,29.6406 Q23.3906,29.9375 22.75,30.0781 Q22.1094,30.2344 21.4063,30.2344 Q18.9063,30.2344 17.5781,28.5938 Q16.2656,26.9375 16.2656,23.8125 Q16.2656,20.6875 17.5781,19.0313 Q18.9063,17.375 21.4063,17.375 Q22.1094,17.375 22.75,17.5313 Q23.4063,17.6875 23.9688,17.9844 L23.9688,20.7031 Q23.3438,20.125 22.75,19.8594 Q22.1563,19.5781 21.5313,19.5781 Q20.1875,19.5781 19.5,20.6563 Q18.8125,21.7188 18.8125,23.8125 Q18.8125,25.9063 19.5,26.9844 Q20.1875,28.0469 21.5313,28.0469 Q22.1563,28.0469 22.75,27.7813 Q23.3438,27.5 23.9688,26.9219 L23.9688,29.6406 Z "/><text fill="#000000" font-family="sans-serif" font-size="12" lengthAdjust="spacingAndGlyphs" textLength="96" x="35" y="28.1543">MonoBehaviour</text><line style="stroke: #A80036; stroke-width: 1.5;" x1="7" x2="133" y1="40" y2="40"/><line style="stroke: #A80036; stroke-width: 1.5;" x1="7" x2="133" y1="48" y2="48"/><!--MD5=[4f3866800d05d59973cdb2eb79400feb]
reverse link MonoBehaviour to MenuElement--><path d="M70,76.11 C70,89.31 70,103.54 70,115.65 " fill="none" id="MonoBehaviour&lt;-MenuElement" style="stroke: #A80036; stroke-width: 1.0;"/><polygon fill="none" points="63,76.04,70,56.04,77,76.04,63,76.04" style="stroke: #A80036; stroke-width: 1.0;"/><!--MD5=[a2222b396d5cd3e37108dede8d1eff6a]
@startuml
class MenuElement {
    + id : string
}
MonoBehaviour <|- - MenuElement
@enduml

PlantUML version 1.2020.02(Sun Mar 01 10:22:07 GMT 2020)
(GPL source distribution)
Java Runtime: OpenJDK Runtime Environment
JVM: OpenJDK 64-Bit Server VM
Java Version: 11.0.9+11-Ubuntu-0ubuntu1
Operating System: Linux
Default Encoding: ANSI_X3.4-1968
Language: en
Country: US
--></g></svg>