<?xml version="1.0" encoding="UTF-8" standalone="no"?><svg xmlns="http://www.w3.org/2000/svg" xmlns:xlink="http://www.w3.org/1999/xlink" contentScriptType="application/ecmascript" contentStyleType="text/css" height="187px" preserveAspectRatio="none" style="width:237px;height:187px;" version="1.1" viewBox="0 0 237 187" width="237px" zoomAndPan="magnify"><defs><filter height="300%" id="f1eoorw819knx7" width="300%" x="-1" y="-1"><feGaussianBlur result="blurOut" stdDeviation="2.0"/><feColorMatrix in="blurOut" result="blurOut2" type="matrix" values="0 0 0 0 0 0 0 0 0 0 0 0 0 0 0 0 0 0 .4 0"/><feOffset dx="4.0" dy="4.0" in="blurOut2" result="blurOut3"/><feBlend in="SourceGraphic" in2="blurOut3" mode="normal"/></filter></defs><g><!--MD5=[f0268dd29ee89052933f031546cb1cab]
class Menu--><rect fill="#FEFECE" filter="url(#f1eoorw819knx7)" height="60.8047" id="Menu" style="stroke: #A80036; stroke-width: 1.5;" width="220" x="6" y="116"/><ellipse cx="94.75" cy="132" fill="#ADD1B2" rx="11" ry="11" style="stroke: #A80036; stroke-width: 1.0;"/><path d="M97.7188,137.6406 Q97.1406,137.9375 96.5,138.0781 Q95.8594,138.2344 95.1563,138.2344 Q92.6563,138.2344 91.3281,136.5938 Q90.0156,134.9375 90.0156,131.8125 Q90.0156,128.6875 91.3281,127.0313 Q92.6563,125.375 95.1563,125.375 Q95.8594,125.375 96.5,125.5313 Q97.1563,125.6875 97.7188,125.9844 L97.7188,128.7031 Q97.0938,128.125 96.5,127.8594 Q95.9063,127.5781 95.2813,127.5781 Q93.9375,127.5781 93.25,128.6563 Q92.5625,129.7188 92.5625,131.8125 Q92.5625,133.9063 93.25,134.9844 Q93.9375,136.0469 95.2813,136.0469 Q95.9063,136.0469 96.5,135.7813 Q97.0938,135.5 97.7188,134.9219 L97.7188,137.6406 Z "/><text fill="#000000" font-family="sans-serif" font-size="12" lengthAdjust="spacingAndGlyphs" textLength="34" x="115.25" y="136.1543">Menu</text><line style="stroke: #A80036; stroke-width: 1.5;" x1="7" x2="225" y1="148" y2="148"/><line style="stroke: #A80036; stroke-width: 1.5;" x1="7" x2="225" y1="156" y2="156"/><ellipse cx="17" cy="167" fill="#84BE84" rx="3" ry="3" style="stroke: #038048; stroke-width: 1.0;"/><text fill="#000000" font-family="sans-serif" font-size="11" lengthAdjust="spacingAndGlyphs" textLength="194" x="26" y="170.2104">GetMenuElementById(id:string) : T</text><!--MD5=[83b3cf3d23d77c6f1e1b5291a241bc2a]
class MonoBehaviour--><rect fill="#FEFECE" filter="url(#f1eoorw819knx7)" height="48" id="MonoBehaviour" style="stroke: #A80036; stroke-width: 1.5;" width="128" x="52" y="8"/><ellipse cx="67" cy="24" fill="#ADD1B2" rx="11" ry="11" style="stroke: #A80036; stroke-width: 1.0;"/><path d="M69.9688,29.6406 Q69.3906,29.9375 68.75,30.0781 Q68.1094,30.2344 67.4063,30.2344 Q64.9063,30.2344 63.5781,28.5938 Q62.2656,26.9375 62.2656,23.8125 Q62.2656,20.6875 63.5781,19.0313 Q64.9063,17.375 67.4063,17.375 Q68.1094,17.375 68.75,17.5313 Q69.4063,17.6875 69.9688,17.9844 L69.9688,20.7031 Q69.3438,20.125 68.75,19.8594 Q68.1563,19.5781 67.5313,19.5781 Q66.1875,19.5781 65.5,20.6563 Q64.8125,21.7188 64.8125,23.8125 Q64.8125,25.9063 65.5,26.9844 Q66.1875,28.0469 67.5313,28.0469 Q68.1563,28.0469 68.75,27.7813 Q69.3438,27.5 69.9688,26.9219 L69.9688,29.6406 Z "/><text fill="#000000" font-family="sans-serif" font-size="12" lengthAdjust="spacingAndGlyphs" textLength="96" x="81" y="28.1543">MonoBehaviour</text><line style="stroke: #A80036; stroke-width: 1.5;" x1="53" x2="179" y1="40" y2="40"/><line style="stroke: #A80036; stroke-width: 1.5;" x1="53" x2="179" y1="48" y2="48"/><!--MD5=[f2946498688638bd18f2d94cf82f01bf]
reverse link MonoBehaviour to Menu--><path d="M116,76.11 C116,89.31 116,103.54 116,115.65 " fill="none" id="MonoBehaviour&lt;-Menu" style="stroke: #A80036; stroke-width: 1.0;"/><polygon fill="none" points="109,76.04,116,56.04,123,76.04,109,76.04" style="stroke: #A80036; stroke-width: 1.0;"/><!--MD5=[267fc4f05dc14ccbb28a4e9f4bea6c69]
@startuml
class Menu {
    + GetMenuElementById(id:string) : T
}
MonoBehaviour <|- - Menu
@enduml

PlantUML version 1.2020.02(Sun Mar 01 10:22:07 GMT 2020)
(GPL source distribution)
Java Runtime: OpenJDK Runtime Environment
JVM: OpenJDK 64-Bit Server VM
Java Version: 11.0.9+11-Ubuntu-0ubuntu1
Operating System: Linux
Default Encoding: ANSI_X3.4-1968
Language: en
Country: US
--></g></svg>