<?xml version="1.0" encoding="UTF-8" standalone="no"?><svg xmlns="http://www.w3.org/2000/svg" xmlns:xlink="http://www.w3.org/1999/xlink" contentScriptType="application/ecmascript" contentStyleType="text/css" height="321px" preserveAspectRatio="none" style="width:441px;height:321px;" version="1.1" viewBox="0 0 441 321" width="441px" zoomAndPan="magnify"><defs><filter height="300%" id="f148y016aiu1uh" width="300%" x="-1" y="-1"><feGaussianBlur result="blurOut" stdDeviation="2.0"/><feColorMatrix in="blurOut" result="blurOut2" type="matrix" values="0 0 0 0 0 0 0 0 0 0 0 0 0 0 0 0 0 0 .4 0"/><feOffset dx="4.0" dy="4.0" in="blurOut2" result="blurOut3"/><feBlend in="SourceGraphic" in2="blurOut3" mode="normal"/></filter></defs><g><!--MD5=[353154c1d09d94b19b9bde0256b65666]
class ConnectedSlider--><rect fill="#FEFECE" filter="url(#f148y016aiu1uh)" height="86.4141" id="ConnectedSlider" style="stroke: #A80036; stroke-width: 1.5;" width="165" x="171.5" y="116"/><ellipse cx="200" cy="132" fill="#ADD1B2" rx="11" ry="11" style="stroke: #A80036; stroke-width: 1.0;"/><path d="M202.9688,137.6406 Q202.3906,137.9375 201.75,138.0781 Q201.1094,138.2344 200.4063,138.2344 Q197.9063,138.2344 196.5781,136.5938 Q195.2656,134.9375 195.2656,131.8125 Q195.2656,128.6875 196.5781,127.0313 Q197.9063,125.375 200.4063,125.375 Q201.1094,125.375 201.75,125.5313 Q202.4063,125.6875 202.9688,125.9844 L202.9688,128.7031 Q202.3438,128.125 201.75,127.8594 Q201.1563,127.5781 200.5313,127.5781 Q199.1875,127.5781 198.5,128.6563 Q197.8125,129.7188 197.8125,131.8125 Q197.8125,133.9063 198.5,134.9844 Q199.1875,136.0469 200.5313,136.0469 Q201.1563,136.0469 201.75,135.7813 Q202.3438,135.5 202.9688,134.9219 L202.9688,137.6406 Z "/><text fill="#000000" font-family="sans-serif" font-size="12" lengthAdjust="spacingAndGlyphs" textLength="103" x="217" y="136.1543">ConnectedSlider</text><line style="stroke: #A80036; stroke-width: 1.5;" x1="172.5" x2="335.5" y1="148" y2="148"/><ellipse cx="182.5" cy="159" fill="none" rx="3" ry="3" style="stroke: #038048; stroke-width: 1.0;"/><text fill="#000000" font-family="sans-serif" font-size="11" lengthAdjust="spacingAndGlyphs" textLength="120" x="191.5" y="162.2104">maxValue : float = 1f</text><ellipse cx="182.5" cy="171.8047" fill="none" rx="3" ry="3" style="stroke: #038048; stroke-width: 1.0;"/><text fill="#000000" font-family="sans-serif" font-size="11" lengthAdjust="spacingAndGlyphs" textLength="117" x="191.5" y="175.0151">minValue : float = 0f</text><line style="stroke: #A80036; stroke-width: 1.5;" x1="172.5" x2="335.5" y1="181.6094" y2="181.6094"/><ellipse cx="182.5" cy="192.6094" fill="#84BE84" rx="3" ry="3" style="stroke: #038048; stroke-width: 1.0;"/><text fill="#000000" font-family="sans-serif" font-size="11" lengthAdjust="spacingAndGlyphs" textLength="139" x="191.5" y="195.8198">Poke(newVal:float) : void</text><!--MD5=[83b3cf3d23d77c6f1e1b5291a241bc2a]
class MonoBehaviour--><rect fill="#FEFECE" filter="url(#f148y016aiu1uh)" height="48" id="MonoBehaviour" style="stroke: #A80036; stroke-width: 1.5;" width="128" x="190" y="8"/><ellipse cx="205" cy="24" fill="#ADD1B2" rx="11" ry="11" style="stroke: #A80036; stroke-width: 1.0;"/><path d="M207.9688,29.6406 Q207.3906,29.9375 206.75,30.0781 Q206.1094,30.2344 205.4063,30.2344 Q202.9063,30.2344 201.5781,28.5938 Q200.2656,26.9375 200.2656,23.8125 Q200.2656,20.6875 201.5781,19.0313 Q202.9063,17.375 205.4063,17.375 Q206.1094,17.375 206.75,17.5313 Q207.4063,17.6875 207.9688,17.9844 L207.9688,20.7031 Q207.3438,20.125 206.75,19.8594 Q206.1563,19.5781 205.5313,19.5781 Q204.1875,19.5781 203.5,20.6563 Q202.8125,21.7188 202.8125,23.8125 Q202.8125,25.9063 203.5,26.9844 Q204.1875,28.0469 205.5313,28.0469 Q206.1563,28.0469 206.75,27.7813 Q207.3438,27.5 207.9688,26.9219 L207.9688,29.6406 Z "/><text fill="#000000" font-family="sans-serif" font-size="12" lengthAdjust="spacingAndGlyphs" textLength="96" x="219" y="28.1543">MonoBehaviour</text><line style="stroke: #A80036; stroke-width: 1.5;" x1="191" x2="317" y1="40" y2="40"/><line style="stroke: #A80036; stroke-width: 1.5;" x1="191" x2="317" y1="48" y2="48"/><!--MD5=[819b1ca37e9a8a6f7d89c1737a22382d]
class CommandBasedInputFieldComponent--><rect fill="#FEFECE" filter="url(#f148y016aiu1uh)" height="48" id="CommandBasedInputFieldComponent" style="stroke: #A80036; stroke-width: 1.5;" width="266" x="6" y="262"/><ellipse cx="21" cy="278" fill="#ADD1B2" rx="11" ry="11" style="stroke: #A80036; stroke-width: 1.0;"/><path d="M23.9688,283.6406 Q23.3906,283.9375 22.75,284.0781 Q22.1094,284.2344 21.4063,284.2344 Q18.9063,284.2344 17.5781,282.5938 Q16.2656,280.9375 16.2656,277.8125 Q16.2656,274.6875 17.5781,273.0313 Q18.9063,271.375 21.4063,271.375 Q22.1094,271.375 22.75,271.5313 Q23.4063,271.6875 23.9688,271.9844 L23.9688,274.7031 Q23.3438,274.125 22.75,273.8594 Q22.1563,273.5781 21.5313,273.5781 Q20.1875,273.5781 19.5,274.6563 Q18.8125,275.7188 18.8125,277.8125 Q18.8125,279.9063 19.5,280.9844 Q20.1875,282.0469 21.5313,282.0469 Q22.1563,282.0469 22.75,281.7813 Q23.3438,281.5 23.9688,280.9219 L23.9688,283.6406 Z "/><text fill="#000000" font-family="sans-serif" font-size="12" lengthAdjust="spacingAndGlyphs" textLength="234" x="35" y="282.1543">CommandBasedInputFieldComponent</text><line style="stroke: #A80036; stroke-width: 1.5;" x1="7" x2="271" y1="294" y2="294"/><line style="stroke: #A80036; stroke-width: 1.5;" x1="7" x2="271" y1="302" y2="302"/><!--MD5=[dee713816462c95ab859b5c7ce9f5abb]
class ShaderBinding--><rect fill="#FEFECE" filter="url(#f148y016aiu1uh)" height="48" id="ShaderBinding" style="stroke: #A80036; stroke-width: 1.5;" width="123" x="307.5" y="262"/><ellipse cx="322.5" cy="278" fill="#ADD1B2" rx="11" ry="11" style="stroke: #A80036; stroke-width: 1.0;"/><path d="M325.4688,283.6406 Q324.8906,283.9375 324.25,284.0781 Q323.6094,284.2344 322.9063,284.2344 Q320.4063,284.2344 319.0781,282.5938 Q317.7656,280.9375 317.7656,277.8125 Q317.7656,274.6875 319.0781,273.0313 Q320.4063,271.375 322.9063,271.375 Q323.6094,271.375 324.25,271.5313 Q324.9063,271.6875 325.4688,271.9844 L325.4688,274.7031 Q324.8438,274.125 324.25,273.8594 Q323.6563,273.5781 323.0313,273.5781 Q321.6875,273.5781 321,274.6563 Q320.3125,275.7188 320.3125,277.8125 Q320.3125,279.9063 321,280.9844 Q321.6875,282.0469 323.0313,282.0469 Q323.6563,282.0469 324.25,281.7813 Q324.8438,281.5 325.4688,280.9219 L325.4688,283.6406 Z "/><text fill="#000000" font-family="sans-serif" font-size="12" lengthAdjust="spacingAndGlyphs" textLength="91" x="336.5" y="282.1543">ShaderBinding</text><line style="stroke: #A80036; stroke-width: 1.5;" x1="308.5" x2="429.5" y1="294" y2="294"/><line style="stroke: #A80036; stroke-width: 1.5;" x1="308.5" x2="429.5" y1="302" y2="302"/><!--MD5=[eef5fa6df7ee6db38ea91dd1f29db594]
reverse link MonoBehaviour to ConnectedSlider--><path d="M254,76.27 C254,89.12 254,103.17 254,115.94 " fill="none" id="MonoBehaviour&lt;-ConnectedSlider" style="stroke: #A80036; stroke-width: 1.0;"/><polygon fill="none" points="247,76.22,254,56.22,261,76.22,247,76.22" style="stroke: #A80036; stroke-width: 1.0;"/><!--MD5=[3b7273ef64e1e680f58cf75a3f039d9a]
link ConnectedSlider to CommandBasedInputFieldComponent--><path d="M215.07,202.32 C198.25,220.6 179.05,241.46 164.15,257.66 " fill="none" id="ConnectedSlider-&gt;CommandBasedInputFieldComponent" style="stroke: #A80036; stroke-width: 1.0;"/><polygon fill="#A80036" points="160.46,261.67,169.4943,257.748,163.8425,257.9878,163.6027,252.336,160.46,261.67" style="stroke: #A80036; stroke-width: 1.0;"/><text fill="#000000" font-family="sans-serif" font-size="13" lengthAdjust="spacingAndGlyphs" textLength="61" x="97.2565" y="250.9945">inputField</text><!--MD5=[aae6b3beebecc2be889116c4a2fb8210]
link ConnectedSlider to ShaderBinding--><path d="M292.93,202.32 C309.75,220.6 328.95,241.46 343.85,257.66 " fill="none" id="ConnectedSlider-&gt;ShaderBinding" style="stroke: #A80036; stroke-width: 1.0;"/><polygon fill="#A80036" points="347.54,261.67,344.3973,252.336,344.1575,257.9878,338.5057,257.748,347.54,261.67" style="stroke: #A80036; stroke-width: 1.0;"/><text fill="#000000" font-family="sans-serif" font-size="13" lengthAdjust="spacingAndGlyphs" textLength="95" x="277.5742" y="250.8929">previewBinding</text><!--MD5=[8aefa156a726fac4e5fc37802f926f82]
@startuml
class ConnectedSlider {
    + maxValue : float = 1f
    + minValue : float = 0f
    + Poke(newVal:float) : void
}
MonoBehaviour <|- - ConnectedSlider
ConnectedSlider - -> "inputField" CommandBasedInputFieldComponent
ConnectedSlider - -> "previewBinding" ShaderBinding
@enduml

PlantUML version 1.2020.02(Sun Mar 01 10:22:07 GMT 2020)
(GPL source distribution)
Java Runtime: OpenJDK Runtime Environment
JVM: OpenJDK 64-Bit Server VM
Java Version: 11.0.9+11-Ubuntu-0ubuntu1
Operating System: Linux
Default Encoding: ANSI_X3.4-1968
Language: en
Country: US
--></g></svg>