<?xml version="1.0" encoding="UTF-8" standalone="no"?><svg xmlns="http://www.w3.org/2000/svg" xmlns:xlink="http://www.w3.org/1999/xlink" contentScriptType="application/ecmascript" contentStyleType="text/css" height="296px" preserveAspectRatio="none" style="width:291px;height:296px;" version="1.1" viewBox="0 0 291 296" width="291px" zoomAndPan="magnify"><defs><filter height="300%" id="f1vygux77jfxne" width="300%" x="-1" y="-1"><feGaussianBlur result="blurOut" stdDeviation="2.0"/><feColorMatrix in="blurOut" result="blurOut2" type="matrix" values="0 0 0 0 0 0 0 0 0 0 0 0 0 0 0 0 0 0 .4 0"/><feOffset dx="4.0" dy="4.0" in="blurOut2" result="blurOut3"/><feBlend in="SourceGraphic" in2="blurOut3" mode="normal"/></filter></defs><g><!--MD5=[0ad3f934b545622e52088d6fdbdc8cee]
class ProjectDisplay--><rect fill="#FEFECE" filter="url(#f1vygux77jfxne)" height="60.8047" id="ProjectDisplay" style="stroke: #A80036; stroke-width: 1.5;" width="120" x="88.5" y="116"/><ellipse cx="103.5" cy="132" fill="#ADD1B2" rx="11" ry="11" style="stroke: #A80036; stroke-width: 1.0;"/><path d="M106.4688,137.6406 Q105.8906,137.9375 105.25,138.0781 Q104.6094,138.2344 103.9063,138.2344 Q101.4063,138.2344 100.0781,136.5938 Q98.7656,134.9375 98.7656,131.8125 Q98.7656,128.6875 100.0781,127.0313 Q101.4063,125.375 103.9063,125.375 Q104.6094,125.375 105.25,125.5313 Q105.9063,125.6875 106.4688,125.9844 L106.4688,128.7031 Q105.8438,128.125 105.25,127.8594 Q104.6563,127.5781 104.0313,127.5781 Q102.6875,127.5781 102,128.6563 Q101.3125,129.7188 101.3125,131.8125 Q101.3125,133.9063 102,134.9844 Q102.6875,136.0469 104.0313,136.0469 Q104.6563,136.0469 105.25,135.7813 Q105.8438,135.5 106.4688,134.9219 L106.4688,137.6406 Z "/><text fill="#000000" font-family="sans-serif" font-size="12" lengthAdjust="spacingAndGlyphs" textLength="88" x="117.5" y="136.1543">ProjectDisplay</text><line style="stroke: #A80036; stroke-width: 1.5;" x1="89.5" x2="207.5" y1="148" y2="148"/><line style="stroke: #A80036; stroke-width: 1.5;" x1="89.5" x2="207.5" y1="156" y2="156"/><text fill="#000000" font-family="sans-serif" font-size="11" lengthAdjust="spacingAndGlyphs" textLength="71" x="94.5" y="170.2104">Start() : void</text><!--MD5=[83b3cf3d23d77c6f1e1b5291a241bc2a]
class MonoBehaviour--><rect fill="#FEFECE" filter="url(#f1vygux77jfxne)" height="48" id="MonoBehaviour" style="stroke: #A80036; stroke-width: 1.5;" width="128" x="84.5" y="8"/><ellipse cx="99.5" cy="24" fill="#ADD1B2" rx="11" ry="11" style="stroke: #A80036; stroke-width: 1.0;"/><path d="M102.4688,29.6406 Q101.8906,29.9375 101.25,30.0781 Q100.6094,30.2344 99.9063,30.2344 Q97.4063,30.2344 96.0781,28.5938 Q94.7656,26.9375 94.7656,23.8125 Q94.7656,20.6875 96.0781,19.0313 Q97.4063,17.375 99.9063,17.375 Q100.6094,17.375 101.25,17.5313 Q101.9063,17.6875 102.4688,17.9844 L102.4688,20.7031 Q101.8438,20.125 101.25,19.8594 Q100.6563,19.5781 100.0313,19.5781 Q98.6875,19.5781 98,20.6563 Q97.3125,21.7188 97.3125,23.8125 Q97.3125,25.9063 98,26.9844 Q98.6875,28.0469 100.0313,28.0469 Q100.6563,28.0469 101.25,27.7813 Q101.8438,27.5 102.4688,26.9219 L102.4688,29.6406 Z "/><text fill="#000000" font-family="sans-serif" font-size="12" lengthAdjust="spacingAndGlyphs" textLength="96" x="113.5" y="28.1543">MonoBehaviour</text><line style="stroke: #A80036; stroke-width: 1.5;" x1="85.5" x2="211.5" y1="40" y2="40"/><line style="stroke: #A80036; stroke-width: 1.5;" x1="85.5" x2="211.5" y1="48" y2="48"/><!--MD5=[e60930a8d2a22e15a2c4c5b307c48b2d]
class ProjectManager--><rect fill="#FEFECE" filter="url(#f1vygux77jfxne)" height="48" id="ProjectManager" style="stroke: #A80036; stroke-width: 1.5;" width="131" x="6" y="237"/><ellipse cx="21" cy="253" fill="#ADD1B2" rx="11" ry="11" style="stroke: #A80036; stroke-width: 1.0;"/><path d="M23.9688,258.6406 Q23.3906,258.9375 22.75,259.0781 Q22.1094,259.2344 21.4063,259.2344 Q18.9063,259.2344 17.5781,257.5938 Q16.2656,255.9375 16.2656,252.8125 Q16.2656,249.6875 17.5781,248.0313 Q18.9063,246.375 21.4063,246.375 Q22.1094,246.375 22.75,246.5313 Q23.4063,246.6875 23.9688,246.9844 L23.9688,249.7031 Q23.3438,249.125 22.75,248.8594 Q22.1563,248.5781 21.5313,248.5781 Q20.1875,248.5781 19.5,249.6563 Q18.8125,250.7188 18.8125,252.8125 Q18.8125,254.9063 19.5,255.9844 Q20.1875,257.0469 21.5313,257.0469 Q22.1563,257.0469 22.75,256.7813 Q23.3438,256.5 23.9688,255.9219 L23.9688,258.6406 Z "/><text fill="#000000" font-family="sans-serif" font-size="12" lengthAdjust="spacingAndGlyphs" textLength="99" x="35" y="257.1543">ProjectManager</text><line style="stroke: #A80036; stroke-width: 1.5;" x1="7" x2="136" y1="269" y2="269"/><line style="stroke: #A80036; stroke-width: 1.5;" x1="7" x2="136" y1="277" y2="277"/><!--MD5=[064f7a74fee85463ec1a30143664ee17]
class GameObject--><rect fill="#FEFECE" filter="url(#f1vygux77jfxne)" height="48" id="GameObject" style="stroke: #A80036; stroke-width: 1.5;" width="108" x="172.5" y="237"/><ellipse cx="187.5" cy="253" fill="#ADD1B2" rx="11" ry="11" style="stroke: #A80036; stroke-width: 1.0;"/><path d="M190.4688,258.6406 Q189.8906,258.9375 189.25,259.0781 Q188.6094,259.2344 187.9063,259.2344 Q185.4063,259.2344 184.0781,257.5938 Q182.7656,255.9375 182.7656,252.8125 Q182.7656,249.6875 184.0781,248.0313 Q185.4063,246.375 187.9063,246.375 Q188.6094,246.375 189.25,246.5313 Q189.9063,246.6875 190.4688,246.9844 L190.4688,249.7031 Q189.8438,249.125 189.25,248.8594 Q188.6563,248.5781 188.0313,248.5781 Q186.6875,248.5781 186,249.6563 Q185.3125,250.7188 185.3125,252.8125 Q185.3125,254.9063 186,255.9844 Q186.6875,257.0469 188.0313,257.0469 Q188.6563,257.0469 189.25,256.7813 Q189.8438,256.5 190.4688,255.9219 L190.4688,258.6406 Z "/><text fill="#000000" font-family="sans-serif" font-size="12" lengthAdjust="spacingAndGlyphs" textLength="76" x="201.5" y="257.1543">GameObject</text><line style="stroke: #A80036; stroke-width: 1.5;" x1="173.5" x2="279.5" y1="269" y2="269"/><line style="stroke: #A80036; stroke-width: 1.5;" x1="173.5" x2="279.5" y1="277" y2="277"/><!--MD5=[71ff8c4f975ff5a5a6ebcf011cd87ee7]
reverse link MonoBehaviour to ProjectDisplay--><path d="M148.5,76.11 C148.5,89.31 148.5,103.54 148.5,115.65 " fill="none" id="MonoBehaviour&lt;-ProjectDisplay" style="stroke: #A80036; stroke-width: 1.0;"/><polygon fill="none" points="141.5,76.04,148.5,56.04,155.5,76.04,141.5,76.04" style="stroke: #A80036; stroke-width: 1.0;"/><!--MD5=[4683d0b3a45b9b0e76977606ec5dd98d]
link ProjectDisplay to ProjectManager--><path d="M128.27,177.06 C116.52,194.22 101.82,215.7 90.32,232.5 " fill="none" id="ProjectDisplay-&gt;ProjectManager" style="stroke: #A80036; stroke-width: 1.0;"/><polygon fill="#A80036" points="87.47,236.67,95.8566,231.5062,90.296,232.5452,89.2569,226.9846,87.47,236.67" style="stroke: #A80036; stroke-width: 1.0;"/><text fill="#000000" font-family="sans-serif" font-size="13" lengthAdjust="spacingAndGlyphs" textLength="58" x="26.2939" y="225.9945">manager</text><!--MD5=[e20a7042c9b5e31d8c6bcd04246a17df]
link ProjectDisplay to GameObject--><path d="M168.99,177.06 C180.89,194.22 195.79,215.7 207.44,232.5 " fill="none" id="ProjectDisplay-&gt;GameObject" style="stroke: #A80036; stroke-width: 1.0;"/><polygon fill="#A80036" points="210.32,236.67,208.4561,226.9991,207.4613,232.5678,201.8926,231.573,210.32,236.67" style="stroke: #A80036; stroke-width: 1.0;"/><text fill="#000000" font-family="sans-serif" font-size="13" lengthAdjust="spacingAndGlyphs" textLength="102" x="129.6546" y="225.9328">templateProject</text><!--MD5=[8693679331239cb18dd34052e5fba997]
@startuml
class ProjectDisplay {
    Start() : void
}
MonoBehaviour <|- - ProjectDisplay
ProjectDisplay - -> "manager" ProjectManager
ProjectDisplay - -> "templateProject" GameObject
@enduml

PlantUML version 1.2020.02(Sun Mar 01 10:22:07 GMT 2020)
(GPL source distribution)
Java Runtime: OpenJDK Runtime Environment
JVM: OpenJDK 64-Bit Server VM
Java Version: 11.0.9+11-Ubuntu-0ubuntu1
Operating System: Linux
Default Encoding: ANSI_X3.4-1968
Language: en
Country: US
--></g></svg>