<?xml version="1.0" encoding="UTF-8" standalone="no"?><svg xmlns="http://www.w3.org/2000/svg" xmlns:xlink="http://www.w3.org/1999/xlink" contentScriptType="application/ecmascript" contentStyleType="text/css" height="411px" preserveAspectRatio="none" style="width:354px;height:411px;" version="1.1" viewBox="0 0 354 411" width="354px" zoomAndPan="magnify"><defs><filter height="300%" id="f1nb2w7aswzirk" width="300%" x="-1" y="-1"><feGaussianBlur result="blurOut" stdDeviation="2.0"/><feColorMatrix in="blurOut" result="blurOut2" type="matrix" values="0 0 0 0 0 0 0 0 0 0 0 0 0 0 0 0 0 0 .4 0"/><feOffset dx="4.0" dy="4.0" in="blurOut2" result="blurOut3"/><feBlend in="SourceGraphic" in2="blurOut3" mode="normal"/></filter></defs><g><!--MD5=[e60930a8d2a22e15a2c4c5b307c48b2d]
class ProjectManager--><rect fill="#FEFECE" filter="url(#f1nb2w7aswzirk)" height="176.0469" id="ProjectManager" style="stroke: #A80036; stroke-width: 1.5;" width="337" x="6" y="116"/><ellipse cx="120.75" cy="132" fill="#ADD1B2" rx="11" ry="11" style="stroke: #A80036; stroke-width: 1.0;"/><path d="M123.7188,137.6406 Q123.1406,137.9375 122.5,138.0781 Q121.8594,138.2344 121.1563,138.2344 Q118.6563,138.2344 117.3281,136.5938 Q116.0156,134.9375 116.0156,131.8125 Q116.0156,128.6875 117.3281,127.0313 Q118.6563,125.375 121.1563,125.375 Q121.8594,125.375 122.5,125.5313 Q123.1563,125.6875 123.7188,125.9844 L123.7188,128.7031 Q123.0938,128.125 122.5,127.8594 Q121.9063,127.5781 121.2813,127.5781 Q119.9375,127.5781 119.25,128.6563 Q118.5625,129.7188 118.5625,131.8125 Q118.5625,133.9063 119.25,134.9844 Q119.9375,136.0469 121.2813,136.0469 Q121.9063,136.0469 122.5,135.7813 Q123.0938,135.5 123.7188,134.9219 L123.7188,137.6406 Z "/><text fill="#000000" font-family="sans-serif" font-size="12" lengthAdjust="spacingAndGlyphs" textLength="99" x="141.25" y="136.1543">ProjectManager</text><line style="stroke: #A80036; stroke-width: 1.5;" x1="7" x2="342" y1="148" y2="148"/><ellipse cx="17" cy="159" fill="none" rx="3" ry="3" style="stroke: #038048; stroke-width: 1.0;"/><text fill="#000000" font-family="sans-serif" font-size="11" lengthAdjust="spacingAndGlyphs" textLength="115" x="26" y="162.2104">projectIsOpen : bool</text><line style="stroke: #A80036; stroke-width: 1.5;" x1="7" x2="342" y1="168.8047" y2="168.8047"/><ellipse cx="17" cy="179.8047" fill="#84BE84" rx="3" ry="3" style="stroke: #038048; stroke-width: 1.0;"/><text fill="#000000" font-family="sans-serif" font-size="11" lengthAdjust="spacingAndGlyphs" textLength="154" x="26" y="183.0151">CreateProjectWithUI() : void</text><ellipse cx="17" cy="192.6094" fill="#84BE84" rx="3" ry="3" style="stroke: #038048; stroke-width: 1.0;"/><text fill="#000000" font-family="sans-serif" font-size="11" lengthAdjust="spacingAndGlyphs" textLength="182" x="26" y="195.8198">GetProjectPaths() : List&lt;string&gt;</text><ellipse cx="17" cy="205.4141" fill="#84BE84" rx="3" ry="3" style="stroke: #038048; stroke-width: 1.0;"/><text fill="#000000" font-family="sans-serif" font-size="11" lengthAdjust="spacingAndGlyphs" textLength="190" x="26" y="208.6245">GetProjectNames() : List&lt;string&gt;</text><ellipse cx="17" cy="218.2188" fill="#84BE84" rx="3" ry="3" style="stroke: #038048; stroke-width: 1.0;"/><text fill="#000000" font-family="sans-serif" font-size="11" lengthAdjust="spacingAndGlyphs" textLength="245" x="26" y="221.4292">GetProject(projectDirectory:string) : Project</text><ellipse cx="17" cy="231.0234" fill="#84BE84" rx="3" ry="3" style="stroke: #038048; stroke-width: 1.0;"/><text fill="#000000" font-family="sans-serif" font-size="11" lengthAdjust="spacingAndGlyphs" textLength="311" x="26" y="234.2339">CreateProject(name:string, spriteFilePath:string) : void</text><ellipse cx="17" cy="243.8281" fill="#84BE84" rx="3" ry="3" style="stroke: #038048; stroke-width: 1.0;"/><text fill="#000000" font-family="sans-serif" font-size="11" lengthAdjust="spacingAndGlyphs" textLength="122" x="26" y="247.0386">ExportCurrent() : void</text><ellipse cx="17" cy="256.6328" fill="#84BE84" rx="3" ry="3" style="stroke: #038048; stroke-width: 1.0;"/><text fill="#000000" font-family="sans-serif" font-size="11" lengthAdjust="spacingAndGlyphs" textLength="176" x="26" y="259.8433">Export(p:RuntimeProject) : bool</text><ellipse cx="17" cy="269.4375" fill="#84BE84" rx="3" ry="3" style="stroke: #038048; stroke-width: 1.0;"/><text fill="#000000" font-family="sans-serif" font-size="11" lengthAdjust="spacingAndGlyphs" textLength="162" x="26" y="272.6479">OpenProject(p:Project) : void</text><ellipse cx="17" cy="282.2422" fill="#84BE84" rx="3" ry="3" style="stroke: #038048; stroke-width: 1.0;"/><text fill="#000000" font-family="sans-serif" font-size="11" lengthAdjust="spacingAndGlyphs" textLength="194" x="26" y="285.4526">GetOpenProject() : RuntimeProject</text><!--MD5=[faa1de4d7b17b110bcca917d9add068e]
class Singleton`1--><rect fill="#FEFECE" filter="url(#f1nb2w7aswzirk)" height="48" id="Singleton`1" style="stroke: #A80036; stroke-width: 1.5;" width="116" x="116.5" y="8"/><ellipse cx="131.5" cy="24" fill="#ADD1B2" rx="11" ry="11" style="stroke: #A80036; stroke-width: 1.0;"/><path d="M134.4688,29.6406 Q133.8906,29.9375 133.25,30.0781 Q132.6094,30.2344 131.9063,30.2344 Q129.4063,30.2344 128.0781,28.5938 Q126.7656,26.9375 126.7656,23.8125 Q126.7656,20.6875 128.0781,19.0313 Q129.4063,17.375 131.9063,17.375 Q132.6094,17.375 133.25,17.5313 Q133.9063,17.6875 134.4688,17.9844 L134.4688,20.7031 Q133.8438,20.125 133.25,19.8594 Q132.6563,19.5781 132.0313,19.5781 Q130.6875,19.5781 130,20.6563 Q129.3125,21.7188 129.3125,23.8125 Q129.3125,25.9063 130,26.9844 Q130.6875,28.0469 132.0313,28.0469 Q132.6563,28.0469 133.25,27.7813 Q133.8438,27.5 134.4688,26.9219 L134.4688,29.6406 Z "/><text fill="#000000" font-family="sans-serif" font-size="12" lengthAdjust="spacingAndGlyphs" textLength="73" x="145.5" y="28.1543">Singleton`1</text><rect fill="#FFFFFF" height="15.9688" style="stroke: #000000; stroke-width: 1.0; stroke-dasharray: 2.0,2.0;" width="9" x="226.5" y="5"/><text fill="#000000" font-family="sans-serif" font-size="12" font-style="italic" lengthAdjust="spacingAndGlyphs" textLength="7" x="227.5" y="17.1387">T</text><line style="stroke: #A80036; stroke-width: 1.5;" x1="117.5" x2="231.5" y1="40" y2="40"/><line style="stroke: #A80036; stroke-width: 1.5;" x1="117.5" x2="231.5" y1="48" y2="48"/><!--MD5=[c281cd549d6bfb16e3ecc036314443fd]
class MenuManager--><rect fill="#FEFECE" filter="url(#f1nb2w7aswzirk)" height="48" id="MenuManager" style="stroke: #A80036; stroke-width: 1.5;" width="121" x="50" y="352"/><ellipse cx="65" cy="368" fill="#ADD1B2" rx="11" ry="11" style="stroke: #A80036; stroke-width: 1.0;"/><path d="M67.9688,373.6406 Q67.3906,373.9375 66.75,374.0781 Q66.1094,374.2344 65.4063,374.2344 Q62.9063,374.2344 61.5781,372.5938 Q60.2656,370.9375 60.2656,367.8125 Q60.2656,364.6875 61.5781,363.0313 Q62.9063,361.375 65.4063,361.375 Q66.1094,361.375 66.75,361.5313 Q67.4063,361.6875 67.9688,361.9844 L67.9688,364.7031 Q67.3438,364.125 66.75,363.8594 Q66.1563,363.5781 65.5313,363.5781 Q64.1875,363.5781 63.5,364.6563 Q62.8125,365.7188 62.8125,367.8125 Q62.8125,369.9063 63.5,370.9844 Q64.1875,372.0469 65.5313,372.0469 Q66.1563,372.0469 66.75,371.7813 Q67.3438,371.5 67.9688,370.9219 L67.9688,373.6406 Z "/><text fill="#000000" font-family="sans-serif" font-size="12" lengthAdjust="spacingAndGlyphs" textLength="89" x="79" y="372.1543">MenuManager</text><line style="stroke: #A80036; stroke-width: 1.5;" x1="51" x2="170" y1="384" y2="384"/><line style="stroke: #A80036; stroke-width: 1.5;" x1="51" x2="170" y1="392" y2="392"/><!--MD5=[f0268dd29ee89052933f031546cb1cab]
class Menu--><rect fill="#FEFECE" filter="url(#f1nb2w7aswzirk)" height="48" id="Menu" style="stroke: #A80036; stroke-width: 1.5;" width="66" x="206.5" y="352"/><ellipse cx="221.5" cy="368" fill="#ADD1B2" rx="11" ry="11" style="stroke: #A80036; stroke-width: 1.0;"/><path d="M224.4688,373.6406 Q223.8906,373.9375 223.25,374.0781 Q222.6094,374.2344 221.9063,374.2344 Q219.4063,374.2344 218.0781,372.5938 Q216.7656,370.9375 216.7656,367.8125 Q216.7656,364.6875 218.0781,363.0313 Q219.4063,361.375 221.9063,361.375 Q222.6094,361.375 223.25,361.5313 Q223.9063,361.6875 224.4688,361.9844 L224.4688,364.7031 Q223.8438,364.125 223.25,363.8594 Q222.6563,363.5781 222.0313,363.5781 Q220.6875,363.5781 220,364.6563 Q219.3125,365.7188 219.3125,367.8125 Q219.3125,369.9063 220,370.9844 Q220.6875,372.0469 222.0313,372.0469 Q222.6563,372.0469 223.25,371.7813 Q223.8438,371.5 224.4688,370.9219 L224.4688,373.6406 Z "/><text fill="#000000" font-family="sans-serif" font-size="12" lengthAdjust="spacingAndGlyphs" textLength="34" x="235.5" y="372.1543">Menu</text><line style="stroke: #A80036; stroke-width: 1.5;" x1="207.5" x2="271.5" y1="384" y2="384"/><line style="stroke: #A80036; stroke-width: 1.5;" x1="207.5" x2="271.5" y1="392" y2="392"/><!--MD5=[15834346c2a60800ec8331fe5b201d33]
reverse link Singleton`1 to ProjectManager--><path d="M174.5,76.71 C174.5,88.77 174.5,102.3 174.5,115.9 " fill="none" id="Singleton`1&lt;-ProjectManager" style="stroke: #A80036; stroke-width: 1.0;"/><polygon fill="none" points="167.5,76.28,174.5,56.28,181.5,76.28,167.5,76.28" style="stroke: #A80036; stroke-width: 1.0;"/><text fill="#000000" font-family="sans-serif" font-size="13" lengthAdjust="spacingAndGlyphs" textLength="122" x="37.6313" y="76.1095">&lt;ProjectManager&gt;</text><!--MD5=[7721efb42a894b1d546ad0e439b1f4c0]
link ProjectManager to MenuManager--><path d="M141.56,292.49 C134.13,312.22 126.77,331.78 121.08,346.9 " fill="none" id="ProjectManager-&gt;MenuManager" style="stroke: #A80036; stroke-width: 1.0;"/><polygon fill="#A80036" points="119.22,351.85,126.1254,344.8275,120.9756,347.1684,118.6348,342.0185,119.22,351.85" style="stroke: #A80036; stroke-width: 1.0;"/><text fill="#000000" font-family="sans-serif" font-size="13" lengthAdjust="spacingAndGlyphs" textLength="93" x="16.5389" y="340.8236">menuManager</text><!--MD5=[58189fb1f0a930d9001e1f3a03fc051d]
link ProjectManager to Menu--><path d="M207.95,292.49 C215.5,312.22 222.98,331.78 228.75,346.9 " fill="none" id="ProjectManager-&gt;Menu" style="stroke: #A80036; stroke-width: 1.0;"/><polygon fill="#A80036" points="230.65,351.85,231.1727,342.015,228.8647,347.1796,223.7001,344.8715,230.65,351.85" style="stroke: #A80036; stroke-width: 1.0;"/><text fill="#000000" font-family="sans-serif" font-size="13" lengthAdjust="spacingAndGlyphs" textLength="104" x="144.1134" y="340.8236">newProjectMenu</text><!--MD5=[9cec79aa92c6cecaace876f0cb4f275f]
@startuml
class ProjectManager {
    + projectIsOpen : bool
    + CreateProjectWithUI() : void
    + GetProjectPaths() : List<string>
    + GetProjectNames() : List<string>
    + GetProject(projectDirectory:string) : Project
    + CreateProject(name:string, spriteFilePath:string) : void
    + ExportCurrent() : void
    + Export(p:RuntimeProject) : bool
    + OpenProject(p:Project) : void
    + GetOpenProject() : RuntimeProject
}
class "Singleton`1"<T> {
}
"Singleton`1" "<ProjectManager>" <|- - ProjectManager
ProjectManager - -> "menuManager" MenuManager
ProjectManager - -> "newProjectMenu" Menu
@enduml

PlantUML version 1.2020.02(Sun Mar 01 10:22:07 GMT 2020)
(GPL source distribution)
Java Runtime: OpenJDK Runtime Environment
JVM: OpenJDK 64-Bit Server VM
Java Version: 11.0.9+11-Ubuntu-0ubuntu1
Operating System: Linux
Default Encoding: ANSI_X3.4-1968
Language: en
Country: US
--></g></svg>