<?xml version="1.0" encoding="UTF-8" standalone="no"?><svg xmlns="http://www.w3.org/2000/svg" xmlns:xlink="http://www.w3.org/1999/xlink" contentScriptType="application/ecmascript" contentStyleType="text/css" height="283px" preserveAspectRatio="none" style="width:222px;height:283px;" version="1.1" viewBox="0 0 222 283" width="222px" zoomAndPan="magnify"><defs><filter height="300%" id="foyanos5wz5ee" width="300%" x="-1" y="-1"><feGaussianBlur result="blurOut" stdDeviation="2.0"/><feColorMatrix in="blurOut" result="blurOut2" type="matrix" values="0 0 0 0 0 0 0 0 0 0 0 0 0 0 0 0 0 0 .4 0"/><feOffset dx="4.0" dy="4.0" in="blurOut2" result="blurOut3"/><feBlend in="SourceGraphic" in2="blurOut3" mode="normal"/></filter></defs><g><!--MD5=[fed775d90ad12da71660b5c284cf6473]
class ProjectButton--><rect fill="#FEFECE" filter="url(#foyanos5wz5ee)" height="48" id="ProjectButton" style="stroke: #A80036; stroke-width: 1.5;" width="118" x="49.24" y="116"/><ellipse cx="64.24" cy="132" fill="#ADD1B2" rx="11" ry="11" style="stroke: #A80036; stroke-width: 1.0;"/><path d="M67.2088,137.6406 Q66.6306,137.9375 65.99,138.0781 Q65.3494,138.2344 64.6463,138.2344 Q62.1463,138.2344 60.8181,136.5938 Q59.5056,134.9375 59.5056,131.8125 Q59.5056,128.6875 60.8181,127.0313 Q62.1463,125.375 64.6463,125.375 Q65.3494,125.375 65.99,125.5313 Q66.6463,125.6875 67.2088,125.9844 L67.2088,128.7031 Q66.5838,128.125 65.99,127.8594 Q65.3963,127.5781 64.7713,127.5781 Q63.4275,127.5781 62.74,128.6563 Q62.0525,129.7188 62.0525,131.8125 Q62.0525,133.9063 62.74,134.9844 Q63.4275,136.0469 64.7713,136.0469 Q65.3963,136.0469 65.99,135.7813 Q66.5838,135.5 67.2088,134.9219 L67.2088,137.6406 Z "/><text fill="#000000" font-family="sans-serif" font-size="12" lengthAdjust="spacingAndGlyphs" textLength="86" x="78.24" y="136.1543">ProjectButton</text><line style="stroke: #A80036; stroke-width: 1.5;" x1="50.24" x2="166.24" y1="148" y2="148"/><line style="stroke: #A80036; stroke-width: 1.5;" x1="50.24" x2="166.24" y1="156" y2="156"/><!--MD5=[83b3cf3d23d77c6f1e1b5291a241bc2a]
class MonoBehaviour--><rect fill="#FEFECE" filter="url(#foyanos5wz5ee)" height="48" id="MonoBehaviour" style="stroke: #A80036; stroke-width: 1.5;" width="128" x="44.24" y="8"/><ellipse cx="59.24" cy="24" fill="#ADD1B2" rx="11" ry="11" style="stroke: #A80036; stroke-width: 1.0;"/><path d="M62.2088,29.6406 Q61.6306,29.9375 60.99,30.0781 Q60.3494,30.2344 59.6463,30.2344 Q57.1463,30.2344 55.8181,28.5938 Q54.5056,26.9375 54.5056,23.8125 Q54.5056,20.6875 55.8181,19.0313 Q57.1463,17.375 59.6463,17.375 Q60.3494,17.375 60.99,17.5313 Q61.6463,17.6875 62.2088,17.9844 L62.2088,20.7031 Q61.5838,20.125 60.99,19.8594 Q60.3963,19.5781 59.7713,19.5781 Q58.4275,19.5781 57.74,20.6563 Q57.0525,21.7188 57.0525,23.8125 Q57.0525,25.9063 57.74,26.9844 Q58.4275,28.0469 59.7713,28.0469 Q60.3963,28.0469 60.99,27.7813 Q61.5838,27.5 62.2088,26.9219 L62.2088,29.6406 Z "/><text fill="#000000" font-family="sans-serif" font-size="12" lengthAdjust="spacingAndGlyphs" textLength="96" x="73.24" y="28.1543">MonoBehaviour</text><line style="stroke: #A80036; stroke-width: 1.5;" x1="45.24" x2="171.24" y1="40" y2="40"/><line style="stroke: #A80036; stroke-width: 1.5;" x1="45.24" x2="171.24" y1="48" y2="48"/><!--MD5=[90ba54f54370e77ef24813dec6818fa3]
class Button--><rect fill="#FEFECE" filter="url(#foyanos5wz5ee)" height="48" id="Button" style="stroke: #A80036; stroke-width: 1.5;" width="74" x="13.24" y="224"/><ellipse cx="28.24" cy="240" fill="#ADD1B2" rx="11" ry="11" style="stroke: #A80036; stroke-width: 1.0;"/><path d="M31.2088,245.6406 Q30.6306,245.9375 29.99,246.0781 Q29.3494,246.2344 28.6463,246.2344 Q26.1463,246.2344 24.8181,244.5938 Q23.5056,242.9375 23.5056,239.8125 Q23.5056,236.6875 24.8181,235.0313 Q26.1463,233.375 28.6463,233.375 Q29.3494,233.375 29.99,233.5313 Q30.6463,233.6875 31.2088,233.9844 L31.2088,236.7031 Q30.5838,236.125 29.99,235.8594 Q29.3963,235.5781 28.7713,235.5781 Q27.4275,235.5781 26.74,236.6563 Q26.0525,237.7188 26.0525,239.8125 Q26.0525,241.9063 26.74,242.9844 Q27.4275,244.0469 28.7713,244.0469 Q29.3963,244.0469 29.99,243.7813 Q30.5838,243.5 31.2088,242.9219 L31.2088,245.6406 Z "/><text fill="#000000" font-family="sans-serif" font-size="12" lengthAdjust="spacingAndGlyphs" textLength="42" x="42.24" y="244.1543">Button</text><line style="stroke: #A80036; stroke-width: 1.5;" x1="14.24" x2="86.24" y1="256" y2="256"/><line style="stroke: #A80036; stroke-width: 1.5;" x1="14.24" x2="86.24" y1="264" y2="264"/><!--MD5=[fa07864ef55e7d1943fa981e1ee9b4e7]
class TMP_Text--><rect fill="#FEFECE" filter="url(#foyanos5wz5ee)" height="48" id="TMP_Text" style="stroke: #A80036; stroke-width: 1.5;" width="89" x="122.74" y="224"/><ellipse cx="137.74" cy="240" fill="#ADD1B2" rx="11" ry="11" style="stroke: #A80036; stroke-width: 1.0;"/><path d="M140.7088,245.6406 Q140.1306,245.9375 139.49,246.0781 Q138.8494,246.2344 138.1463,246.2344 Q135.6463,246.2344 134.3181,244.5938 Q133.0056,242.9375 133.0056,239.8125 Q133.0056,236.6875 134.3181,235.0313 Q135.6463,233.375 138.1463,233.375 Q138.8494,233.375 139.49,233.5313 Q140.1463,233.6875 140.7088,233.9844 L140.7088,236.7031 Q140.0838,236.125 139.49,235.8594 Q138.8963,235.5781 138.2713,235.5781 Q136.9275,235.5781 136.24,236.6563 Q135.5525,237.7188 135.5525,239.8125 Q135.5525,241.9063 136.24,242.9844 Q136.9275,244.0469 138.2713,244.0469 Q138.8963,244.0469 139.49,243.7813 Q140.0838,243.5 140.7088,242.9219 L140.7088,245.6406 Z "/><text fill="#000000" font-family="sans-serif" font-size="12" lengthAdjust="spacingAndGlyphs" textLength="57" x="151.74" y="244.1543">TMP_Text</text><line style="stroke: #A80036; stroke-width: 1.5;" x1="123.74" x2="210.74" y1="256" y2="256"/><line style="stroke: #A80036; stroke-width: 1.5;" x1="123.74" x2="210.74" y1="264" y2="264"/><!--MD5=[ab8b254bc10743e2dff0a9dd4de8a1a8]
reverse link MonoBehaviour to ProjectButton--><path d="M108.24,76.02 C108.24,89.58 108.24,104.04 108.24,115.68 " fill="none" id="MonoBehaviour&lt;-ProjectButton" style="stroke: #A80036; stroke-width: 1.0;"/><polygon fill="none" points="101.24,76,108.24,56,115.24,76,101.24,76" style="stroke: #A80036; stroke-width: 1.0;"/><!--MD5=[98e528bc6ab952e0b287398149b17ad7]
link ProjectButton to Button--><path d="M95.65,164 C86.82,180.14 74.96,201.82 65.58,218.97 " fill="none" id="ProjectButton-&gt;Button" style="stroke: #A80036; stroke-width: 1.0;"/><polygon fill="#A80036" points="63,223.68,70.8294,217.7051,65.4003,219.2938,63.8115,213.8646,63,223.68" style="stroke: #A80036; stroke-width: 1.0;"/><text fill="#000000" font-family="sans-serif" font-size="13" lengthAdjust="spacingAndGlyphs" textLength="42" x="18.9915" y="213.007">button</text><!--MD5=[ee0ed6ecb92a56db375c94b405f051f0]
link ProjectButton to TMP_Text--><path d="M121.04,164 C130.03,180.14 142.09,201.82 151.64,218.97 " fill="none" id="ProjectButton-&gt;TMP_Text" style="stroke: #A80036; stroke-width: 1.0;"/><polygon fill="#A80036" points="154.26,223.68,153.3858,213.87,151.8318,219.3092,146.3926,217.7552,154.26,223.68" style="stroke: #A80036; stroke-width: 1.0;"/><text fill="#000000" font-family="sans-serif" font-size="13" lengthAdjust="spacingAndGlyphs" textLength="30" x="117.4399" y="213.007">label</text><!--MD5=[944fce73e0ee94a5ad10b4d5395ca341]
@startuml
class ProjectButton {
}
MonoBehaviour <|- - ProjectButton
ProjectButton - -> "button" Button
ProjectButton - -> "label" TMP_Text
@enduml

PlantUML version 1.2020.02(Sun Mar 01 10:22:07 GMT 2020)
(GPL source distribution)
Java Runtime: OpenJDK Runtime Environment
JVM: OpenJDK 64-Bit Server VM
Java Version: 11.0.9+11-Ubuntu-0ubuntu1
Operating System: Linux
Default Encoding: ANSI_X3.4-1968
Language: en
Country: US
--></g></svg>