<?xml version="1.0" encoding="UTF-8" standalone="no"?><svg xmlns="http://www.w3.org/2000/svg" xmlns:xlink="http://www.w3.org/1999/xlink" contentScriptType="application/ecmascript" contentStyleType="text/css" height="437px" preserveAspectRatio="none" style="width:972px;height:437px;" version="1.1" viewBox="0 0 972 437" width="972px" zoomAndPan="magnify"><defs><filter height="300%" id="fr2corlvcktdm" width="300%" x="-1" y="-1"><feGaussianBlur result="blurOut" stdDeviation="2.0"/><feColorMatrix in="blurOut" result="blurOut2" type="matrix" values="0 0 0 0 0 0 0 0 0 0 0 0 0 0 0 0 0 0 .4 0"/><feOffset dx="4.0" dy="4.0" in="blurOut2" result="blurOut3"/><feBlend in="SourceGraphic" in2="blurOut3" mode="normal"/></filter></defs><g><!--MD5=[e60930a8d2a22e15a2c4c5b307c48b2d]
class ProjectManager--><rect fill="#FEFECE" filter="url(#fr2corlvcktdm)" height="201.6563" id="ProjectManager" style="stroke: #A80036; stroke-width: 1.5;" width="456" x="292.8" y="116"/><ellipse cx="467.05" cy="132" fill="#ADD1B2" rx="11" ry="11" style="stroke: #A80036; stroke-width: 1.0;"/><path d="M470.0188,137.6406 Q469.4406,137.9375 468.8,138.0781 Q468.1594,138.2344 467.4563,138.2344 Q464.9563,138.2344 463.6281,136.5938 Q462.3156,134.9375 462.3156,131.8125 Q462.3156,128.6875 463.6281,127.0313 Q464.9563,125.375 467.4563,125.375 Q468.1594,125.375 468.8,125.5313 Q469.4563,125.6875 470.0188,125.9844 L470.0188,128.7031 Q469.3938,128.125 468.8,127.8594 Q468.2063,127.5781 467.5813,127.5781 Q466.2375,127.5781 465.55,128.6563 Q464.8625,129.7188 464.8625,131.8125 Q464.8625,133.9063 465.55,134.9844 Q466.2375,136.0469 467.5813,136.0469 Q468.2063,136.0469 468.8,135.7813 Q469.3938,135.5 470.0188,134.9219 L470.0188,137.6406 Z "/><text fill="#000000" font-family="sans-serif" font-size="12" lengthAdjust="spacingAndGlyphs" textLength="99" x="487.55" y="136.1543">ProjectManager</text><line style="stroke: #A80036; stroke-width: 1.5;" x1="293.8" x2="747.8" y1="148" y2="148"/><ellipse cx="303.8" cy="159" fill="none" rx="3" ry="3" style="stroke: #038048; stroke-width: 1.0;"/><text fill="#000000" font-family="sans-serif" font-size="11" lengthAdjust="spacingAndGlyphs" textLength="115" x="312.8" y="162.2104">projectIsOpen : bool</text><line style="stroke: #A80036; stroke-width: 1.5;" x1="293.8" x2="747.8" y1="168.8047" y2="168.8047"/><ellipse cx="303.8" cy="179.8047" fill="#84BE84" rx="3" ry="3" style="stroke: #038048; stroke-width: 1.0;"/><text fill="#000000" font-family="sans-serif" font-size="11" lengthAdjust="spacingAndGlyphs" textLength="154" x="312.8" y="183.0151">CreateProjectWithUI() : void</text><ellipse cx="303.8" cy="192.6094" fill="#84BE84" rx="3" ry="3" style="stroke: #038048; stroke-width: 1.0;"/><text fill="#000000" font-family="sans-serif" font-size="11" lengthAdjust="spacingAndGlyphs" textLength="182" x="312.8" y="195.8198">GetProjectPaths() : List&lt;string&gt;</text><ellipse cx="303.8" cy="205.4141" fill="#84BE84" rx="3" ry="3" style="stroke: #038048; stroke-width: 1.0;"/><text fill="#000000" font-family="sans-serif" font-size="11" lengthAdjust="spacingAndGlyphs" textLength="190" x="312.8" y="208.6245">GetProjectNames() : List&lt;string&gt;</text><ellipse cx="303.8" cy="218.2188" fill="#84BE84" rx="3" ry="3" style="stroke: #038048; stroke-width: 1.0;"/><text fill="#000000" font-family="sans-serif" font-size="11" lengthAdjust="spacingAndGlyphs" textLength="245" x="312.8" y="221.4292">GetProject(projectDirectory:string) : Project</text><ellipse cx="303.8" cy="231.0234" fill="#84BE84" rx="3" ry="3" style="stroke: #038048; stroke-width: 1.0;"/><text fill="#000000" font-family="sans-serif" font-size="11" lengthAdjust="spacingAndGlyphs" textLength="430" x="312.8" y="234.2339">CreateProject(name:string, spriteFilePath:string, openProject:bool) : Project</text><ellipse cx="303.8" cy="243.8281" fill="#84BE84" rx="3" ry="3" style="stroke: #038048; stroke-width: 1.0;"/><text fill="#000000" font-family="sans-serif" font-size="11" lengthAdjust="spacingAndGlyphs" textLength="114" x="312.8" y="247.0386">SaveCurrent() : void</text><ellipse cx="303.8" cy="256.6328" fill="#84BE84" rx="3" ry="3" style="stroke: #038048; stroke-width: 1.0;"/><text fill="#000000" font-family="sans-serif" font-size="11" lengthAdjust="spacingAndGlyphs" textLength="85" x="312.8" y="259.8433">SaveAs() : void</text><ellipse cx="303.8" cy="269.4375" fill="#84BE84" rx="3" ry="3" style="stroke: #038048; stroke-width: 1.0;"/><text fill="#000000" font-family="sans-serif" font-size="11" lengthAdjust="spacingAndGlyphs" textLength="172" x="312.8" y="272.6479">ExportCurrent(mode:int) : void</text><ellipse cx="303.8" cy="282.2422" fill="#84BE84" rx="3" ry="3" style="stroke: #038048; stroke-width: 1.0;"/><text fill="#000000" font-family="sans-serif" font-size="11" lengthAdjust="spacingAndGlyphs" textLength="234" x="312.8" y="285.4526">Export(p:RuntimeProject, mode:int) : bool</text><ellipse cx="303.8" cy="295.0469" fill="#84BE84" rx="3" ry="3" style="stroke: #038048; stroke-width: 1.0;"/><text fill="#000000" font-family="sans-serif" font-size="11" lengthAdjust="spacingAndGlyphs" textLength="162" x="312.8" y="298.2573">OpenProject(p:Project) : void</text><ellipse cx="303.8" cy="307.8516" fill="#84BE84" rx="3" ry="3" style="stroke: #038048; stroke-width: 1.0;"/><text fill="#000000" font-family="sans-serif" font-size="11" lengthAdjust="spacingAndGlyphs" textLength="194" x="312.8" y="311.062">GetOpenProject() : RuntimeProject</text><!--MD5=[faa1de4d7b17b110bcca917d9add068e]
class Singleton`1--><rect fill="#FEFECE" filter="url(#fr2corlvcktdm)" height="48" id="Singleton`1" style="stroke: #A80036; stroke-width: 1.5;" width="116" x="462.8" y="8"/><ellipse cx="477.8" cy="24" fill="#ADD1B2" rx="11" ry="11" style="stroke: #A80036; stroke-width: 1.0;"/><path d="M480.7688,29.6406 Q480.1906,29.9375 479.55,30.0781 Q478.9094,30.2344 478.2063,30.2344 Q475.7063,30.2344 474.3781,28.5938 Q473.0656,26.9375 473.0656,23.8125 Q473.0656,20.6875 474.3781,19.0313 Q475.7063,17.375 478.2063,17.375 Q478.9094,17.375 479.55,17.5313 Q480.2063,17.6875 480.7688,17.9844 L480.7688,20.7031 Q480.1438,20.125 479.55,19.8594 Q478.9563,19.5781 478.3313,19.5781 Q476.9875,19.5781 476.3,20.6563 Q475.6125,21.7188 475.6125,23.8125 Q475.6125,25.9063 476.3,26.9844 Q476.9875,28.0469 478.3313,28.0469 Q478.9563,28.0469 479.55,27.7813 Q480.1438,27.5 480.7688,26.9219 L480.7688,29.6406 Z "/><text fill="#000000" font-family="sans-serif" font-size="12" lengthAdjust="spacingAndGlyphs" textLength="73" x="491.8" y="28.1543">Singleton`1</text><rect fill="#FFFFFF" height="15.9688" style="stroke: #000000; stroke-width: 1.0; stroke-dasharray: 2.0,2.0;" width="9" x="572.8" y="5"/><text fill="#000000" font-family="sans-serif" font-size="12" font-style="italic" lengthAdjust="spacingAndGlyphs" textLength="7" x="573.8" y="17.1387">T</text><line style="stroke: #A80036; stroke-width: 1.5;" x1="463.8" x2="577.8" y1="40" y2="40"/><line style="stroke: #A80036; stroke-width: 1.5;" x1="463.8" x2="577.8" y1="48" y2="48"/><!--MD5=[d9ee3338713418d52dd3a6002ddfc65f]
class ProjectShaderSettingsManager--><rect fill="#FEFECE" filter="url(#fr2corlvcktdm)" height="48" id="ProjectShaderSettingsManager" style="stroke: #A80036; stroke-width: 1.5;" width="228" x="9.8" y="378"/><ellipse cx="24.8" cy="394" fill="#ADD1B2" rx="11" ry="11" style="stroke: #A80036; stroke-width: 1.0;"/><path d="M27.7688,399.6406 Q27.1906,399.9375 26.55,400.0781 Q25.9094,400.2344 25.2063,400.2344 Q22.7063,400.2344 21.3781,398.5938 Q20.0656,396.9375 20.0656,393.8125 Q20.0656,390.6875 21.3781,389.0313 Q22.7063,387.375 25.2063,387.375 Q25.9094,387.375 26.55,387.5313 Q27.2063,387.6875 27.7688,387.9844 L27.7688,390.7031 Q27.1438,390.125 26.55,389.8594 Q25.9563,389.5781 25.3313,389.5781 Q23.9875,389.5781 23.3,390.6563 Q22.6125,391.7188 22.6125,393.8125 Q22.6125,395.9063 23.3,396.9844 Q23.9875,398.0469 25.3313,398.0469 Q25.9563,398.0469 26.55,397.7813 Q27.1438,397.5 27.7688,396.9219 L27.7688,399.6406 Z "/><text fill="#000000" font-family="sans-serif" font-size="12" lengthAdjust="spacingAndGlyphs" textLength="196" x="38.8" y="398.1543">ProjectShaderSettingsManager</text><line style="stroke: #A80036; stroke-width: 1.5;" x1="10.8" x2="236.8" y1="410" y2="410"/><line style="stroke: #A80036; stroke-width: 1.5;" x1="10.8" x2="236.8" y1="418" y2="418"/><!--MD5=[c281cd549d6bfb16e3ecc036314443fd]
class MenuManager--><rect fill="#FEFECE" filter="url(#fr2corlvcktdm)" height="48" id="MenuManager" style="stroke: #A80036; stroke-width: 1.5;" width="121" x="273.3" y="378"/><ellipse cx="288.3" cy="394" fill="#ADD1B2" rx="11" ry="11" style="stroke: #A80036; stroke-width: 1.0;"/><path d="M291.2688,399.6406 Q290.6906,399.9375 290.05,400.0781 Q289.4094,400.2344 288.7063,400.2344 Q286.2063,400.2344 284.8781,398.5938 Q283.5656,396.9375 283.5656,393.8125 Q283.5656,390.6875 284.8781,389.0313 Q286.2063,387.375 288.7063,387.375 Q289.4094,387.375 290.05,387.5313 Q290.7063,387.6875 291.2688,387.9844 L291.2688,390.7031 Q290.6438,390.125 290.05,389.8594 Q289.4563,389.5781 288.8313,389.5781 Q287.4875,389.5781 286.8,390.6563 Q286.1125,391.7188 286.1125,393.8125 Q286.1125,395.9063 286.8,396.9844 Q287.4875,398.0469 288.8313,398.0469 Q289.4563,398.0469 290.05,397.7813 Q290.6438,397.5 291.2688,396.9219 L291.2688,399.6406 Z "/><text fill="#000000" font-family="sans-serif" font-size="12" lengthAdjust="spacingAndGlyphs" textLength="89" x="302.3" y="398.1543">MenuManager</text><line style="stroke: #A80036; stroke-width: 1.5;" x1="274.3" x2="393.3" y1="410" y2="410"/><line style="stroke: #A80036; stroke-width: 1.5;" x1="274.3" x2="393.3" y1="418" y2="418"/><!--MD5=[f0268dd29ee89052933f031546cb1cab]
class Menu--><rect fill="#FEFECE" filter="url(#fr2corlvcktdm)" height="48" id="Menu" style="stroke: #A80036; stroke-width: 1.5;" width="66" x="429.8" y="378"/><ellipse cx="444.8" cy="394" fill="#ADD1B2" rx="11" ry="11" style="stroke: #A80036; stroke-width: 1.0;"/><path d="M447.7688,399.6406 Q447.1906,399.9375 446.55,400.0781 Q445.9094,400.2344 445.2063,400.2344 Q442.7063,400.2344 441.3781,398.5938 Q440.0656,396.9375 440.0656,393.8125 Q440.0656,390.6875 441.3781,389.0313 Q442.7063,387.375 445.2063,387.375 Q445.9094,387.375 446.55,387.5313 Q447.2063,387.6875 447.7688,387.9844 L447.7688,390.7031 Q447.1438,390.125 446.55,389.8594 Q445.9563,389.5781 445.3313,389.5781 Q443.9875,389.5781 443.3,390.6563 Q442.6125,391.7188 442.6125,393.8125 Q442.6125,395.9063 443.3,396.9844 Q443.9875,398.0469 445.3313,398.0469 Q445.9563,398.0469 446.55,397.7813 Q447.1438,397.5 447.7688,396.9219 L447.7688,399.6406 Z "/><text fill="#000000" font-family="sans-serif" font-size="12" lengthAdjust="spacingAndGlyphs" textLength="34" x="458.8" y="398.1543">Menu</text><line style="stroke: #A80036; stroke-width: 1.5;" x1="430.8" x2="494.8" y1="410" y2="410"/><line style="stroke: #A80036; stroke-width: 1.5;" x1="430.8" x2="494.8" y1="418" y2="418"/><!--MD5=[004b1d6c4ca8aad4ba8b586a335ed4f3]
class Transform--><rect fill="#FEFECE" filter="url(#fr2corlvcktdm)" height="48" id="Transform" style="stroke: #A80036; stroke-width: 1.5;" width="95" x="531.3" y="378"/><ellipse cx="546.3" cy="394" fill="#ADD1B2" rx="11" ry="11" style="stroke: #A80036; stroke-width: 1.0;"/><path d="M549.2688,399.6406 Q548.6906,399.9375 548.05,400.0781 Q547.4094,400.2344 546.7063,400.2344 Q544.2063,400.2344 542.8781,398.5938 Q541.5656,396.9375 541.5656,393.8125 Q541.5656,390.6875 542.8781,389.0313 Q544.2063,387.375 546.7063,387.375 Q547.4094,387.375 548.05,387.5313 Q548.7063,387.6875 549.2688,387.9844 L549.2688,390.7031 Q548.6438,390.125 548.05,389.8594 Q547.4563,389.5781 546.8313,389.5781 Q545.4875,389.5781 544.8,390.6563 Q544.1125,391.7188 544.1125,393.8125 Q544.1125,395.9063 544.8,396.9844 Q545.4875,398.0469 546.8313,398.0469 Q547.4563,398.0469 548.05,397.7813 Q548.6438,397.5 549.2688,396.9219 L549.2688,399.6406 Z "/><text fill="#000000" font-family="sans-serif" font-size="12" lengthAdjust="spacingAndGlyphs" textLength="63" x="560.3" y="398.1543">Transform</text><line style="stroke: #A80036; stroke-width: 1.5;" x1="532.3" x2="625.3" y1="410" y2="410"/><line style="stroke: #A80036; stroke-width: 1.5;" x1="532.3" x2="625.3" y1="418" y2="418"/><!--MD5=[c05919f88dab9d999cd7bd146db477c0]
class TMP_InputField--><rect fill="#FEFECE" filter="url(#fr2corlvcktdm)" height="48" id="TMP_InputField" style="stroke: #A80036; stroke-width: 1.5;" width="124" x="661.8" y="378"/><ellipse cx="676.8" cy="394" fill="#ADD1B2" rx="11" ry="11" style="stroke: #A80036; stroke-width: 1.0;"/><path d="M679.7688,399.6406 Q679.1906,399.9375 678.55,400.0781 Q677.9094,400.2344 677.2063,400.2344 Q674.7063,400.2344 673.3781,398.5938 Q672.0656,396.9375 672.0656,393.8125 Q672.0656,390.6875 673.3781,389.0313 Q674.7063,387.375 677.2063,387.375 Q677.9094,387.375 678.55,387.5313 Q679.2063,387.6875 679.7688,387.9844 L679.7688,390.7031 Q679.1438,390.125 678.55,389.8594 Q677.9563,389.5781 677.3313,389.5781 Q675.9875,389.5781 675.3,390.6563 Q674.6125,391.7188 674.6125,393.8125 Q674.6125,395.9063 675.3,396.9844 Q675.9875,398.0469 677.3313,398.0469 Q677.9563,398.0469 678.55,397.7813 Q679.1438,397.5 679.7688,396.9219 L679.7688,399.6406 Z "/><text fill="#000000" font-family="sans-serif" font-size="12" lengthAdjust="spacingAndGlyphs" textLength="92" x="690.8" y="398.1543">TMP_InputField</text><line style="stroke: #A80036; stroke-width: 1.5;" x1="662.8" x2="784.8" y1="410" y2="410"/><line style="stroke: #A80036; stroke-width: 1.5;" x1="662.8" x2="784.8" y1="418" y2="418"/><!--MD5=[f8e7078f77c005d15b486c0c98deb1e6]
class Action--><rect fill="#FEFECE" filter="url(#fr2corlvcktdm)" height="48" id="Action" style="stroke: #A80036; stroke-width: 1.5;" width="71" x="821.3" y="378"/><ellipse cx="836.3" cy="394" fill="#ADD1B2" rx="11" ry="11" style="stroke: #A80036; stroke-width: 1.0;"/><path d="M839.2688,399.6406 Q838.6906,399.9375 838.05,400.0781 Q837.4094,400.2344 836.7063,400.2344 Q834.2063,400.2344 832.8781,398.5938 Q831.5656,396.9375 831.5656,393.8125 Q831.5656,390.6875 832.8781,389.0313 Q834.2063,387.375 836.7063,387.375 Q837.4094,387.375 838.05,387.5313 Q838.7063,387.6875 839.2688,387.9844 L839.2688,390.7031 Q838.6438,390.125 838.05,389.8594 Q837.4563,389.5781 836.8313,389.5781 Q835.4875,389.5781 834.8,390.6563 Q834.1125,391.7188 834.1125,393.8125 Q834.1125,395.9063 834.8,396.9844 Q835.4875,398.0469 836.8313,398.0469 Q837.4563,398.0469 838.05,397.7813 Q838.6438,397.5 839.2688,396.9219 L839.2688,399.6406 Z "/><text fill="#000000" font-family="sans-serif" font-size="12" lengthAdjust="spacingAndGlyphs" textLength="39" x="850.3" y="398.1543">Action</text><line style="stroke: #A80036; stroke-width: 1.5;" x1="822.3" x2="891.3" y1="410" y2="410"/><line style="stroke: #A80036; stroke-width: 1.5;" x1="822.3" x2="891.3" y1="418" y2="418"/><!--MD5=[15834346c2a60800ec8331fe5b201d33]
reverse link Singleton`1 to ProjectManager--><path d="M520.8,76.46 C520.8,88.49 520.8,102.06 520.8,115.9 " fill="none" id="Singleton`1&lt;-ProjectManager" style="stroke: #A80036; stroke-width: 1.0;"/><polygon fill="none" points="513.8,76.18,520.8,56.18,527.8,76.18,513.8,76.18" style="stroke: #A80036; stroke-width: 1.0;"/><text fill="#000000" font-family="sans-serif" font-size="13" lengthAdjust="spacingAndGlyphs" textLength="122" x="383.9313" y="75.9851">&lt;ProjectManager&gt;</text><!--MD5=[028631a6669acf22ab7221b5657b0738]
link ProjectManager to ProjectShaderSettingsManager--><path d="M303.71,318.07 C257.3,339.46 212.26,360.23 178.85,375.63 " fill="none" id="ProjectManager-&gt;ProjectShaderSettingsManager" style="stroke: #A80036; stroke-width: 1.0;"/><polygon fill="#A80036" points="174,377.86,183.8476,377.7026,178.536,375.7565,180.4821,370.445,174,377.86" style="stroke: #A80036; stroke-width: 1.0;"/><text fill="#000000" font-family="sans-serif" font-size="13" lengthAdjust="spacingAndGlyphs" textLength="153" x="14.2606" y="366.8362">shaderSettingsManager</text><!--MD5=[7721efb42a894b1d546ad0e439b1f4c0]
link ProjectManager to MenuManager--><path d="M418.55,318.07 C397.48,338.68 377.01,358.71 361.47,373.92 " fill="none" id="ProjectManager-&gt;MenuManager" style="stroke: #A80036; stroke-width: 1.0;"/><polygon fill="#A80036" points="357.63,377.68,366.8646,374.2564,361.2082,374.1877,361.2769,368.5312,357.63,377.68" style="stroke: #A80036; stroke-width: 1.0;"/><text fill="#000000" font-family="sans-serif" font-size="13" lengthAdjust="spacingAndGlyphs" textLength="93" x="259.1042" y="367.007">menuManager</text><!--MD5=[58189fb1f0a930d9001e1f3a03fc051d]
link ProjectManager to Menu--><path d="M489.08,318.07 C482.72,338.16 476.53,357.69 471.75,372.75 " fill="none" id="ProjectManager-&gt;Menu" style="stroke: #A80036; stroke-width: 1.0;"/><polygon fill="#A80036" points="470.19,377.68,476.7251,370.3116,471.7025,372.9142,469.0999,367.8917,470.19,377.68" style="stroke: #A80036; stroke-width: 1.0;"/><text fill="#000000" font-family="sans-serif" font-size="13" lengthAdjust="spacingAndGlyphs" textLength="104" x="386.7225" y="366.9452">newProjectMenu</text><!--MD5=[cf532cb8384d8f2e0b69b84211ea89e2]
link ProjectManager to Transform--><path d="M552.52,318.07 C558.88,338.16 565.07,357.69 569.85,372.75 " fill="none" id="ProjectManager-&gt;Transform" style="stroke: #A80036; stroke-width: 1.0;"/><polygon fill="#A80036" points="571.41,377.68,572.5001,367.8917,569.8975,372.9142,564.8749,370.3116,571.41,377.68" style="stroke: #A80036; stroke-width: 1.0;"/><text fill="#000000" font-family="sans-serif" font-size="13" lengthAdjust="spacingAndGlyphs" textLength="84" x="503.5944" y="366.9452">saveAsModal</text><!--MD5=[d60e10c384a14d3291d2dfef96d71dbd]
link ProjectManager to TMP_InputField--><path d="M631.8,318.07 C654.87,338.86 677.27,359.05 694.19,374.31 " fill="none" id="ProjectManager-&gt;TMP_InputField" style="stroke: #A80036; stroke-width: 1.0;"/><polygon fill="#A80036" points="697.94,377.68,693.9262,368.6861,694.2235,374.3352,688.5745,374.6325,697.94,377.68" style="stroke: #A80036; stroke-width: 1.0;"/><text fill="#000000" font-family="sans-serif" font-size="13" lengthAdjust="spacingAndGlyphs" textLength="116" x="596.7351" y="366.9452">saveAsModalInput</text><!--MD5=[a4787c2c19e91a1e89c4c29e41bebb79]
link ProjectManager to Action--><path d="M704.53,318.07 C746.85,341.12 787.83,363.43 816.59,379.1 " fill="none" id="ProjectManager-&gt;Action" style="stroke: #A80036; stroke-width: 1.0;"/><polygon fill="#A80036" points="821.1,381.56,815.1251,373.7306,816.7138,379.1597,811.2846,380.7485,821.1,381.56" style="stroke: #A80036; stroke-width: 1.0;"/><text fill="#000000" font-family="sans-serif" font-size="13" lengthAdjust="spacingAndGlyphs" textLength="128" x="832.7737" y="367.129">projectRefreshEvent</text><!--MD5=[1c84d935bc91c7bf7c556784636b714e]
@startuml
class ProjectManager {
    + projectIsOpen : bool
    + CreateProjectWithUI() : void
    + GetProjectPaths() : List<string>
    + GetProjectNames() : List<string>
    + GetProject(projectDirectory:string) : Project
    + CreateProject(name:string, spriteFilePath:string, openProject:bool) : Project
    + SaveCurrent() : void
    + SaveAs() : void
    + ExportCurrent(mode:int) : void
    + Export(p:RuntimeProject, mode:int) : bool
    + OpenProject(p:Project) : void
    + GetOpenProject() : RuntimeProject
}
class "Singleton`1"<T> {
}
"Singleton`1" "<ProjectManager>" <|- - ProjectManager
ProjectManager - -> "shaderSettingsManager" ProjectShaderSettingsManager
ProjectManager - -> "menuManager" MenuManager
ProjectManager - -> "newProjectMenu" Menu
ProjectManager - -> "saveAsModal" Transform
ProjectManager - -> "saveAsModalInput" TMP_InputField
ProjectManager - -> "projectRefreshEvent" Action
@enduml

PlantUML version 1.2020.02(Sun Mar 01 10:22:07 GMT 2020)
(GPL source distribution)
Java Runtime: OpenJDK Runtime Environment
JVM: OpenJDK 64-Bit Server VM
Java Version: 11.0.9+11-Ubuntu-0ubuntu1
Operating System: Linux
Default Encoding: ANSI_X3.4-1968
Language: en
Country: US
--></g></svg>