<?xml version="1.0" encoding="UTF-8" standalone="no"?><svg xmlns="http://www.w3.org/2000/svg" xmlns:xlink="http://www.w3.org/1999/xlink" contentScriptType="application/ecmascript" contentStyleType="text/css" height="296px" preserveAspectRatio="none" style="width:198px;height:296px;" version="1.1" viewBox="0 0 198 296" width="198px" zoomAndPan="magnify"><defs><filter height="300%" id="f1itj3v62ktpj3" width="300%" x="-1" y="-1"><feGaussianBlur result="blurOut" stdDeviation="2.0"/><feColorMatrix in="blurOut" result="blurOut2" type="matrix" values="0 0 0 0 0 0 0 0 0 0 0 0 0 0 0 0 0 0 .4 0"/><feOffset dx="4.0" dy="4.0" in="blurOut2" result="blurOut3"/><feBlend in="SourceGraphic" in2="blurOut3" mode="normal"/></filter></defs><g><!--MD5=[0ad3f934b545622e52088d6fdbdc8cee]
class ProjectDisplay--><rect fill="#FEFECE" filter="url(#f1itj3v62ktpj3)" height="60.8047" id="ProjectDisplay" style="stroke: #A80036; stroke-width: 1.5;" width="120" x="63" y="116"/><ellipse cx="78" cy="132" fill="#ADD1B2" rx="11" ry="11" style="stroke: #A80036; stroke-width: 1.0;"/><path d="M80.9688,137.6406 Q80.3906,137.9375 79.75,138.0781 Q79.1094,138.2344 78.4063,138.2344 Q75.9063,138.2344 74.5781,136.5938 Q73.2656,134.9375 73.2656,131.8125 Q73.2656,128.6875 74.5781,127.0313 Q75.9063,125.375 78.4063,125.375 Q79.1094,125.375 79.75,125.5313 Q80.4063,125.6875 80.9688,125.9844 L80.9688,128.7031 Q80.3438,128.125 79.75,127.8594 Q79.1563,127.5781 78.5313,127.5781 Q77.1875,127.5781 76.5,128.6563 Q75.8125,129.7188 75.8125,131.8125 Q75.8125,133.9063 76.5,134.9844 Q77.1875,136.0469 78.5313,136.0469 Q79.1563,136.0469 79.75,135.7813 Q80.3438,135.5 80.9688,134.9219 L80.9688,137.6406 Z "/><text fill="#000000" font-family="sans-serif" font-size="12" lengthAdjust="spacingAndGlyphs" textLength="88" x="92" y="136.1543">ProjectDisplay</text><line style="stroke: #A80036; stroke-width: 1.5;" x1="64" x2="182" y1="148" y2="148"/><line style="stroke: #A80036; stroke-width: 1.5;" x1="64" x2="182" y1="156" y2="156"/><text fill="#000000" font-family="sans-serif" font-size="11" lengthAdjust="spacingAndGlyphs" textLength="71" x="69" y="170.2104">Start() : void</text><!--MD5=[83b3cf3d23d77c6f1e1b5291a241bc2a]
class MonoBehaviour--><rect fill="#FEFECE" filter="url(#f1itj3v62ktpj3)" height="48" id="MonoBehaviour" style="stroke: #A80036; stroke-width: 1.5;" width="128" x="59" y="8"/><ellipse cx="74" cy="24" fill="#ADD1B2" rx="11" ry="11" style="stroke: #A80036; stroke-width: 1.0;"/><path d="M76.9688,29.6406 Q76.3906,29.9375 75.75,30.0781 Q75.1094,30.2344 74.4063,30.2344 Q71.9063,30.2344 70.5781,28.5938 Q69.2656,26.9375 69.2656,23.8125 Q69.2656,20.6875 70.5781,19.0313 Q71.9063,17.375 74.4063,17.375 Q75.1094,17.375 75.75,17.5313 Q76.4063,17.6875 76.9688,17.9844 L76.9688,20.7031 Q76.3438,20.125 75.75,19.8594 Q75.1563,19.5781 74.5313,19.5781 Q73.1875,19.5781 72.5,20.6563 Q71.8125,21.7188 71.8125,23.8125 Q71.8125,25.9063 72.5,26.9844 Q73.1875,28.0469 74.5313,28.0469 Q75.1563,28.0469 75.75,27.7813 Q76.3438,27.5 76.9688,26.9219 L76.9688,29.6406 Z "/><text fill="#000000" font-family="sans-serif" font-size="12" lengthAdjust="spacingAndGlyphs" textLength="96" x="88" y="28.1543">MonoBehaviour</text><line style="stroke: #A80036; stroke-width: 1.5;" x1="60" x2="186" y1="40" y2="40"/><line style="stroke: #A80036; stroke-width: 1.5;" x1="60" x2="186" y1="48" y2="48"/><!--MD5=[064f7a74fee85463ec1a30143664ee17]
class GameObject--><rect fill="#FEFECE" filter="url(#f1itj3v62ktpj3)" height="48" id="GameObject" style="stroke: #A80036; stroke-width: 1.5;" width="108" x="69" y="237"/><ellipse cx="84" cy="253" fill="#ADD1B2" rx="11" ry="11" style="stroke: #A80036; stroke-width: 1.0;"/><path d="M86.9688,258.6406 Q86.3906,258.9375 85.75,259.0781 Q85.1094,259.2344 84.4063,259.2344 Q81.9063,259.2344 80.5781,257.5938 Q79.2656,255.9375 79.2656,252.8125 Q79.2656,249.6875 80.5781,248.0313 Q81.9063,246.375 84.4063,246.375 Q85.1094,246.375 85.75,246.5313 Q86.4063,246.6875 86.9688,246.9844 L86.9688,249.7031 Q86.3438,249.125 85.75,248.8594 Q85.1563,248.5781 84.5313,248.5781 Q83.1875,248.5781 82.5,249.6563 Q81.8125,250.7188 81.8125,252.8125 Q81.8125,254.9063 82.5,255.9844 Q83.1875,257.0469 84.5313,257.0469 Q85.1563,257.0469 85.75,256.7813 Q86.3438,256.5 86.9688,255.9219 L86.9688,258.6406 Z "/><text fill="#000000" font-family="sans-serif" font-size="12" lengthAdjust="spacingAndGlyphs" textLength="76" x="98" y="257.1543">GameObject</text><line style="stroke: #A80036; stroke-width: 1.5;" x1="70" x2="176" y1="269" y2="269"/><line style="stroke: #A80036; stroke-width: 1.5;" x1="70" x2="176" y1="277" y2="277"/><!--MD5=[71ff8c4f975ff5a5a6ebcf011cd87ee7]
reverse link MonoBehaviour to ProjectDisplay--><path d="M123,76.11 C123,89.31 123,103.54 123,115.65 " fill="none" id="MonoBehaviour&lt;-ProjectDisplay" style="stroke: #A80036; stroke-width: 1.0;"/><polygon fill="none" points="116,76.04,123,56.04,130,76.04,116,76.04" style="stroke: #A80036; stroke-width: 1.0;"/><!--MD5=[e20a7042c9b5e31d8c6bcd04246a17df]
link ProjectDisplay to GameObject--><path d="M123,177.06 C123,193.93 123,214.98 123,231.65 " fill="none" id="ProjectDisplay-&gt;GameObject" style="stroke: #A80036; stroke-width: 1.0;"/><polygon fill="#A80036" points="123,236.67,127,227.67,123,231.67,119,227.67,123,236.67" style="stroke: #A80036; stroke-width: 1.0;"/><text fill="#000000" font-family="sans-serif" font-size="13" lengthAdjust="spacingAndGlyphs" textLength="102" x="8.5688" y="225.9945">templateProject</text><!--MD5=[e706ab6ecaccee389cf995d6bfd212c7]
@startuml
class ProjectDisplay {
    Start() : void
}
MonoBehaviour <|- - ProjectDisplay
ProjectDisplay - -> "templateProject" GameObject
@enduml

PlantUML version 1.2020.02(Sun Mar 01 10:22:07 GMT 2020)
(GPL source distribution)
Java Runtime: OpenJDK Runtime Environment
JVM: OpenJDK 64-Bit Server VM
Java Version: 11.0.9+11-Ubuntu-0ubuntu1
Operating System: Linux
Default Encoding: ANSI_X3.4-1968
Language: en
Country: US
--></g></svg>