<?xml version="1.0" encoding="UTF-8" standalone="no"?><svg xmlns="http://www.w3.org/2000/svg" xmlns:xlink="http://www.w3.org/1999/xlink" contentScriptType="application/ecmascript" contentStyleType="text/css" height="424px" preserveAspectRatio="none" style="width:536px;height:424px;" version="1.1" viewBox="0 0 536 424" width="536px" zoomAndPan="magnify"><defs><filter height="300%" id="f1moy44xipselv" width="300%" x="-1" y="-1"><feGaussianBlur result="blurOut" stdDeviation="2.0"/><feColorMatrix in="blurOut" result="blurOut2" type="matrix" values="0 0 0 0 0 0 0 0 0 0 0 0 0 0 0 0 0 0 .4 0"/><feOffset dx="4.0" dy="4.0" in="blurOut2" result="blurOut3"/><feBlend in="SourceGraphic" in2="blurOut3" mode="normal"/></filter></defs><g><!--MD5=[e60930a8d2a22e15a2c4c5b307c48b2d]
class ProjectManager--><rect fill="#FEFECE" filter="url(#f1moy44xipselv)" height="188.8516" id="ProjectManager" style="stroke: #A80036; stroke-width: 1.5;" width="337" x="188.03" y="116"/><ellipse cx="302.78" cy="132" fill="#ADD1B2" rx="11" ry="11" style="stroke: #A80036; stroke-width: 1.0;"/><path d="M305.7488,137.6406 Q305.1706,137.9375 304.53,138.0781 Q303.8894,138.2344 303.1863,138.2344 Q300.6863,138.2344 299.3581,136.5938 Q298.0456,134.9375 298.0456,131.8125 Q298.0456,128.6875 299.3581,127.0313 Q300.6863,125.375 303.1863,125.375 Q303.8894,125.375 304.53,125.5313 Q305.1863,125.6875 305.7488,125.9844 L305.7488,128.7031 Q305.1238,128.125 304.53,127.8594 Q303.9363,127.5781 303.3113,127.5781 Q301.9675,127.5781 301.28,128.6563 Q300.5925,129.7188 300.5925,131.8125 Q300.5925,133.9063 301.28,134.9844 Q301.9675,136.0469 303.3113,136.0469 Q303.9363,136.0469 304.53,135.7813 Q305.1238,135.5 305.7488,134.9219 L305.7488,137.6406 Z "/><text fill="#000000" font-family="sans-serif" font-size="12" lengthAdjust="spacingAndGlyphs" textLength="99" x="323.28" y="136.1543">ProjectManager</text><line style="stroke: #A80036; stroke-width: 1.5;" x1="189.03" x2="524.03" y1="148" y2="148"/><ellipse cx="199.03" cy="159" fill="none" rx="3" ry="3" style="stroke: #038048; stroke-width: 1.0;"/><text fill="#000000" font-family="sans-serif" font-size="11" lengthAdjust="spacingAndGlyphs" textLength="115" x="208.03" y="162.2104">projectIsOpen : bool</text><line style="stroke: #A80036; stroke-width: 1.5;" x1="189.03" x2="524.03" y1="168.8047" y2="168.8047"/><ellipse cx="199.03" cy="179.8047" fill="#84BE84" rx="3" ry="3" style="stroke: #038048; stroke-width: 1.0;"/><text fill="#000000" font-family="sans-serif" font-size="11" lengthAdjust="spacingAndGlyphs" textLength="154" x="208.03" y="183.0151">CreateProjectWithUI() : void</text><ellipse cx="199.03" cy="192.6094" fill="#84BE84" rx="3" ry="3" style="stroke: #038048; stroke-width: 1.0;"/><text fill="#000000" font-family="sans-serif" font-size="11" lengthAdjust="spacingAndGlyphs" textLength="182" x="208.03" y="195.8198">GetProjectPaths() : List&lt;string&gt;</text><ellipse cx="199.03" cy="205.4141" fill="#84BE84" rx="3" ry="3" style="stroke: #038048; stroke-width: 1.0;"/><text fill="#000000" font-family="sans-serif" font-size="11" lengthAdjust="spacingAndGlyphs" textLength="190" x="208.03" y="208.6245">GetProjectNames() : List&lt;string&gt;</text><ellipse cx="199.03" cy="218.2188" fill="#84BE84" rx="3" ry="3" style="stroke: #038048; stroke-width: 1.0;"/><text fill="#000000" font-family="sans-serif" font-size="11" lengthAdjust="spacingAndGlyphs" textLength="245" x="208.03" y="221.4292">GetProject(projectDirectory:string) : Project</text><ellipse cx="199.03" cy="231.0234" fill="#84BE84" rx="3" ry="3" style="stroke: #038048; stroke-width: 1.0;"/><text fill="#000000" font-family="sans-serif" font-size="11" lengthAdjust="spacingAndGlyphs" textLength="311" x="208.03" y="234.2339">CreateProject(name:string, spriteFilePath:string) : void</text><ellipse cx="199.03" cy="243.8281" fill="#84BE84" rx="3" ry="3" style="stroke: #038048; stroke-width: 1.0;"/><text fill="#000000" font-family="sans-serif" font-size="11" lengthAdjust="spacingAndGlyphs" textLength="114" x="208.03" y="247.0386">SaveCurrent() : void</text><ellipse cx="199.03" cy="256.6328" fill="#84BE84" rx="3" ry="3" style="stroke: #038048; stroke-width: 1.0;"/><text fill="#000000" font-family="sans-serif" font-size="11" lengthAdjust="spacingAndGlyphs" textLength="122" x="208.03" y="259.8433">ExportCurrent() : void</text><ellipse cx="199.03" cy="269.4375" fill="#84BE84" rx="3" ry="3" style="stroke: #038048; stroke-width: 1.0;"/><text fill="#000000" font-family="sans-serif" font-size="11" lengthAdjust="spacingAndGlyphs" textLength="176" x="208.03" y="272.6479">Export(p:RuntimeProject) : bool</text><ellipse cx="199.03" cy="282.2422" fill="#84BE84" rx="3" ry="3" style="stroke: #038048; stroke-width: 1.0;"/><text fill="#000000" font-family="sans-serif" font-size="11" lengthAdjust="spacingAndGlyphs" textLength="162" x="208.03" y="285.4526">OpenProject(p:Project) : void</text><ellipse cx="199.03" cy="295.0469" fill="#84BE84" rx="3" ry="3" style="stroke: #038048; stroke-width: 1.0;"/><text fill="#000000" font-family="sans-serif" font-size="11" lengthAdjust="spacingAndGlyphs" textLength="194" x="208.03" y="298.2573">GetOpenProject() : RuntimeProject</text><!--MD5=[faa1de4d7b17b110bcca917d9add068e]
class Singleton`1--><rect fill="#FEFECE" filter="url(#f1moy44xipselv)" height="48" id="Singleton`1" style="stroke: #A80036; stroke-width: 1.5;" width="116" x="298.53" y="8"/><ellipse cx="313.53" cy="24" fill="#ADD1B2" rx="11" ry="11" style="stroke: #A80036; stroke-width: 1.0;"/><path d="M316.4988,29.6406 Q315.9206,29.9375 315.28,30.0781 Q314.6394,30.2344 313.9363,30.2344 Q311.4363,30.2344 310.1081,28.5938 Q308.7956,26.9375 308.7956,23.8125 Q308.7956,20.6875 310.1081,19.0313 Q311.4363,17.375 313.9363,17.375 Q314.6394,17.375 315.28,17.5313 Q315.9363,17.6875 316.4988,17.9844 L316.4988,20.7031 Q315.8738,20.125 315.28,19.8594 Q314.6863,19.5781 314.0613,19.5781 Q312.7175,19.5781 312.03,20.6563 Q311.3425,21.7188 311.3425,23.8125 Q311.3425,25.9063 312.03,26.9844 Q312.7175,28.0469 314.0613,28.0469 Q314.6863,28.0469 315.28,27.7813 Q315.8738,27.5 316.4988,26.9219 L316.4988,29.6406 Z "/><text fill="#000000" font-family="sans-serif" font-size="12" lengthAdjust="spacingAndGlyphs" textLength="73" x="327.53" y="28.1543">Singleton`1</text><rect fill="#FFFFFF" height="15.9688" style="stroke: #000000; stroke-width: 1.0; stroke-dasharray: 2.0,2.0;" width="9" x="408.53" y="5"/><text fill="#000000" font-family="sans-serif" font-size="12" font-style="italic" lengthAdjust="spacingAndGlyphs" textLength="7" x="409.53" y="17.1387">T</text><line style="stroke: #A80036; stroke-width: 1.5;" x1="299.53" x2="413.53" y1="40" y2="40"/><line style="stroke: #A80036; stroke-width: 1.5;" x1="299.53" x2="413.53" y1="48" y2="48"/><!--MD5=[d9ee3338713418d52dd3a6002ddfc65f]
class ProjectShaderSettingsManager--><rect fill="#FEFECE" filter="url(#f1moy44xipselv)" height="48" id="ProjectShaderSettingsManager" style="stroke: #A80036; stroke-width: 1.5;" width="228" x="32.53" y="365"/><ellipse cx="47.53" cy="381" fill="#ADD1B2" rx="11" ry="11" style="stroke: #A80036; stroke-width: 1.0;"/><path d="M50.4988,386.6406 Q49.9206,386.9375 49.28,387.0781 Q48.6394,387.2344 47.9363,387.2344 Q45.4363,387.2344 44.1081,385.5938 Q42.7956,383.9375 42.7956,380.8125 Q42.7956,377.6875 44.1081,376.0313 Q45.4363,374.375 47.9363,374.375 Q48.6394,374.375 49.28,374.5313 Q49.9363,374.6875 50.4988,374.9844 L50.4988,377.7031 Q49.8738,377.125 49.28,376.8594 Q48.6863,376.5781 48.0613,376.5781 Q46.7175,376.5781 46.03,377.6563 Q45.3425,378.7188 45.3425,380.8125 Q45.3425,382.9063 46.03,383.9844 Q46.7175,385.0469 48.0613,385.0469 Q48.6863,385.0469 49.28,384.7813 Q49.8738,384.5 50.4988,383.9219 L50.4988,386.6406 Z "/><text fill="#000000" font-family="sans-serif" font-size="12" lengthAdjust="spacingAndGlyphs" textLength="196" x="61.53" y="385.1543">ProjectShaderSettingsManager</text><line style="stroke: #A80036; stroke-width: 1.5;" x1="33.53" x2="259.53" y1="397" y2="397"/><line style="stroke: #A80036; stroke-width: 1.5;" x1="33.53" x2="259.53" y1="405" y2="405"/><!--MD5=[c281cd549d6bfb16e3ecc036314443fd]
class MenuManager--><rect fill="#FEFECE" filter="url(#f1moy44xipselv)" height="48" id="MenuManager" style="stroke: #A80036; stroke-width: 1.5;" width="121" x="296.03" y="365"/><ellipse cx="311.03" cy="381" fill="#ADD1B2" rx="11" ry="11" style="stroke: #A80036; stroke-width: 1.0;"/><path d="M313.9988,386.6406 Q313.4206,386.9375 312.78,387.0781 Q312.1394,387.2344 311.4363,387.2344 Q308.9363,387.2344 307.6081,385.5938 Q306.2956,383.9375 306.2956,380.8125 Q306.2956,377.6875 307.6081,376.0313 Q308.9363,374.375 311.4363,374.375 Q312.1394,374.375 312.78,374.5313 Q313.4363,374.6875 313.9988,374.9844 L313.9988,377.7031 Q313.3738,377.125 312.78,376.8594 Q312.1863,376.5781 311.5613,376.5781 Q310.2175,376.5781 309.53,377.6563 Q308.8425,378.7188 308.8425,380.8125 Q308.8425,382.9063 309.53,383.9844 Q310.2175,385.0469 311.5613,385.0469 Q312.1863,385.0469 312.78,384.7813 Q313.3738,384.5 313.9988,383.9219 L313.9988,386.6406 Z "/><text fill="#000000" font-family="sans-serif" font-size="12" lengthAdjust="spacingAndGlyphs" textLength="89" x="325.03" y="385.1543">MenuManager</text><line style="stroke: #A80036; stroke-width: 1.5;" x1="297.03" x2="416.03" y1="397" y2="397"/><line style="stroke: #A80036; stroke-width: 1.5;" x1="297.03" x2="416.03" y1="405" y2="405"/><!--MD5=[f0268dd29ee89052933f031546cb1cab]
class Menu--><rect fill="#FEFECE" filter="url(#f1moy44xipselv)" height="48" id="Menu" style="stroke: #A80036; stroke-width: 1.5;" width="66" x="452.53" y="365"/><ellipse cx="467.53" cy="381" fill="#ADD1B2" rx="11" ry="11" style="stroke: #A80036; stroke-width: 1.0;"/><path d="M470.4988,386.6406 Q469.9206,386.9375 469.28,387.0781 Q468.6394,387.2344 467.9363,387.2344 Q465.4363,387.2344 464.1081,385.5938 Q462.7956,383.9375 462.7956,380.8125 Q462.7956,377.6875 464.1081,376.0313 Q465.4363,374.375 467.9363,374.375 Q468.6394,374.375 469.28,374.5313 Q469.9363,374.6875 470.4988,374.9844 L470.4988,377.7031 Q469.8738,377.125 469.28,376.8594 Q468.6863,376.5781 468.0613,376.5781 Q466.7175,376.5781 466.03,377.6563 Q465.3425,378.7188 465.3425,380.8125 Q465.3425,382.9063 466.03,383.9844 Q466.7175,385.0469 468.0613,385.0469 Q468.6863,385.0469 469.28,384.7813 Q469.8738,384.5 470.4988,383.9219 L470.4988,386.6406 Z "/><text fill="#000000" font-family="sans-serif" font-size="12" lengthAdjust="spacingAndGlyphs" textLength="34" x="481.53" y="385.1543">Menu</text><line style="stroke: #A80036; stroke-width: 1.5;" x1="453.53" x2="517.53" y1="397" y2="397"/><line style="stroke: #A80036; stroke-width: 1.5;" x1="453.53" x2="517.53" y1="405" y2="405"/><!--MD5=[15834346c2a60800ec8331fe5b201d33]
reverse link Singleton`1 to ProjectManager--><path d="M356.53,76.38 C356.53,88.4 356.53,101.93 356.53,115.65 " fill="none" id="Singleton`1&lt;-ProjectManager" style="stroke: #A80036; stroke-width: 1.0;"/><polygon fill="none" points="349.53,76.07,356.53,56.07,363.53,76.07,349.53,76.07" style="stroke: #A80036; stroke-width: 1.0;"/><text fill="#000000" font-family="sans-serif" font-size="13" lengthAdjust="spacingAndGlyphs" textLength="122" x="218.8988" y="76.2437">&lt;ProjectManager&gt;</text><!--MD5=[028631a6669acf22ab7221b5657b0738]
link ProjectManager to ProjectShaderSettingsManager--><path d="M245.07,305.18 C220.43,325.89 196.27,346.2 178.03,361.52 " fill="none" id="ProjectManager-&gt;ProjectShaderSettingsManager" style="stroke: #A80036; stroke-width: 1.0;"/><polygon fill="#A80036" points="174,364.91,183.4598,362.1692,177.8234,361.688,178.3046,356.0516,174,364.91" style="stroke: #A80036; stroke-width: 1.0;"/><text fill="#000000" font-family="sans-serif" font-size="13" lengthAdjust="spacingAndGlyphs" textLength="153" x="8.4361" y="353.899">shaderSettingsManager</text><!--MD5=[7721efb42a894b1d546ad0e439b1f4c0]
link ProjectManager to MenuManager--><path d="M356.53,305.18 C356.53,325.02 356.53,344.49 356.53,359.56 " fill="none" id="ProjectManager-&gt;MenuManager" style="stroke: #A80036; stroke-width: 1.0;"/><polygon fill="#A80036" points="356.53,364.91,360.53,355.91,356.53,359.91,352.53,355.91,356.53,364.91" style="stroke: #A80036; stroke-width: 1.0;"/><text fill="#000000" font-family="sans-serif" font-size="13" lengthAdjust="spacingAndGlyphs" textLength="93" x="259.2738" y="353.9405">menuManager</text><!--MD5=[58189fb1f0a930d9001e1f3a03fc051d]
link ProjectManager to Menu--><path d="M425,305.18 C439.88,325.54 454.48,345.52 465.61,360.75 " fill="none" id="ProjectManager-&gt;Menu" style="stroke: #A80036; stroke-width: 1.0;"/><polygon fill="#A80036" points="468.66,364.91,466.5752,355.2843,465.7081,360.8744,460.1181,360.0073,468.66,364.91" style="stroke: #A80036; stroke-width: 1.0;"/><text fill="#000000" font-family="sans-serif" font-size="13" lengthAdjust="spacingAndGlyphs" textLength="104" x="380.0683" y="353.899">newProjectMenu</text><!--MD5=[bd2cbac2d14bc679b6ba4f5b249a4bc2]
@startuml
class ProjectManager {
    + projectIsOpen : bool
    + CreateProjectWithUI() : void
    + GetProjectPaths() : List<string>
    + GetProjectNames() : List<string>
    + GetProject(projectDirectory:string) : Project
    + CreateProject(name:string, spriteFilePath:string) : void
    + SaveCurrent() : void
    + ExportCurrent() : void
    + Export(p:RuntimeProject) : bool
    + OpenProject(p:Project) : void
    + GetOpenProject() : RuntimeProject
}
class "Singleton`1"<T> {
}
"Singleton`1" "<ProjectManager>" <|- - ProjectManager
ProjectManager - -> "shaderSettingsManager" ProjectShaderSettingsManager
ProjectManager - -> "menuManager" MenuManager
ProjectManager - -> "newProjectMenu" Menu
@enduml

PlantUML version 1.2020.02(Sun Mar 01 10:22:07 GMT 2020)
(GPL source distribution)
Java Runtime: OpenJDK Runtime Environment
JVM: OpenJDK 64-Bit Server VM
Java Version: 11.0.9+11-Ubuntu-0ubuntu1
Operating System: Linux
Default Encoding: ANSI_X3.4-1968
Language: en
Country: US
--></g></svg>