<?xml version="1.0" encoding="UTF-8" standalone="no"?><svg xmlns="http://www.w3.org/2000/svg" xmlns:xlink="http://www.w3.org/1999/xlink" contentScriptType="application/ecmascript" contentStyleType="text/css" height="110px" preserveAspectRatio="none" style="width:190px;height:110px;" version="1.1" viewBox="0 0 190 110" width="190px" zoomAndPan="magnify"><defs><filter height="300%" id="f1hviccobtee4j" width="300%" x="-1" y="-1"><feGaussianBlur result="blurOut" stdDeviation="2.0"/><feColorMatrix in="blurOut" result="blurOut2" type="matrix" values="0 0 0 0 0 0 0 0 0 0 0 0 0 0 0 0 0 0 .4 0"/><feOffset dx="4.0" dy="4.0" in="blurOut2" result="blurOut3"/><feBlend in="SourceGraphic" in2="blurOut3" mode="normal"/></filter></defs><g><!--MD5=[79d378210367c0c6ec62ef762ddfbd1b]
class Project--><rect fill="#FEFECE" filter="url(#f1hviccobtee4j)" height="92.3516" id="Project" style="stroke: #A80036; stroke-width: 1.5;" width="172" x="7" y="7"/><ellipse cx="65.75" cy="25.9688" fill="#ADD1B2" rx="11" ry="11" style="stroke: #A80036; stroke-width: 1.0;"/><path d="M68.7188,31.6094 Q68.1406,31.9063 67.5,32.0469 Q66.8594,32.2031 66.1563,32.2031 Q63.6563,32.2031 62.3281,30.5625 Q61.0156,28.9063 61.0156,25.7813 Q61.0156,22.6563 62.3281,21 Q63.6563,19.3438 66.1563,19.3438 Q66.8594,19.3438 67.5,19.5 Q68.1563,19.6563 68.7188,19.9531 L68.7188,22.6719 Q68.0938,22.0938 67.5,21.8281 Q66.9063,21.5469 66.2813,21.5469 Q64.9375,21.5469 64.25,22.625 Q63.5625,23.6875 63.5625,25.7813 Q63.5625,27.875 64.25,28.9531 Q64.9375,30.0156 66.2813,30.0156 Q66.9063,30.0156 67.5,29.75 Q68.0938,29.4688 68.7188,28.8906 L68.7188,31.6094 Z "/><text fill="#000000" font-family="sans-serif" font-size="12" font-style="italic" lengthAdjust="spacingAndGlyphs" textLength="50" x="84.25" y="23.1387">«struct»</text><text fill="#000000" font-family="sans-serif" font-size="12" lengthAdjust="spacingAndGlyphs" textLength="44" x="87.25" y="37.1074">Project</text><line style="stroke: #A80036; stroke-width: 1.5;" x1="8" x2="178" y1="44.9375" y2="44.9375"/><ellipse cx="18" cy="55.9375" fill="none" rx="3" ry="3" style="stroke: #038048; stroke-width: 1.0;"/><text fill="#000000" font-family="sans-serif" font-size="11" lengthAdjust="spacingAndGlyphs" textLength="77" x="27" y="59.1479">name : string</text><ellipse cx="18" cy="68.7422" fill="none" rx="3" ry="3" style="stroke: #038048; stroke-width: 1.0;"/><text fill="#000000" font-family="sans-serif" font-size="11" lengthAdjust="spacingAndGlyphs" textLength="135" x="27" y="71.9526">projectDirectory : string</text><ellipse cx="18" cy="81.5469" fill="none" rx="3" ry="3" style="stroke: #038048; stroke-width: 1.0;"/><text fill="#000000" font-family="sans-serif" font-size="11" lengthAdjust="spacingAndGlyphs" textLength="146" x="27" y="84.7573">originalSpritePath : string</text><line style="stroke: #A80036; stroke-width: 1.5;" x1="8" x2="178" y1="91.3516" y2="91.3516"/><!--MD5=[7a99b4a0a6bf49c6075395267ecb260b]
@startuml
class Project <<struct>> {
    + name : string
    + projectDirectory : string
    + originalSpritePath : string
}
@enduml

PlantUML version 1.2020.02(Sun Mar 01 10:22:07 GMT 2020)
(GPL source distribution)
Java Runtime: OpenJDK Runtime Environment
JVM: OpenJDK 64-Bit Server VM
Java Version: 11.0.9+11-Ubuntu-0ubuntu1
Operating System: Linux
Default Encoding: ANSI_X3.4-1968
Language: en
Country: US
--></g></svg>