<?xml version="1.0" encoding="UTF-8" standalone="no"?><svg xmlns="http://www.w3.org/2000/svg" xmlns:xlink="http://www.w3.org/1999/xlink" contentScriptType="application/ecmascript" contentStyleType="text/css" height="175px" preserveAspectRatio="none" style="width:152px;height:175px;" version="1.1" viewBox="0 0 152 175" width="152px" zoomAndPan="magnify"><defs><filter height="300%" id="fhz9wi75u54if" width="300%" x="-1" y="-1"><feGaussianBlur result="blurOut" stdDeviation="2.0"/><feColorMatrix in="blurOut" result="blurOut2" type="matrix" values="0 0 0 0 0 0 0 0 0 0 0 0 0 0 0 0 0 0 .4 0"/><feOffset dx="4.0" dy="4.0" in="blurOut2" result="blurOut3"/><feBlend in="SourceGraphic" in2="blurOut3" mode="normal"/></filter></defs><g><!--MD5=[57757b5bab70b6b63c7ca5058c654320]
class InputParser--><rect fill="#FEFECE" filter="url(#fhz9wi75u54if)" height="48" id="InputParser" style="stroke: #A80036; stroke-width: 1.5;" width="104" x="21.5" y="116"/><ellipse cx="36.5" cy="132" fill="#A9DCDF" rx="11" ry="11" style="stroke: #A80036; stroke-width: 1.0;"/><path d="M36.6094,127.3438 L35.4531,132.4219 L37.7813,132.4219 L36.6094,127.3438 Z M35.125,125.1094 L38.1094,125.1094 L41.4688,137.5 L39.0156,137.5 L38.25,134.4375 L34.9688,134.4375 L34.2188,137.5 L31.7813,137.5 L35.125,125.1094 Z "/><text fill="#000000" font-family="sans-serif" font-size="12" font-style="italic" lengthAdjust="spacingAndGlyphs" textLength="72" x="50.5" y="136.1543">InputParser</text><line style="stroke: #A80036; stroke-width: 1.5;" x1="22.5" x2="124.5" y1="148" y2="148"/><line style="stroke: #A80036; stroke-width: 1.5;" x1="22.5" x2="124.5" y1="156" y2="156"/><!--MD5=[44895057fba17b10f3053a7baa21df04]
class ScriptableObject--><rect fill="#FEFECE" filter="url(#fhz9wi75u54if)" height="48" id="ScriptableObject" style="stroke: #A80036; stroke-width: 1.5;" width="135" x="6" y="8"/><ellipse cx="21" cy="24" fill="#ADD1B2" rx="11" ry="11" style="stroke: #A80036; stroke-width: 1.0;"/><path d="M23.9688,29.6406 Q23.3906,29.9375 22.75,30.0781 Q22.1094,30.2344 21.4063,30.2344 Q18.9063,30.2344 17.5781,28.5938 Q16.2656,26.9375 16.2656,23.8125 Q16.2656,20.6875 17.5781,19.0313 Q18.9063,17.375 21.4063,17.375 Q22.1094,17.375 22.75,17.5313 Q23.4063,17.6875 23.9688,17.9844 L23.9688,20.7031 Q23.3438,20.125 22.75,19.8594 Q22.1563,19.5781 21.5313,19.5781 Q20.1875,19.5781 19.5,20.6563 Q18.8125,21.7188 18.8125,23.8125 Q18.8125,25.9063 19.5,26.9844 Q20.1875,28.0469 21.5313,28.0469 Q22.1563,28.0469 22.75,27.7813 Q23.3438,27.5 23.9688,26.9219 L23.9688,29.6406 Z "/><text fill="#000000" font-family="sans-serif" font-size="12" lengthAdjust="spacingAndGlyphs" textLength="103" x="35" y="28.1543">ScriptableObject</text><line style="stroke: #A80036; stroke-width: 1.5;" x1="7" x2="140" y1="40" y2="40"/><line style="stroke: #A80036; stroke-width: 1.5;" x1="7" x2="140" y1="48" y2="48"/><!--MD5=[56a9f302b39675cacb21b9f16a6b619c]
reverse link ScriptableObject to InputParser--><path d="M73.5,76.02 C73.5,89.58 73.5,104.04 73.5,115.68 " fill="none" id="ScriptableObject&lt;-InputParser" style="stroke: #A80036; stroke-width: 1.0;"/><polygon fill="none" points="66.5,76,73.5,56,80.5,76,66.5,76" style="stroke: #A80036; stroke-width: 1.0;"/><!--MD5=[fd7d9b03656d7a10b205ca527db1a6a5]
@startuml
abstract class InputParser {
}
ScriptableObject <|- - InputParser
@enduml

PlantUML version 1.2020.02(Sun Mar 01 10:22:07 GMT 2020)
(GPL source distribution)
Java Runtime: OpenJDK Runtime Environment
JVM: OpenJDK 64-Bit Server VM
Java Version: 11.0.9+11-Ubuntu-0ubuntu1
Operating System: Linux
Default Encoding: ANSI_X3.4-1968
Language: en
Country: US
--></g></svg>