<?xml version="1.0" encoding="UTF-8" standalone="no"?><svg xmlns="http://www.w3.org/2000/svg" xmlns:xlink="http://www.w3.org/1999/xlink" contentScriptType="application/ecmascript" contentStyleType="text/css" height="130px" preserveAspectRatio="none" style="width:769px;height:130px;" version="1.1" viewBox="0 0 769 130" width="769px" zoomAndPan="magnify"><defs><filter height="300%" id="f4py71lq9vfif" width="300%" x="-1" y="-1"><feGaussianBlur result="blurOut" stdDeviation="2.0"/><feColorMatrix in="blurOut" result="blurOut2" type="matrix" values="0 0 0 0 0 0 0 0 0 0 0 0 0 0 0 0 0 0 .4 0"/><feOffset dx="4.0" dy="4.0" in="blurOut2" result="blurOut3"/><feBlend in="SourceGraphic" in2="blurOut3" mode="normal"/></filter></defs><g><!--MD5=[42440d41c1931cbe22c097c13345aed3]
class CommandBasedInputField`1--><rect fill="#FEFECE" filter="url(#f4py71lq9vfif)" height="112.0234" id="CommandBasedInputField`1" style="stroke: #A80036; stroke-width: 1.5;" width="748" x="7" y="7"/><ellipse cx="283.25" cy="23" fill="#ADD1B2" rx="11" ry="11" style="stroke: #A80036; stroke-width: 1.0;"/><path d="M286.2188,28.6406 Q285.6406,28.9375 285,29.0781 Q284.3594,29.2344 283.6563,29.2344 Q281.1563,29.2344 279.8281,27.5938 Q278.5156,25.9375 278.5156,22.8125 Q278.5156,19.6875 279.8281,18.0313 Q281.1563,16.375 283.6563,16.375 Q284.3594,16.375 285,16.5313 Q285.6563,16.6875 286.2188,16.9844 L286.2188,19.7031 Q285.5938,19.125 285,18.8594 Q284.4063,18.5781 283.7813,18.5781 Q282.4375,18.5781 281.75,19.6563 Q281.0625,20.7188 281.0625,22.8125 Q281.0625,24.9063 281.75,25.9844 Q282.4375,27.0469 283.7813,27.0469 Q284.4063,27.0469 285,26.7813 Q285.5938,26.5 286.2188,25.9219 L286.2188,28.6406 Z "/><text fill="#000000" font-family="sans-serif" font-size="12" lengthAdjust="spacingAndGlyphs" textLength="176" x="303.75" y="27.1543">CommandBasedInputField`1</text><rect fill="#FFFFFF" height="15.9688" style="stroke: #000000; stroke-width: 1.0; stroke-dasharray: 2.0,2.0;" width="9" x="749" y="4"/><text fill="#000000" font-family="sans-serif" font-size="12" font-style="italic" lengthAdjust="spacingAndGlyphs" textLength="7" x="750" y="16.1387">T</text><line style="stroke: #A80036; stroke-width: 1.5;" x1="8" x2="754" y1="39" y2="39"/><line style="stroke: #A80036; stroke-width: 1.5;" x1="8" x2="754" y1="47" y2="47"/><ellipse cx="18" cy="58" fill="#84BE84" rx="3" ry="3" style="stroke: #038048; stroke-width: 1.0;"/><text fill="#000000" font-family="sans-serif" font-size="11" lengthAdjust="spacingAndGlyphs" textLength="722" x="27" y="61.2104">CommandBasedInputField(inputField:TMP_InputField, parser:IInputParser&lt;T&gt;, validator:IFieldValidator&lt;T&gt;, callback:Action&lt;T&gt;)</text><ellipse cx="18" cy="70.8047" fill="#84BE84" rx="3" ry="3" style="stroke: #038048; stroke-width: 1.0;"/><text fill="#000000" font-family="sans-serif" font-size="11" lengthAdjust="spacingAndGlyphs" textLength="159" x="27" y="74.0151">LoadValueFromSave() : bool</text><ellipse cx="18" cy="83.6094" fill="#84BE84" rx="3" ry="3" style="stroke: #038048; stroke-width: 1.0;"/><text fill="#000000" font-family="sans-serif" font-size="11" lengthAdjust="spacingAndGlyphs" textLength="161" x="27" y="86.8198">Poke(newValue:string) : void</text><ellipse cx="18" cy="96.4141" fill="#84BE84" rx="3" ry="3" style="stroke: #038048; stroke-width: 1.0;"/><text fill="#000000" font-family="sans-serif" font-size="11" lengthAdjust="spacingAndGlyphs" textLength="283" x="27" y="99.6245">Poke(newValue:string, pushCommand:bool) : void</text><ellipse cx="18" cy="109.2188" fill="#84BE84" rx="3" ry="3" style="stroke: #038048; stroke-width: 1.0;"/><text fill="#000000" font-family="sans-serif" font-size="11" lengthAdjust="spacingAndGlyphs" textLength="292" x="27" y="112.4292">BindToShader(shaderBinding:ShaderBinding) : void</text><!--MD5=[2e77a61594463bd8e325be9269d6d149]
@startuml
class "CommandBasedInputField`1"<T> {
    + CommandBasedInputField(inputField:TMP_InputField, parser:IInputParser<T>, validator:IFieldValidator<T>, callback:Action<T>)
    + LoadValueFromSave() : bool
    + Poke(newValue:string) : void
    + Poke(newValue:string, pushCommand:bool) : void
    + BindToShader(shaderBinding:ShaderBinding) : void
}
@enduml

PlantUML version 1.2020.02(Sun Mar 01 10:22:07 GMT 2020)
(GPL source distribution)
Java Runtime: OpenJDK Runtime Environment
JVM: OpenJDK 64-Bit Server VM
Java Version: 11.0.9+11-Ubuntu-0ubuntu1
Operating System: Linux
Default Encoding: ANSI_X3.4-1968
Language: en
Country: US
--></g></svg>