<?xml version="1.0" encoding="UTF-8" standalone="no"?><svg xmlns="http://www.w3.org/2000/svg" xmlns:xlink="http://www.w3.org/1999/xlink" contentScriptType="application/ecmascript" contentStyleType="text/css" height="296px" preserveAspectRatio="none" style="width:318px;height:296px;" version="1.1" viewBox="0 0 318 296" width="318px" zoomAndPan="magnify"><defs><filter height="300%" id="fmolhekr9fa8u" width="300%" x="-1" y="-1"><feGaussianBlur result="blurOut" stdDeviation="2.0"/><feColorMatrix in="blurOut" result="blurOut2" type="matrix" values="0 0 0 0 0 0 0 0 0 0 0 0 0 0 0 0 0 0 .4 0"/><feOffset dx="4.0" dy="4.0" in="blurOut2" result="blurOut3"/><feBlend in="SourceGraphic" in2="blurOut3" mode="normal"/></filter></defs><g><!--MD5=[2cfebe83864049df15aa31fea70cfe83]
class CommandBasedDropdown--><rect fill="#FEFECE" filter="url(#fmolhekr9fa8u)" height="60.8047" id="CommandBasedDropdown" style="stroke: #A80036; stroke-width: 1.5;" width="278" x="29" y="116"/><ellipse cx="81.75" cy="132" fill="#ADD1B2" rx="11" ry="11" style="stroke: #A80036; stroke-width: 1.0;"/><path d="M84.7188,137.6406 Q84.1406,137.9375 83.5,138.0781 Q82.8594,138.2344 82.1563,138.2344 Q79.6563,138.2344 78.3281,136.5938 Q77.0156,134.9375 77.0156,131.8125 Q77.0156,128.6875 78.3281,127.0313 Q79.6563,125.375 82.1563,125.375 Q82.8594,125.375 83.5,125.5313 Q84.1563,125.6875 84.7188,125.9844 L84.7188,128.7031 Q84.0938,128.125 83.5,127.8594 Q82.9063,127.5781 82.2813,127.5781 Q80.9375,127.5781 80.25,128.6563 Q79.5625,129.7188 79.5625,131.8125 Q79.5625,133.9063 80.25,134.9844 Q80.9375,136.0469 82.2813,136.0469 Q82.9063,136.0469 83.5,135.7813 Q84.0938,135.5 84.7188,134.9219 L84.7188,137.6406 Z "/><text fill="#000000" font-family="sans-serif" font-size="12" lengthAdjust="spacingAndGlyphs" textLength="164" x="102.25" y="136.1543">CommandBasedDropdown</text><line style="stroke: #A80036; stroke-width: 1.5;" x1="30" x2="306" y1="148" y2="148"/><line style="stroke: #A80036; stroke-width: 1.5;" x1="30" x2="306" y1="156" y2="156"/><ellipse cx="40" cy="167" fill="#84BE84" rx="3" ry="3" style="stroke: #038048; stroke-width: 1.0;"/><text fill="#000000" font-family="sans-serif" font-size="11" lengthAdjust="spacingAndGlyphs" textLength="252" x="49" y="170.2104">PokeDropdownDetection(newValue:int) : void</text><!--MD5=[3db59899eb5beb210f00fd86984190c5]
class UnityEvent`1--><rect fill="#FEFECE" filter="url(#fmolhekr9fa8u)" height="48" id="UnityEvent`1" style="stroke: #A80036; stroke-width: 1.5;" width="123" x="106.5" y="237"/><ellipse cx="121.5" cy="253" fill="#ADD1B2" rx="11" ry="11" style="stroke: #A80036; stroke-width: 1.0;"/><path d="M124.4688,258.6406 Q123.8906,258.9375 123.25,259.0781 Q122.6094,259.2344 121.9063,259.2344 Q119.4063,259.2344 118.0781,257.5938 Q116.7656,255.9375 116.7656,252.8125 Q116.7656,249.6875 118.0781,248.0313 Q119.4063,246.375 121.9063,246.375 Q122.6094,246.375 123.25,246.5313 Q123.9063,246.6875 124.4688,246.9844 L124.4688,249.7031 Q123.8438,249.125 123.25,248.8594 Q122.6563,248.5781 122.0313,248.5781 Q120.6875,248.5781 120,249.6563 Q119.3125,250.7188 119.3125,252.8125 Q119.3125,254.9063 120,255.9844 Q120.6875,257.0469 122.0313,257.0469 Q122.6563,257.0469 123.25,256.7813 Q123.8438,256.5 124.4688,255.9219 L124.4688,258.6406 Z "/><text fill="#000000" font-family="sans-serif" font-size="12" lengthAdjust="spacingAndGlyphs" textLength="80" x="135.5" y="257.1543">UnityEvent`1</text><rect fill="#FFFFFF" height="15.9688" style="stroke: #000000; stroke-width: 1.0; stroke-dasharray: 2.0,2.0;" width="9" x="223.5" y="234"/><text fill="#000000" font-family="sans-serif" font-size="12" font-style="italic" lengthAdjust="spacingAndGlyphs" textLength="7" x="224.5" y="246.1387">T</text><line style="stroke: #A80036; stroke-width: 1.5;" x1="107.5" x2="228.5" y1="269" y2="269"/><line style="stroke: #A80036; stroke-width: 1.5;" x1="107.5" x2="228.5" y1="277" y2="277"/><!--MD5=[83b3cf3d23d77c6f1e1b5291a241bc2a]
class MonoBehaviour--><rect fill="#FEFECE" filter="url(#fmolhekr9fa8u)" height="48" id="MonoBehaviour" style="stroke: #A80036; stroke-width: 1.5;" width="128" x="104" y="8"/><ellipse cx="119" cy="24" fill="#ADD1B2" rx="11" ry="11" style="stroke: #A80036; stroke-width: 1.0;"/><path d="M121.9688,29.6406 Q121.3906,29.9375 120.75,30.0781 Q120.1094,30.2344 119.4063,30.2344 Q116.9063,30.2344 115.5781,28.5938 Q114.2656,26.9375 114.2656,23.8125 Q114.2656,20.6875 115.5781,19.0313 Q116.9063,17.375 119.4063,17.375 Q120.1094,17.375 120.75,17.5313 Q121.4063,17.6875 121.9688,17.9844 L121.9688,20.7031 Q121.3438,20.125 120.75,19.8594 Q120.1563,19.5781 119.5313,19.5781 Q118.1875,19.5781 117.5,20.6563 Q116.8125,21.7188 116.8125,23.8125 Q116.8125,25.9063 117.5,26.9844 Q118.1875,28.0469 119.5313,28.0469 Q120.1563,28.0469 120.75,27.7813 Q121.3438,27.5 121.9688,26.9219 L121.9688,29.6406 Z "/><text fill="#000000" font-family="sans-serif" font-size="12" lengthAdjust="spacingAndGlyphs" textLength="96" x="133" y="28.1543">MonoBehaviour</text><line style="stroke: #A80036; stroke-width: 1.5;" x1="105" x2="231" y1="40" y2="40"/><line style="stroke: #A80036; stroke-width: 1.5;" x1="105" x2="231" y1="48" y2="48"/><!--MD5=[95bc3146eea74a5ab82c07b84614994b]
reverse link MonoBehaviour to CommandBasedDropdown--><path d="M168,76.11 C168,89.31 168,103.54 168,115.65 " fill="none" id="MonoBehaviour&lt;-CommandBasedDropdown" style="stroke: #A80036; stroke-width: 1.0;"/><polygon fill="none" points="161,76.04,168,56.04,175,76.04,161,76.04" style="stroke: #A80036; stroke-width: 1.0;"/><!--MD5=[09933a1f46bd0faa368d104defff37fa]
link CommandBasedDropdown to UnityEvent`1--><path d="M168,177.06 C168,193.93 168,214.98 168,231.65 " fill="none" id="CommandBasedDropdown-&gt;UnityEvent`1" style="stroke: #A80036; stroke-width: 1.0;"/><polygon fill="#A80036" points="168,236.67,172,227.67,168,231.67,164,227.67,168,236.67" style="stroke: #A80036; stroke-width: 1.0;"/><text fill="#000000" font-family="sans-serif" font-size="13" lengthAdjust="spacingAndGlyphs" textLength="147" x="3.0844" y="225.9945">onValueChanged&lt;int&gt;</text><!--MD5=[c3a82917ddeede771ebe8e1bd916d5b1]
@startuml
class CommandBasedDropdown {
    + PokeDropdownDetection(newValue:int) : void
}
class "UnityEvent`1"<T> {
}
MonoBehaviour <|- - CommandBasedDropdown
CommandBasedDropdown - -> "onValueChanged<int>" "UnityEvent`1"
@enduml

PlantUML version 1.2020.02(Sun Mar 01 10:22:07 GMT 2020)
(GPL source distribution)
Java Runtime: OpenJDK Runtime Environment
JVM: OpenJDK 64-Bit Server VM
Java Version: 11.0.9+11-Ubuntu-0ubuntu1
Operating System: Linux
Default Encoding: ANSI_X3.4-1968
Language: en
Country: US
--></g></svg>